<svg width="256" height="256" viewBox="0 0 256 256" fill="none" xmlns="http://www.w3.org/2000/svg">
<path opacity="0.7" d="M34.7794 85.5501C34.7794 85.5501 20.5048 122.414 40.565 159.534C60.6251 196.654 101.944 216.264 135.014 233.032C168.084 249.8 202.424 241.633 218.741 214.17C235.058 186.706 212.679 167.101 212.648 127.939C212.617 88.7757 218.511 78.4077 197.288 45.3223C176.066 12.2368 124.041 4.91009 84.6994 29.4503C45.3573 53.9904 34.7794 85.5501 34.7794 85.5501Z" fill="white"/>
<path d="M99.3276 12.4984C81.9196 15.3605 65.295 21.6683 51.1535 32.5688C30.5814 48.4408 19.174 72.131 17.981 97.9102C17.1977 114.929 21.2578 131.523 26.173 147.682C32.4809 168.448 36.5564 192.149 49.7404 209.92C70.2716 237.568 109.946 249.232 143.129 244.286C164.567 241.086 187.218 228.926 193.817 206.91C196.259 198.764 197.447 190.014 201.62 182.482C206.622 173.461 215.69 168.192 222.576 160.845C231.086 151.773 234.511 140.468 236.631 128.512C241.269 102.339 234.936 74.6142 219.642 52.9003C203.683 30.2494 180.009 18.0843 153.129 13.3125C150.179 12.8005 147.215 12.3448 144.24 11.971C129.474 10.1125 114.124 10.051 99.3276 12.4984Z" fill="#007AEC"/>
<path opacity="0.7" d="M99.3276 12.4984C81.9196 15.3605 65.295 21.6683 51.1535 32.5688C30.5814 48.4408 19.174 72.131 17.981 97.9102C17.1977 114.929 21.2578 131.523 26.173 147.682C32.4809 168.448 36.5564 192.149 49.7404 209.92C70.2716 237.568 109.946 249.232 143.129 244.286C164.567 241.086 187.218 228.926 193.817 206.91C196.259 198.764 197.447 190.014 201.62 182.482C206.622 173.461 215.69 168.192 222.576 160.845C231.086 151.773 234.511 140.468 236.631 128.512C241.269 102.339 234.936 74.6142 219.642 52.9003C203.683 30.2494 180.009 18.0843 153.129 13.3125C150.179 12.8005 147.215 12.3448 144.24 11.971C129.474 10.1125 114.124 10.051 99.3276 12.4984Z" fill="white"/>
<path opacity="0.2" d="M103.055 195.922L145.919 187.93C145.919 187.93 155.617 218.527 157.572 222.485L156.548 224.886L157.194 228.905L114.595 238.592L111.18 235.899L103.055 195.922Z" fill="black" fill-opacity="0.7"/>
<path d="M142.806 184.65L101.368 194.461L111.179 235.898L152.616 226.088L142.806 184.65Z" fill="#007AEC"/>
<path opacity="0.2" d="M145.454 195.83L152.33 224.866L112.814 234.22C108.052 222.306 104.412 207.304 104.412 207.304L145.454 195.83Z" fill="black" fill-opacity="0.7"/>
<path d="M142.806 184.65L101.368 194.461L111.179 235.898L152.616 226.088L142.806 184.65Z" stroke="#263238" stroke-linecap="round" stroke-linejoin="round"/>
<path d="M153.912 223.448C143.554 225.9 128.885 228.204 120.038 229.505C115.43 230.18 112.358 230.58 112.358 230.58C108.436 223.412 101.36 194.463 101.36 194.463L142.797 184.653C142.878 185.007 142.95 185.36 143.027 185.708C147.968 208.098 153.912 223.448 153.912 223.448Z" fill="white"/>
<path opacity="0.4" d="M153.912 223.448C143.555 225.9 128.886 228.204 120.038 229.504C113.382 225.086 111.79 220.754 111.872 216.623C111.959 211.718 133.33 216.51 137.795 211.651C140.979 208.185 140.867 193.475 143.038 185.708C147.968 208.098 153.912 223.448 153.912 223.448Z" fill="#007AEC"/>
<path d="M153.912 223.448C143.554 225.9 128.885 228.204 120.038 229.505C115.43 230.18 112.358 230.58 112.358 230.58C108.436 223.412 101.36 194.463 101.36 194.463L142.797 184.653C142.878 185.007 142.95 185.36 143.027 185.708C147.968 208.098 153.912 223.448 153.912 223.448Z" stroke="#263238" stroke-linecap="round" stroke-linejoin="round"/>
<path d="M108.364 200.73C108.926 200.075 109.601 199.525 110.356 199.107L110.97 200.684L113.116 199.906C113.832 199.645 114.652 199.307 114.902 198.595C115.297 199.532 116.659 199.373 117.626 199.066C124.326 196.909 131.17 195.228 138.106 194.033" stroke="#263238" stroke-linecap="round" stroke-linejoin="round"/>
<path d="M109.404 206.464C108.959 206.234 109.327 205.44 109.829 205.471C110.331 205.502 110.653 206.055 110.694 206.557C110.916 206.532 111.125 206.438 111.29 206.289C111.456 206.139 111.57 205.94 111.616 205.722L112.328 206.234C112.268 206.146 112.228 206.046 112.208 205.942C112.189 205.837 112.191 205.73 112.215 205.626C112.239 205.523 112.284 205.425 112.347 205.339C112.41 205.254 112.489 205.182 112.581 205.128C112.673 205.075 112.775 205.04 112.88 205.028C112.986 205.015 113.093 205.024 113.195 205.054C113.297 205.084 113.391 205.135 113.473 205.203C113.555 205.271 113.621 205.356 113.669 205.451C113.618 204.867 113.843 204.027 114.411 204.16C114.589 204.233 114.75 204.339 114.888 204.473C115.061 204.578 115.257 204.642 115.46 204.657C115.662 204.673 115.865 204.64 116.053 204.562C116.241 204.485 116.407 204.364 116.539 204.209C116.671 204.055 116.765 203.871 116.813 203.674C117.371 204.309 118.349 204.222 119.204 204.078L126.658 202.809C126.73 202.338 126.966 201.734 127.437 201.785C127.708 201.826 127.887 202.087 128.123 202.23C128.486 202.382 128.892 202.397 129.264 202.271C132.623 201.544 135.918 200.552 139.12 199.307" stroke="#263238" stroke-linecap="round" stroke-linejoin="round"/>
<path d="M111.974 212.992C112.97 213.08 113.972 212.941 114.907 212.588C114.742 212.238 114.7 211.843 114.788 211.466C114.877 211.09 115.09 210.754 115.394 210.514L116.295 211.093C119.924 211.007 123.531 210.509 127.047 209.608C128.619 209.209 130.175 208.722 131.727 208.236L140.564 205.481" stroke="#263238" stroke-linecap="round" stroke-linejoin="round"/>
<path opacity="0.2" d="M180.45 31.4933L179.625 31.5445C179.246 31.5885 178.863 31.495 178.546 31.2808C178.23 31.0666 178 30.746 177.9 30.3771C176.64 25.7947 172.032 23.2194 166.713 23.5522C161.91 23.8491 156.847 26.8802 153.913 31.0683C153.552 31.6173 153.075 32.0797 152.514 32.4223C151.954 32.7649 151.325 32.9792 150.672 33.0498L146.576 33.3058C146.017 33.3575 145.455 33.2281 144.975 32.9368C144.495 32.6456 144.121 32.2077 143.908 31.6879C142.255 27.7813 138.061 25.3288 133.254 25.6258C127.924 25.9535 122.415 29.1535 119.675 33.9867C119.459 34.3757 119.152 34.7068 118.78 34.9519C118.408 35.197 117.983 35.3489 117.54 35.3947L116.716 35.4459C116.523 35.4672 116.341 35.5505 116.199 35.6834C116.057 35.8163 115.962 35.9917 115.927 36.1832L115.605 38.2312C115.585 38.2999 115.58 38.372 115.59 38.4428C115.6 38.5135 115.624 38.5815 115.662 38.6423C115.699 38.703 115.749 38.7553 115.808 38.7956C115.867 38.8359 115.934 38.8634 116.004 38.8763L116.998 39.1784C117.383 39.293 117.716 39.5381 117.94 39.8716C118.164 40.2051 118.266 40.6063 118.226 41.0063C117.878 47.565 122.507 52.3829 129.096 51.9784C135.45 51.5842 141.497 46.4539 143.473 40.1307C143.64 39.6188 143.931 39.1563 144.321 38.7846C144.711 38.4129 145.186 38.1436 145.705 38.0008C147.114 37.6297 148.58 37.5255 150.027 37.6936C150.488 37.7473 150.912 37.9725 151.214 38.3245C151.517 38.6764 151.676 39.1293 151.66 39.5931C151.66 45.8139 156.181 50.2991 162.545 49.9048C169.145 49.5055 175.401 44.0322 177.152 37.3762C177.278 36.9154 177.51 36.4904 177.829 36.1348C178.148 35.7793 178.546 35.5031 178.991 35.3282L180.102 34.9032C180.257 34.8503 180.395 34.7569 180.502 34.6327C180.609 34.5085 180.681 34.358 180.711 34.1967L181.039 32.1487C181.065 32.0638 181.069 31.9735 181.05 31.8867C181.031 31.7998 180.99 31.7193 180.931 31.6532C180.871 31.5871 180.796 31.5375 180.711 31.5095C180.627 31.4815 180.537 31.4759 180.45 31.4933ZM129.378 50.2479C123.234 50.6267 119.081 45.8037 120.075 39.4959C121.068 33.188 126.864 27.7199 132.992 27.3666C139.121 27.0133 143.289 31.8107 142.29 38.1186C141.292 44.4264 135.506 49.869 129.378 50.2479ZM144.118 36.7874C144.142 36.446 144.152 36.0928 144.149 35.7275C144.155 35.5816 144.213 35.4427 144.313 35.3358C144.412 35.2288 144.547 35.1608 144.692 35.1439L152.023 34.6933C152.087 34.6873 152.151 34.6979 152.21 34.7241C152.268 34.7503 152.318 34.7913 152.356 34.8429C152.394 34.8946 152.417 34.9551 152.425 35.0187C152.432 35.0822 152.422 35.1465 152.397 35.2053C152.285 35.5586 152.182 35.9119 152.09 36.2703C148.936 35.3538 145.787 36.1781 144.118 36.7874ZM162.816 48.1743C156.672 48.5531 152.52 43.7301 153.519 37.4223C154.517 31.1144 160.303 25.6463 166.431 25.293C172.56 24.9397 176.727 29.7371 175.734 36.045C174.741 42.3528 168.96 47.7954 162.816 48.1743Z" fill="black" fill-opacity="0.7"/>
<path d="M175.191 32.7686L128.21 39.0047C127.1 39.152 126.034 39.5302 125.08 40.1149C124.126 40.6996 123.305 41.4778 122.67 42.3993L115.794 52.4037C115.731 52.4968 115.689 52.6028 115.673 52.7139C115.657 52.825 115.665 52.9385 115.699 53.0457C115.732 53.153 115.79 53.2513 115.866 53.3334C115.943 53.4155 116.037 53.4792 116.142 53.5199C116.602 53.697 117.109 53.7135 117.58 53.5667C118.052 53.4199 118.459 53.1184 118.738 52.7109L125.097 43.495C125.475 42.9432 125.964 42.4762 126.533 42.1237C127.101 41.7711 127.737 41.5406 128.399 41.447L175.36 34.791L175.191 32.7686Z" fill="#263238"/>
<path d="M111.811 36.7207L159.191 35.9373C160.311 35.9215 161.423 36.1413 162.453 36.5823C163.483 37.0233 164.409 37.6757 165.171 38.4973L173.455 47.3754C173.532 47.4576 173.588 47.556 173.621 47.6633C173.654 47.7706 173.662 47.884 173.645 47.9948C173.628 48.1057 173.586 48.2112 173.522 48.3035C173.458 48.3957 173.374 48.4723 173.276 48.5274C172.847 48.7717 172.349 48.8642 171.861 48.7899C171.373 48.7156 170.925 48.4788 170.588 48.1178L162.934 39.9258C162.476 39.4349 161.921 39.0448 161.304 38.7803C160.686 38.5159 160.021 38.3829 159.35 38.3898L111.918 38.7482L111.811 36.7207Z" fill="#263238"/>
<path d="M140.528 39.7366C141.112 39.8441 141.086 43.8326 139.765 45.1791C138.445 46.5257 137.093 43.2489 137.436 42.0713C137.779 40.8937 138.7 39.3884 140.528 39.7366Z" fill="#007AEC" stroke="#263238" stroke-linecap="round" stroke-linejoin="round"/>
<path d="M148.761 39.2245C148.198 39.4088 148.715 43.3205 150.19 44.5339C151.665 45.7473 152.607 42.2862 152.12 41.1649C151.634 40.0437 150.528 38.6561 148.761 39.2245Z" fill="#007AEC" stroke="#263238" stroke-linecap="round" stroke-linejoin="round"/>
<path opacity="0.5" d="M119.409 30.4026C121.887 28.2829 127.135 24.6733 132.88 28.1088C138.624 31.5443 140.606 35.2768 139.428 40.3302C138.251 45.3837 134.631 52.1421 126.116 50.9645C117.602 49.7869 111.714 36.9869 119.409 30.4026Z" fill="#007AEC"/>
<path opacity="0.5" d="M152.909 28.7699C155.387 26.6502 160.63 23.0355 166.374 26.471C172.119 29.9065 174.105 33.639 172.923 38.6924C171.74 43.7459 168.13 50.5043 159.611 49.3267C151.091 48.1491 145.208 35.3286 152.909 28.7699Z" fill="#007AEC"/>
<path d="M176.169 32.0518L175.345 32.103C174.936 32.13 174.529 32.0373 174.173 31.8363C173.816 31.6353 173.526 31.3348 173.338 30.9715C171.054 26.5273 165.827 24.039 160.497 24.3667C158.143 24.5202 155.867 25.2736 153.886 26.5551C151.906 27.8367 150.286 29.6038 149.181 31.6883C148.916 32.2302 148.514 32.6934 148.015 33.032C147.516 33.3706 146.936 33.5728 146.335 33.6185L142.239 33.8694C141.635 33.9011 141.033 33.7736 140.494 33.4995C139.955 33.2254 139.497 32.8145 139.167 32.3078C137.813 30.3756 135.987 28.822 133.863 27.7949C131.739 26.7679 129.388 26.3015 127.032 26.4403C121.702 26.7731 116.823 29.886 115.108 34.5811C114.965 34.9644 114.714 35.2979 114.385 35.5406C114.056 35.7834 113.663 35.925 113.254 35.9481L112.43 35.9993C112.25 36.0111 112.083 36.0938 111.964 36.2291C111.845 36.3644 111.784 36.5414 111.795 36.7212L111.918 38.7231C111.929 38.8728 111.988 39.015 112.087 39.1278C112.186 39.2406 112.319 39.3179 112.466 39.3478L113.541 39.6345C113.958 39.7401 114.336 39.9631 114.63 40.2771C114.924 40.5911 115.122 40.9829 115.2 41.406C115.688 44.4936 117.29 47.2957 119.702 49.2838C122.114 51.272 125.17 52.3087 128.294 52.1985C131.418 52.0883 134.394 50.8387 136.66 48.6855C138.926 46.5323 140.326 43.6243 140.595 40.51C140.651 40.0265 140.853 39.5716 141.174 39.2057C141.495 38.8399 141.92 38.5805 142.392 38.462C143.798 38.091 145.26 37.9868 146.703 38.1548C147.192 38.2175 147.649 38.4275 148.015 38.7568C148.381 39.0861 148.638 39.5191 148.751 39.998C149.388 43.0708 151.132 45.8025 153.651 47.6741C156.169 49.5458 159.288 50.4269 162.414 50.1502C165.54 49.8734 168.455 48.458 170.606 46.1729C172.757 43.8879 173.993 40.8923 174.08 37.7555C174.103 37.3276 174.249 36.9154 174.499 36.5677C174.75 36.2201 175.095 35.9517 175.493 35.7945L176.517 35.3747C176.659 35.3268 176.781 35.2339 176.866 35.11C176.95 34.9861 176.991 34.8381 176.983 34.6886L176.855 32.6867C176.846 32.5124 176.769 32.3486 176.641 32.23C176.513 32.1115 176.343 32.0475 176.169 32.0518ZM128.512 50.3455C126.314 50.4824 124.124 49.964 122.221 48.856C120.317 47.7479 118.785 46.1001 117.819 44.121C116.852 42.1418 116.494 39.9204 116.791 37.7379C117.087 35.5554 118.025 33.5099 119.484 31.8604C120.944 30.2108 122.86 29.0313 124.99 28.4712C127.12 27.9111 129.368 27.9956 131.451 28.7139C133.533 29.4322 135.355 30.7521 136.686 32.5065C138.018 34.2609 138.799 36.3709 138.931 38.5695C139.104 41.511 138.104 44.4011 136.152 46.6078C134.199 48.8145 131.453 50.1584 128.512 50.3455ZM140.493 37.2588C140.437 36.9107 140.37 36.5676 140.288 36.2348C140.272 36.1689 140.271 36.1004 140.285 36.034C140.298 35.9676 140.326 35.9051 140.367 35.8508C140.408 35.7965 140.46 35.7519 140.519 35.72C140.579 35.6881 140.645 35.6699 140.713 35.6665L148.045 35.2108C148.114 35.2026 148.184 35.2102 148.25 35.233C148.316 35.2558 148.376 35.2933 148.425 35.3426C148.474 35.3919 148.512 35.4517 148.535 35.5175C148.558 35.5834 148.565 35.6536 148.557 35.7228C148.521 36.0607 148.495 36.4089 148.48 36.7468C145.834 36.0876 143.048 36.2665 140.508 37.2588H140.493ZM161.966 48.2719C159.768 48.4088 157.578 47.8904 155.675 46.7824C153.771 45.6743 152.239 44.0265 151.273 42.0473C150.306 40.0682 149.948 37.8468 150.245 35.6643C150.541 33.4818 151.479 31.4363 152.938 29.7868C154.398 28.1372 156.314 26.9577 158.444 26.3976C160.574 25.8375 162.822 25.922 164.905 26.6403C166.987 27.3586 168.809 28.6785 170.141 30.4329C171.472 32.1873 172.253 34.2973 172.385 36.4959C172.559 39.4352 171.563 42.3238 169.613 44.5305C167.664 46.7371 164.92 48.0822 161.981 48.2719H161.966Z" fill="#757575" stroke="#263238" stroke-linecap="round" stroke-linejoin="round"/>
<path opacity="0.4" d="M120.32 46.4079C120.32 46.4079 116.224 40.9859 119.112 34.6883C121.718 29.0255 127.816 28.3804 130.709 29.5683L124.416 40.5865C124.995 37.8952 125.862 35.274 127.002 32.7683C127.002 32.7683 121.441 38.4003 120.32 46.4079Z" fill="white"/>
<path opacity="0.4" d="M153.692 44.0318C153.692 44.0318 149.596 38.6148 152.484 32.3172C155.09 26.6494 161.188 26.0043 164.076 27.1972L157.763 38.195C158.239 34.2475 160.374 30.387 160.374 30.387C160.374 30.387 154.808 36.0139 153.692 44.0318Z" fill="white"/>
<path opacity="0.2" d="M33.5874 139.694L35.0722 146.366L36.7669 138.814L32.3125 63.3809H29.2764L33.5874 139.694Z" fill="black" fill-opacity="0.7"/>
<path d="M30.8737 62.464L35.0721 138.342L33.5361 144.584L31.314 138.552L27.1054 62.6688C27.0956 62.5425 27.1112 62.4155 27.1512 62.2952C27.1911 62.175 27.2547 62.0639 27.3382 61.9685C27.4216 61.8732 27.5233 61.7954 27.6371 61.7398C27.751 61.6842 27.8748 61.6519 28.0014 61.6448L29.8702 61.5424C29.9969 61.5355 30.1238 61.5541 30.2433 61.5969C30.3627 61.6398 30.4725 61.7061 30.566 61.7919C30.6595 61.8778 30.7348 61.9815 30.7877 62.0969C30.8405 62.2123 30.8698 62.3371 30.8737 62.464Z" fill="#007AEC"/>
<path opacity="0.2" d="M33.5258 144.583L31.3038 138.552L27.1054 62.6685C27.0956 62.5422 27.1112 62.4152 27.1512 62.2949C27.1911 62.1747 27.2547 62.0636 27.3382 61.9682C27.4216 61.8729 27.5233 61.7951 27.6371 61.7395C27.751 61.684 27.8748 61.6517 28.0014 61.6445H28.2625L32.4916 138.081L33.5258 144.583Z" fill="black" fill-opacity="0.7"/>
<path d="M30.8737 62.464L35.0721 138.342L33.5361 144.584L31.314 138.552L27.1054 62.6688C27.0956 62.5425 27.1112 62.4155 27.1512 62.2952C27.1911 62.175 27.2547 62.0639 27.3382 61.9685C27.4216 61.8732 27.5233 61.7954 27.6371 61.7398C27.751 61.6842 27.8748 61.6519 28.0014 61.6448L29.8702 61.5424C29.9969 61.5355 30.1238 61.5541 30.2433 61.5969C30.3627 61.6398 30.4725 61.7061 30.566 61.7919C30.6595 61.8778 30.7348 61.9815 30.7877 62.0969C30.8405 62.2123 30.8698 62.3371 30.8737 62.464V62.464Z" stroke="#263238" stroke-linecap="round" stroke-linejoin="round"/>
<path d="M28.334 62.9756L32.43 137.466C32.4346 137.551 32.4558 137.634 32.4925 137.711C32.5293 137.787 32.5807 137.856 32.644 137.912C32.7073 137.969 32.7811 138.013 32.8612 138.041C32.9413 138.069 33.0262 138.081 33.1109 138.076H33.5615" fill="#007AEC"/>
<path d="M28.334 62.9756L32.43 137.466C32.4346 137.551 32.4558 137.634 32.4925 137.711C32.5293 137.787 32.5807 137.856 32.644 137.912C32.7073 137.969 32.7811 138.013 32.8612 138.041C32.9413 138.069 33.0262 138.081 33.1109 138.076H33.5615" stroke="#263238" stroke-linecap="round" stroke-linejoin="round"/>
<path opacity="0.2" d="M46.9758 153.836L60.8561 63.1451C61.2838 60.3569 62.8013 57.8528 65.0748 56.1832C67.3484 54.5135 70.1919 53.8151 72.9802 54.2414L206.259 74.6446C207.64 74.8552 208.966 75.3357 210.161 76.0588C211.356 76.7819 212.396 77.7333 213.224 78.8587C214.051 79.9841 214.649 81.2614 214.982 82.6178C215.316 83.9741 215.379 85.3829 215.168 86.7636L201.282 177.454C201.073 178.836 200.593 180.162 199.871 181.358C199.148 182.554 198.197 183.596 197.071 184.424C195.945 185.252 194.668 185.85 193.311 186.183C191.954 186.517 190.544 186.58 189.163 186.368L55.8794 165.96C53.0913 165.532 50.5872 164.015 48.9175 161.741C47.2479 159.467 46.5495 156.624 46.9758 153.836Z" fill="black" fill-opacity="0.7"/>
<path d="M57.6724 66.5566L58.7264 59.6684C58.7469 59.5342 58.82 59.4136 58.9294 59.3332C59.0388 59.2528 59.1757 59.2192 59.31 59.2398L62.215 59.6843L61.0069 67.5796L58.1018 67.1351C57.9685 67.1147 57.8485 67.0425 57.7681 66.9341C57.6877 66.8258 57.6533 66.6901 57.6724 66.5566Z" fill="#007AEC" stroke="#263238" stroke-linecap="round" stroke-linejoin="round"/>
<path d="M75.7178 52.0493L82.606 53.1034C82.7402 53.1239 82.8608 53.1969 82.9412 53.3064C83.0216 53.4158 83.0552 53.5527 83.0347 53.6869L82.5901 56.592L74.6948 55.3838L75.1394 52.4788C75.1598 52.3454 75.232 52.2255 75.3403 52.1451C75.4486 52.0647 75.5843 52.0303 75.7178 52.0493Z" fill="#007AEC" stroke="#263238" stroke-linecap="round" stroke-linejoin="round"/>
<path d="M85.1055 53.4829L91.9937 54.537C92.1279 54.5575 92.2485 54.6305 92.3289 54.74C92.4093 54.8494 92.4429 54.9863 92.4223 55.1205L91.9778 58.0256L84.0825 56.8174L84.527 53.9124C84.5474 53.779 84.6197 53.6591 84.728 53.5787C84.8363 53.4983 84.972 53.4638 85.1055 53.4829Z" fill="#007AEC" stroke="#263238" stroke-linecap="round" stroke-linejoin="round"/>
<path d="M45.4396 151.787L59.3199 61.0962C59.7477 58.3081 61.2652 55.804 63.5387 54.1343C65.8122 52.4647 68.6557 51.7663 71.4441 52.1926L204.723 72.5957C206.104 72.8063 207.429 73.2869 208.624 74.01C209.819 74.733 210.86 75.6844 211.688 76.8098C212.515 77.9352 213.112 79.2126 213.446 80.5689C213.78 81.9253 213.843 83.3341 213.632 84.7148L199.746 175.405C199.537 176.787 199.057 178.114 198.335 179.31C197.612 180.506 196.661 181.547 195.535 182.375C194.409 183.203 193.132 183.801 191.775 184.135C190.418 184.468 189.008 184.531 187.627 184.319L54.3433 163.911C51.5552 163.483 49.051 161.966 47.3814 159.692C45.7118 157.419 45.0133 154.575 45.4396 151.787Z" fill="#007AEC" stroke="#263238" stroke-linecap="round" stroke-linejoin="round"/>
<path d="M188.15 183.189L54.1797 162.683C52.9984 162.503 51.8642 162.092 50.8419 161.473C49.8196 160.855 48.9292 160.041 48.2216 159.078C47.5141 158.115 47.0032 157.022 46.7183 155.862C46.4334 154.701 46.38 153.496 46.5612 152.315L60.549 60.9281C60.9137 58.543 62.2109 56.4004 64.1553 54.9717C66.0996 53.5429 68.5319 52.945 70.917 53.3095L204.892 73.8151C207.277 74.1823 209.419 75.4809 210.847 77.4257C212.275 79.3706 212.874 81.8027 212.511 84.1882L198.523 175.57C198.342 176.751 197.931 177.886 197.312 178.908C196.692 179.931 195.878 180.821 194.915 181.528C193.951 182.236 192.858 182.747 191.697 183.032C190.537 183.316 189.331 183.37 188.15 183.189Z" fill="#757575" stroke="#263238" stroke-linecap="round" stroke-linejoin="round"/>
<path d="M55.8076 106.967C55.7906 107.066 55.7448 107.158 55.6759 107.231C55.6071 107.304 55.5182 107.356 55.4203 107.379C55.3225 107.402 55.22 107.395 55.1257 107.36C55.0314 107.326 54.9494 107.264 54.89 107.183C54.8306 107.102 54.7964 107.005 54.7916 106.905C54.7868 106.804 54.8117 106.705 54.8631 106.618C54.9146 106.532 54.9903 106.462 55.0809 106.419C55.1714 106.375 55.2728 106.359 55.3724 106.373C55.4405 106.382 55.506 106.405 55.565 106.44C55.6241 106.475 55.6754 106.522 55.716 106.578C55.7566 106.633 55.7857 106.696 55.8014 106.763C55.8171 106.83 55.8193 106.899 55.8076 106.967Z" fill="#999999" stroke="#263238" stroke-linecap="round" stroke-linejoin="round"/>
<path d="M55.5564 111.733C55.5048 111.984 55.3588 112.205 55.1487 112.351C54.9386 112.497 54.6803 112.557 54.4272 112.519C54.1742 112.48 53.9457 112.345 53.789 112.143C53.6323 111.94 53.5593 111.686 53.5852 111.431C53.6368 111.18 53.7827 110.959 53.9929 110.813C54.203 110.666 54.4613 110.607 54.7143 110.645C54.9674 110.684 55.1958 110.819 55.3525 111.021C55.5093 111.223 55.5822 111.478 55.5564 111.733Z" fill="#263238"/>
<path d="M57.3132 100.259C57.2616 100.51 57.1157 100.731 56.9055 100.878C56.6954 101.024 56.4371 101.084 56.1841 101.045C55.931 101.006 55.7026 100.872 55.5459 100.669C55.3891 100.467 55.3162 100.212 55.342 99.9572C55.3557 99.8225 55.3966 99.6919 55.4623 99.5736C55.528 99.4552 55.6171 99.3514 55.7241 99.2685C55.8312 99.1856 55.954 99.1254 56.0851 99.0914C56.2161 99.0575 56.3527 99.0506 56.4866 99.0711C56.6204 99.0916 56.7486 99.1391 56.8635 99.2107C56.9784 99.2824 57.0775 99.3766 57.1549 99.4878C57.2322 99.5989 57.2861 99.7246 57.3133 99.8572C57.3406 99.9899 57.3405 100.127 57.3132 100.259Z" fill="#263238"/>
<path d="M54.7835 114.954C54.7616 115.096 54.6981 115.228 54.601 115.334C54.5039 115.44 54.3776 115.515 54.238 115.549C54.0984 115.584 53.9518 115.576 53.8167 115.527C53.6816 115.478 53.5641 115.39 53.479 115.274C53.3939 115.158 53.345 115.019 53.3386 114.876C53.3322 114.732 53.3685 114.59 53.4429 114.467C53.5173 114.344 53.6265 114.246 53.7566 114.185C53.8868 114.124 54.0321 114.103 54.1742 114.124C54.2687 114.139 54.3595 114.172 54.4413 114.221C54.5231 114.271 54.5943 114.336 54.6509 114.413C54.7075 114.49 54.7483 114.577 54.7711 114.67C54.7938 114.763 54.7981 114.859 54.7835 114.954Z" fill="#263238"/>
<path d="M209.146 82.6156L194.846 176.066C194.666 177.244 194.025 178.301 193.065 179.007C192.105 179.713 190.904 180.008 189.726 179.829L77.4906 162.651L75.0586 162.303L65.9091 160.9L61.4803 160.225L55.0803 159.231L53.6826 159.016C52.5049 158.836 51.447 158.195 50.7413 157.235C50.0357 156.275 49.7401 155.074 49.9194 153.896L64.2247 60.4153C64.3134 59.832 64.5163 59.272 64.8217 58.7673C65.1272 58.2625 65.5293 57.823 66.0049 57.4739C66.4805 57.1248 67.0203 56.873 67.5934 56.7329C68.1665 56.5927 68.7616 56.567 69.3447 56.6572L111.242 63.0675L117.58 64.0403L123.637 64.967L131.42 66.1548L134.236 66.5849L205.404 77.4752C205.987 77.5668 206.546 77.7725 207.05 78.0805C207.554 78.3885 207.992 78.7927 208.34 79.27C208.687 79.7474 208.938 80.2886 209.076 80.8626C209.214 81.4367 209.238 82.0323 209.146 82.6156Z" fill="#263238"/>
<g opacity="0.1">
<path opacity="0.1" d="M103.936 161.791L56.32 154.506C56.0106 154.458 55.7328 154.289 55.5476 154.037C55.3623 153.784 55.2847 153.469 55.3318 153.159L60.0576 122.27C60.1067 121.96 60.2765 121.683 60.5297 121.497C60.7829 121.312 61.0991 121.235 61.4092 121.282L109.025 128.568C109.179 128.591 109.326 128.644 109.459 128.724C109.592 128.805 109.708 128.91 109.799 129.036C109.891 129.161 109.957 129.303 109.994 129.454C110.031 129.604 110.037 129.761 110.013 129.914L105.288 160.803C105.264 160.957 105.21 161.105 105.129 161.237C105.049 161.37 104.942 161.486 104.817 161.578C104.691 161.67 104.549 161.736 104.398 161.772C104.247 161.809 104.09 161.816 103.936 161.791ZM61.3632 121.692C61.2633 121.676 61.1614 121.681 61.0633 121.705C60.9652 121.729 60.8729 121.773 60.7916 121.833C60.7102 121.892 60.6415 121.968 60.5894 122.054C60.5372 122.141 60.5026 122.237 60.4876 122.337L55.7619 153.221C55.7466 153.32 55.7512 153.422 55.7754 153.52C55.7996 153.619 55.8429 153.711 55.9028 153.792C55.9627 153.874 56.0381 153.942 56.1246 153.994C56.2111 154.047 56.3071 154.081 56.407 154.096L103.997 161.382C104.097 161.397 104.199 161.393 104.297 161.368C104.395 161.344 104.488 161.301 104.569 161.241C104.65 161.181 104.719 161.106 104.771 161.019C104.823 160.933 104.858 160.837 104.873 160.737L109.604 129.853C109.633 129.651 109.582 129.445 109.462 129.281C109.341 129.116 109.16 129.005 108.959 128.972L61.3632 121.692Z" fill="white"/>
</g>
<path opacity="0.4" d="M75.7246 140.385L86.3845 146.432C87.5132 144.362 88.0377 142.017 87.8983 139.663C87.7589 137.31 86.9612 135.042 85.596 133.12L75.7246 140.385Z" fill="#007AEC"/>
<path opacity="0.6" d="M75.8271 139.775L85.3503 132.776C84.0634 131.081 82.3668 129.74 80.4198 128.88L78.5407 133.334L75.8271 139.775Z" fill="#007AEC"/>
<path d="M77.4494 128L75.8008 138.752L80.0401 128.701C79.2039 128.376 78.3354 128.141 77.4494 128Z" fill="#007AEC"/>
<path opacity="0.1" d="M75.1611 140.257L77.0401 127.969C74.8821 127.674 72.6844 127.945 70.6626 128.755C68.6408 129.566 66.8642 130.887 65.507 132.591C64.1498 134.295 63.2586 136.322 62.9207 138.473C62.5828 140.625 62.8099 142.828 63.5797 144.865L75.1611 140.257Z" fill="white"/>
<path opacity="0.2" d="M73.4412 152.831C75.9256 153.211 78.4668 152.838 80.7373 151.761C83.0078 150.683 84.9034 148.95 86.1797 146.785L75.3304 140.641L63.7285 145.223C64.5568 147.219 65.8858 148.968 67.5871 150.301C69.2885 151.634 71.3047 152.505 73.4412 152.831Z" fill="#007AEC"/>
<path d="M95.1088 132.99L93.6968 132.774C93.5207 132.747 93.3561 132.868 93.3291 133.044L93.1131 134.456C93.0861 134.633 93.207 134.797 93.3831 134.824L94.7952 135.04C94.9713 135.067 95.1359 134.946 95.1628 134.77L95.3789 133.358C95.4058 133.182 95.2849 133.017 95.1088 132.99Z" fill="#007AEC"/>
<path d="M102.784 134.937L96.6139 133.99C96.5828 133.985 96.5529 133.975 96.526 133.959C96.499 133.943 96.4756 133.921 96.457 133.896C96.4384 133.871 96.425 133.842 96.4177 133.812C96.4103 133.781 96.4092 133.749 96.4142 133.718C96.4186 133.687 96.4291 133.657 96.4452 133.63C96.4613 133.604 96.4826 133.58 96.5079 133.561C96.5332 133.543 96.5619 133.529 96.5924 133.522C96.623 133.515 96.6546 133.514 96.6856 133.519L102.83 134.466C102.861 134.47 102.891 134.481 102.918 134.497C102.944 134.513 102.968 134.534 102.987 134.56C103.005 134.585 103.019 134.614 103.026 134.644C103.033 134.675 103.034 134.706 103.029 134.737C103.018 134.794 102.988 134.845 102.943 134.882C102.898 134.919 102.841 134.938 102.784 134.937Z" fill="#007AEC"/>
<path d="M100.741 135.68L96.4557 135.024C96.4246 135.02 96.3947 135.009 96.3678 134.993C96.3408 134.977 96.3174 134.956 96.2988 134.931C96.2802 134.905 96.2668 134.877 96.2595 134.846C96.2521 134.816 96.251 134.784 96.256 134.753C96.2661 134.691 96.3002 134.635 96.3509 134.598C96.4017 134.56 96.465 134.544 96.5274 134.553L100.813 135.209C100.844 135.213 100.874 135.223 100.901 135.24C100.928 135.256 100.951 135.277 100.97 135.302C100.988 135.327 101.002 135.356 101.009 135.387C101.016 135.417 101.018 135.449 101.013 135.48C101.008 135.511 100.998 135.541 100.982 135.568C100.965 135.595 100.944 135.618 100.919 135.637C100.894 135.655 100.865 135.669 100.834 135.676C100.804 135.683 100.772 135.685 100.741 135.68Z" fill="#007AEC"/>
<path opacity="0.6" d="M94.4076 137.577L92.9956 137.361C92.8195 137.334 92.6549 137.455 92.628 137.631L92.4119 139.043C92.3849 139.219 92.5059 139.384 92.682 139.411L94.094 139.627C94.2701 139.654 94.4347 139.533 94.4616 139.357L94.6777 137.945C94.7047 137.769 94.5837 137.604 94.4076 137.577Z" fill="#007AEC"/>
<path d="M102.082 139.52L95.9075 138.578C95.8459 138.567 95.791 138.532 95.7539 138.482C95.7168 138.431 95.7003 138.369 95.7078 138.307C95.7179 138.244 95.752 138.189 95.8028 138.151C95.8535 138.114 95.9168 138.098 95.9792 138.107L102.154 139.054C102.185 139.059 102.214 139.069 102.24 139.086C102.267 139.102 102.29 139.123 102.308 139.148C102.326 139.173 102.34 139.201 102.347 139.231C102.354 139.261 102.356 139.292 102.351 139.323C102.346 139.353 102.336 139.383 102.32 139.409C102.304 139.436 102.282 139.459 102.257 139.477C102.233 139.495 102.204 139.509 102.174 139.516C102.144 139.523 102.113 139.525 102.082 139.52Z" fill="#007AEC"/>
<path d="M100.039 140.257L95.7435 139.602C95.688 139.585 95.6404 139.549 95.6095 139.5C95.5785 139.451 95.5663 139.393 95.575 139.335C95.5837 139.278 95.6128 139.226 95.6569 139.188C95.701 139.151 95.7572 139.13 95.8152 139.131L100.101 139.786C100.132 139.791 100.162 139.801 100.189 139.817C100.216 139.833 100.239 139.855 100.258 139.88C100.276 139.905 100.29 139.934 100.297 139.964C100.304 139.995 100.305 140.027 100.3 140.058C100.291 140.118 100.259 140.173 100.21 140.211C100.162 140.248 100.1 140.265 100.039 140.257Z" fill="#007AEC"/>
<path opacity="0.4" d="M94.0265 142.261L92.6123 142.046C92.4359 142.02 92.2713 142.141 92.2446 142.317L92.0303 143.732C92.0036 143.908 92.1249 144.073 92.3013 144.099L93.7155 144.314C93.8918 144.34 94.0565 144.219 94.0832 144.043L94.2974 142.628C94.3242 142.452 94.2029 142.287 94.0265 142.261Z" fill="#007AEC"/>
<path d="M101.376 144.107L95.2318 143.165C95.1763 143.149 95.1287 143.112 95.0978 143.064C95.0668 143.015 95.0546 142.956 95.0633 142.899C95.072 142.841 95.1011 142.789 95.1452 142.752C95.1893 142.714 95.2455 142.694 95.3035 142.694L101.447 143.636C101.479 143.641 101.508 143.651 101.535 143.667C101.562 143.683 101.586 143.705 101.604 143.73C101.623 143.755 101.636 143.784 101.644 143.815C101.651 143.845 101.652 143.877 101.647 143.908C101.643 143.939 101.632 143.969 101.616 143.996C101.6 144.023 101.579 144.046 101.553 144.065C101.528 144.083 101.499 144.097 101.469 144.104C101.438 144.111 101.407 144.113 101.376 144.107Z" fill="#007AEC"/>
<path d="M99.3278 144.844L95.0423 144.189C94.9868 144.172 94.9393 144.136 94.9083 144.087C94.8774 144.038 94.8651 143.979 94.8738 143.922C94.8825 143.865 94.9116 143.813 94.9558 143.775C94.9999 143.738 95.0561 143.717 95.114 143.718L99.3994 144.373C99.4549 144.39 99.5025 144.426 99.5334 144.475C99.5644 144.524 99.5766 144.582 99.5679 144.64C99.5592 144.697 99.5301 144.749 99.486 144.787C99.4419 144.824 99.3857 144.845 99.3278 144.844Z" fill="#007AEC"/>
<path opacity="0.2" d="M93.0053 146.752L91.5933 146.536C91.4172 146.509 91.2526 146.63 91.2256 146.806L91.0095 148.218C90.9826 148.394 91.1035 148.559 91.2796 148.586L92.6917 148.802C92.8678 148.829 93.0323 148.708 93.0593 148.532L93.2754 147.12C93.3023 146.944 93.1814 146.779 93.0053 146.752Z" fill="#007AEC"/>
<path d="M100.674 148.695L94.5302 147.752C94.468 147.742 94.4123 147.708 94.3749 147.658C94.3376 147.607 94.3217 147.543 94.3305 147.481C94.3349 147.45 94.3454 147.42 94.3615 147.393C94.3776 147.366 94.3989 147.343 94.4242 147.324C94.4494 147.306 94.4782 147.292 94.5087 147.285C94.5392 147.278 94.5709 147.276 94.6019 147.281L100.771 148.224C100.803 148.228 100.832 148.238 100.859 148.254C100.886 148.271 100.91 148.292 100.928 148.317C100.947 148.342 100.96 148.371 100.968 148.402C100.975 148.432 100.976 148.464 100.971 148.495C100.967 148.529 100.956 148.561 100.938 148.59C100.921 148.619 100.897 148.644 100.869 148.663C100.84 148.682 100.808 148.695 100.775 148.7C100.741 148.706 100.707 148.704 100.674 148.695Z" fill="#007AEC"/>
<path d="M98.6367 149.432L94.3512 148.777C94.3201 148.773 94.2902 148.762 94.2633 148.746C94.2363 148.73 94.2129 148.709 94.1943 148.683C94.1757 148.658 94.1623 148.629 94.155 148.599C94.1476 148.568 94.1465 148.536 94.1515 148.506C94.1559 148.474 94.1664 148.445 94.1825 148.418C94.1986 148.391 94.2199 148.367 94.2452 148.349C94.2705 148.33 94.2992 148.317 94.3297 148.309C94.3603 148.302 94.3919 148.301 94.4229 148.306L98.7083 148.961C98.7705 148.971 98.8263 149.005 98.8636 149.056C98.9009 149.107 98.9169 149.17 98.908 149.233C98.9037 149.264 98.8931 149.294 98.8771 149.321C98.861 149.347 98.8397 149.371 98.8144 149.39C98.7891 149.408 98.7604 149.422 98.7298 149.429C98.6993 149.436 98.6676 149.437 98.6367 149.432Z" fill="#007AEC"/>
<path opacity="0.1" d="M92.3041 151.345L90.8921 151.129C90.716 151.102 90.5514 151.223 90.5245 151.399L90.3084 152.811C90.2814 152.987 90.4023 153.152 90.5784 153.179L91.9905 153.395C92.1666 153.422 92.3312 153.301 92.3581 153.125L92.5742 151.713C92.6011 151.536 92.4802 151.372 92.3041 151.345Z" fill="white"/>
<path d="M99.973 153.282L93.829 152.34C93.7668 152.33 93.7111 152.296 93.6738 152.245C93.6364 152.195 93.6205 152.131 93.6293 152.069C93.6337 152.038 93.6442 152.008 93.6603 151.981C93.6764 151.954 93.6977 151.931 93.723 151.912C93.7483 151.893 93.777 151.88 93.8075 151.873C93.8381 151.865 93.8697 151.864 93.9007 151.869L100.07 152.811C100.101 152.816 100.131 152.826 100.158 152.842C100.185 152.858 100.209 152.88 100.227 152.905C100.246 152.93 100.259 152.959 100.267 152.99C100.274 153.02 100.275 153.052 100.27 153.083C100.266 153.117 100.255 153.149 100.237 153.178C100.219 153.207 100.196 153.232 100.167 153.251C100.139 153.27 100.107 153.283 100.074 153.288C100.04 153.293 100.006 153.292 99.973 153.282Z" fill="#007AEC"/>
<path d="M97.9346 154.019L93.6441 153.364C93.6134 153.359 93.5841 153.348 93.5577 153.331C93.5314 153.315 93.5085 153.294 93.4904 153.268C93.4723 153.243 93.4594 153.215 93.4524 153.184C93.4454 153.154 93.4444 153.123 93.4495 153.092C93.4532 153.061 93.4633 153.031 93.4792 153.003C93.495 152.976 93.5164 152.952 93.5418 152.934C93.5673 152.915 93.5963 152.901 93.6271 152.894C93.6579 152.887 93.6898 152.887 93.7209 152.893L98.0063 153.548C98.0408 153.548 98.0748 153.556 98.106 153.571C98.1372 153.585 98.165 153.606 98.1873 153.633C98.2096 153.659 98.2261 153.69 98.2355 153.723C98.2449 153.756 98.2471 153.791 98.242 153.825C98.2368 153.859 98.2243 153.891 98.2055 153.92C98.1866 153.949 98.1617 153.974 98.1326 153.992C98.1035 154.01 98.0707 154.022 98.0366 154.027C98.0024 154.032 97.9676 154.029 97.9346 154.019Z" fill="#007AEC"/>
<g opacity="0.1">
<path opacity="0.1" d="M193.617 141.506L116.223 129.664C115.913 129.617 115.597 129.694 115.344 129.879C115.091 130.064 114.921 130.342 114.872 130.652L114.544 132.782L114.483 133.192L114.042 136.064L113.981 136.473L113.541 139.341L113.479 139.745L113.039 142.617L112.977 143.022L112.537 145.894L112.476 146.304L112.035 149.171L111.974 149.581L111.534 152.448L111.472 152.857L111.032 155.725L110.97 156.134L110.53 159.001L110.469 159.411L110.146 161.541C110.122 161.695 110.129 161.852 110.165 162.003C110.202 162.154 110.268 162.296 110.36 162.422C110.452 162.547 110.567 162.654 110.7 162.734C110.833 162.815 110.98 162.869 111.134 162.893L188.513 174.735C188.822 174.781 189.137 174.702 189.389 174.516C189.64 174.329 189.807 174.051 189.854 173.742L190.182 171.612L190.243 171.202L190.684 168.335L190.745 167.926L191.185 165.053L191.247 164.649L191.687 161.782L191.749 161.372L192.189 158.505L192.25 158.095L192.691 155.223L192.752 154.818L193.192 151.946L193.254 151.542L193.694 148.674L193.756 148.265L194.196 145.393L194.257 144.983L194.585 142.853C194.633 142.547 194.558 142.234 194.377 141.982C194.196 141.73 193.923 141.559 193.617 141.506ZM189.47 173.681C189.439 173.882 189.329 174.062 189.165 174.183C189.001 174.304 188.796 174.355 188.595 174.326L111.221 162.483C111.019 162.452 110.837 162.341 110.715 162.176C110.593 162.012 110.542 161.805 110.571 161.602L110.899 159.473L189.793 171.551L189.47 173.681ZM189.859 171.121L110.96 159.048L111.4 156.175L190.295 168.253L189.859 171.121ZM190.371 167.844L111.462 155.791L111.902 152.919L190.796 164.992L190.371 167.844ZM190.883 164.567L111.984 152.489L112.424 149.622L191.319 161.695L190.883 164.567ZM191.395 161.29L112.496 149.212L112.936 146.345L191.831 158.423L191.395 161.29ZM191.907 158.013L113.008 145.935L113.448 143.063L192.343 155.141L191.907 158.013ZM192.419 154.731L113.52 142.658L113.96 139.791L192.855 151.864L192.419 154.731ZM192.931 151.455L113.971 139.402L114.411 136.535L193.305 148.608L192.931 151.455ZM193.443 148.183L114.472 136.125L114.913 133.253L193.807 145.331L193.443 148.183ZM115.051 132.823L115.379 130.698C115.394 130.598 115.428 130.502 115.48 130.416C115.533 130.329 115.601 130.254 115.683 130.194C115.764 130.134 115.856 130.091 115.954 130.067C116.052 130.042 116.154 130.038 116.254 130.053L193.535 141.916C193.736 141.948 193.916 142.057 194.036 142.222C194.156 142.386 194.206 142.591 194.175 142.792L193.848 144.921L115.051 132.823Z" fill="white"/>
</g>
<g opacity="0.1">
<path opacity="0.1" d="M201.881 86.3842L70.031 66.2011C69.8558 66.1742 69.677 66.1822 69.5049 66.2246C69.3328 66.2669 69.1707 66.3428 69.028 66.448C68.8853 66.5531 68.7648 66.6854 68.6733 66.8372C68.5818 66.989 68.5212 67.1574 68.495 67.3327L61.1068 115.599C61.0538 115.952 61.1425 116.311 61.3535 116.599C61.5645 116.887 61.8807 117.079 62.2332 117.135L194.089 137.318C194.441 137.371 194.801 137.282 195.089 137.071C195.376 136.86 195.569 136.544 195.625 136.192L203.013 87.9202C203.04 87.745 203.032 87.5662 202.989 87.3941C202.947 87.222 202.871 87.0599 202.766 86.9172C202.661 86.7745 202.529 86.654 202.377 86.5625C202.225 86.471 202.056 86.4104 201.881 86.3842ZM94.3612 93.3218L103.516 94.7195L102.717 99.9215L93.5471 98.5186L94.3612 93.3218ZM93.158 98.4418L83.9676 97.0645L84.7663 91.8575L93.9362 93.2603L93.158 98.4418ZM103.936 94.7912L113.111 96.1941L112.312 101.401L103.142 99.9983L103.936 94.7912ZM151.49 101.652L142.32 100.249L143.114 95.0421L152.289 96.445L151.49 101.652ZM152.693 96.532L161.868 97.9349L161.07 103.142L151.9 101.739L152.693 96.532ZM123.095 97.7506L132.27 99.1535L131.471 104.36L122.286 102.912L123.095 97.7506ZM121.891 102.871L112.722 101.468L113.5 96.2555L122.675 97.6584L121.891 102.871ZM132.674 99.1944L141.824 100.592L141.025 105.799L131.855 104.396L132.674 99.1944ZM142.254 100.659L151.429 102.062L150.63 107.269L141.46 105.866L142.254 100.659ZM141.911 100.188L132.741 98.7848L133.534 93.5778L142.709 94.9858L141.911 100.188ZM132.331 98.7234L123.161 97.3205L123.955 92.1135L133.12 93.5112L132.331 98.7234ZM122.736 97.2795L113.566 95.8715L114.36 90.6235L123.535 92.0264L122.736 97.2795ZM113.152 95.7845L103.982 94.3816L104.775 89.1746L113.95 90.5775L113.152 95.7845ZM112.23 101.811L111.436 107.008L102.266 105.605L103.065 100.398L112.23 101.811ZM112.64 101.872L121.81 103.275L121.011 108.482L111.841 107.079L112.64 101.872ZM122.219 103.336L131.389 104.739L130.59 109.946L121.426 108.544L122.219 103.336ZM131.799 104.801L140.969 106.209L140.17 111.411L131 110.008L131.799 104.801ZM141.378 106.27L150.548 107.673L149.749 112.88L140.579 111.477L141.378 106.27ZM150.958 107.735L160.128 109.137L159.329 114.344L150.159 112.942L150.958 107.735ZM151.019 107.33L151.813 102.123L160.988 103.526L160.189 108.733L151.019 107.33ZM161.392 103.587L170.567 104.99L169.769 110.197L160.599 108.794L161.392 103.587ZM170.972 105.052L180.147 106.46L179.348 111.662L170.178 110.259L170.972 105.052ZM171.038 104.647L171.832 99.4402L181.012 100.864L180.224 106.05L171.038 104.647ZM170.629 104.586L161.459 103.178L162.252 97.9707L171.427 99.3787L170.629 104.586ZM162.304 97.5663L163.102 92.3592L172.272 93.7621L171.52 98.9691L162.304 97.5663ZM161.899 97.5048L152.729 96.0968L153.523 90.8949L162.693 92.2978L161.899 97.5048ZM152.32 96.0354L143.145 94.6325L143.943 89.4255L153.113 90.8283L152.32 96.0354ZM142.74 94.5711L133.58 93.1835L134.379 87.9765L143.549 89.3794L142.74 94.5711ZM133.161 93.1016L124.006 91.6987L124.8 86.4917L133.97 87.8997L133.161 93.1016ZM123.596 91.6475L114.426 90.2447L115.2 85.0274L124.416 86.4303L123.596 91.6475ZM114.017 90.1832L104.842 88.7803L105.641 83.5733L114.81 84.9915L114.017 90.1832ZM104.448 88.7035L95.2777 87.3007L96.0713 82.0936L105.241 83.5016L104.448 88.7035ZM104.386 89.1131L103.587 94.3202L94.4175 92.9173L95.2111 87.7103L104.386 89.1131ZM94.0079 92.8559L84.838 91.4479L85.6316 86.2408L94.8066 87.6488L94.0079 92.8559ZM84.4284 91.3864L75.2636 89.9835L76.0572 84.7765L85.2322 86.1794L84.4284 91.3864ZM84.367 91.796L83.5682 97.0031L74.3983 95.6002L75.197 90.3931L84.367 91.796ZM83.5068 97.428L82.7081 102.635L73.5382 101.232L74.3369 96.0251L83.5068 97.428ZM83.9164 97.4946L93.0863 98.8975L92.2876 104.104L83.1177 102.696L83.9164 97.4946ZM93.4959 98.9589L102.656 100.352L101.857 105.559L92.6716 104.145L93.4959 98.9589ZM101.795 105.984L100.997 111.191L91.8268 109.783L92.6255 104.576L101.795 105.984ZM102.205 106.045L111.375 107.448L110.592 112.64L101.417 111.237L102.205 106.045ZM111.785 107.509L120.954 108.912L120.156 114.119L110.986 112.716L111.785 107.509ZM121.344 108.953L130.56 110.356L129.761 115.563L120.565 114.176L121.344 108.953ZM130.923 110.417L140.093 111.82L139.294 117.027L130.124 115.625L130.923 110.417ZM140.503 111.882L149.673 113.29L148.874 118.492L139.704 117.089L140.503 111.882ZM150.082 113.351L159.252 114.754L158.453 119.961L149.283 118.558L150.082 113.351ZM159.662 114.816L168.852 116.224L168.053 121.431L158.883 120.028L159.662 114.816ZM159.723 114.406L160.522 109.204L169.712 110.592L168.914 115.799L159.723 114.406ZM170.101 110.668L179.271 112.071L178.473 117.278L169.303 115.875L170.101 110.668ZM179.712 112.128L188.882 113.53L188.083 118.737L178.913 117.335L179.712 112.128ZM179.773 111.723L180.567 106.516L189.742 107.919L188.928 113.152L179.773 111.723ZM180.633 106.091L181.427 100.884L190.602 102.287L189.793 107.52L180.633 106.091ZM181.488 100.459L182.272 95.293L191.442 96.6959L190.653 101.888L181.488 100.459ZM181.084 100.392L171.909 98.9896L172.707 93.7826L181.867 95.2315L181.084 100.392ZM172.769 93.3781L173.568 88.212L182.727 89.5995L181.934 94.8066L172.769 93.3781ZM172.364 93.3115L163.189 91.9087L163.988 86.7016L173.158 88.1096L172.364 93.3115ZM162.785 91.8472L153.6 90.4853L154.398 85.2783L163.568 86.6811L162.785 91.8472ZM153.205 90.3829L144.03 88.98L144.829 83.773L153.999 85.1759L153.205 90.3829ZM143.626 88.9135L134.441 87.5515L135.239 82.3445L144.409 83.7474L143.626 88.9135ZM134.046 87.4491L124.871 86.0463L125.66 80.8955L134.83 82.2984L134.046 87.4491ZM124.457 86.0155L115.282 84.6075L116.08 79.4056L125.25 80.8085L124.457 86.0155ZM114.877 84.5461L105.702 83.1432L106.496 77.9464L115.671 79.3595L114.877 84.5461ZM105.298 83.0818L96.1225 81.6789L96.9212 76.4719L106.091 77.8747L105.298 83.0818ZM95.7436 81.6226L86.5276 80.2197L87.3263 75.0127L96.4962 76.4207L95.7436 81.6226ZM95.677 82.0322L94.8834 87.2392L85.7135 85.8363L86.5071 80.6293L95.677 82.0322ZM85.3039 85.7749L76.134 84.3669L76.9276 79.165L86.0975 80.5679L85.3039 85.7749ZM75.7244 84.3055L66.5545 82.9026L67.3481 77.6955L76.5231 79.0984L75.7244 84.3055ZM75.663 84.7151L74.8642 89.9221L65.6943 88.5192L66.4879 83.3122L75.663 84.7151ZM74.8028 90.3471L74.0041 95.5541L64.8342 94.1512L65.6329 88.9442L74.8028 90.3471ZM73.9426 95.9791L73.1439 101.186L63.974 99.7832L64.7727 94.5762L73.9426 95.9791ZM73.0825 101.611L72.2889 106.813L63.1138 105.41L63.9126 100.203L73.0825 101.611ZM73.4921 101.672L82.662 103.075L81.8684 108.282L72.6934 106.88L73.4921 101.672ZM83.0716 103.137L92.2415 104.54L91.4428 109.747L82.2729 108.344L83.0716 103.137ZM91.3814 110.156L90.5878 115.363L81.4076 113.909L82.2063 108.702L91.3814 110.156ZM91.791 110.218L100.961 111.621L100.167 116.828L90.9922 115.425L91.791 110.218ZM101.345 111.616L110.515 113.024L109.721 118.225L100.546 116.823L101.345 111.616ZM110.924 113.085L120.094 114.488L119.296 119.71L110.121 118.307L110.924 113.085ZM120.504 114.549L129.674 115.952L128.88 121.159L119.705 119.756L120.504 114.549ZM130.083 116.019L139.264 117.437L138.47 122.644L129.295 121.236L130.083 116.019ZM139.663 117.483L148.833 118.886L148.039 124.093L138.864 122.69L139.663 117.483ZM149.242 118.947L158.412 120.35L157.619 125.557L148.444 124.154L149.242 118.947ZM158.822 120.417L167.992 121.856L167.198 127.063L158.023 125.66L158.822 120.417ZM168.402 121.881L177.571 123.284L176.778 128.512L167.603 127.109L168.402 121.881ZM168.463 121.472L169.262 116.264L178.432 117.672L177.633 122.88L168.463 121.472ZM178.841 117.76L188.011 119.162L187.212 124.369L178.042 122.967L178.841 117.76ZM188.416 119.214L197.586 120.616L196.787 125.824L187.622 124.416L188.416 119.214ZM188.477 118.809L189.276 113.602L198.446 115.005L197.632 120.212L188.477 118.809ZM189.337 113.177L190.131 107.97L199.306 109.373L198.507 114.58L189.337 113.177ZM190.197 107.545L190.976 102.4L200.192 103.777L199.398 108.984L190.197 107.545ZM191.052 101.913L191.856 96.7675L201.026 98.1704L200.233 103.377L191.052 101.913ZM191.913 96.2811L192.716 91.1355L201.886 92.5384L201.093 97.7455L191.913 96.2811ZM191.508 96.2197L182.333 94.8168L183.132 89.6098L192.302 91.0127L191.508 96.2197ZM183.193 89.2002L183.992 83.9983L193.162 85.4011L192.363 90.6082L183.193 89.2002ZM182.784 89.1387L173.614 87.7359L174.412 82.5288L183.582 83.9317L182.784 89.1387ZM173.204 87.6744L164.034 86.2715L164.864 81.1311L174.034 82.5339L173.204 87.6744ZM163.625 86.2101L154.455 84.8021L155.253 79.6002L164.423 81.0031L163.625 86.2101ZM154.045 84.7407L144.896 83.4043L145.694 78.1973L154.864 79.6002L154.045 84.7407ZM144.466 83.2763L135.301 81.9195L136.099 76.7125L145.269 78.1154L144.466 83.2763ZM134.886 81.8069L125.716 80.404L126.52 75.2635L135.68 76.6715L134.886 81.8069ZM125.312 80.3426L116.137 78.9397L116.935 73.7327L126.105 75.1355L125.312 80.3426ZM115.732 78.8783L106.557 77.4703L107.356 72.2683L116.531 73.7275L115.732 78.8783ZM106.147 77.4088L96.9775 76.0059L97.7916 70.8655L106.962 72.2683L106.147 77.4088ZM96.573 75.9445L87.398 74.5416L88.1967 69.3346L97.3666 70.7375L96.573 75.9445ZM86.9935 74.4802L77.8236 73.1387L78.6223 67.9368L87.7922 69.3397L86.9935 74.4802ZM86.927 74.8847L86.1334 80.0917L76.9583 78.6888L77.757 73.4818L86.927 74.8847ZM76.5538 78.6274L67.3839 77.3115L68.1826 72.1045L77.3526 73.5074L76.5538 78.6274ZM63.0268 105.768L72.1916 107.171L71.398 112.378L62.223 110.976L63.0268 105.768ZM72.6063 107.233L81.7762 108.636L80.9826 113.843L71.8076 112.44L72.6063 107.233ZM80.8956 114.252L80.102 119.459L70.9321 118.056L71.7257 112.849L80.8956 114.252ZM81.3052 114.314L90.4956 115.712L89.702 120.919L80.5321 119.516L81.3052 114.314ZM90.8847 115.783L100.055 117.186L99.261 122.393L90.1116 120.985L90.8847 115.783ZM100.485 117.248L109.655 118.65L108.861 123.857L99.686 122.455L100.485 117.248ZM110.08 118.712L119.25 120.12L118.456 125.322L109.271 123.904L110.08 118.712ZM119.659 120.181L128.829 121.584L128 126.791L118.83 125.388L119.659 120.181ZM129.239 121.646L138.409 123.049L137.615 128.256L128.44 126.853L129.239 121.646ZM138.818 123.11L147.968 124.518L147.174 129.72L137.999 128.317L138.818 123.11ZM148.398 124.579L157.568 125.982L156.774 131.189L147.599 129.786L148.398 124.579ZM157.977 126.044L167.147 127.447L166.354 132.654L157.184 131.251L157.977 126.044ZM167.557 127.513L176.727 128.916L175.918 134.144L166.743 132.736L167.557 127.513ZM177.136 128.977L186.306 130.38L185.513 135.587L176.338 134.184L177.136 128.977ZM177.198 128.568L177.996 123.361L187.166 124.769L186.368 129.971L177.198 128.568ZM187.576 124.83L196.746 126.233L195.952 131.44L186.762 130.048L187.576 124.83ZM202.618 87.8587L201.948 92.1595L192.778 90.7567L193.577 85.5496L201.82 86.8091C202.062 86.8471 202.279 86.9782 202.425 87.1743C202.572 87.3705 202.635 87.6161 202.603 87.8587H202.618ZM70.0105 66.6107L78.2537 67.8703L77.4601 73.0773L68.2441 71.6795L68.8994 67.3992C68.9176 67.277 68.9597 67.1596 69.0233 67.0537C69.087 66.9479 69.171 66.8557 69.2705 66.7824C69.3699 66.7091 69.4829 66.6562 69.6028 66.6267C69.7228 66.5973 69.8474 66.5918 69.9695 66.6107H70.0105ZM61.5522 115.66L62.2076 111.38L71.3775 112.788L70.5839 117.99L62.2946 116.736C62.0483 116.696 61.8276 116.561 61.6808 116.36C61.5339 116.158 61.473 115.907 61.5113 115.66H61.5522ZM194.15 136.913L185.902 135.649L186.7 130.442L195.87 131.845L195.215 136.13C195.177 136.375 195.044 136.595 194.844 136.742C194.645 136.888 194.395 136.95 194.15 136.913Z" fill="white"/>
</g>
<path opacity="0.5" d="M197.529 121.027L195.215 136.12C195.198 136.237 195.157 136.349 195.096 136.45C195.035 136.552 194.955 136.64 194.86 136.71C194.765 136.779 194.656 136.83 194.542 136.858C194.427 136.886 194.308 136.891 194.191 136.873L62.2642 116.68C62.1478 116.662 62.0362 116.621 61.9356 116.559C61.8351 116.498 61.7476 116.418 61.6782 116.323C61.6087 116.227 61.5587 116.12 61.531 116.005C61.5033 115.891 61.4984 115.772 61.5167 115.656L61.8239 113.638C61.8239 113.638 68.0242 108.641 71.9051 109.235C76.4875 109.937 77.3118 112.538 81.4078 113.152C85.5038 113.766 89.989 104.294 93.6958 104.858C95.6978 105.165 96.2098 106.706 97.1877 108.119C97.6073 108.769 98.1638 109.319 98.8183 109.731C99.4727 110.143 100.209 110.407 100.976 110.505L101.13 110.531C106.148 111.299 112.937 84.6643 119.839 85.719C122.911 86.1849 124.124 92.0627 125.04 98.5548C126.203 106.747 126.858 115.963 130.058 116.429C135.782 117.304 137.738 105.677 143.053 106.511C146.396 107.023 147.615 113.219 150.431 118.129C152.095 121.032 154.322 123.489 157.885 124.032C161.126 124.544 163.292 123.776 164.976 122.593C168.279 120.284 169.753 116.342 173.88 116.961C176.327 117.335 177.218 119.219 178.13 120.996C178.923 122.532 179.732 124.017 181.616 124.303C183.833 124.646 185.712 121.472 187.725 118.671C189.368 116.357 191.083 114.278 193.121 114.575C195.159 114.872 196.439 117.396 197.058 119.183C197.252 119.788 197.409 120.403 197.529 121.027Z" fill="#007AEC"/>
<path opacity="0.5" d="M200.704 100.286L195.215 136.126C195.198 136.242 195.157 136.355 195.096 136.456C195.035 136.557 194.955 136.645 194.86 136.715C194.765 136.785 194.657 136.835 194.542 136.863C194.427 136.891 194.308 136.896 194.191 136.878L62.2642 116.68C62.1478 116.662 62.0362 116.621 61.9356 116.56C61.8351 116.498 61.7476 116.418 61.6782 116.323C61.6087 116.228 61.5587 116.12 61.531 116.005C61.5033 115.891 61.4984 115.772 61.5167 115.656L61.8239 113.639C67.3022 114.478 70.2258 110.377 73.9019 110.94C77.5781 111.503 79.4827 114.069 82.9234 114.596C86.364 115.123 91.6734 107.07 95.4366 107.648C96.0268 107.734 96.6033 107.896 97.1518 108.129C98.6008 108.734 99.5992 109.706 100.941 110.515C101.996 111.155 103.17 111.577 104.392 111.754C108.8 112.425 117.622 96.4711 122.736 97.2545C123.622 97.4145 124.424 97.878 125.005 98.5652C128.025 101.857 128.804 110.09 133.064 110.741C138.23 111.534 140.994 103.132 146.007 103.895C151.019 104.658 152.494 113.301 158.295 114.186C164.096 115.072 170.388 99.2206 176.415 100.142C182.441 101.064 184.161 109.21 189.399 110.008C195.149 110.889 200.704 100.286 200.704 100.286Z" fill="#007AEC"/>
<path d="M198.144 116.946L195.205 136.12C195.187 136.237 195.147 136.349 195.086 136.45C195.025 136.551 194.945 136.639 194.849 136.709C194.754 136.779 194.646 136.83 194.532 136.858C194.417 136.886 194.298 136.891 194.181 136.873L62.2642 116.68C62.1478 116.661 62.0362 116.621 61.9356 116.559C61.8351 116.498 61.7476 116.418 61.6782 116.322C61.6087 116.227 61.5587 116.12 61.531 116.005C61.5033 115.891 61.4984 115.772 61.5167 115.656L61.6651 114.667C61.8546 114.488 64.9624 111.554 68.1163 112.036C71.3778 112.548 71.388 115.456 75.9346 116.132C80.4811 116.808 81.8072 113.229 88.2584 114.217C94.7096 115.205 94.6891 119.716 101.36 120.74C108.032 121.764 109.409 116.352 114.16 117.079C118.912 117.806 118.579 120.566 121.272 120.975C123.965 121.385 125.532 117.166 128.845 117.673C132.157 118.18 134.692 125.122 138.424 125.696C141.046 126.095 145.679 120.904 150.41 118.118C152.407 116.941 154.429 116.193 156.313 116.485C160.21 117.079 162.483 120.12 164.956 122.583C166.492 124.119 168.146 125.45 170.306 125.783C173.378 126.254 175.739 123.458 178.109 121.001C180.034 118.999 181.975 117.217 184.335 117.576C185.516 117.726 186.658 118.094 187.704 118.661C189.752 119.808 190.29 121.354 192.737 121.733C195.681 122.199 198.144 116.946 198.144 116.946Z" fill="#007AEC"/>
<path d="M77.8491 64.645L70.7631 63.5596C70.5992 63.5346 70.4419 63.4775 70.3002 63.3916C70.1585 63.3058 70.0351 63.1928 69.9371 63.0591C69.8391 62.9255 69.7685 62.7738 69.7292 62.6128C69.69 62.4518 69.6829 62.2846 69.7083 62.1209C69.7588 61.7897 69.9387 61.492 70.2084 61.2933C70.4782 61.0946 70.8158 61.0111 71.1471 61.061L78.228 62.1464C78.5586 62.1982 78.8554 62.3784 79.0539 62.6478C79.2523 62.9172 79.3364 63.2541 79.2879 63.5852C79.2361 63.9158 79.0559 64.2125 78.7865 64.411C78.5171 64.6095 78.1802 64.6936 77.8491 64.645Z" fill="#007AEC"/>
<path d="M81.7607 63.2167H81.8734L88.9594 64.3022C89.0603 64.3151 89.1575 64.348 89.2454 64.399C89.3333 64.45 89.4102 64.518 89.4714 64.5991C89.5876 64.7605 89.6371 64.9603 89.6097 65.1572C89.5808 65.3341 89.4906 65.4952 89.3549 65.6122C89.2191 65.7293 89.0465 65.7947 88.8673 65.7972H88.7495L81.6686 64.7118C81.5673 64.7006 81.4694 64.6685 81.3812 64.6173C81.2931 64.5662 81.2165 64.4972 81.1566 64.4148C81.0738 64.3033 81.0238 64.171 81.012 64.0327C81.0003 63.8944 81.0273 63.7555 81.09 63.6316C81.1527 63.5078 81.2487 63.4038 81.3671 63.3315C81.4856 63.2591 81.6219 63.2211 81.7607 63.2219V63.2167ZM81.7607 62.7099C81.4376 62.7015 81.1236 62.8177 80.8838 63.0345C80.644 63.2512 80.4967 63.5518 80.4723 63.8741C80.448 64.1964 80.5485 64.5158 80.7531 64.7661C80.9576 65.0163 81.2506 65.1784 81.5713 65.2187L88.6522 66.3041C88.717 66.3092 88.7821 66.3092 88.8468 66.3041C89.1646 66.3024 89.47 66.1811 89.7024 65.9643C89.9348 65.7476 90.0771 65.4514 90.1009 65.1345C90.1248 64.8177 90.0285 64.5034 89.8313 64.2543C89.634 64.0052 89.3501 63.8395 89.0362 63.7902L81.9502 62.7099C81.8871 62.7048 81.8238 62.7048 81.7607 62.7099Z" fill="#007AEC"/>
<path d="M92.5639 64.8701H92.6714L99.7524 65.9555C99.9378 65.9863 100.105 66.0854 100.221 66.2332C100.337 66.3811 100.394 66.5671 100.38 66.7545C100.365 66.942 100.282 67.1174 100.145 67.2462C100.008 67.375 99.8277 67.4479 99.6397 67.4506H99.5271L92.441 66.3651C92.3401 66.3525 92.2428 66.3197 92.1548 66.2687C92.0669 66.2177 91.9901 66.1495 91.929 66.0681C91.8709 65.9886 91.8292 65.8983 91.8064 65.8025C91.7835 65.7067 91.78 65.6073 91.7959 65.5101C91.8238 65.3341 91.9132 65.1737 92.0482 65.0575C92.1832 64.9412 92.355 64.8766 92.5332 64.8752L92.5639 64.8701ZM92.5332 64.3632C92.2101 64.3549 91.8961 64.4711 91.6563 64.6878C91.4165 64.9045 91.2691 65.2051 91.2448 65.5275C91.2205 65.8498 91.321 66.1691 91.5255 66.4194C91.7301 66.6697 92.023 66.8317 92.3437 66.872L99.4298 67.9574C99.4929 67.9625 99.5562 67.9625 99.6193 67.9574C99.937 67.9557 100.242 67.8344 100.475 67.6177C100.707 67.401 100.85 67.1047 100.873 66.7878C100.897 66.471 100.801 66.1567 100.604 65.9077C100.406 65.6586 100.123 65.4928 99.8087 65.4435L92.7277 64.3632C92.663 64.3581 92.5979 64.3581 92.5332 64.3632Z" fill="#007AEC"/>
<path d="M202.885 82.6417L202.972 82.0888L202.562 81.9915C202.553 81.9 202.53 81.8104 202.496 81.7252L202.813 81.4488L202.485 80.9982L202.122 81.2184C202.051 81.1617 201.974 81.1136 201.892 81.075L201.917 80.6552L201.364 80.5732L201.267 80.9828C201.178 80.9924 201.09 81.013 201.006 81.0443L200.724 80.7268L200.274 81.0596L200.494 81.418C200.437 81.4897 200.39 81.569 200.356 81.6536L199.936 81.6228L199.849 82.1758L200.258 82.2782C200.268 82.368 200.29 82.456 200.325 82.5393L200.007 82.8158L200.34 83.2664L200.699 83.0462C200.77 83.1017 200.847 83.1497 200.929 83.1896L200.903 83.6094L201.456 83.6913L201.554 83.2868C201.644 83.2726 201.733 83.2504 201.82 83.2203L202.096 83.5377L202.547 83.2049L202.327 82.8465C202.382 82.7759 202.429 82.6985 202.465 82.6161L202.885 82.6417ZM201.313 82.7748C201.186 82.7551 201.068 82.6981 200.973 82.6111C200.878 82.5241 200.811 82.4109 200.781 82.286C200.751 82.161 200.758 82.0298 200.802 81.909C200.846 81.7883 200.925 81.6833 201.029 81.6074C201.133 81.5315 201.257 81.4881 201.385 81.4827C201.514 81.4772 201.641 81.51 201.751 81.5769C201.861 81.6438 201.948 81.7417 202.003 81.8583C202.057 81.975 202.075 82.105 202.055 82.2321C202.042 82.3165 202.013 82.3975 201.968 82.4704C201.924 82.5434 201.866 82.6068 201.797 82.6572C201.728 82.7076 201.649 82.744 201.566 82.7641C201.483 82.7843 201.397 82.788 201.313 82.7748Z" fill="#007AEC"/>
<path opacity="0.2" d="M123.251 143.568L121.743 143.337L120.086 154.168L121.594 154.398L123.251 143.568Z" fill="#007AEC"/>
<path d="M123.003 145.196L121.495 144.965L120.715 150.061L122.223 150.292L123.003 145.196Z" fill="#007AEC"/>
<path opacity="0.2" d="M119.449 145.778L117.94 145.547L116.283 156.378L117.791 156.608L119.449 145.778Z" fill="#007AEC"/>
<path d="M117.49 148.399L116.709 153.501L118.217 153.732L118.998 148.63L117.49 148.399Z" fill="#007AEC"/>
<path opacity="0.2" d="M116.723 143.25L115.213 143.021L113.569 153.869L115.08 154.098L116.723 143.25Z" fill="#007AEC"/>
<path d="M115.745 147.258L114.236 147.027L113.456 152.129L114.964 152.36L115.745 147.258Z" fill="#007AEC"/>
<path opacity="0.2" d="M126.317 146.223L124.809 145.992L123.151 156.823L124.659 157.054L126.317 146.223Z" fill="#007AEC"/>
<path d="M126.073 147.85L124.564 147.619L123.784 152.721L125.292 152.951L126.073 147.85Z" fill="#007AEC"/>
<path opacity="0.2" d="M130.195 143.538L128.687 143.308L127.029 154.138L128.537 154.369L130.195 143.538Z" fill="#007AEC"/>
<path d="M130.007 144.76L128.499 144.529L127.718 149.631L129.227 149.862L130.007 144.76Z" fill="#007AEC"/>
<path opacity="0.2" d="M133.162 146.852L131.654 146.621L129.997 157.452L131.505 157.683L133.162 146.852Z" fill="#007AEC"/>
<path d="M133.096 147.261L131.588 147.03L130.807 152.132L132.315 152.363L133.096 147.261Z" fill="#007AEC"/>
<path opacity="0.2" d="M137.413 141.707L135.905 141.477L134.248 152.307L135.756 152.538L137.413 141.707Z" fill="#007AEC"/>
<path d="M137.358 142.118L135.85 141.887L135.07 146.983L136.578 147.214L137.358 142.118Z" fill="#007AEC"/>
<path opacity="0.2" d="M139.763 149.048L138.255 148.817L136.598 159.648L138.106 159.879L139.763 149.048Z" fill="#007AEC"/>
<path d="M139.514 150.681L138.006 150.45L137.225 155.552L138.733 155.783L139.514 150.681Z" fill="#007AEC"/>
<path opacity="0.2" d="M143.058 150.2L141.55 149.969L139.892 160.8L141.401 161.03L143.058 150.2Z" fill="#007AEC"/>
<path d="M142.433 154.281L140.925 154.05L140.144 159.151L141.652 159.382L142.433 154.281Z" fill="#007AEC"/>
<path opacity="0.2" d="M147.496 143.911L145.987 143.681L144.33 154.511L145.838 154.742L147.496 143.911Z" fill="#007AEC"/>
<path d="M146.804 148.405L145.296 148.174L144.516 153.27L146.024 153.501L146.804 148.405Z" fill="#007AEC"/>
<path opacity="0.2" d="M150.152 149.2L148.644 148.969L146.986 159.799L148.494 160.03L150.152 149.2Z" fill="#007AEC"/>
<path d="M149.837 151.243L148.329 151.013L147.549 156.109L149.057 156.34L149.837 151.243Z" fill="#007AEC"/>
<path opacity="0.2" d="M153.975 146.891L152.467 146.66L150.809 157.491L152.318 157.722L153.975 146.891Z" fill="#007AEC"/>
<path d="M154.144 148.554L152.634 148.325L151.86 153.435L153.37 153.663L154.144 148.554Z" fill="#007AEC"/>
<path opacity="0.2" d="M158.113 142.544L156.604 142.313L154.947 153.144L156.455 153.375L158.113 142.544Z" fill="#007AEC"/>
<path d="M158.107 142.548L156.599 142.317L155.818 147.419L157.326 147.65L158.107 142.548Z" fill="#007AEC"/>
<path opacity="0.2" d="M160.455 149.925L158.947 149.694L157.29 160.525L158.798 160.756L160.455 149.925Z" fill="#007AEC"/>
<path d="M160.263 151.152L158.755 150.921L157.974 156.022L159.482 156.253L160.263 151.152Z" fill="#007AEC"/>
<path opacity="0.2" d="M163.113 155.208L161.604 154.978L159.947 165.808L161.455 166.039L163.113 155.208Z" fill="#007AEC"/>
<path d="M162.925 156.43L161.417 156.199L160.636 161.301L162.145 161.532L162.925 156.43Z" fill="#007AEC"/>
<path opacity="0.2" d="M167.38 149.994L165.872 149.764L164.215 160.594L165.723 160.825L167.38 149.994Z" fill="#007AEC"/>
<path d="M166.76 154.067L165.252 153.836L164.471 158.938L165.98 159.168L166.76 154.067Z" fill="#007AEC"/>
<path opacity="0.2" d="M171.711 144.391L170.203 144.16L168.546 154.991L170.054 155.222L171.711 144.391Z" fill="#007AEC"/>
<path d="M170.958 149.284L169.45 149.053L168.67 154.154L170.178 154.385L170.958 149.284Z" fill="#007AEC"/>
<path opacity="0.2" d="M174.165 151.029L172.657 150.798L171 161.629L172.508 161.859L174.165 151.029Z" fill="#007AEC"/>
<path d="M174.375 152.667L172.864 152.438L172.09 157.548L173.601 157.777L174.375 152.667Z" fill="#007AEC"/>
<path opacity="0.2" d="M177.275 153.352L175.767 153.121L174.109 163.952L175.617 164.183L177.275 153.352Z" fill="#007AEC"/>
<path d="M176.594 157.84L175.086 157.609L174.305 162.711L175.813 162.942L176.594 157.84Z" fill="#007AEC"/>
<path opacity="0.2" d="M181.185 150.49L179.677 150.259L178.019 161.089L179.528 161.32L181.185 150.49Z" fill="#007AEC"/>
<path d="M181.185 150.494L179.677 150.264L178.896 155.365L180.404 155.596L181.185 150.494Z" fill="#007AEC"/>
<path opacity="0.2" d="M184.06 154.387L182.552 154.156L180.894 164.987L182.403 165.218L184.06 154.387Z" fill="#007AEC"/>
<path d="M183.933 155.202L182.425 154.972L181.644 160.073L183.152 160.304L183.933 155.202Z" fill="#007AEC"/>
<path opacity="0.2" d="M187.678 153.445L186.17 153.214L184.513 164.045L186.021 164.275L187.678 153.445Z" fill="#007AEC"/>
<path d="M187.613 153.854L186.104 153.623L185.324 158.725L186.832 158.955L187.613 153.854Z" fill="#007AEC"/>
<path opacity="0.2" d="M190.85 155.357L189.342 155.126L187.684 165.957L189.193 166.187L190.85 155.357Z" fill="#007AEC"/>
<path d="M190.534 160.659L189.023 160.43L188.249 165.539L189.76 165.768L190.534 160.659Z" fill="#007AEC"/>
<path d="M136.089 170.399L107.687 166.053L107.552 166.933L135.955 171.28L136.089 170.399Z" fill="#999999" stroke="#263238" stroke-linecap="round" stroke-linejoin="round"/>
<path opacity="0.2" d="M154.143 108.482C154.143 108.482 150.292 110.617 152.745 116.403C155.197 122.189 170.112 131.702 169.81 136.535C169.81 136.535 154.496 126.991 150.241 132.5C150.241 132.5 161.807 143.718 163.01 152.156C164.214 160.594 168.13 164.336 177.183 169.149C186.235 173.962 205.916 199.357 205.916 199.357L202.972 156.708L174.3 124.349L160.128 116.27L154.143 108.482Z" fill="black" fill-opacity="0.7"/>
<path d="M231.936 184.525L206.695 201.104H206.654C206.63 201.102 206.608 201.094 206.589 201.081C206.57 201.067 206.555 201.049 206.546 201.027C206.434 200.73 195.282 170.926 192.594 168.602C191.081 167.234 189.978 165.472 189.41 163.513C189.41 163.513 189.41 163.487 189.41 163.472C189.312 163.144 189.266 162.929 189.256 162.873C187.771 159.853 185.493 157.294 182.666 155.469C180.777 154.324 178.781 153.364 176.707 152.602C173.532 151.317 170.266 149.991 167.957 147.538C167.561 147.119 167.2 146.669 166.876 146.192C163.205 140.816 157.538 134.882 155.648 133.663C153.759 132.444 150.282 132.608 150.252 132.608C150.223 132.611 150.195 132.603 150.172 132.586C150.149 132.569 150.134 132.544 150.129 132.516C150.067 132.047 150.11 131.571 150.253 131.121C150.397 130.67 150.637 130.257 150.958 129.91C151.441 129.346 152.04 128.894 152.714 128.584C153.389 128.275 154.123 128.116 154.865 128.118C157.783 128.118 161.803 129.654 163.83 131.584C165.858 133.514 170.547 134.933 171.085 135.097C171.848 134.646 173.645 135.609 174.306 136.023C173.522 133.233 173.84 132.158 173.962 131.886C172.283 129.71 163.538 123.269 158.894 120.039C157.614 119.143 156.652 118.503 156.232 118.252C154.066 116.977 152.274 112.988 152.622 110.203C152.639 109.825 152.74 109.455 152.917 109.12C153.094 108.786 153.343 108.495 153.646 108.268C154.082 107.994 154.592 107.863 155.106 107.894C155.314 107.899 155.522 107.925 155.725 107.971C155.746 107.98 155.765 107.992 155.781 108.007C155.822 108.063 160.169 113.219 161.674 114.028C162.412 114.422 166.334 116.403 170.061 118.247L171.74 119.076C171.73 117.453 171.816 115.83 171.996 114.217C172.14 113.582 173.154 112.681 174.306 112.169C174.843 111.923 175.842 111.57 176.574 111.959C176.855 112.118 177.521 112.528 178.442 113.101L179.978 114.053C180.305 113.551 180.706 113.1 181.166 112.717C181.55 112.492 183.675 112.098 184.433 112.364C185.093 112.604 187.213 113.951 189.456 115.374L190.423 115.984C190.541 115.763 190.818 115.303 191.079 115.2C192.186 114.791 193.39 114.727 194.535 115.016C195.292 115.292 197.893 117.212 200.412 119.071C201.795 120.095 203.121 121.073 203.996 121.662C204.026 121.669 204.051 121.688 204.068 121.713C204.319 121.882 204.529 122.015 204.688 122.107C206.541 123.167 211.098 147.067 211.144 147.308C211.441 148.91 212.526 150.564 213.673 152.315C214.971 154.138 216.033 156.118 216.832 158.208C218.291 162.473 221.614 168.714 226.483 176.343C226.924 177.026 227.378 177.727 227.845 178.448C229.161 180.439 230.564 182.518 231.936 184.525Z" fill="white"/>
<path opacity="0.4" d="M175.688 138.752C174.71 139.525 167.614 138.793 166.743 141.179C166.231 142.587 166.61 144.717 167.941 147.528C167.546 147.109 167.184 146.658 166.861 146.181C163.19 140.805 157.522 134.871 155.633 133.653C153.744 132.434 150.282 132.608 150.252 132.608C150.223 132.611 150.195 132.603 150.172 132.586C150.149 132.569 150.134 132.544 150.129 132.516C150.067 132.047 150.11 131.571 150.253 131.121C150.397 130.67 150.637 130.257 150.958 129.91C151.441 129.346 152.04 128.894 152.714 128.584C153.389 128.275 154.123 128.116 154.865 128.118C157.783 128.118 161.802 129.654 163.83 131.584C165.858 133.514 170.547 134.933 171.085 135.097C171.848 134.646 173.645 135.609 174.306 136.023C173.522 133.233 173.84 132.158 173.962 131.886C172.283 129.71 163.538 123.269 158.894 120.039C157.614 119.143 156.652 118.503 156.232 118.252C154.066 116.977 152.274 112.988 152.622 110.203C152.639 109.825 152.74 109.455 152.917 109.12C153.094 108.786 153.343 108.495 153.646 108.268C154.082 107.994 154.592 107.863 155.106 107.894C154.753 108.032 154.428 108.229 154.143 108.478C152.72 109.691 156.114 116.096 158.024 117.868C160.021 119.716 169.001 124.304 172.227 127.038C173.998 128.538 176.323 130.811 176.323 130.811C174.905 133.228 176.64 137.994 175.688 138.752Z" fill="#007AEC"/>
<path d="M208.661 99.5996C208.661 99.5535 208.661 99.5433 208.661 99.5638C208.665 99.569 208.667 99.5753 208.667 99.5817C208.667 99.5881 208.665 99.5944 208.661 99.5996Z" fill="#007AEC"/>
<path opacity="0.4" d="M226.484 176.317C222.68 172.698 217.017 167.06 215.957 164.587C214.339 160.799 213.259 157.302 211.247 154.752C209.235 152.202 205.154 125.03 203.982 124.954C202.809 124.877 205.456 135.706 205.594 136.259C205.482 135.915 204.017 131.302 202.614 126.044C201.16 120.581 199.691 120.284 199.691 120.284C197.74 120.673 197.73 122.061 196.732 122.04C195.733 122.02 192.308 119.588 192.308 119.588C188.985 120.069 176.518 112.041 176.518 112.041C173.681 112.425 173.016 114.903 175.438 117.227C177.859 119.552 181.479 122.368 181.479 122.368C179.144 123.505 170.574 118.697 170.574 118.697L170.062 118.236L171.741 119.066C171.731 117.442 171.816 115.82 171.997 114.207C172.14 113.572 173.154 112.671 174.306 112.159C174.844 111.913 175.842 111.56 176.574 111.949C176.856 112.107 177.521 112.517 178.443 113.09L179.979 114.043C180.306 113.54 180.706 113.09 181.167 112.706C181.551 112.481 183.676 112.087 184.433 112.353C185.094 112.594 187.214 113.94 189.456 115.364L190.424 115.973C190.542 115.753 190.818 115.292 191.079 115.19C192.186 114.781 193.391 114.717 194.535 115.005C195.293 115.282 197.894 117.202 200.413 119.06C201.795 120.084 203.121 121.062 203.997 121.651C204.026 121.659 204.052 121.677 204.069 121.702C204.319 121.871 204.529 122.004 204.688 122.097C206.542 123.156 211.098 147.057 211.144 147.297C211.441 148.9 212.527 150.554 213.674 152.305C214.972 154.131 216.034 156.114 216.833 158.208C218.292 162.447 221.615 168.689 226.484 176.317Z" fill="#007AEC"/>
<path d="M206.654 201.001C206.654 201.001 195.39 170.895 192.671 168.53C190.998 167.017 189.838 165.02 189.353 162.816C187.858 159.767 185.556 157.185 182.697 155.351C177.839 152.151 170.491 151.322 166.938 146.135C163.385 140.949 157.691 134.871 155.674 133.571C153.657 132.27 150.221 132.506 150.221 132.506C149.868 130.488 152.116 128.241 154.829 128.241C157.543 128.241 161.583 129.659 163.718 131.676C165.853 133.693 171.065 135.229 171.065 135.229C171.894 134.636 174.459 136.284 174.459 136.284C173.435 132.818 174.055 131.881 174.055 131.881C172.043 129.157 158.265 119.352 156.253 118.165C154.24 116.977 152.341 113.07 152.694 110.223C152.703 109.87 152.793 109.523 152.959 109.21C153.124 108.898 153.36 108.628 153.647 108.421C153.934 108.215 154.265 108.078 154.614 108.021C154.963 107.964 155.321 107.989 155.659 108.093C155.659 108.093 160.041 113.306 161.583 114.135C163.124 114.965 175.212 121.011 176.989 121.718C177.482 121.928 178.019 122.017 178.553 121.976C179.088 121.935 179.605 121.765 180.061 121.482" stroke="#263238" stroke-linecap="round" stroke-linejoin="round"/>
<path d="M171.854 119.26C171.854 119.26 171.854 115.318 172.11 114.248C172.366 113.178 175.217 111.334 176.518 112.041C177.818 112.748 187.423 119.066 189.927 119.347" stroke="#263238" stroke-linecap="round" stroke-linejoin="round"/>
<path d="M180.015 114.177C180.355 113.657 180.765 113.187 181.233 112.779C181.586 112.569 183.691 112.18 184.402 112.436C185.826 112.948 194.212 118.733 195.631 119.092" stroke="#263238" stroke-linecap="round" stroke-linejoin="round"/>
<path d="M190.464 116.132C190.464 116.132 190.827 115.405 191.119 115.287C192.2 114.886 193.376 114.824 194.493 115.108C195.799 115.584 202.967 121.252 204.626 122.189C206.285 123.126 210.437 144.113 211.026 147.313C211.615 150.513 215.178 153.713 216.714 158.218C218.25 162.724 221.931 169.595 227.737 178.483C228.761 180.019 229.826 181.642 230.897 183.209" stroke="#263238" stroke-linecap="round" stroke-linejoin="round"/>
<path d="M179.159 127.611C179.159 127.611 179.671 125.21 181.115 124.145C182.559 123.08 184.494 124.769 185.912 124.944" stroke="#263238" stroke-linecap="round" stroke-linejoin="round"/>
<path d="M188.847 123.791C188.847 123.791 189.645 121.032 191.069 120.412C192.492 119.793 194.683 121.656 195.631 121.743" stroke="#263238" stroke-linecap="round" stroke-linejoin="round"/>
<path d="M198.18 121.298C198.18 121.298 199.245 120.274 199.69 120.274C200.136 120.274 201.999 122.225 202.404 122.358C202.808 122.491 203.289 121.759 203.981 121.749" stroke="#263238" stroke-linecap="round" stroke-linejoin="round"/>
<path d="M194.939 118.784C195.718 118.727 196.494 118.919 197.156 119.332" stroke="#263238" stroke-linecap="round" stroke-linejoin="round"/>
<path d="M174.08 131.876C174.08 131.876 173.374 130.053 173.727 129.121" stroke="#263238" stroke-linecap="round" stroke-linejoin="round"/>
<path d="M175.468 118.503C175.468 118.503 176.313 119.491 176.359 120.285C176.405 121.078 178.407 122.041 178.407 122.041" stroke="#263238" stroke-linecap="round" stroke-linejoin="round"/>
<path d="M189.021 119.107C189.021 119.107 190.183 118.692 190.802 119.107" stroke="#263238" stroke-linecap="round" stroke-linejoin="round"/>
<path d="M174.08 134.277C174.041 133.691 174.146 133.105 174.386 132.569C174.626 132.034 174.994 131.565 175.458 131.205" stroke="#263238" stroke-linecap="round" stroke-linejoin="round"/>
<path d="M174.495 136.279C174.495 136.279 173.174 137.416 173.174 138.128" stroke="#263238" stroke-linecap="round" stroke-linejoin="round"/>
<path d="M168.412 134.277C169.979 134.861 171.279 137.298 172.227 137.713" stroke="#263238" stroke-linecap="round" stroke-linejoin="round"/>
<path d="M187.393 126.516C188.34 127.878 190.465 137.78 192.605 140.913" stroke="#263238" stroke-linecap="round" stroke-linejoin="round"/>
<path d="M195.339 123.72C195.518 123.837 196.762 127.688 196.762 127.688" stroke="#263238" stroke-linecap="round" stroke-linejoin="round"/>
<path d="M211.246 148.117C211.558 150.087 212.126 152.008 212.936 153.831" stroke="#263238" stroke-linecap="round" stroke-linejoin="round"/>
<path d="M189.512 163.487C189.353 162.837 188.667 158.572 187.822 157.148" stroke="#263238" stroke-linecap="round" stroke-linejoin="round"/>
<path opacity="0.2" d="M46.0244 230.037C46.0244 230.037 62.6849 207.637 75.2494 203.536C87.8139 199.435 88.4334 193.869 87.9214 183.486C87.4094 173.102 87.7883 162.637 84.3374 161.388C80.8865 160.139 88.4743 146.581 84.8494 141.21L61.0772 178.555L46.0244 230.037Z" fill="black" fill-opacity="0.7"/>
<path d="M41.9844 236.278L41.7336 236.196L42.092 236.395L41.9844 236.278ZM82.4836 167.562C80.4356 166.605 76.3703 162.115 75.8635 161.551C78.4235 157.24 80.9528 153.083 81.8283 152.084C83.6459 150.036 85.8628 144.061 84.9617 141.174C84.1374 138.522 81.4391 138.947 81.0705 139.018H81.0295C81.0157 139.02 81.0025 139.026 80.9909 139.034C80.9794 139.042 80.9698 139.052 80.963 139.064C80.9067 139.162 75.4129 148.424 73.708 150.641C72.8939 151.695 71.02 154.097 69.1 156.503L68.5316 156.416C67.3408 156.231 66.126 156.265 64.9476 156.518L64.8299 156.559C64.2204 156.822 63.6331 157.134 63.0737 157.491L62.6692 157.322C61.8603 156.984 60.186 156.334 59.3924 156.298C58.4248 156.247 55.0148 157.834 52.9771 159.114C51.5723 158.688 50.1082 158.489 48.6404 158.525C47.0788 158.592 43.8942 159.887 41.3342 160.927C40.1976 161.387 39.2145 161.787 38.6411 161.951L38.1291 162.104C36.5931 162.56 35.7636 162.816 34.6987 164.946C33.5928 167.158 32.3998 175.406 31.8264 179.369L31.7496 179.907C31.5294 181.443 31.5652 184.136 31.6011 187.008C31.6574 191.002 31.7137 195.128 31.1198 196.736C30.3175 198.761 29.2575 200.675 27.9659 202.429C27.7969 202.67 27.6433 202.895 27.5 203.11C26.7006 204.358 26.0623 205.701 25.6004 207.109C25.1704 208.246 24.6328 209.495 24.1105 210.637C23.148 212.751 22.252 214.497 22.252 214.497C22.252 214.497 40.4024 234.522 41.9844 236.278C42.0697 236.31 42.1569 236.338 42.2456 236.36C42.307 236.257 45.6555 230.533 49.2036 224.886C52.2756 220.011 55.4654 215.194 56.8324 214.088C58.707 212.479 60.0703 210.358 60.7544 207.985C61.4916 205.614 66.1969 202.691 70.7486 199.864C75.7815 196.741 80.9886 193.51 81.1627 190.838C81.26 189.455 81.5774 187.167 81.946 184.509C82.9444 177.311 84.1835 168.346 82.4836 167.562ZM73.8615 179.072L71.6241 181.248C71.3067 179.456 69.1307 177.075 68.7876 176.712C68.9597 175.85 69.0709 174.978 69.1204 174.1C69.2024 173.102 69.2894 172.052 69.5351 171.883C69.7809 171.715 70.9124 169.835 72.7556 166.763C72.9092 168.929 74.8036 171.315 75.0596 171.658L73.8615 179.072Z" fill="white"/>
<path opacity="0.4" d="M47.2935 172.421C46.633 178.32 40.8526 192.952 40.8526 192.952L39.8286 178.212C39.8286 178.212 35.3281 198.216 34.0942 198.938C32.8602 199.66 30.6945 203.484 29.4862 206.52C28.6721 208.568 25.9022 209.961 24.1562 210.663C24.6682 209.521 25.2161 208.271 25.6462 207.135C26.1081 205.727 26.7463 204.384 27.5457 203.136C27.689 202.921 27.8426 202.696 28.0116 202.455C29.3032 200.701 30.3632 198.787 31.1655 196.762C31.7594 195.144 31.6775 191.017 31.6468 187.034C31.611 184.161 31.5751 181.448 31.7953 179.932L31.8721 179.395C32.4455 175.432 33.6385 167.183 34.7444 164.972C35.8094 162.842 36.649 162.586 38.1748 162.13L38.6868 161.976C39.2602 161.797 40.2228 161.398 41.3799 160.952C43.9399 159.928 47.1246 158.618 48.6862 158.551C50.1459 158.521 51.6011 158.723 52.9972 159.15C55.0452 157.865 58.4449 156.283 59.4126 156.334C60.2062 156.37 61.8804 157.02 62.6894 157.358C59.2897 159.109 53.5706 163.328 53.5706 163.328C47.1041 164.731 47.2935 172.421 47.2935 172.421Z" fill="#007AEC"/>
<path opacity="0.4" d="M58.752 164.587C60.4258 163.428 62.1606 162.36 63.9488 161.387C65.6076 160.609 66.1401 157.506 64.9728 156.631C64.9291 156.598 64.8781 156.577 64.8243 156.569L64.942 156.528C66.1204 156.275 67.3352 156.24 68.526 156.426C66.3808 159.646 64.7014 162.114 64.256 162.647C62.7814 164.439 58.752 164.587 58.752 164.587Z" fill="#007AEC"/>
<path opacity="0.4" d="M67.2158 184.796L67.9992 185.134C67.523 187.033 67.2158 184.796 67.2158 184.796Z" fill="#007AEC"/>
<path opacity="0.4" d="M82.4841 167.562C80.4361 166.605 76.3708 162.115 75.8639 161.551C78.4239 157.24 80.9532 153.083 81.8287 152.084C83.6463 150.036 85.8633 144.061 84.9622 141.174C84.1379 138.522 81.4396 138.947 81.071 139.018V139.131C81.071 139.131 83.9894 139.494 83.9843 143.713C83.9791 147.932 76.4015 156.293 76.4015 156.293C76.4015 156.293 68.6089 170.911 68.0969 170.691C67.5849 170.47 66.4431 180.459 66.4431 180.459C66.4431 180.459 68.614 182.308 68.0969 184.796C68.0696 184.919 68.044 185.032 68.0201 185.134L71.3583 186.573C71.3583 186.573 74.7068 184.223 76.4067 187.679C78.1065 191.135 60.0636 203.484 58.6454 205.312C58.6454 205.312 58.4457 212.198 55.814 213.212C54.1091 213.867 51.1036 220.38 49.2041 224.891C52.2761 220.017 55.4659 215.199 56.8329 214.093C58.7075 212.484 60.0708 210.363 60.7548 207.99C61.4921 205.619 66.1974 202.696 70.7491 199.869C75.782 196.746 80.9891 193.515 81.1631 190.843C81.2604 189.46 81.5779 187.172 81.9465 184.515C82.9449 177.311 84.1839 168.346 82.4841 167.562ZM73.862 179.072L71.6246 181.248C71.3071 179.456 69.1311 177.075 68.7881 176.712C68.9601 175.85 69.0713 174.978 69.1209 174.1C69.2028 173.102 69.2899 172.052 69.5356 171.883C69.7814 171.715 70.9129 169.835 72.7561 166.763C72.9097 168.929 74.8041 171.315 75.0601 171.658L73.862 179.072Z" fill="#007AEC"/>
<path d="M60.6523 164.721C62.0475 164.421 63.3157 163.697 64.2824 162.647C65.8184 160.922 72.0648 152.966 73.7954 150.718C75.5259 148.47 81.0555 139.131 81.0555 139.131C81.0555 139.131 83.9944 138.44 84.8597 141.21C85.725 143.98 83.6514 149.853 81.7467 152.013C79.8421 154.174 70.1602 171.295 69.4587 171.812C68.7573 172.329 69.2898 177.178 67.9227 178.212" stroke="#263238" stroke-linecap="round" stroke-linejoin="round"/>
<path d="M68.665 176.757C68.665 176.757 71.3735 179.594 71.5476 181.493L73.9642 179.128L75.1777 171.637C75.1777 171.637 72.7866 168.76 72.8583 166.395" stroke="#263238" stroke-linecap="round" stroke-linejoin="round"/>
<path d="M75.7305 161.566C75.7305 161.566 80.19 166.625 82.4377 167.664C84.6854 168.704 81.4137 185.82 81.0553 190.832C80.6969 195.845 62.2086 202.926 60.6521 207.948C59.978 210.304 58.6245 212.409 56.7609 214C53.7606 216.432 42.1484 236.308 42.1484 236.308" stroke="#263238" stroke-linecap="round" stroke-linejoin="round"/>
<path d="M69.1669 156.631C69.1669 156.631 66.5301 156.145 64.9737 156.631C63.4172 157.118 56.8329 161.792 55.2969 162.647C53.7609 163.502 51.4927 163.671 50.9756 164.721" stroke="#263238" stroke-linecap="round" stroke-linejoin="round"/>
<path d="M63.0789 157.624C63.0789 157.624 60.4165 156.467 59.3925 156.416C58.3685 156.365 54.2059 158.326 52.3064 159.708C50.8459 160.779 49.2055 161.58 47.4629 162.074" stroke="#263238" stroke-linecap="round" stroke-linejoin="round"/>
<path d="M52.9825 159.232C51.5865 158.796 50.1286 158.59 48.6664 158.623C46.4136 158.72 40.5358 161.485 38.6926 162.063C36.8494 162.642 35.9841 162.693 34.8321 165.002C33.6801 167.311 32.4104 176.353 31.8932 179.927C31.3761 183.501 32.2977 193.961 31.2584 196.787C30.219 199.613 28.6164 201.728 27.6488 203.197C25.6776 206.126 25.8977 208.317 22.3086 214.523" stroke="#263238" stroke-linecap="round" stroke-linejoin="round"/>
<path d="M48.8093 165.499C46.5616 167.491 46.9763 171.295 47.2733 172.421C47.5703 173.548 46.193 178.053 45.7373 180.46" stroke="#263238" stroke-linecap="round" stroke-linejoin="round"/>
<path d="M63.0793 167.424C58.9833 167.511 57.7135 170.276 57.4473 172.093" stroke="#263238" stroke-linecap="round" stroke-linejoin="round"/>
<path d="M45.7831 163.328C44.5697 163.241 41.4567 165.146 40.8525 168.259" stroke="#263238" stroke-linecap="round" stroke-linejoin="round"/>
<path d="M75.1777 171.638C75.1777 171.638 75.7819 169.912 76.3861 169.738" stroke="#263238" stroke-linecap="round" stroke-linejoin="round"/>
<path d="M73.9643 179.128C73.6661 180.143 73.2965 181.135 72.8584 182.098C72.3464 183.122 72.8584 184.755 72.8584 184.755" stroke="#263238" stroke-linecap="round" stroke-linejoin="round"/>
<path d="M71.5478 181.494C71.4608 183.225 69.5561 185.078 69.167 184.756" stroke="#263238" stroke-linecap="round" stroke-linejoin="round"/>
<path d="M55.2655 178.555C55.204 180.459 51.748 194.376 51.748 194.376" stroke="#263238" stroke-linecap="round" stroke-linejoin="round"/>
</svg>
