<svg width="34" height="34" viewBox="0 0 34 34" fill="none" xmlns="http://www.w3.org/2000/svg">
<rect width="34" height="34" rx="17" fill="#FF4B4B"/>
<path d="M23.0374 15.9724L19.5349 14.4649L18.7549 14.1349C18.6349 14.0749 18.5299 13.9174 18.5299 13.7824V11.4874C18.5299 10.7674 17.9974 9.91242 17.3524 9.58242C17.1274 9.46992 16.8574 9.46992 16.6324 9.58242C15.9949 9.91242 15.4624 10.7749 15.4624 11.4949V13.7899C15.4624 13.9249 15.3574 14.0824 15.2374 14.1424L10.9624 15.9799C10.4899 16.1749 10.1074 16.7674 10.1074 17.2774V18.2674C10.1074 18.9049 10.5874 19.2199 11.1799 18.9649L14.9374 17.3449C15.2299 17.2174 15.4699 17.3749 15.4699 17.6974V18.5299V19.8799C15.4699 20.0524 15.3724 20.2999 15.2524 20.4199L13.5124 22.1674C13.3324 22.3474 13.2499 22.6999 13.3324 22.9549L13.6699 23.9749C13.8049 24.4174 14.3074 24.6274 14.7199 24.4174L16.5049 22.9174C16.7749 22.6849 17.2174 22.6849 17.4874 22.9174L19.2724 24.4174C19.6849 24.6199 20.1874 24.4174 20.3374 23.9749L20.6749 22.9549C20.7574 22.7074 20.6749 22.3474 20.4949 22.1674L18.7549 20.4199C18.6274 20.2999 18.5299 20.0524 18.5299 19.8799V17.6974C18.5299 17.3749 18.7624 17.2249 19.0624 17.3449L22.8199 18.9649C23.4124 19.2199 23.8924 18.9049 23.8924 18.2674V17.2774C23.8924 16.7674 23.5099 16.1749 23.0374 15.9724Z" fill="white"/>
</svg>
