<svg width="1110" height="289" viewBox="0 0 1110 289" fill="none" xmlns="http://www.w3.org/2000/svg">
<mask id="mask0_617_5062" style="mask-type:alpha" maskUnits="userSpaceOnUse" x="0" y="0" width="1110" height="289">
<rect y="0.0996094" width="1110" height="288" rx="16" fill="#C4C4C4"/>
</mask>
<g mask="url(#mask0_617_5062)">
<rect y="0.0996094" width="1110" height="288" rx="16" fill="#1563FF"/>
<path opacity="0.15" d="M730.287 206.814C612.471 122.176 450.106 221.081 321.429 154.1C254.479 119.25 240.901 87.8018 192.858 35.8142C162.043 2.46906 159.105 -3.33595 129.858 -27.1858C100.61 -51.0357 47.5723 -78.6144 47.5723 -78.6144V-166.043H1432.29V416.386H1101.86C1101.86 416.386 925.373 419.135 840.858 346.957C789.455 303.058 790.597 250.141 730.287 206.814Z" fill="white"/>
<path opacity="0.15" d="M777.857 178.814C660.041 94.1765 497.676 214.938 369 147.957C302.049 113.107 267 -10.4001 247.5 -46.9001C236.815 -66.9001 220.5 -84.9001 194 -98.9001C167.5 -112.9 95.1426 -106.614 95.1426 -106.614V-194.043H1479.86V351.814H1170C1170 351.814 952.714 358.814 882 308.671C820.285 264.91 838.168 222.141 777.857 178.814Z" fill="white"/>
</g>
</svg>
