<svg width="35" height="35" viewBox="0 0 35 35" fill="none" xmlns="http://www.w3.org/2000/svg">
<rect width="35" height="35" rx="17.5" fill="#007AEC"/>
<path d="M16.9904 10.7549H12.3212C10.8298 10.7549 10.0803 11.5118 10.0803 13.0183V24.9948H14.1275V22.1843C14.1275 21.877 14.3823 21.6222 14.6896 21.6222C14.9969 21.6222 15.2517 21.8695 15.2517 22.1843V24.9948H19.2239V13.0183C19.2239 11.5118 18.4819 10.7549 16.9904 10.7549ZM16.5632 18.0622H12.8534C12.5461 18.0622 12.2913 17.8074 12.2913 17.5001C12.2913 17.1928 12.5461 16.938 12.8534 16.938H16.5632C16.8705 16.938 17.1253 17.1928 17.1253 17.5001C17.1253 17.8074 16.8705 18.0622 16.5632 18.0622ZM16.5632 15.2517H12.8534C12.5461 15.2517 12.2913 14.9969 12.2913 14.6896C12.2913 14.3823 12.5461 14.1275 12.8534 14.1275H16.5632C16.8705 14.1275 17.1253 14.3823 17.1253 14.6896C17.1253 14.9969 16.8705 15.2517 16.5632 15.2517Z" fill="white"/>
<path d="M25.7441 24.4327H24.0428V22.1843C24.7548 21.952 25.2719 21.285 25.2719 20.498V18.9991C25.2719 18.0173 24.47 17.2153 23.4882 17.2153C22.5064 17.2153 21.7044 18.0173 21.7044 18.9991V20.498C21.7044 21.2775 22.2141 21.937 22.9111 22.1768V24.4327H9.25571C8.94842 24.4327 8.6936 24.6876 8.6936 24.9948C8.6936 25.3021 8.94842 25.5569 9.25571 25.5569H23.4432C23.4582 25.5569 23.4657 25.5644 23.4807 25.5644C23.4957 25.5644 23.5031 25.5569 23.5181 25.5569H25.7441C26.0514 25.5569 26.3062 25.3021 26.3062 24.9948C26.3062 24.6876 26.0514 24.4327 25.7441 24.4327Z" fill="white"/>
</svg>
