<svg width="34" height="34" viewBox="0 0 34 34" fill="none" xmlns="http://www.w3.org/2000/svg">
<rect width="34" height="34" rx="17" fill="#167BA9"/>
<path d="M24.5 23.9375H23.75V15.485C23.75 15.02 23.54 14.585 23.1725 14.3L22.25 13.58L22.235 11.7425C22.235 11.33 21.8975 11 21.485 11H18.9275L17.9225 10.22C17.3825 9.79254 16.6175 9.79254 16.0775 10.22L10.8275 14.3C10.46 14.585 10.25 15.02 10.25 15.4775L10.2125 23.9375H9.5C9.1925 23.9375 8.9375 24.1925 8.9375 24.5C8.9375 24.8075 9.1925 25.0625 9.5 25.0625H24.5C24.8075 25.0625 25.0625 24.8075 25.0625 24.5C25.0625 24.1925 24.8075 23.9375 24.5 23.9375ZM12.875 17.5625V16.4375C12.875 16.025 13.2125 15.6875 13.625 15.6875H15.125C15.5375 15.6875 15.875 16.025 15.875 16.4375V17.5625C15.875 17.975 15.5375 18.3125 15.125 18.3125H13.625C13.2125 18.3125 12.875 17.975 12.875 17.5625ZM18.875 23.9375H15.125V21.875C15.125 21.2525 15.6275 20.75 16.25 20.75H17.75C18.3725 20.75 18.875 21.2525 18.875 21.875V23.9375ZM21.125 17.5625C21.125 17.975 20.7875 18.3125 20.375 18.3125H18.875C18.4625 18.3125 18.125 17.975 18.125 17.5625V16.4375C18.125 16.025 18.4625 15.6875 18.875 15.6875H20.375C20.7875 15.6875 21.125 16.025 21.125 16.4375V17.5625Z" fill="white"/>
</svg>
