<svg width="22" height="21" viewBox="0 0 22 21" fill="none" xmlns="http://www.w3.org/2000/svg">
<path d="M21 19.2502H20V7.98021C20 7.36021 19.72 6.78021 19.23 6.40021L18 5.44021L17.98 2.99021C17.98 2.44021 17.53 2.00021 16.98 2.00021H13.57L12.23 0.960215C11.51 0.390215 10.49 0.390215 9.77 0.960215L2.77 6.40021C2.28 6.78021 2 7.36021 2 7.97021L1.95 19.2502H1C0.59 19.2502 0.25 19.5902 0.25 20.0002C0.25 20.4102 0.59 20.7502 1 20.7502H21C21.41 20.7502 21.75 20.4102 21.75 20.0002C21.75 19.5902 21.41 19.2502 21 19.2502ZM5.5 10.7502V9.25021C5.5 8.70021 5.95 8.25021 6.5 8.25021H8.5C9.05 8.25021 9.5 8.70021 9.5 9.25021V10.7502C9.5 11.3002 9.05 11.7502 8.5 11.7502H6.5C5.95 11.7502 5.5 11.3002 5.5 10.7502ZM13.5 19.2502H8.5V16.5002C8.5 15.6702 9.17 15.0002 10 15.0002H12C12.83 15.0002 13.5 15.6702 13.5 16.5002V19.2502ZM16.5 10.7502C16.5 11.3002 16.05 11.7502 15.5 11.7502H13.5C12.95 11.7502 12.5 11.3002 12.5 10.7502V9.25021C12.5 8.70021 12.95 8.25021 13.5 8.25021H15.5C16.05 8.25021 16.5 8.70021 16.5 9.25021V10.7502Z" fill="#167BA9"/>
</svg>
