<svg width="34" height="34" viewBox="0 0 34 34" fill="none" xmlns="http://www.w3.org/2000/svg">
<rect width="34" height="34" rx="17" fill="#FC980F"/>
<path d="M19.9089 11.1689C18.7231 11.1689 17.6618 11.7455 17.0001 12.6299C16.3384 11.7455 15.2771 11.1689 14.0913 11.1689C12.08 11.1689 10.4487 12.8068 10.4487 14.8312C10.4487 15.6108 10.5732 16.3314 10.7894 16.9997C11.8245 20.2754 15.015 22.2342 16.5939 22.7714C16.8167 22.8501 17.1836 22.8501 17.4063 22.7714C18.9852 22.2342 22.1757 20.2754 23.2108 16.9997C23.427 16.3314 23.5515 15.6108 23.5515 14.8312C23.5515 12.8068 21.9202 11.1689 19.9089 11.1689Z" fill="white"/>
</svg>
