<svg width="256" height="256" viewBox="0 0 256 256" fill="none" xmlns="http://www.w3.org/2000/svg">
<path d="M84.5773 30.6787C84.5773 30.6787 45.7831 50.4419 26.4346 80.8956C7.08609 111.349 8.61697 150.528 32.128 179.609C55.639 208.691 100.577 204.871 138.204 223.293C175.831 241.715 217.344 237.921 235.136 198.891C252.928 159.861 226.099 145.275 221.491 100.106C216.883 54.9372 176.164 -11.2029 84.5773 30.6787Z" fill="#1F95FF"/>
<path opacity="0.7" d="M84.5773 30.6787C84.5773 30.6787 45.7831 50.4419 26.4346 80.8956C7.08609 111.349 8.61697 150.528 32.128 179.609C55.639 208.691 100.577 204.871 138.204 223.293C175.831 241.715 217.344 237.921 235.136 198.891C252.928 159.861 226.099 145.275 221.491 100.106C216.883 54.9372 176.164 -11.2029 84.5773 30.6787Z" fill="white"/>
<path d="M198.784 207.734C198.784 207.734 176.983 169.472 182.016 159.714C187.049 149.955 199.9 167.501 199.9 167.501C199.9 167.501 188.723 131.815 194.872 116.224C201.021 100.634 211.64 116.224 212.198 127.258C212.757 138.292 209.961 157.108 209.961 157.108C209.961 157.108 214.436 118.195 225.055 129.854C235.674 141.512 211.64 180.465 211.64 180.465C211.64 180.465 227.85 171.382 227.287 183.061C226.724 194.74 207.729 205.123 207.729 205.123" fill="#1F95FF"/>
<path d="M198.968 200.597C198.968 200.597 178.796 181.775 188.626 173.343C198.456 164.91 203.628 182.426 203.628 182.426C203.628 182.426 192.763 128.568 210.35 126.618C227.937 124.667 215.004 173.338 215.004 173.338C215.004 173.338 230.006 152.576 228.972 169.472C227.937 186.368 205.696 200.622 205.696 200.622" stroke="#263238" stroke-miterlimit="10"/>
<path d="M208.876 197.172L195.246 182.4" stroke="#263238" stroke-miterlimit="10"/>
<path d="M206.039 198.308L209.731 155.131" stroke="#263238" stroke-miterlimit="10"/>
<path d="M205.471 195.18L217.682 178.99" stroke="#263238" stroke-miterlimit="10"/>
<path d="M223.135 192.169H185.426L189.199 236.646H219.361L223.135 192.169Z" fill="#263238"/>
<path d="M79.1807 140.591C74.2779 138.185 69.2099 136.132 64.0153 134.447C56.5298 132.143 47.6978 134.252 47.5033 136.746C47.3087 139.239 48.6399 138.097 50.3858 140.801C52.1318 143.504 51.3433 149.822 53.8418 155.582C56.3404 161.342 63.8207 164.22 63.8207 164.22L79.1807 140.591Z" fill="#1F95FF" stroke="#263238" stroke-linecap="round" stroke-linejoin="round"/>
<path opacity="0.3" d="M74.1885 146.161C74.1885 146.161 62.6685 138.865 55.951 136.367C49.2336 133.868 48.8496 137.519 48.8496 137.519C49.9547 137.924 50.9031 138.669 51.5589 139.647C52.2147 140.625 52.5442 141.785 52.5002 142.961C52.5002 147.272 54.6557 156.201 59.8934 158.045C65.1312 159.888 74.1885 146.161 74.1885 146.161Z" fill="black"/>
<path d="M156.388 154.313C159.399 153.169 160.844 149.622 159.616 146.389C158.388 143.156 154.952 141.462 151.941 142.606C148.93 143.75 147.485 147.298 148.713 150.53C149.941 153.763 153.377 155.457 156.388 154.313Z" fill="#1F95FF" stroke="#263238" stroke-linecap="round" stroke-linejoin="round"/>
<path d="M73.8457 215.46L80.3071 234.844C80.4824 235.37 80.8185 235.826 81.2679 236.15C81.7173 236.473 82.2571 236.647 82.8108 236.647H92.8819C93.3971 236.647 93.9012 236.497 94.3317 236.214C94.7622 235.931 95.1001 235.528 95.3036 235.054L99.8092 224.599" fill="#1F95FF"/>
<path opacity="0.3" d="M77.0869 215.46L82.4322 234.844C82.5333 235.331 82.7915 235.771 83.1671 236.097C83.5427 236.422 84.0148 236.615 84.5109 236.647H92.8616C93.3203 236.623 93.7601 236.457 94.1199 236.171C94.4797 235.886 94.7414 235.495 94.8687 235.054L98.6063 224.599" fill="black"/>
<path d="M73.8457 215.46L80.3071 234.844C80.4824 235.37 80.8185 235.826 81.2679 236.15C81.7173 236.473 82.2571 236.647 82.8108 236.647H92.8819C93.3971 236.647 93.9012 236.497 94.3317 236.214C94.7622 235.931 95.1001 235.528 95.3036 235.054L99.8092 224.599" stroke="#263238" stroke-linecap="round" stroke-linejoin="round"/>
<path d="M122.444 215.46L115.988 234.844C115.813 235.37 115.477 235.826 115.027 236.15C114.578 236.473 114.038 236.647 113.484 236.647H103.423C102.908 236.647 102.404 236.497 101.974 236.214C101.543 235.931 101.205 235.528 101.002 235.054L96.4961 224.599" fill="#263238"/>
<path d="M122.444 215.46L115.988 234.844C115.813 235.37 115.477 235.826 115.027 236.15C114.578 236.473 114.038 236.647 113.484 236.647H103.423C102.908 236.647 102.404 236.497 101.974 236.214C101.543 235.931 101.205 235.528 101.002 235.054L96.4961 224.599" stroke="#263238" stroke-linecap="round" stroke-linejoin="round"/>
<path d="M143.841 215.46L137.38 234.844C137.205 235.37 136.869 235.826 136.419 236.15C135.97 236.473 135.43 236.647 134.876 236.647H124.805C124.29 236.647 123.786 236.497 123.355 236.214C122.925 235.931 122.587 235.528 122.384 235.054L117.878 224.599" fill="#1F95FF"/>
<path opacity="0.3" d="M139.264 215.46L134.845 234.844C134.599 235.919 133.913 236.647 133.135 236.647H126.249C125.532 236.647 124.881 236.022 124.595 235.054L120.314 224.814" fill="black"/>
<path d="M143.841 215.46L137.38 234.844C137.205 235.37 136.869 235.826 136.419 236.15C135.97 236.473 135.43 236.647 134.876 236.647H124.805C124.29 236.647 123.786 236.497 123.355 236.214C122.925 235.931 122.587 235.528 122.384 235.054L117.878 224.599" stroke="#263238" stroke-linecap="round" stroke-linejoin="round"/>
<path d="M109.312 228.214C139.899 228.214 164.695 205.727 164.695 177.987C164.695 150.247 139.899 127.76 109.312 127.76C78.7245 127.76 53.9287 150.247 53.9287 177.987C53.9287 205.727 78.7245 228.214 109.312 228.214Z" fill="#1F95FF"/>
<path opacity="0.3" d="M147.456 143.668C150.704 150.109 152.396 157.221 152.397 164.435C152.397 192.175 127.601 214.662 97.0137 214.662C85.6313 214.719 74.4746 211.487 64.8857 205.354C74.5421 218.312 90.8902 226.858 109.43 226.858C139.126 226.858 163.19 205.041 163.19 178.126C163.159 164.655 157.148 152.485 147.456 143.668Z" fill="black"/>
<path d="M109.312 228.214C139.899 228.214 164.695 205.727 164.695 177.987C164.695 150.247 139.899 127.76 109.312 127.76C78.7245 127.76 53.9287 150.247 53.9287 177.987C53.9287 205.727 78.7245 228.214 109.312 228.214Z" stroke="#263238" stroke-linecap="round" stroke-linejoin="round"/>
<path d="M160.036 182.492C158.828 192.609 154.163 201.789 147.139 209.039" stroke="#1F95FF" stroke-width="2" stroke-linecap="round" stroke-linejoin="round"/>
<path d="M159.119 166.912C159.936 170.301 160.349 173.774 160.348 177.26" stroke="#1F95FF" stroke-width="2" stroke-linecap="round" stroke-linejoin="round"/>
<path d="M95.5801 130.893C100.144 129.827 104.815 129.291 109.501 129.296C112.502 129.295 115.498 129.514 118.466 129.951" stroke="#263238" stroke-width="4" stroke-linecap="round" stroke-linejoin="round"/>
<path d="M120.177 165.955C120.177 165.955 125.553 162.305 125.747 155.587C125.942 148.87 117.105 139.08 110.003 135.046C102.902 131.011 97.7153 131.784 97.5259 134.662C97.3365 137.539 94.8379 140.806 93.8805 146.371C92.923 151.937 92.5339 160.195 100.024 162.883" fill="#1F95FF"/>
<path d="M120.177 165.955C120.177 165.955 125.553 162.305 125.747 155.587C125.942 148.87 117.105 139.08 110.003 135.046C102.902 131.011 97.7153 131.784 97.5259 134.662C97.3365 137.539 94.8379 140.806 93.8805 146.371C92.923 151.937 92.5339 160.195 100.024 162.883" stroke="#263238" stroke-linecap="round" stroke-linejoin="round"/>
<path opacity="0.3" d="M108.61 163.799L109.711 163.963C114.432 164.644 116.091 161.562 115.952 156.933C115.763 150.405 107.126 136.581 103.475 134.661C99.8244 132.741 98.6775 135.429 98.6775 135.429C98.6775 135.429 99.1895 135.772 97.3924 141.737C96.563 144.492 93.4756 154.097 96.5323 158.357C99.2356 162.12 104.258 163.149 108.61 163.799Z" fill="black"/>
<path opacity="0.3" d="M123.904 157.184H123.832C123.765 157.175 123.7 157.153 123.642 157.119C123.583 157.085 123.532 157.04 123.491 156.986C123.45 156.933 123.421 156.871 123.403 156.806C123.386 156.74 123.382 156.672 123.392 156.605C123.447 156.212 123.48 155.815 123.489 155.418C123.591 151.834 120.668 146.688 115.86 141.942C115.812 141.894 115.774 141.838 115.748 141.776C115.721 141.714 115.708 141.647 115.707 141.579C115.707 141.512 115.719 141.445 115.745 141.382C115.77 141.32 115.808 141.263 115.855 141.215C115.902 141.167 115.959 141.128 116.021 141.102C116.083 141.076 116.15 141.062 116.218 141.062C116.285 141.061 116.352 141.074 116.415 141.099C116.477 141.125 116.534 141.162 116.582 141.21C121.661 146.227 124.626 151.547 124.513 155.443C124.502 155.878 124.468 156.312 124.411 156.744C124.393 156.866 124.333 156.978 124.239 157.059C124.146 157.139 124.027 157.184 123.904 157.184Z" fill="black"/>
<path opacity="0.3" d="M121.149 163.359C121.053 163.36 120.958 163.333 120.876 163.281C120.793 163.23 120.728 163.156 120.686 163.068C120.644 162.981 120.628 162.884 120.639 162.787C120.651 162.691 120.689 162.6 120.75 162.525C121.594 161.491 122.268 160.33 122.747 159.084C122.795 158.957 122.892 158.855 123.016 158.799C123.14 158.743 123.28 158.739 123.407 158.787C123.534 158.835 123.637 158.932 123.693 159.056C123.748 159.18 123.753 159.321 123.704 159.448C123.187 160.796 122.458 162.052 121.544 163.17C121.496 163.229 121.436 163.276 121.368 163.309C121.3 163.342 121.225 163.359 121.149 163.359Z" fill="black"/>
<path opacity="0.3" d="M83.8643 187.705C85.3786 181.636 80.1006 175.093 72.0756 173.091C64.0506 171.088 56.3176 174.385 54.8033 180.454C53.2891 186.523 58.5671 193.066 66.592 195.068C74.617 197.07 82.3501 193.774 83.8643 187.705Z" fill="black"/>
<path d="M83.1436 186.603C84.6579 180.535 79.3799 173.992 71.3549 171.989C63.3299 169.987 55.5969 173.283 54.0826 179.352C52.5684 185.421 57.8464 191.964 65.8713 193.966C73.8963 195.969 81.6294 192.672 83.1436 186.603Z" fill="#1F95FF" stroke="#263238" stroke-linecap="round" stroke-linejoin="round"/>
<path d="M64.0925 181.146C64.1847 182.518 63.6573 183.675 62.92 183.706C62.1827 183.736 61.5018 182.682 61.384 181.309C61.2663 179.937 61.8192 178.775 62.5616 178.749C63.304 178.724 64.0003 179.768 64.0925 181.146Z" stroke="#263238" stroke-linecap="round" stroke-linejoin="round"/>
<path d="M74.2399 183.691C74.3321 185.068 73.8047 186.22 73.0675 186.251C72.3302 186.282 71.6492 185.227 71.5315 183.85C71.4137 182.472 71.9667 181.32 72.7091 181.29C73.4515 181.259 74.1324 182.314 74.2399 183.691Z" stroke="#263238" stroke-linecap="round" stroke-linejoin="round"/>
<path d="M90.9876 187.249C90.8795 188.235 90.6491 189.203 90.3015 190.132C87.3626 198.073 76.7233 201.508 66.2119 198.088" stroke="#263238" stroke-width="3" stroke-linecap="round" stroke-linejoin="round"/>
<path d="M89.2725 186.496H92.5339" stroke="#263238" stroke-width="3" stroke-linecap="round" stroke-linejoin="round"/>
<path d="M68.4955 165.238C68.1371 166.728 67.2207 167.798 66.4475 167.604C65.6744 167.409 65.3365 166.068 65.7 164.562C66.0635 163.057 66.9749 162.002 67.748 162.192C68.5211 162.381 68.8591 163.743 68.4955 165.238Z" fill="#263238" stroke="#263238" stroke-linecap="round" stroke-linejoin="round"/>
<path d="M77.9382 167.296C78.2986 165.801 77.9646 164.438 77.1921 164.252C76.4196 164.065 75.5013 165.127 75.1409 166.622C74.7804 168.118 75.1145 169.481 75.887 169.667C76.6594 169.853 77.5778 168.792 77.9382 167.296Z" fill="#263238" stroke="#263238" stroke-linecap="round" stroke-linejoin="round"/>
<path d="M92.0371 221.697L97.6691 235.06C97.8713 235.538 98.2097 235.946 98.6422 236.232C99.0747 236.519 99.5821 236.672 100.101 236.673H110.341C110.855 236.672 111.358 236.521 111.788 236.24C112.218 235.958 112.557 235.557 112.763 235.085L118.907 220.888H118.641" fill="#1F95FF"/>
<path opacity="0.3" d="M103.936 219.992C100.69 219.992 96.9111 220.417 93.8545 219.71L99.1179 235.034C99.2432 235.48 99.5045 235.874 99.8653 236.164C100.226 236.453 100.668 236.622 101.13 236.647H109.568C110.024 236.622 110.461 236.456 110.819 236.171C111.176 235.887 111.437 235.499 111.565 235.06L116.659 219.429L114.611 219.71C108.114 220.417 108.283 219.992 103.936 219.992Z" fill="black"/>
<path d="M92.0371 221.697L97.6691 235.06C97.8713 235.538 98.2097 235.946 98.6422 236.232C99.0747 236.519 99.5821 236.672 100.101 236.673H110.341C110.855 236.672 111.358 236.521 111.788 236.24C112.218 235.958 112.557 235.557 112.763 235.085L118.907 220.888H118.641" stroke="#263238" stroke-linecap="round" stroke-linejoin="round"/>
<path d="M194.048 13.5369L165.729 54.3381C165.729 54.3381 163.308 60.1135 160.328 64.3989C157.348 68.6844 148.992 72.9698 148.992 72.9698C148.992 72.9698 148.25 80.9775 145.828 83.773C143.406 86.5686 138.189 84.8943 138.189 84.8943C138.189 84.8943 135.952 87.3161 133.53 88.4322C131.108 89.5484 123.658 85.4524 123.658 85.4524C123.658 85.4524 130.361 92.7177 131.292 95.1394C132.224 97.5612 133.904 99.6092 130.924 101.847C127.944 104.084 124.585 100.915 124.585 100.915C124.585 100.915 126.08 105.758 121.795 106.69C117.509 107.622 112.84 98.3036 110.976 95.1394C109.113 91.9753 103.711 80.0457 102.784 79.4876C101.857 78.9295 100.552 75.9497 102.416 73.1542C104.279 70.3586 117.499 52.4745 118.989 51.1996C120.479 49.9247 148.992 43.1612 148.992 43.1612L159.8 13.3525" fill="white"/>
<path opacity="0.2" d="M162.816 54.7837C162.816 54.7837 159.744 63.9997 156.416 65.7917C153.088 67.5837 134.144 72.4477 126.72 71.4237C119.296 70.3997 115.2 67.5837 115.2 67.5837C115.2 67.5837 111.104 72.9597 109.312 74.7517C108.064 75.9106 106.579 76.7841 104.96 77.3117C104.96 77.3117 113.869 99.6912 120.274 106.619C120.772 106.772 121.3 106.797 121.81 106.69C126.095 105.758 124.6 100.915 124.6 100.915C124.6 100.915 127.954 104.079 130.939 101.847C133.924 99.6144 132.239 97.5613 131.307 95.1395C130.376 92.7178 123.648 85.4525 123.648 85.4525C123.648 85.4525 131.098 89.5485 133.519 88.4323C135.941 87.3162 138.179 84.8893 138.179 84.8893C138.179 84.8893 143.396 86.5687 145.818 83.7731C148.239 80.9776 148.982 72.9699 148.982 72.9699C148.982 72.9699 157.363 68.6845 160.348 64.3991C163.333 60.1136 165.75 54.3383 165.75 54.3383L177.418 37.5293L162.816 54.7837Z" fill="black"/>
<path d="M194.048 13.5369L165.729 54.3381C165.729 54.3381 163.308 60.1135 160.328 64.3989C157.348 68.6844 148.992 72.9698 148.992 72.9698C148.992 72.9698 148.25 80.9775 145.828 83.773C143.406 86.5685 138.189 84.8943 138.189 84.8943C138.189 84.8943 135.952 87.3161 133.53 88.4322C131.108 89.5484 123.658 85.4524 123.658 85.4524C123.658 85.4524 130.361 92.7177 131.292 95.1394C132.224 97.5612 133.904 99.6092 130.924 101.847C127.944 104.084 124.585 100.915 124.585 100.915C124.585 100.915 126.08 105.758 121.795 106.69C117.509 107.622 112.84 98.3036 110.976 95.1394C109.113 91.9753 103.711 80.0457 102.784 79.4876C101.857 78.9295 100.552 75.9497 102.416 73.1542C104.279 70.3586 117.499 52.4745 118.989 51.1996C120.479 49.9247 148.992 43.1612 148.992 43.1612L159.8 13.3525" stroke="#263238" stroke-linecap="round" stroke-linejoin="round"/>
<path d="M97.1934 122.337L97.9358 125.133L109.486 122.337L120.295 94.0184L113.214 91.5967L97.1934 122.337Z" fill="white" stroke="#263238" stroke-linecap="round" stroke-linejoin="round"/>
<path d="M100.731 84.7051L116.752 90.6699L108.928 126.064L90.1123 120.289L100.731 84.7051Z" fill="white" stroke="#263238" stroke-linecap="round" stroke-linejoin="round"/>
<path d="M90.7422 118.175L107.439 123.085L114.704 91.5966L100.076 86.8965L90.7422 118.175Z" fill="#1F95FF" stroke="#263238" stroke-linecap="round" stroke-linejoin="round"/>
<path d="M100.009 94.6835C99.2827 94.4912 98.5234 94.4563 97.7822 94.5811L93.4199 109.199C94.0513 109.814 94.828 110.26 95.6778 110.494C99.098 111.436 102.846 108.656 104.044 104.289C105.242 99.9213 103.424 95.6205 100.009 94.6835Z" fill="white" stroke="#263238" stroke-linecap="round" stroke-linejoin="round"/>
<path d="M99.3901 97.1051C99.3681 97.0952 99.3502 97.0782 99.339 97.0569C99.3279 97.0355 99.3242 97.011 99.3287 96.9874L99.5232 96.2296C99.5351 96.1977 99.5395 96.1635 99.5363 96.1296C99.533 96.0957 99.5221 96.0629 99.5043 96.0338C99.4866 96.0048 99.4625 95.9801 99.4338 95.9617C99.4052 95.9433 99.3727 95.9316 99.3389 95.9275L98.5248 95.733C98.4929 95.72 98.4585 95.7147 98.4242 95.7175C98.3899 95.7203 98.3567 95.7311 98.3273 95.749C98.298 95.7669 98.2732 95.7915 98.255 95.8207C98.2369 95.8499 98.2258 95.883 98.2227 95.9173L98.064 96.7006C98.058 96.7241 98.044 96.7446 98.0243 96.7587C98.0046 96.7728 97.9806 96.7794 97.9565 96.7774C97.679 96.749 97.3994 96.749 97.1219 96.7774L95.632 101.78C96.7943 102.988 98.6067 103.592 98.3661 104.606C98.2279 105.179 97.7056 105.63 96.7891 105.425C96.5975 105.399 96.4136 105.333 96.25 105.23C96.0864 105.127 95.9469 104.99 95.841 104.828C95.7351 104.666 95.6653 104.484 95.6363 104.292C95.6073 104.101 95.6198 103.906 95.673 103.72L95.719 103.515C95.7446 103.403 95.6781 103.311 95.5194 103.275L95.207 103.198L94.3213 106.157C94.677 106.481 95.0928 106.731 95.545 106.895C95.5679 106.905 95.5867 106.922 95.5979 106.945C95.6091 106.967 95.6121 106.993 95.6064 107.017L95.4221 107.668C95.4079 107.699 95.4017 107.734 95.404 107.769C95.4062 107.804 95.4169 107.837 95.435 107.867C95.4531 107.897 95.4782 107.922 95.5081 107.94C95.5379 107.957 95.5717 107.968 95.6064 107.97L96.4512 108.175C96.4809 108.19 96.5138 108.199 96.5474 108.2C96.5811 108.201 96.6145 108.195 96.6451 108.181C96.6758 108.167 96.7028 108.146 96.7242 108.12C96.7457 108.094 96.7609 108.064 96.7687 108.031L96.9069 107.386C96.9145 107.362 96.9295 107.341 96.9498 107.327C96.9701 107.312 96.9945 107.304 97.0195 107.304C98.8218 107.494 100.045 106.608 100.424 105.031C100.721 103.771 100.296 102.701 98.9805 101.693C97.7773 100.781 96.5075 100.331 96.7277 99.3989C96.8813 98.7538 97.4701 98.4568 98.2637 98.6462C98.4601 98.6778 98.6473 98.7516 98.8125 98.8625C98.9777 98.9734 99.1169 99.1187 99.2205 99.2885C99.3241 99.4583 99.3898 99.6486 99.4128 99.8462C99.4359 100.044 99.4159 100.244 99.3543 100.433L99.3184 100.576C99.3184 100.664 99.3696 100.74 99.5283 100.781L101.029 101.14C101.06 101.152 101.095 101.156 101.129 101.153C101.162 101.149 101.195 101.139 101.224 101.121C101.253 101.103 101.278 101.079 101.296 101.05C101.315 101.022 101.327 100.989 101.331 100.955L101.443 100.479C101.786 98.979 101.064 97.7042 99.3901 97.1051Z" fill="#263238"/>
<path d="M113.956 66.0736C113.956 66.0736 116.194 69.4272 116.568 72.4122C116.885 74.9563 116.29 77.5307 114.888 79.6774C113.772 81.3517 112.656 82.8416 111.724 85.4528C110.792 88.064 110.608 91.7862 109.302 93.6448C107.997 95.5034 107.254 97.3671 109.113 99.0464C110.971 100.726 115.82 100.536 118.431 95.6928C121.043 90.8493 122.717 85.632 124.391 83.7683C126.065 81.9046 131.472 77.6243 131.472 77.6243C131.472 77.6243 146.187 75.5763 148.982 72.9702C151.778 70.3642 154.2 63.2832 154.2 63.2832" fill="white"/>
<path opacity="0.2" d="M153.089 65.792C153.089 65.792 145.153 70.912 139.009 72.448C132.865 73.984 129.025 73.984 126.721 77.056C124.417 80.128 122.113 89.856 119.041 91.648C115.969 93.44 115.457 87.04 111.105 88.32L110.961 88.3712C110.536 90.368 110.163 92.416 109.302 93.6499C107.997 95.5136 107.254 97.3722 109.113 99.0515C110.971 100.731 115.82 100.541 118.431 95.6979C121.043 90.8544 122.717 85.6371 124.391 83.7734C126.065 81.9097 131.472 77.6294 131.472 77.6294C131.472 77.6294 146.187 75.5814 148.982 72.9754C150.672 71.3984 152.223 68.1933 153.186 65.8995L153.089 65.792Z" fill="black"/>
<path d="M113.956 66.0736C113.956 66.0736 116.194 69.4272 116.568 72.4122C116.885 74.9563 116.29 77.5307 114.888 79.6774C113.772 81.3517 112.656 82.8416 111.724 85.4528C110.792 88.064 110.608 91.7862 109.302 93.6448C107.997 95.5034 107.254 97.3671 109.113 99.0464C110.971 100.726 115.82 100.536 118.431 95.6928C121.043 90.8493 122.717 85.632 124.391 83.7683C126.065 81.9046 131.472 77.6243 131.472 77.6243C131.472 77.6243 146.187 75.5763 148.982 72.9702C151.778 70.3642 154.2 63.2832 154.2 63.2832" stroke="#263238" stroke-linecap="round" stroke-linejoin="round"/>
<path d="M108.181 75.3913C108.181 75.3913 113.029 77.9974 116.567 75.0176" stroke="#263238" stroke-linecap="round" stroke-linejoin="round"/>
<path d="M124.575 100.915L120.295 92.7178" stroke="#263238" stroke-linecap="round" stroke-linejoin="round"/>
<path d="M138.179 84.8939C138.179 84.8939 141.532 82.0983 141.343 75.9492" stroke="#263238" stroke-linecap="round" stroke-linejoin="round"/>
<path d="M36.3516 236.646H239.104" stroke="#263238" stroke-linecap="round" stroke-linejoin="round"/>
<path d="M18.4316 236.646H27.6476" stroke="#263238" stroke-linecap="round" stroke-linejoin="round"/>
</svg>
