<svg width="280" height="256" viewBox="0 0 280 256" fill="none" xmlns="http://www.w3.org/2000/svg">
<g clip-path="url(#clip0_1494_7142)">
<path d="M270.921 151.735C262.181 175.128 244.334 200.454 219.222 207.951C181.267 219.301 176.738 249.874 108.764 247.034C98.8394 246.667 88.9844 245.222 79.3724 242.725C74.6759 241.487 70.0626 239.952 65.5606 238.129C25.8441 222.043 5.12634 186.648 3.3892 149.608C1.12177 100.894 35.0844 77.6838 57.198 64.0792C79.3115 50.4747 105.911 -2.1943 172.758 0.079227C182.963 0.387023 193.099 1.86774 202.966 4.49218C225.457 10.5874 248.326 24.0457 261.608 43.7272C262.607 45.2063 263.56 46.718 264.466 48.2621C282.265 78.4152 282.831 119.838 270.921 151.735Z" fill="#007AEC"/>
<path opacity="0.8" d="M270.921 151.735C262.181 175.128 244.334 200.454 219.222 207.951C181.267 219.301 176.738 249.874 108.764 247.034C98.8394 246.667 88.9844 245.222 79.3724 242.725C74.6759 241.487 70.0626 239.952 65.5606 238.129C25.8441 222.043 5.12634 186.648 3.3892 149.608C1.12177 100.894 35.0844 77.6838 57.198 64.0792C79.3115 50.4747 105.911 -2.1943 172.758 0.079227C182.963 0.387023 193.099 1.86774 202.966 4.49218C225.457 10.5874 248.326 24.0457 261.608 43.7272C262.607 45.2063 263.56 46.718 264.466 48.2621C282.265 78.4152 282.831 119.838 270.921 151.735Z" fill="white"/>
<path d="M289.104 238.324H2.56641" stroke="#263238" stroke-linecap="round" stroke-linejoin="round"/>
<path d="M62.0501 168.478C62.0927 168.515 63.5373 164.9 63.6043 164.663C64.3541 161.901 64.1834 156.129 61.4954 154.374C61.0411 154.097 60.5337 153.919 60.0061 153.851C59.4785 153.782 58.9424 153.826 58.4327 153.978C57.923 154.131 57.4509 154.388 57.0472 154.735C56.6434 155.081 56.3169 155.508 56.0889 155.989C55.0527 157.994 55.6927 160.707 56.6192 162.633C57.7042 164.9 62.044 168.472 62.0501 168.478Z" fill="#263238"/>
<path d="M5.78464 160.031C7.93626 161.317 13.5317 161.908 13.5317 161.908C13.5317 161.908 12.8003 158.105 12.7271 157.867C11.8311 155.149 8.49702 150.425 5.29702 150.425C4.76489 150.443 4.24264 150.574 3.76416 150.807C3.28568 151.041 2.86168 151.373 2.51969 151.781C2.17769 152.189 1.92533 152.664 1.77901 153.176C1.63269 153.688 1.59567 154.225 1.67035 154.752C1.91416 157.026 3.94997 158.958 5.78464 160.031Z" fill="#263238"/>
<path d="M5.63858 176.433C7.96087 177.085 13.1235 176.275 13.5624 176.208C14.0154 179.164 14.667 182.086 15.5129 184.954C15.9944 186.624 16.5308 188.295 17.0915 189.965C16.7197 189.239 16.3845 188.593 16.3296 188.508C14.7449 186.125 10.2892 182.449 7.18677 183.321C6.67826 183.478 6.20863 183.741 5.80854 184.092C5.40845 184.443 5.08689 184.874 4.86487 185.358C4.64284 185.842 4.52533 186.367 4.52001 186.899C4.5147 187.431 4.62169 187.959 4.83401 188.447C5.66296 190.55 8.12544 191.854 10.1856 192.433C12.2458 193.012 16.6892 192.433 17.8534 192.238C18.079 192.848 18.2923 193.518 18.5178 194.152C19.5906 197.2 20.6755 200.247 21.6508 203.295C21.9921 204.355 22.2603 205.416 22.5955 206.477C22.2664 205.837 21.986 205.294 21.9312 205.221C20.3525 202.838 15.8908 199.156 12.7883 200.028C12.2801 200.186 11.811 200.45 11.4116 200.802C11.0121 201.154 10.6913 201.586 10.4699 202.07C10.2486 202.555 10.1316 203.08 10.1267 203.612C10.1219 204.145 10.2292 204.672 10.4416 205.16C11.2706 207.263 13.7331 208.567 15.7872 209.14C17.8412 209.713 21.8824 209.177 23.2477 208.976C23.5281 210.073 23.8085 211.17 24.0279 212.243C24.162 212.974 24.3388 213.675 24.4363 214.425C24.5338 215.175 24.6496 215.888 24.7532 216.613C24.9056 218.015 25.0702 219.453 25.186 220.825C25.2713 221.776 25.3384 222.684 25.4054 223.598C25.0763 222.538 24.3875 220.471 24.3083 220.307C23.0892 217.71 19.2553 213.401 16.0736 213.791C15.5476 213.87 15.0441 214.059 14.596 214.346C14.1479 214.633 13.7653 215.011 13.4732 215.455C13.181 215.9 12.9858 216.401 12.9004 216.926C12.8149 217.451 12.8411 217.988 12.9772 218.503C13.4771 220.709 15.714 222.373 17.6584 223.251C19.8466 224.177 24.8386 224.177 25.4664 224.177C25.57 225.689 25.6614 227.164 25.7224 228.554C25.9052 232.375 25.9479 235.685 25.9357 238.306H28.0508C28.002 235.667 27.8862 232.32 27.618 228.462C27.5144 226.92 27.3742 225.28 27.2157 223.586C28.7782 223.176 30.3166 222.68 31.8237 222.099C33.2256 224.067 37.1327 226.658 37.6386 226.975C36.8889 228.298 36.1513 229.578 35.4382 230.772C33.695 233.698 32.0858 236.221 30.7266 238.275H33.1952C34.3593 236.398 35.6759 234.204 37.0778 231.723C37.8397 230.388 38.626 228.938 39.4245 227.456C40.0035 227.658 44.77 229.285 47.1167 229.053C49.2439 228.852 51.8953 228.005 53.0839 226.079C53.3825 225.635 53.5838 225.133 53.6745 224.606C53.7653 224.079 53.7434 223.538 53.6104 223.02C53.4774 222.502 53.2363 222.018 52.9029 221.6C52.5695 221.181 52.1513 220.838 51.6759 220.593C48.7929 219.191 43.7521 222.026 41.7772 224.092C41.6614 224.214 40.5582 225.683 39.8512 226.615C40.1742 226.006 40.4912 225.396 40.8203 224.787C41.4664 223.537 42.0759 222.269 42.7403 220.91C43.0329 220.246 43.3498 219.569 43.6363 218.893C43.9228 218.216 44.1971 217.472 44.4835 216.759C45.0931 215.095 45.7026 213.37 46.1963 211.627C47.2873 212.194 51.2066 214.144 53.3521 214.266C55.4976 214.388 58.2283 213.949 59.6972 212.224C60.0559 211.831 60.3277 211.367 60.4951 210.862C60.6625 210.357 60.7217 209.822 60.6688 209.293C60.6159 208.763 60.4521 208.251 60.1881 207.788C59.9241 207.326 59.5658 206.925 59.1365 206.611C56.4972 204.782 51.0908 206.83 48.8233 208.573C48.6771 208.683 47.1898 210.122 46.3852 210.926C46.69 209.872 46.9948 208.823 47.2752 207.751C48.0736 204.648 48.7807 201.485 49.4999 198.333C49.7193 197.364 49.951 196.407 50.1765 195.444C50.5666 195.651 55.1685 198.071 57.57 198.205C59.7033 198.327 62.4462 197.888 63.9212 196.17C64.2797 195.775 64.5512 195.31 64.7182 194.805C64.8851 194.299 64.9438 193.763 64.8903 193.233C64.8369 192.703 64.6725 192.19 64.4079 191.728C64.1432 191.266 63.7843 190.864 63.3544 190.55C60.7151 188.721 55.3087 190.769 53.0412 192.519C52.8706 192.647 50.7372 194.713 50.2192 195.267C50.719 193.152 51.2371 191.043 51.8344 188.989C52.6327 186.234 53.6059 183.532 54.7479 180.901C54.9308 180.999 59.7216 183.546 62.1841 183.687C64.3174 183.808 67.0603 183.37 68.5353 181.651C68.8973 181.259 69.1726 180.795 69.3432 180.29C69.5137 179.784 69.5757 179.249 69.5251 178.718C69.4744 178.187 69.3123 177.673 69.0494 177.208C68.7864 176.744 68.4285 176.341 67.999 176.025C65.3597 174.196 59.9532 176.244 57.6858 177.987C57.5334 178.103 55.906 179.676 55.1502 180.426L54.9978 180.322C56.2251 177.686 57.6814 175.163 59.3498 172.782C60.258 171.459 61.1784 170.247 62.1353 169.088C62.9765 169.655 66.8652 172.197 69.0656 172.569C71.266 172.941 73.9418 172.788 75.5997 171.24C75.9987 170.888 76.3192 170.456 76.5404 169.972C76.7616 169.488 76.8786 168.962 76.8838 168.43C76.889 167.898 76.7822 167.371 76.5704 166.882C76.3587 166.394 76.0466 165.956 75.6546 165.596C73.2165 163.499 67.6332 164.931 65.1891 166.413C65.055 166.498 63.7932 167.467 62.8851 168.186C63.3178 167.668 63.7506 167.126 64.1772 166.644C65.762 164.816 67.3285 163.231 68.7243 161.841C69.5228 161.061 70.2664 160.366 70.9612 159.726C72.0828 159.848 76.5993 160.287 78.6839 159.616C80.7685 158.946 83.1273 157.562 83.8709 155.423C84.0572 154.926 84.1373 154.396 84.1059 153.867C84.0746 153.338 83.9326 152.821 83.689 152.35C83.4454 151.879 83.1058 151.464 82.692 151.132C82.2781 150.801 81.7994 150.56 81.2866 150.425C78.1719 149.681 73.8626 153.527 72.3753 155.971C72.2473 156.185 70.6199 159.72 70.6748 159.726H70.7418C70.0592 160.336 69.3338 160.988 68.5536 161.713C67.1212 163.079 65.506 164.627 63.8847 166.431C62.1048 168.363 60.44 170.399 58.8988 172.526C57.156 174.89 55.6281 177.405 54.3334 180.042L54.2969 180.139C54.431 179.213 54.7235 176.604 54.7235 176.397C54.7235 173.538 53.0291 168.01 49.9753 167.034C49.4642 166.886 48.9276 166.847 48.4003 166.919C47.8731 166.992 47.367 167.175 46.9151 167.456C46.4632 167.737 46.0755 168.11 45.7773 168.551C45.4792 168.992 45.2772 169.491 45.1845 170.015C44.7151 172.227 46.05 174.678 47.4519 176.287C49.0306 178.115 53.7788 180.285 54.1567 180.456C52.9039 183.171 51.8348 185.967 50.9567 188.825C50.4386 190.483 49.9632 192.177 49.5121 193.872C49.6035 193.067 49.6767 192.348 49.6767 192.244C49.6767 189.379 47.9822 183.857 44.9285 182.882C44.4177 182.733 43.8815 182.694 43.3546 182.767C42.8277 182.84 42.322 183.023 41.8706 183.304C41.4191 183.585 41.032 183.958 40.7345 184.399C40.4369 184.84 40.2356 185.339 40.1437 185.863C39.6683 188.075 41.0092 190.519 42.4051 192.135C43.8009 193.75 47.842 195.706 48.9087 196.206C48.7441 196.858 48.5673 197.511 48.4028 198.169C47.6165 201.308 46.8424 204.447 45.9647 207.501C45.666 208.573 45.3552 209.622 44.9955 210.676C45.0748 209.957 45.1357 209.354 45.1357 209.262C45.1357 206.397 43.4412 200.875 40.3936 199.894C39.8866 199.75 39.3552 199.714 38.8334 199.787C38.3115 199.86 37.8106 200.041 37.3627 200.319C36.9147 200.596 36.5296 200.964 36.2318 201.399C35.9341 201.834 35.7302 202.326 35.6332 202.844C35.1639 205.056 36.4988 207.501 37.9007 209.116C39.3026 210.731 42.9414 212.499 44.2092 213.096C43.8374 214.163 43.4656 215.229 43.0572 216.247C42.7647 216.936 42.527 217.619 42.1917 218.289L41.2531 220.295C40.607 221.544 39.9487 222.842 39.2904 224.043C38.8332 224.884 38.3883 225.677 37.9372 226.481C38.2542 225.415 38.815 223.306 38.8454 223.129C39.1307 220.627 38.7697 218.094 37.7971 215.772C37.84 215.494 37.8583 215.212 37.8519 214.931C37.8523 214.398 37.7407 213.872 37.5244 213.386C37.3082 212.899 36.9921 212.464 36.5967 212.107C36.2012 211.751 35.7353 211.482 35.2291 211.317C34.7229 211.153 34.1878 211.096 33.6584 211.152C30.4828 211.578 27.8435 216.723 27.3376 219.539C27.3376 219.703 27.1852 221.538 27.1243 222.702C27.0572 222.013 26.9963 221.343 26.9171 220.636C26.7647 219.24 26.5818 217.844 26.3807 216.369C26.2588 215.65 26.1369 214.925 26.015 214.187C25.8931 213.45 25.698 212.7 25.5456 211.944C25.1494 210.207 24.6679 208.464 24.1376 206.72C25.3567 206.586 29.7087 206.056 31.5616 204.971C33.4146 203.886 35.4626 202.015 35.7369 199.772C35.8188 199.246 35.7889 198.708 35.6492 198.194C35.5096 197.681 35.2632 197.202 34.9263 196.79C34.5893 196.377 34.1693 196.041 33.6935 195.801C33.2178 195.562 32.697 195.426 32.1651 195.402C28.9651 195.341 25.5761 200.022 24.6496 202.716C24.5887 202.887 24.1437 204.898 23.9182 206.013C23.5891 204.965 23.2721 203.923 22.9064 202.874C21.858 199.827 20.706 196.822 19.5662 193.792C19.2188 192.866 18.8835 191.964 18.5422 191.007C18.975 190.964 24.1559 190.446 26.2283 189.233C28.0569 188.16 30.1292 186.277 30.4035 184.028C30.4844 183.502 30.4539 182.965 30.3138 182.451C30.1738 181.938 29.9274 181.46 29.5906 181.048C29.2538 180.635 28.8342 180.299 28.3589 180.059C27.8836 179.82 27.3633 179.683 26.8317 179.658C23.6317 179.597 20.2428 184.284 19.3163 186.972C19.2432 187.173 18.6032 190.074 18.4752 190.824C17.7254 188.782 17.0001 186.734 16.3601 184.692C15.4882 181.938 14.796 179.131 14.2877 176.287C14.4889 176.287 19.8953 175.744 22.0226 174.507C23.8512 173.428 25.9235 171.545 26.1917 169.302C26.2736 168.776 26.2439 168.239 26.1046 167.726C25.9653 167.212 25.7195 166.734 25.3832 166.322C25.0469 165.909 24.6276 165.573 24.1525 165.333C23.6775 165.094 23.1574 164.957 22.626 164.931C19.4199 164.871 16.0371 169.552 15.1045 172.246C15.0435 172.423 14.5559 174.635 14.3487 175.696H14.1658C13.7288 172.82 13.5513 169.911 13.6355 167.004C13.6355 165.401 13.7696 163.871 13.9159 162.384C14.9338 162.384 19.5784 162.384 21.6142 161.463C23.65 160.543 25.8199 158.952 26.3319 156.752C26.4712 156.239 26.5012 155.703 26.4202 155.179C26.3392 154.654 26.1489 154.152 25.8616 153.706C25.5743 153.259 25.1964 152.878 24.7524 152.587C24.3084 152.296 23.8083 152.101 23.2843 152.016C20.0904 151.601 16.1894 155.911 14.9704 158.471C14.9033 158.611 14.3609 160.116 14.0256 161.219C14.1049 160.549 14.1658 159.86 14.2512 159.22C14.562 156.819 14.9948 154.637 15.3971 152.704C15.6348 151.613 15.8664 150.626 16.098 149.706C17.0976 149.194 21.1083 147.066 22.4736 145.36C23.839 143.653 25.0458 141.191 24.4912 139.002C24.3767 138.486 24.1557 137.999 23.8421 137.573C23.5286 137.147 23.1295 136.791 22.6704 136.528C22.2113 136.265 21.7024 136.101 21.1762 136.047C20.6501 135.992 20.1183 136.048 19.615 136.211C16.6039 137.308 15.135 142.915 15.2447 145.756C15.2447 146.006 15.8542 149.852 15.8969 149.827L15.9578 149.791C15.7201 150.675 15.4702 151.619 15.2264 152.662C14.7814 154.582 14.2999 156.764 13.9342 159.165C13.5175 161.754 13.2529 164.366 13.1418 166.986C12.9951 169.918 13.1093 172.857 13.4832 175.769C13.4861 175.803 13.4861 175.838 13.4832 175.872C13.087 175.025 11.8923 172.685 11.7765 172.514C10.1978 170.131 5.73611 166.455 2.63363 167.321C2.12547 167.48 1.65637 167.743 1.25678 168.095C0.857198 168.447 0.536052 168.879 0.314191 169.363C0.0923298 169.847 -0.0252884 170.372 -0.0310292 170.904C-0.03677 171.437 0.0694945 171.964 0.280867 172.453C1.12201 174.556 3.58449 175.86 5.63858 176.433Z" fill="#263238"/>
<path opacity="0.3" d="M5.78464 160.031C7.93626 161.317 13.5317 161.908 13.5317 161.908C13.5317 161.908 12.8003 158.105 12.7271 157.867C11.8311 155.149 8.49702 150.425 5.29702 150.425C4.76489 150.443 4.24264 150.574 3.76416 150.807C3.28568 151.041 2.86168 151.373 2.51969 151.781C2.17769 152.189 1.92533 152.664 1.77901 153.176C1.63269 153.688 1.59567 154.225 1.67035 154.752C1.91416 157.026 3.94997 158.958 5.78464 160.031Z" fill="#263238"/>
<path opacity="0.3" d="M62.0501 168.478C62.0927 168.515 63.5373 164.9 63.6043 164.663C64.3541 161.901 64.1834 156.129 61.4954 154.374C61.0411 154.097 60.5337 153.919 60.0061 153.851C59.4785 153.782 58.9424 153.826 58.4327 153.978C57.923 154.131 57.4509 154.388 57.0472 154.735C56.6434 155.081 56.3169 155.508 56.0889 155.989C55.0527 157.994 55.6927 160.707 56.6192 162.633C57.7042 164.9 62.044 168.472 62.0501 168.478Z" fill="#263238"/>
<path opacity="0.3" d="M5.63858 176.433C7.96087 177.085 13.1235 176.275 13.5624 176.208C14.0154 179.164 14.667 182.086 15.5129 184.954C15.9944 186.624 16.5308 188.295 17.0915 189.965C16.7197 189.239 16.3845 188.593 16.3296 188.508C14.7449 186.125 10.2892 182.449 7.18677 183.321C6.67826 183.478 6.20863 183.741 5.80854 184.092C5.40845 184.443 5.08689 184.874 4.86487 185.358C4.64284 185.842 4.52533 186.367 4.52001 186.899C4.5147 187.431 4.62169 187.959 4.83401 188.447C5.66296 190.55 8.12544 191.854 10.1856 192.433C12.2458 193.012 16.6892 192.433 17.8534 192.238C18.079 192.848 18.2923 193.518 18.5178 194.152C19.5906 197.2 20.6755 200.247 21.6508 203.295C21.9921 204.355 22.2603 205.416 22.5955 206.477C22.2664 205.837 21.986 205.294 21.9312 205.221C20.3525 202.838 15.8908 199.156 12.7883 200.028C12.2801 200.186 11.811 200.45 11.4116 200.802C11.0121 201.154 10.6913 201.586 10.4699 202.07C10.2486 202.555 10.1316 203.08 10.1267 203.612C10.1219 204.145 10.2292 204.672 10.4416 205.16C11.2706 207.263 13.7331 208.567 15.7872 209.14C17.8412 209.713 21.8824 209.177 23.2477 208.976C23.5281 210.073 23.8085 211.17 24.0279 212.243C24.162 212.974 24.3388 213.675 24.4363 214.425C24.5338 215.175 24.6496 215.888 24.7532 216.613C24.9056 218.015 25.0702 219.453 25.186 220.825C25.2713 221.776 25.3384 222.684 25.4054 223.598C25.0763 222.538 24.3875 220.471 24.3083 220.307C23.0892 217.71 19.2553 213.401 16.0736 213.791C15.5476 213.87 15.0441 214.059 14.596 214.346C14.1479 214.633 13.7653 215.011 13.4732 215.455C13.181 215.9 12.9858 216.401 12.9004 216.926C12.8149 217.451 12.8411 217.988 12.9772 218.503C13.4771 220.709 15.714 222.373 17.6584 223.251C19.8466 224.177 24.8386 224.177 25.4664 224.177C25.57 225.689 25.6614 227.164 25.7224 228.554C25.9052 232.375 25.9479 235.685 25.9357 238.306H28.0508C28.002 235.667 27.8862 232.32 27.618 228.462C27.5144 226.92 27.3742 225.28 27.2157 223.586C28.7782 223.176 30.3166 222.68 31.8237 222.099C33.2256 224.067 37.1327 226.658 37.6386 226.975C36.8889 228.298 36.1513 229.578 35.4382 230.772C33.695 233.698 32.0858 236.221 30.7266 238.275H33.1952C34.3593 236.398 35.6759 234.204 37.0778 231.723C37.8397 230.388 38.626 228.938 39.4245 227.456C40.0035 227.658 44.77 229.285 47.1167 229.053C49.2439 228.852 51.8953 228.005 53.0839 226.079C53.3825 225.635 53.5838 225.133 53.6745 224.606C53.7653 224.079 53.7434 223.538 53.6104 223.02C53.4774 222.502 53.2363 222.018 52.9029 221.6C52.5695 221.181 52.1513 220.838 51.6759 220.593C48.7929 219.191 43.7521 222.026 41.7772 224.092C41.6614 224.214 40.5582 225.683 39.8512 226.615C40.1742 226.006 40.4912 225.396 40.8203 224.787C41.4664 223.537 42.0759 222.269 42.7403 220.91C43.0329 220.246 43.3498 219.569 43.6363 218.893C43.9228 218.216 44.1971 217.472 44.4835 216.759C45.0931 215.095 45.7026 213.37 46.1963 211.627C47.2873 212.194 51.2066 214.144 53.3521 214.266C55.4976 214.388 58.2283 213.949 59.6972 212.224C60.0559 211.831 60.3277 211.367 60.4951 210.862C60.6625 210.357 60.7217 209.822 60.6688 209.293C60.6159 208.763 60.4521 208.251 60.1881 207.788C59.9241 207.326 59.5658 206.925 59.1365 206.611C56.4972 204.782 51.0908 206.83 48.8233 208.573C48.6771 208.683 47.1898 210.122 46.3852 210.926C46.69 209.872 46.9948 208.823 47.2752 207.751C48.0736 204.648 48.7807 201.485 49.4999 198.333C49.7193 197.364 49.951 196.407 50.1765 195.444C50.5666 195.651 55.1685 198.071 57.57 198.205C59.7033 198.327 62.4462 197.888 63.9212 196.17C64.2797 195.775 64.5512 195.31 64.7182 194.805C64.8851 194.299 64.9438 193.763 64.8903 193.233C64.8369 192.703 64.6725 192.19 64.4079 191.728C64.1432 191.266 63.7843 190.864 63.3544 190.55C60.7151 188.721 55.3087 190.769 53.0412 192.519C52.8706 192.647 50.7372 194.713 50.2192 195.267C50.719 193.152 51.2371 191.043 51.8344 188.989C52.6327 186.234 53.6059 183.532 54.7479 180.901C54.9308 180.999 59.7216 183.546 62.1841 183.687C64.3174 183.808 67.0603 183.37 68.5353 181.651C68.8973 181.259 69.1726 180.795 69.3432 180.29C69.5137 179.784 69.5757 179.249 69.5251 178.718C69.4744 178.187 69.3123 177.673 69.0494 177.208C68.7864 176.744 68.4285 176.341 67.999 176.025C65.3597 174.196 59.9532 176.244 57.6858 177.987C57.5334 178.103 55.906 179.676 55.1502 180.426L54.9978 180.322C56.2251 177.686 57.6814 175.163 59.3498 172.782C60.258 171.459 61.1784 170.247 62.1353 169.088C62.9765 169.655 66.8652 172.197 69.0656 172.569C71.266 172.941 73.9418 172.788 75.5997 171.24C75.9987 170.888 76.3192 170.456 76.5404 169.972C76.7616 169.488 76.8786 168.962 76.8838 168.43C76.889 167.898 76.7822 167.371 76.5704 166.882C76.3587 166.394 76.0466 165.956 75.6546 165.596C73.2165 163.499 67.6332 164.931 65.1891 166.413C65.055 166.498 63.7932 167.467 62.8851 168.186C63.3178 167.668 63.7506 167.126 64.1772 166.644C65.762 164.816 67.3285 163.231 68.7243 161.841C69.5228 161.061 70.2664 160.366 70.9612 159.726C72.0828 159.848 76.5993 160.287 78.6839 159.616C80.7685 158.946 83.1273 157.562 83.8709 155.423C84.0572 154.926 84.1373 154.396 84.1059 153.867C84.0746 153.338 83.9326 152.821 83.689 152.35C83.4454 151.879 83.1058 151.464 82.692 151.132C82.2781 150.801 81.7994 150.56 81.2866 150.425C78.1719 149.681 73.8626 153.527 72.3753 155.971C72.2473 156.185 70.6199 159.72 70.6748 159.726H70.7418C70.0592 160.336 69.3338 160.988 68.5536 161.713C67.1212 163.079 65.506 164.627 63.8847 166.431C62.1048 168.363 60.44 170.399 58.8988 172.526C57.156 174.89 55.6281 177.405 54.3334 180.042L54.2969 180.139C54.431 179.213 54.7235 176.604 54.7235 176.397C54.7235 173.538 53.0291 168.01 49.9753 167.034C49.4642 166.886 48.9276 166.847 48.4003 166.919C47.8731 166.992 47.367 167.175 46.9151 167.456C46.4632 167.737 46.0755 168.11 45.7773 168.551C45.4792 168.992 45.2772 169.491 45.1845 170.015C44.7151 172.227 46.05 174.678 47.4519 176.287C49.0306 178.115 53.7788 180.285 54.1567 180.456C52.9039 183.171 51.8348 185.967 50.9567 188.825C50.4386 190.483 49.9632 192.177 49.5121 193.872C49.6035 193.067 49.6767 192.348 49.6767 192.244C49.6767 189.379 47.9822 183.857 44.9285 182.882C44.4177 182.733 43.8815 182.694 43.3546 182.767C42.8277 182.84 42.322 183.023 41.8706 183.304C41.4191 183.585 41.032 183.958 40.7345 184.399C40.4369 184.84 40.2356 185.339 40.1437 185.863C39.6683 188.075 41.0092 190.519 42.4051 192.135C43.8009 193.75 47.842 195.706 48.9087 196.206C48.7441 196.858 48.5673 197.511 48.4028 198.169C47.6165 201.308 46.8424 204.447 45.9647 207.501C45.666 208.573 45.3552 209.622 44.9955 210.676C45.0748 209.957 45.1357 209.354 45.1357 209.262C45.1357 206.397 43.4412 200.875 40.3936 199.894C39.8866 199.75 39.3552 199.714 38.8334 199.787C38.3115 199.86 37.8106 200.041 37.3627 200.319C36.9147 200.596 36.5296 200.964 36.2318 201.399C35.9341 201.834 35.7302 202.326 35.6332 202.844C35.1639 205.056 36.4988 207.501 37.9007 209.116C39.3026 210.731 42.9414 212.499 44.2092 213.096C43.8374 214.163 43.4656 215.229 43.0572 216.247C42.7647 216.936 42.527 217.619 42.1917 218.289L41.2531 220.295C40.607 221.544 39.9487 222.842 39.2904 224.043C38.8332 224.884 38.3883 225.677 37.9372 226.481C38.2542 225.415 38.815 223.306 38.8454 223.129C39.1307 220.627 38.7697 218.094 37.7971 215.772C37.84 215.494 37.8583 215.212 37.8519 214.931C37.8523 214.398 37.7407 213.872 37.5244 213.386C37.3082 212.899 36.9921 212.464 36.5967 212.107C36.2012 211.751 35.7353 211.482 35.2291 211.317C34.7229 211.153 34.1878 211.096 33.6584 211.152C30.4828 211.578 27.8435 216.723 27.3376 219.539C27.3376 219.703 27.1852 221.538 27.1243 222.702C27.0572 222.013 26.9963 221.343 26.9171 220.636C26.7647 219.24 26.5818 217.844 26.3807 216.369C26.2588 215.65 26.1369 214.925 26.015 214.187C25.8931 213.45 25.698 212.7 25.5456 211.944C25.1494 210.207 24.6679 208.464 24.1376 206.72C25.3567 206.586 29.7087 206.056 31.5616 204.971C33.4146 203.886 35.4626 202.015 35.7369 199.772C35.8188 199.246 35.7889 198.708 35.6492 198.194C35.5096 197.681 35.2632 197.202 34.9263 196.79C34.5893 196.377 34.1693 196.041 33.6935 195.801C33.2178 195.562 32.697 195.426 32.1651 195.402C28.9651 195.341 25.5761 200.022 24.6496 202.716C24.5887 202.887 24.1437 204.898 23.9182 206.013C23.5891 204.965 23.2721 203.923 22.9064 202.874C21.858 199.827 20.706 196.822 19.5662 193.792C19.2188 192.866 18.8835 191.964 18.5422 191.007C18.975 190.964 24.1559 190.446 26.2283 189.233C28.0569 188.16 30.1292 186.277 30.4035 184.028C30.4844 183.502 30.4539 182.965 30.3138 182.451C30.1738 181.938 29.9274 181.46 29.5906 181.048C29.2538 180.635 28.8342 180.299 28.3589 180.059C27.8836 179.82 27.3633 179.683 26.8317 179.658C23.6317 179.597 20.2428 184.284 19.3163 186.972C19.2432 187.173 18.6032 190.074 18.4752 190.824C17.7254 188.782 17.0001 186.734 16.3601 184.692C15.4882 181.938 14.796 179.131 14.2877 176.287C14.4889 176.287 19.8953 175.744 22.0226 174.507C23.8512 173.428 25.9235 171.545 26.1917 169.302C26.2736 168.776 26.2439 168.239 26.1046 167.726C25.9653 167.212 25.7195 166.734 25.3832 166.322C25.0469 165.909 24.6276 165.573 24.1525 165.333C23.6775 165.094 23.1574 164.957 22.626 164.931C19.4199 164.871 16.0371 169.552 15.1045 172.246C15.0435 172.423 14.5559 174.635 14.3487 175.696H14.1658C13.7288 172.82 13.5513 169.911 13.6355 167.004C13.6355 165.401 13.7696 163.871 13.9159 162.384C14.9338 162.384 19.5784 162.384 21.6142 161.463C23.65 160.543 25.8199 158.952 26.3319 156.752C26.4712 156.239 26.5012 155.703 26.4202 155.179C26.3392 154.654 26.1489 154.152 25.8616 153.706C25.5743 153.259 25.1964 152.878 24.7524 152.587C24.3084 152.296 23.8083 152.101 23.2843 152.016C20.0904 151.601 16.1894 155.911 14.9704 158.471C14.9033 158.611 14.3609 160.116 14.0256 161.219C14.1049 160.549 14.1658 159.86 14.2512 159.22C14.562 156.819 14.9948 154.637 15.3971 152.704C15.6348 151.613 15.8664 150.626 16.098 149.706C17.0976 149.194 21.1083 147.066 22.4736 145.36C23.839 143.653 25.0458 141.191 24.4912 139.002C24.3767 138.486 24.1557 137.999 23.8421 137.573C23.5286 137.147 23.1295 136.791 22.6704 136.528C22.2113 136.265 21.7024 136.101 21.1762 136.047C20.6501 135.992 20.1183 136.048 19.615 136.211C16.6039 137.308 15.135 142.915 15.2447 145.756C15.2447 146.006 15.8542 149.852 15.8969 149.827L15.9578 149.791C15.7201 150.675 15.4702 151.619 15.2264 152.662C14.7814 154.582 14.2999 156.764 13.9342 159.165C13.5175 161.754 13.2529 164.366 13.1418 166.986C12.9951 169.918 13.1093 172.857 13.4832 175.769C13.4861 175.803 13.4861 175.838 13.4832 175.872C13.087 175.025 11.8923 172.685 11.7765 172.514C10.1978 170.131 5.73611 166.455 2.63363 167.321C2.12547 167.48 1.65637 167.743 1.25678 168.095C0.857198 168.447 0.536052 168.879 0.314191 169.363C0.0923298 169.847 -0.0252884 170.372 -0.0310292 170.904C-0.03677 171.437 0.0694945 171.964 0.280867 172.453C1.12201 174.556 3.58449 175.86 5.63858 176.433Z" fill="#263238"/>
<path d="M55.6074 239.158V244.388C55.6074 244.997 64.9636 245.546 76.5141 245.546C88.0646 245.546 97.4208 245.028 97.4208 244.388V239.158H55.6074Z" fill="white" stroke="#263238" stroke-linecap="round" stroke-linejoin="round"/>
<path d="M76.5141 240.328C88.0605 240.328 97.4207 239.807 97.4207 239.164C97.4207 238.521 88.0605 238 76.5141 238C64.9677 238 55.6074 238.521 55.6074 239.164C55.6074 239.807 64.9677 240.328 76.5141 240.328Z" fill="white" stroke="#263238" stroke-linecap="round" stroke-linejoin="round"/>
<path d="M76.5121 239.762C85.3823 239.762 92.5731 239.429 92.5731 239.018C92.5731 238.607 85.3823 238.274 76.5121 238.274C67.6419 238.274 60.4512 238.607 60.4512 239.018C60.4512 239.429 67.6419 239.762 76.5121 239.762Z" fill="white" stroke="#263238" stroke-linecap="round" stroke-linejoin="round"/>
<path d="M95.3359 239.756V243.809" stroke="#263238" stroke-linecap="round" stroke-linejoin="round"/>
<path d="M92.3477 240.183V244.449" stroke="#263238" stroke-linecap="round" stroke-linejoin="round"/>
<path d="M87.8691 240.292V243.596" stroke="#263238" stroke-linecap="round" stroke-linejoin="round"/>
<path d="M81.998 242.425V245.302" stroke="#263238" stroke-linecap="round" stroke-linejoin="round"/>
<path d="M75.707 245.626V241.999" stroke="#263238" stroke-linecap="round" stroke-linejoin="round"/>
<path d="M56.9414 239.756V241.572" stroke="#263238" stroke-linecap="round" stroke-linejoin="round"/>
<path d="M59.3906 244.876V242.742" stroke="#263238" stroke-linecap="round" stroke-linejoin="round"/>
<path d="M69.0957 245.088V242.528" stroke="#263238" stroke-linecap="round" stroke-linejoin="round"/>
<path d="M56.5566 233.929V239.152C56.5566 239.792 65.9128 240.317 77.4633 240.317C89.0138 240.317 98.37 239.792 98.37 239.152V233.929H56.5566Z" fill="white" stroke="#263238" stroke-linecap="round" stroke-linejoin="round"/>
<path d="M77.4633 235.093C89.0097 235.093 98.37 234.572 98.37 233.929C98.37 233.286 89.0097 232.765 77.4633 232.765C65.9169 232.765 56.5566 233.286 56.5566 233.929C56.5566 234.572 65.9169 235.093 77.4633 235.093Z" fill="white" stroke="#263238" stroke-linecap="round" stroke-linejoin="round"/>
<path d="M77.4633 234.526C86.3335 234.526 93.5242 234.193 93.5242 233.783C93.5242 233.372 86.3335 233.039 77.4633 233.039C68.5931 233.039 61.4023 233.372 61.4023 233.783C61.4023 234.193 68.5931 234.526 77.4633 234.526Z" fill="white" stroke="#263238" stroke-linecap="round" stroke-linejoin="round"/>
<path d="M96.2871 234.525V238.579" stroke="#263238" stroke-linecap="round" stroke-linejoin="round"/>
<path d="M93.2988 234.952V239.219" stroke="#263238" stroke-linecap="round" stroke-linejoin="round"/>
<path d="M88.8203 235.056V238.365" stroke="#263238" stroke-linecap="round" stroke-linejoin="round"/>
<path d="M82.9551 237.189V240.072" stroke="#263238" stroke-linecap="round" stroke-linejoin="round"/>
<path d="M76.6582 240.389V236.763" stroke="#263238" stroke-linecap="round" stroke-linejoin="round"/>
<path d="M57.8926 234.525V236.336" stroke="#263238" stroke-linecap="round" stroke-linejoin="round"/>
<path d="M60.3418 239.646V237.513" stroke="#263238" stroke-linecap="round" stroke-linejoin="round"/>
<path d="M70.0469 239.86V237.3" stroke="#263238" stroke-linecap="round" stroke-linejoin="round"/>
<path d="M56.7168 228.693V233.929C56.7168 234.569 66.0791 235.087 77.6235 235.087C89.1678 235.087 98.5301 234.569 98.5301 233.929V228.699L56.7168 228.693Z" fill="white" stroke="#263238" stroke-linecap="round" stroke-linejoin="round"/>
<path d="M77.6235 229.864C89.1699 229.864 98.5301 229.342 98.5301 228.699C98.5301 228.056 89.1699 227.535 77.6235 227.535C66.077 227.535 56.7168 228.056 56.7168 228.699C56.7168 229.342 66.077 229.864 77.6235 229.864Z" fill="white" stroke="#263238" stroke-linecap="round" stroke-linejoin="round"/>
<path d="M77.6215 229.296C86.4917 229.296 93.6824 228.963 93.6824 228.552C93.6824 228.142 86.4917 227.809 77.6215 227.809C68.7513 227.809 61.5605 228.142 61.5605 228.552C61.5605 228.963 68.7513 229.296 77.6215 229.296Z" fill="white" stroke="#263238" stroke-linecap="round" stroke-linejoin="round"/>
<path d="M96.4453 229.296V233.343" stroke="#263238" stroke-linecap="round" stroke-linejoin="round"/>
<path d="M93.457 229.717V233.983" stroke="#263238" stroke-linecap="round" stroke-linejoin="round"/>
<path d="M88.9785 229.826V233.13" stroke="#263238" stroke-linecap="round" stroke-linejoin="round"/>
<path d="M83.1133 231.96V234.837" stroke="#263238" stroke-linecap="round" stroke-linejoin="round"/>
<path d="M76.8164 235.16V231.533" stroke="#263238" stroke-linecap="round" stroke-linejoin="round"/>
<path d="M58.0508 229.296V231.106" stroke="#263238" stroke-linecap="round" stroke-linejoin="round"/>
<path d="M60.5 234.411V232.277" stroke="#263238" stroke-linecap="round" stroke-linejoin="round"/>
<path d="M70.2051 234.623V232.063" stroke="#263238" stroke-linecap="round" stroke-linejoin="round"/>
<path d="M56.5566 223.463V228.687C56.5566 229.327 65.9128 229.851 77.4633 229.851C89.0138 229.851 98.37 229.327 98.37 228.687V223.463H56.5566Z" fill="white" stroke="#263238" stroke-linecap="round" stroke-linejoin="round"/>
<path d="M77.4633 224.627C89.0097 224.627 98.37 224.106 98.37 223.463C98.37 222.82 89.0097 222.299 77.4633 222.299C65.9169 222.299 56.5566 222.82 56.5566 223.463C56.5566 224.106 65.9169 224.627 77.4633 224.627Z" fill="white" stroke="#263238" stroke-linecap="round" stroke-linejoin="round"/>
<path d="M93.5181 223.317C93.5181 223.725 86.3319 224.06 77.4633 224.06C68.5947 224.06 61.4023 223.725 61.4023 223.317C61.4023 222.908 68.5947 222.573 77.4633 222.573C86.3319 222.573 93.5181 222.902 93.5181 223.317Z" fill="white" stroke="#263238" stroke-linecap="round" stroke-linejoin="round"/>
<path d="M96.2871 224.061V228.114" stroke="#263238" stroke-linecap="round" stroke-linejoin="round"/>
<path d="M93.2988 224.487V228.754" stroke="#263238" stroke-linecap="round" stroke-linejoin="round"/>
<path d="M88.8203 224.597V227.9" stroke="#263238" stroke-linecap="round" stroke-linejoin="round"/>
<path d="M82.9551 226.724V229.607" stroke="#263238" stroke-linecap="round" stroke-linejoin="round"/>
<path d="M76.6582 229.924V226.297" stroke="#263238" stroke-linecap="round" stroke-linejoin="round"/>
<path d="M57.8926 224.061V225.877" stroke="#263238" stroke-linecap="round" stroke-linejoin="round"/>
<path d="M60.3418 229.18V227.047" stroke="#263238" stroke-linecap="round" stroke-linejoin="round"/>
<path d="M70.0469 229.393V226.833" stroke="#263238" stroke-linecap="round" stroke-linejoin="round"/>
<path d="M56.875 218.228V223.457C56.875 224.097 66.2373 224.615 77.7817 224.615C89.326 224.615 98.6883 224.097 98.6883 223.457V218.228H56.875Z" fill="white" stroke="#263238" stroke-linecap="round" stroke-linejoin="round"/>
<path d="M77.7817 219.398C89.3281 219.398 98.6883 218.876 98.6883 218.234C98.6883 217.591 89.3281 217.069 77.7817 217.069C66.2352 217.069 56.875 217.591 56.875 218.234C56.875 218.876 66.2352 219.398 77.7817 219.398Z" fill="white" stroke="#263238" stroke-linecap="round" stroke-linejoin="round"/>
<path d="M93.8365 218.082C93.8365 218.496 86.6502 218.831 77.7817 218.831C68.9131 218.831 61.7207 218.496 61.7207 218.082C61.7207 217.667 68.9131 217.338 77.7817 217.338C86.6502 217.338 93.8365 217.673 93.8365 218.082Z" fill="white" stroke="#263238" stroke-linecap="round" stroke-linejoin="round"/>
<path d="M96.6035 218.83V222.877" stroke="#263238" stroke-linecap="round" stroke-linejoin="round"/>
<path d="M93.6152 219.257V223.517" stroke="#263238" stroke-linecap="round" stroke-linejoin="round"/>
<path d="M89.1367 219.361V222.665" stroke="#263238" stroke-linecap="round" stroke-linejoin="round"/>
<path d="M83.2715 221.494V224.371" stroke="#263238" stroke-linecap="round" stroke-linejoin="round"/>
<path d="M76.9766 224.694V221.067" stroke="#263238" stroke-linecap="round" stroke-linejoin="round"/>
<path d="M58.209 218.83V220.64" stroke="#263238" stroke-linecap="round" stroke-linejoin="round"/>
<path d="M60.6582 223.945V221.817" stroke="#263238" stroke-linecap="round" stroke-linejoin="round"/>
<path d="M70.3633 224.158V221.604" stroke="#263238" stroke-linecap="round" stroke-linejoin="round"/>
<path d="M55.6074 212.998V218.222C55.6074 218.868 64.9636 219.386 76.5141 219.386C88.0646 219.386 97.4208 218.868 97.4208 218.222V212.998H55.6074Z" fill="white" stroke="#263238" stroke-linecap="round" stroke-linejoin="round"/>
<path d="M76.5141 214.161C88.0605 214.161 97.4207 213.64 97.4207 212.997C97.4207 212.354 88.0605 211.833 76.5141 211.833C64.9677 211.833 55.6074 212.354 55.6074 212.997C55.6074 213.64 64.9677 214.161 76.5141 214.161Z" fill="white" stroke="#263238" stroke-linecap="round" stroke-linejoin="round"/>
<path d="M92.567 212.851C92.567 213.266 85.3807 213.595 76.5121 213.595C67.6436 213.595 60.4512 213.266 60.4512 212.851C60.4512 212.437 67.6436 212.107 76.5121 212.107C85.3807 212.107 92.567 212.437 92.567 212.851Z" fill="white" stroke="#263238" stroke-linecap="round" stroke-linejoin="round"/>
<path d="M95.3359 213.595V217.648" stroke="#263238" stroke-linecap="round" stroke-linejoin="round"/>
<path d="M92.3477 214.021V218.288" stroke="#263238" stroke-linecap="round" stroke-linejoin="round"/>
<path d="M87.8691 214.131V217.434" stroke="#263238" stroke-linecap="round" stroke-linejoin="round"/>
<path d="M81.998 216.265V219.142" stroke="#263238" stroke-linecap="round" stroke-linejoin="round"/>
<path d="M75.707 219.458V215.838" stroke="#263238" stroke-linecap="round" stroke-linejoin="round"/>
<path d="M56.9414 213.595V215.411" stroke="#263238" stroke-linecap="round" stroke-linejoin="round"/>
<path d="M59.3906 218.715V216.582" stroke="#263238" stroke-linecap="round" stroke-linejoin="round"/>
<path d="M69.0957 218.928V216.368" stroke="#263238" stroke-linecap="round" stroke-linejoin="round"/>
<path d="M54.9727 207.768V212.991C54.9727 213.631 64.3288 214.149 75.8793 214.149C87.4298 214.149 96.786 213.631 96.786 212.991V207.768H54.9727Z" fill="white" stroke="#263238" stroke-linecap="round" stroke-linejoin="round"/>
<path d="M75.8735 208.932C87.4199 208.932 96.7801 208.411 96.7801 207.768C96.7801 207.125 87.4199 206.604 75.8735 206.604C64.327 206.604 54.9668 207.125 54.9668 207.768C54.9668 208.411 64.327 208.932 75.8735 208.932Z" fill="white" stroke="#263238" stroke-linecap="round" stroke-linejoin="round"/>
<path d="M91.9342 207.621C91.9342 208.029 84.7479 208.364 75.8793 208.364C67.0107 208.364 59.8184 208.029 59.8184 207.621C59.8184 207.212 67.0107 206.871 75.8793 206.871C84.7479 206.871 91.9342 207.206 91.9342 207.621Z" fill="white" stroke="#263238" stroke-linecap="round" stroke-linejoin="round"/>
<path d="M94.6953 208.365V212.419" stroke="#263238" stroke-linecap="round" stroke-linejoin="round"/>
<path d="M91.7148 208.792V213.059" stroke="#263238" stroke-linecap="round" stroke-linejoin="round"/>
<path d="M87.2344 208.896V212.205" stroke="#263238" stroke-linecap="round" stroke-linejoin="round"/>
<path d="M81.3652 211.028V213.911" stroke="#263238" stroke-linecap="round" stroke-linejoin="round"/>
<path d="M75.0742 214.228V210.602" stroke="#263238" stroke-linecap="round" stroke-linejoin="round"/>
<path d="M56.3086 208.365V210.176" stroke="#263238" stroke-linecap="round" stroke-linejoin="round"/>
<path d="M58.7578 213.485V211.352" stroke="#263238" stroke-linecap="round" stroke-linejoin="round"/>
<path d="M68.4609 213.699V211.139" stroke="#263238" stroke-linecap="round" stroke-linejoin="round"/>
<path d="M53.8633 202.532V207.756C53.8633 208.402 63.2195 208.92 74.77 208.92C86.3204 208.92 95.6705 208.402 95.6705 207.756V202.532H53.8633Z" fill="white" stroke="#263238" stroke-linecap="round" stroke-linejoin="round"/>
<path d="M74.7641 203.702C86.3105 203.702 95.6708 203.181 95.6708 202.538C95.6708 201.895 86.3105 201.374 74.7641 201.374C63.2177 201.374 53.8574 201.895 53.8574 202.538C53.8574 203.181 63.2177 203.702 74.7641 203.702Z" fill="white" stroke="#263238" stroke-linecap="round" stroke-linejoin="round"/>
<path d="M90.8248 202.386C90.8248 202.801 83.6385 203.13 74.7699 203.13C65.9014 203.13 58.709 202.801 58.709 202.386C58.709 201.972 65.9014 201.643 74.7699 201.643C83.6385 201.643 90.8248 201.978 90.8248 202.386Z" fill="white" stroke="#263238" stroke-linecap="round" stroke-linejoin="round"/>
<path d="M93.5859 203.129V207.182" stroke="#263238" stroke-linecap="round" stroke-linejoin="round"/>
<path d="M90.5996 203.556V207.822" stroke="#263238" stroke-linecap="round" stroke-linejoin="round"/>
<path d="M86.125 203.666V206.97" stroke="#263238" stroke-linecap="round" stroke-linejoin="round"/>
<path d="M80.2559 205.799V208.676" stroke="#263238" stroke-linecap="round" stroke-linejoin="round"/>
<path d="M73.9648 208.999V205.372" stroke="#263238" stroke-linecap="round" stroke-linejoin="round"/>
<path d="M55.1992 203.129V204.945" stroke="#263238" stroke-linecap="round" stroke-linejoin="round"/>
<path d="M57.6484 208.25V206.116" stroke="#263238" stroke-linecap="round" stroke-linejoin="round"/>
<path d="M67.3516 208.462V205.902" stroke="#263238" stroke-linecap="round" stroke-linejoin="round"/>
<path d="M55.6074 197.303V202.526C55.6074 203.136 64.9636 203.691 76.5141 203.691C88.0646 203.691 97.4208 203.166 97.4208 202.526V197.303H55.6074Z" fill="white" stroke="#263238" stroke-linecap="round" stroke-linejoin="round"/>
<path d="M76.5141 198.467C88.0605 198.467 97.4207 197.946 97.4207 197.303C97.4207 196.66 88.0605 196.139 76.5141 196.139C64.9677 196.139 55.6074 196.66 55.6074 197.303C55.6074 197.946 64.9677 198.467 76.5141 198.467Z" fill="white" stroke="#263238" stroke-linecap="round" stroke-linejoin="round"/>
<path d="M92.567 197.156C92.567 197.564 85.3807 197.9 76.5121 197.9C67.6436 197.9 60.4512 197.564 60.4512 197.156C60.4512 196.748 67.6436 196.406 76.5121 196.406C85.3807 196.406 92.567 196.748 92.567 197.156Z" fill="white" stroke="#263238" stroke-linecap="round" stroke-linejoin="round"/>
<path d="M95.3359 197.899V201.953" stroke="#263238" stroke-linecap="round" stroke-linejoin="round"/>
<path d="M92.3477 198.326V202.593" stroke="#263238" stroke-linecap="round" stroke-linejoin="round"/>
<path d="M87.8691 198.43V201.739" stroke="#263238" stroke-linecap="round" stroke-linejoin="round"/>
<path d="M81.998 200.563V203.447" stroke="#263238" stroke-linecap="round" stroke-linejoin="round"/>
<path d="M75.707 203.763V200.137" stroke="#263238" stroke-linecap="round" stroke-linejoin="round"/>
<path d="M56.9414 197.899V199.71" stroke="#263238" stroke-linecap="round" stroke-linejoin="round"/>
<path d="M59.3906 203.02V200.887" stroke="#263238" stroke-linecap="round" stroke-linejoin="round"/>
<path d="M69.0957 203.233V200.673" stroke="#263238" stroke-linecap="round" stroke-linejoin="round"/>
<path d="M54.1797 192.066V197.296C54.1797 197.936 63.5359 198.454 75.0864 198.454C86.6368 198.454 95.9869 197.936 95.9869 197.296V192.066H54.1797Z" fill="white" stroke="#263238" stroke-linecap="round" stroke-linejoin="round"/>
<path d="M95.9869 192.066C95.9869 192.706 86.6307 193.23 75.0864 193.23C63.542 193.23 54.1797 192.706 54.1797 192.066C54.1797 191.426 63.5359 190.908 75.0864 190.908C86.6368 190.908 95.9869 191.426 95.9869 192.066Z" fill="white" stroke="#263238" stroke-linecap="round" stroke-linejoin="round"/>
<path d="M91.1588 191.92C91.1588 192.335 83.9725 192.664 75.1039 192.664C66.2354 192.664 59.043 192.335 59.043 191.92C59.043 191.506 66.2354 191.177 75.1039 191.177C83.9725 191.177 91.1588 191.512 91.1588 191.92Z" fill="white" stroke="#263238" stroke-linecap="round" stroke-linejoin="round"/>
<path d="M93.9023 192.664V196.717" stroke="#263238" stroke-linecap="round" stroke-linejoin="round"/>
<path d="M90.916 193.091V197.357" stroke="#263238" stroke-linecap="round" stroke-linejoin="round"/>
<path d="M86.4414 193.2V196.504" stroke="#263238" stroke-linecap="round" stroke-linejoin="round"/>
<path d="M80.5723 195.333V198.21" stroke="#263238" stroke-linecap="round" stroke-linejoin="round"/>
<path d="M74.2812 198.533V194.906" stroke="#263238" stroke-linecap="round" stroke-linejoin="round"/>
<path d="M55.5156 192.664V194.48" stroke="#263238" stroke-linecap="round" stroke-linejoin="round"/>
<path d="M57.9648 197.784V195.65" stroke="#263238" stroke-linecap="round" stroke-linejoin="round"/>
<path d="M67.668 197.997V195.438" stroke="#263238" stroke-linecap="round" stroke-linejoin="round"/>
<path d="M55.6074 186.837V192.061C55.6074 192.701 64.9636 193.225 76.5141 193.225C88.0646 193.225 97.4208 192.701 97.4208 192.061V186.837H55.6074Z" fill="white" stroke="#263238" stroke-linecap="round" stroke-linejoin="round"/>
<path d="M97.4208 186.837C97.4208 187.477 88.0585 187.995 76.5141 187.995C64.9697 187.995 55.6074 187.477 55.6074 186.837C55.6074 186.197 64.9636 185.673 76.5141 185.673C88.0646 185.673 97.4208 186.197 97.4208 186.837Z" fill="white" stroke="#263238" stroke-linecap="round" stroke-linejoin="round"/>
<path d="M92.567 186.69C92.567 187.099 85.3807 187.434 76.5121 187.434C67.6436 187.434 60.4512 187.099 60.4512 186.69C60.4512 186.282 67.6436 185.94 76.5121 185.94C85.3807 185.94 92.567 186.276 92.567 186.69Z" fill="white" stroke="#263238" stroke-linecap="round" stroke-linejoin="round"/>
<path d="M95.3359 187.434V191.487" stroke="#263238" stroke-linecap="round" stroke-linejoin="round"/>
<path d="M92.3477 187.861V192.128" stroke="#263238" stroke-linecap="round" stroke-linejoin="round"/>
<path d="M87.8691 187.965V191.275" stroke="#263238" stroke-linecap="round" stroke-linejoin="round"/>
<path d="M81.998 190.098V192.981" stroke="#263238" stroke-linecap="round" stroke-linejoin="round"/>
<path d="M75.707 193.298V189.671" stroke="#263238" stroke-linecap="round" stroke-linejoin="round"/>
<path d="M56.9414 187.434V189.244" stroke="#263238" stroke-linecap="round" stroke-linejoin="round"/>
<path d="M59.3906 192.554V190.421" stroke="#263238" stroke-linecap="round" stroke-linejoin="round"/>
<path d="M69.0957 192.767V190.207" stroke="#263238" stroke-linecap="round" stroke-linejoin="round"/>
<path d="M57.1914 181.601V186.83C57.1914 187.44 66.5537 187.988 78.0981 187.988C89.6425 187.988 99.0047 187.47 99.0047 186.83V181.601H57.1914Z" fill="white" stroke="#263238" stroke-linecap="round" stroke-linejoin="round"/>
<path d="M78.0981 182.772C89.6445 182.772 99.0047 182.251 99.0047 181.608C99.0047 180.965 89.6445 180.443 78.0981 180.443C66.5516 180.443 57.1914 180.965 57.1914 181.608C57.1914 182.251 66.5516 182.772 78.0981 182.772Z" fill="white" stroke="#263238" stroke-linecap="round" stroke-linejoin="round"/>
<path d="M94.1529 181.455C94.1529 181.869 86.9666 182.204 78.0981 182.204C69.2295 182.204 62.0371 181.869 62.0371 181.455C62.0371 181.04 69.2295 180.711 78.0981 180.711C86.9666 180.711 94.1529 181.046 94.1529 181.455Z" fill="white" stroke="#263238" stroke-linecap="round" stroke-linejoin="round"/>
<path d="M96.9199 182.198V186.252" stroke="#263238" stroke-linecap="round" stroke-linejoin="round"/>
<path d="M93.9336 182.625V186.892" stroke="#263238" stroke-linecap="round" stroke-linejoin="round"/>
<path d="M89.4531 182.734V186.038" stroke="#263238" stroke-linecap="round" stroke-linejoin="round"/>
<path d="M83.5898 184.868V187.745" stroke="#263238" stroke-linecap="round" stroke-linejoin="round"/>
<path d="M77.293 188.068V184.441" stroke="#263238" stroke-linecap="round" stroke-linejoin="round"/>
<path d="M58.5254 182.198V184.015" stroke="#263238" stroke-linecap="round" stroke-linejoin="round"/>
<path d="M60.9766 187.319V185.186" stroke="#263238" stroke-linecap="round" stroke-linejoin="round"/>
<path d="M70.6797 187.532V184.972" stroke="#263238" stroke-linecap="round" stroke-linejoin="round"/>
<path d="M57.1914 176.694V181.918C57.1914 182.558 66.5537 183.082 78.0981 183.082C89.6425 183.082 99.0047 182.558 99.0047 181.918V176.694H57.1914Z" fill="white" stroke="#263238" stroke-linecap="round" stroke-linejoin="round"/>
<path d="M99.0047 176.694C99.0047 177.304 89.6425 177.853 78.0981 177.853C66.5537 177.853 57.1914 177.334 57.1914 176.694C57.1914 176.054 66.5537 175.53 78.0981 175.53C89.6425 175.53 99.0047 176.054 99.0047 176.694Z" fill="white" stroke="#263238" stroke-linecap="round" stroke-linejoin="round"/>
<path d="M94.1529 176.549C94.1529 176.957 86.9666 177.292 78.0981 177.292C69.2295 177.292 62.0371 176.957 62.0371 176.549C62.0371 176.14 69.2295 175.799 78.0981 175.799C86.9666 175.799 94.1529 176.134 94.1529 176.549Z" fill="white" stroke="#263238" stroke-linecap="round" stroke-linejoin="round"/>
<path d="M96.9199 177.292V181.345" stroke="#263238" stroke-linecap="round" stroke-linejoin="round"/>
<path d="M93.9336 177.719V181.985" stroke="#263238" stroke-linecap="round" stroke-linejoin="round"/>
<path d="M89.4531 177.822V181.132" stroke="#263238" stroke-linecap="round" stroke-linejoin="round"/>
<path d="M83.5898 179.955V182.838" stroke="#263238" stroke-linecap="round" stroke-linejoin="round"/>
<path d="M77.293 183.155V179.528" stroke="#263238" stroke-linecap="round" stroke-linejoin="round"/>
<path d="M58.5254 177.292V179.102" stroke="#263238" stroke-linecap="round" stroke-linejoin="round"/>
<path d="M60.9766 182.412V180.278" stroke="#263238" stroke-linecap="round" stroke-linejoin="round"/>
<path d="M70.6797 182.625V180.065" stroke="#263238" stroke-linecap="round" stroke-linejoin="round"/>
<path d="M55.1992 171.757V176.987C55.1992 177.627 64.5615 178.145 76.1059 178.145C87.6503 178.145 97.0126 177.627 97.0126 176.987V171.757H55.1992Z" fill="white" stroke="#263238" stroke-linecap="round" stroke-linejoin="round"/>
<path d="M96.9943 171.757C96.9943 172.366 87.6381 172.921 76.0876 172.921C64.5371 172.921 55.1992 172.421 55.1992 171.757C55.1992 171.092 64.5615 170.599 76.1059 170.599C87.6503 170.599 96.9943 171.147 96.9943 171.757Z" fill="white" stroke="#263238" stroke-linecap="round" stroke-linejoin="round"/>
<path d="M92.147 171.635C92.147 172.05 84.9547 172.385 76.0861 172.385C67.2175 172.385 60.0312 172.05 60.0312 171.635C60.0312 171.221 67.2175 170.892 76.0861 170.892C84.9547 170.892 92.147 171.227 92.147 171.635Z" fill="white" stroke="#263238" stroke-linecap="round" stroke-linejoin="round"/>
<path d="M94.9082 172.379V176.432" stroke="#263238" stroke-linecap="round" stroke-linejoin="round"/>
<path d="M91.9219 172.806V177.072" stroke="#263238" stroke-linecap="round" stroke-linejoin="round"/>
<path d="M87.4414 172.915V176.219" stroke="#263238" stroke-linecap="round" stroke-linejoin="round"/>
<path d="M81.5781 175.049V177.926" stroke="#263238" stroke-linecap="round" stroke-linejoin="round"/>
<path d="M75.2871 178.249V174.622" stroke="#263238" stroke-linecap="round" stroke-linejoin="round"/>
<path d="M56.5156 172.379V174.195" stroke="#263238" stroke-linecap="round" stroke-linejoin="round"/>
<path d="M58.9707 177.499V175.365" stroke="#263238" stroke-linecap="round" stroke-linejoin="round"/>
<path d="M68.6738 177.712V175.152" stroke="#263238" stroke-linecap="round" stroke-linejoin="round"/>
<path d="M52.7598 166.881V172.104C52.7598 172.744 62.116 173.269 73.6664 173.269C85.2169 173.269 94.567 172.744 94.567 172.104V166.881H52.7598Z" fill="white" stroke="#263238" stroke-linecap="round" stroke-linejoin="round"/>
<path d="M94.5365 166.881C94.5365 167.521 85.1803 168.039 73.636 168.039C62.0916 168.039 52.7598 167.491 52.7598 166.881C52.7598 166.271 62.116 165.717 73.6664 165.717C85.2169 165.717 94.5365 166.229 94.5365 166.881Z" fill="white" stroke="#263238" stroke-linecap="round" stroke-linejoin="round"/>
<path d="M89.69 166.728C89.69 167.137 82.5037 167.472 73.6352 167.472C64.7666 167.472 57.5742 167.137 57.5742 166.728C57.5742 166.32 64.7666 165.979 73.6352 165.979C82.5037 165.979 89.69 166.314 89.69 166.728Z" fill="white" stroke="#263238" stroke-linecap="round" stroke-linejoin="round"/>
<path d="M92.4512 167.473V171.526" stroke="#263238" stroke-linecap="round" stroke-linejoin="round"/>
<path d="M89.4648 167.899V172.166" stroke="#263238" stroke-linecap="round" stroke-linejoin="round"/>
<path d="M84.9902 168.003V171.313" stroke="#263238" stroke-linecap="round" stroke-linejoin="round"/>
<path d="M79.123 170.136V173.019" stroke="#263238" stroke-linecap="round" stroke-linejoin="round"/>
<path d="M72.832 173.336V169.709" stroke="#263238" stroke-linecap="round" stroke-linejoin="round"/>
<path d="M54.0645 167.473V169.283" stroke="#263238" stroke-linecap="round" stroke-linejoin="round"/>
<path d="M56.5156 172.592V170.459" stroke="#263238" stroke-linecap="round" stroke-linejoin="round"/>
<path d="M66.2188 172.805V170.245" stroke="#263238" stroke-linecap="round" stroke-linejoin="round"/>
<path d="M18.2363 240.884V246.12C18.2363 246.729 27.5986 247.284 39.143 247.284C50.6874 247.284 60.074 246.729 60.074 246.12V240.896L18.2363 240.884Z" fill="white" stroke="#263238" stroke-linecap="round" stroke-linejoin="round"/>
<path d="M39.143 242.047C50.6894 242.047 60.0497 241.526 60.0497 240.883C60.0497 240.24 50.6894 239.719 39.143 239.719C27.5966 239.719 18.2363 240.24 18.2363 240.883C18.2363 241.526 27.5966 242.047 39.143 242.047Z" fill="white" stroke="#263238" stroke-linecap="round" stroke-linejoin="round"/>
<path d="M55.1978 240.737C55.1978 241.145 48.0055 241.481 39.1369 241.481C30.2683 241.481 23.082 241.145 23.082 240.737C23.082 240.329 30.2683 239.987 39.1369 239.987C48.0055 239.987 55.1978 240.323 55.1978 240.737Z" fill="white" stroke="#263238" stroke-linecap="round" stroke-linejoin="round"/>
<path d="M57.9648 241.48V245.534" stroke="#263238" stroke-linecap="round" stroke-linejoin="round"/>
<path d="M54.9785 241.907V246.174" stroke="#263238" stroke-linecap="round" stroke-linejoin="round"/>
<path d="M50.498 242.011V245.32" stroke="#263238" stroke-linecap="round" stroke-linejoin="round"/>
<path d="M44.6348 244.145V247.028" stroke="#263238" stroke-linecap="round" stroke-linejoin="round"/>
<path d="M38.3457 247.344V243.718" stroke="#263238" stroke-linecap="round" stroke-linejoin="round"/>
<path d="M19.5703 241.48V243.291" stroke="#263238" stroke-linecap="round" stroke-linejoin="round"/>
<path d="M22.0273 246.601V244.468" stroke="#263238" stroke-linecap="round" stroke-linejoin="round"/>
<path d="M31.7324 246.814V244.254" stroke="#263238" stroke-linecap="round" stroke-linejoin="round"/>
<path d="M19.5273 235.52V240.743C19.5273 241.383 28.8896 241.901 40.434 241.901C51.9784 241.901 61.3407 241.383 61.3407 240.743V235.52H19.5273Z" fill="white" stroke="#263238" stroke-linecap="round" stroke-linejoin="round"/>
<path d="M40.434 236.684C51.9804 236.684 61.3407 236.163 61.3407 235.52C61.3407 234.877 51.9804 234.355 40.434 234.355C28.8876 234.355 19.5273 234.877 19.5273 235.52C19.5273 236.163 28.8876 236.684 40.434 236.684Z" fill="white" stroke="#263238" stroke-linecap="round" stroke-linejoin="round"/>
<path d="M40.436 236.116C49.3062 236.116 56.4969 235.783 56.4969 235.373C56.4969 234.962 49.3062 234.629 40.436 234.629C31.5657 234.629 24.375 234.962 24.375 235.373C24.375 235.783 31.5657 236.116 40.436 236.116Z" fill="white" stroke="#263238" stroke-linecap="round" stroke-linejoin="round"/>
<path d="M59.2578 236.117V240.171" stroke="#263238" stroke-linecap="round" stroke-linejoin="round"/>
<path d="M56.2715 236.544V240.811" stroke="#263238" stroke-linecap="round" stroke-linejoin="round"/>
<path d="M51.791 236.647V239.957" stroke="#263238" stroke-linecap="round" stroke-linejoin="round"/>
<path d="M45.9277 238.78V241.663" stroke="#263238" stroke-linecap="round" stroke-linejoin="round"/>
<path d="M39.6367 241.98V238.354" stroke="#263238" stroke-linecap="round" stroke-linejoin="round"/>
<path d="M20.8633 236.117V237.927" stroke="#263238" stroke-linecap="round" stroke-linejoin="round"/>
<path d="M23.3203 241.237V239.104" stroke="#263238" stroke-linecap="round" stroke-linejoin="round"/>
<path d="M33.0234 241.45V238.89" stroke="#263238" stroke-linecap="round" stroke-linejoin="round"/>
<path d="M20.2539 230.149V235.379C20.2539 236.019 29.6162 236.537 41.1606 236.537C52.705 236.537 62.0672 236.019 62.0672 235.379V230.149H20.2539Z" fill="white" stroke="#263238" stroke-linecap="round" stroke-linejoin="round"/>
<path d="M41.1606 231.32C52.707 231.32 62.0672 230.798 62.0672 230.155C62.0672 229.512 52.707 228.991 41.1606 228.991C29.6141 228.991 20.2539 229.512 20.2539 230.155C20.2539 230.798 29.6141 231.32 41.1606 231.32Z" fill="white" stroke="#263238" stroke-linecap="round" stroke-linejoin="round"/>
<path d="M57.2213 230.003C57.2213 230.418 50.0289 230.753 41.1603 230.753C32.2918 230.753 25.1055 230.418 25.1055 230.003C25.1055 229.589 32.2918 229.26 41.1603 229.26C50.0289 229.26 57.2213 229.595 57.2213 230.003Z" fill="white" stroke="#263238" stroke-linecap="round" stroke-linejoin="round"/>
<path d="M59.9824 230.747V234.8" stroke="#263238" stroke-linecap="round" stroke-linejoin="round"/>
<path d="M56.9961 231.174V235.44" stroke="#263238" stroke-linecap="round" stroke-linejoin="round"/>
<path d="M52.5156 231.283V234.587" stroke="#263238" stroke-linecap="round" stroke-linejoin="round"/>
<path d="M46.6523 233.417V236.294" stroke="#263238" stroke-linecap="round" stroke-linejoin="round"/>
<path d="M40.3633 236.617V232.99" stroke="#263238" stroke-linecap="round" stroke-linejoin="round"/>
<path d="M21.5879 230.747V232.563" stroke="#263238" stroke-linecap="round" stroke-linejoin="round"/>
<path d="M24.0449 235.867V233.733" stroke="#263238" stroke-linecap="round" stroke-linejoin="round"/>
<path d="M33.748 236.081V233.521" stroke="#263238" stroke-linecap="round" stroke-linejoin="round"/>
<path d="M19.5273 224.786V230.01C19.5273 230.656 28.8896 231.174 40.434 231.174C51.9784 231.174 61.3407 230.656 61.3407 230.01V224.786H19.5273Z" fill="white" stroke="#263238" stroke-linecap="round" stroke-linejoin="round"/>
<path d="M40.434 225.949C51.9804 225.949 61.3407 225.428 61.3407 224.785C61.3407 224.142 51.9804 223.621 40.434 223.621C28.8876 223.621 19.5273 224.142 19.5273 224.785C19.5273 225.428 28.8876 225.949 40.434 225.949Z" fill="white" stroke="#263238" stroke-linecap="round" stroke-linejoin="round"/>
<path d="M40.436 225.383C49.3062 225.383 56.4969 225.05 56.4969 224.639C56.4969 224.228 49.3062 223.896 40.436 223.896C31.5657 223.896 24.375 224.228 24.375 224.639C24.375 225.05 31.5657 225.383 40.436 225.383Z" fill="white" stroke="#263238" stroke-linecap="round" stroke-linejoin="round"/>
<path d="M59.2578 225.383V229.436" stroke="#263238" stroke-linecap="round" stroke-linejoin="round"/>
<path d="M56.2715 225.81V230.076" stroke="#263238" stroke-linecap="round" stroke-linejoin="round"/>
<path d="M51.791 225.919V229.223" stroke="#263238" stroke-linecap="round" stroke-linejoin="round"/>
<path d="M45.9277 228.053V230.93" stroke="#263238" stroke-linecap="round" stroke-linejoin="round"/>
<path d="M39.6367 231.253V227.626" stroke="#263238" stroke-linecap="round" stroke-linejoin="round"/>
<path d="M20.8633 225.383V227.199" stroke="#263238" stroke-linecap="round" stroke-linejoin="round"/>
<path d="M23.3203 230.503V228.37" stroke="#263238" stroke-linecap="round" stroke-linejoin="round"/>
<path d="M33.0234 230.716V228.156" stroke="#263238" stroke-linecap="round" stroke-linejoin="round"/>
<path d="M20.6914 219.422V224.645C20.6914 225.285 30.0476 225.81 41.5981 225.81C53.1485 225.81 62.4986 225.285 62.4986 224.645V219.422H20.6914Z" fill="white" stroke="#263238" stroke-linecap="round" stroke-linejoin="round"/>
<path d="M41.5922 220.586C53.1386 220.586 62.4989 220.065 62.4989 219.422C62.4989 218.779 53.1386 218.258 41.5922 218.258C30.0458 218.258 20.6855 218.779 20.6855 219.422C20.6855 220.065 30.0458 220.586 41.5922 220.586Z" fill="white" stroke="#263238" stroke-linecap="round" stroke-linejoin="round"/>
<path d="M57.6353 219.3C57.6353 219.708 50.4491 220.043 41.5805 220.043C32.7119 220.043 25.5195 219.708 25.5195 219.3C25.5195 218.891 32.7119 218.55 41.5805 218.55C50.4491 218.55 57.6353 218.861 57.6353 219.3Z" fill="white" stroke="#263238" stroke-linecap="round" stroke-linejoin="round"/>
<path d="M60.4141 220.02V224.073" stroke="#263238" stroke-linecap="round" stroke-linejoin="round"/>
<path d="M57.4297 220.446V224.713" stroke="#263238" stroke-linecap="round" stroke-linejoin="round"/>
<path d="M52.9551 220.55V223.86" stroke="#263238" stroke-linecap="round" stroke-linejoin="round"/>
<path d="M47.0859 222.683V225.566" stroke="#263238" stroke-linecap="round" stroke-linejoin="round"/>
<path d="M40.7949 225.883V222.256" stroke="#263238" stroke-linecap="round" stroke-linejoin="round"/>
<path d="M22.0273 220.02V221.83" stroke="#263238" stroke-linecap="round" stroke-linejoin="round"/>
<path d="M24.4785 225.139V223.006" stroke="#263238" stroke-linecap="round" stroke-linejoin="round"/>
<path d="M34.1816 225.352V222.792" stroke="#263238" stroke-linecap="round" stroke-linejoin="round"/>
<path d="M17.9375 214.058V219.3C17.9375 219.909 27.2937 220.458 38.8381 220.458C50.3825 220.458 59.7447 219.94 59.7447 219.3V214.058H17.9375Z" fill="white" stroke="#263238" stroke-linecap="round" stroke-linejoin="round"/>
<path d="M38.8383 215.223C50.3847 215.223 59.745 214.702 59.745 214.059C59.745 213.416 50.3847 212.895 38.8383 212.895C27.2919 212.895 17.9316 213.416 17.9316 214.059C17.9316 214.702 27.2919 215.223 38.8383 215.223Z" fill="white" stroke="#263238" stroke-linecap="round" stroke-linejoin="round"/>
<path d="M54.899 213.912C54.899 214.32 47.7127 214.655 38.8381 214.655C29.9634 214.655 22.7832 214.32 22.7832 213.912C22.7832 213.503 29.9695 213.162 38.8381 213.162C47.7066 213.162 54.899 213.497 54.899 213.912Z" fill="white" stroke="#263238" stroke-linecap="round" stroke-linejoin="round"/>
<path d="M57.6602 214.655V218.709" stroke="#263238" stroke-linecap="round" stroke-linejoin="round"/>
<path d="M54.6738 215.082V219.349" stroke="#263238" stroke-linecap="round" stroke-linejoin="round"/>
<path d="M50.1992 215.186V218.495" stroke="#263238" stroke-linecap="round" stroke-linejoin="round"/>
<path d="M44.3301 217.319V220.202" stroke="#263238" stroke-linecap="round" stroke-linejoin="round"/>
<path d="M38.0391 220.519V216.893" stroke="#263238" stroke-linecap="round" stroke-linejoin="round"/>
<path d="M19.2715 214.655V216.466" stroke="#263238" stroke-linecap="round" stroke-linejoin="round"/>
<path d="M21.7227 219.776V217.643" stroke="#263238" stroke-linecap="round" stroke-linejoin="round"/>
<path d="M31.4277 219.989V217.429" stroke="#263238" stroke-linecap="round" stroke-linejoin="round"/>
<path d="M60.0612 253.122C72.6983 253.122 82.9427 242.878 82.9427 230.241C82.9427 217.604 72.6983 207.359 60.0612 207.359C47.4241 207.359 37.1797 217.604 37.1797 230.241C37.1797 242.878 47.4241 253.122 60.0612 253.122Z" fill="#263238" stroke="#263238" stroke-linecap="round" stroke-linejoin="round"/>
<path d="M58.7214 253.122C71.3585 253.122 81.6029 242.878 81.6029 230.241C81.6029 217.604 71.3585 207.359 58.7214 207.359C46.0842 207.359 35.8398 217.604 35.8398 230.241C35.8398 242.878 46.0842 253.122 58.7214 253.122Z" fill="white" stroke="#263238" stroke-linecap="round" stroke-linejoin="round"/>
<path d="M58.7211 250.087C69.6818 250.087 78.5672 241.201 78.5672 230.241C78.5672 219.28 69.6818 210.395 58.7211 210.395C47.7604 210.395 38.875 219.28 38.875 230.241C38.875 241.201 47.7604 250.087 58.7211 250.087Z" fill="white" stroke="#263238" stroke-linecap="round" stroke-linejoin="round"/>
<path d="M217.333 239.542C231.808 239.542 243.542 227.808 243.542 213.333C243.542 198.857 231.808 187.123 217.333 187.123C202.857 187.123 191.123 198.857 191.123 213.333C191.123 227.808 202.857 239.542 217.333 239.542Z" fill="white" stroke="#263238" stroke-width="1.32064" stroke-linecap="round" stroke-linejoin="round"/>
<path d="M64.419 246.308L63.1999 243.181C60.9894 243.916 59.0897 243.849 57.5009 242.98C55.912 242.11 54.5508 240.34 53.4171 237.671L57.9702 235.062C58.3131 235.957 58.7547 236.812 59.2868 237.61C59.5985 238.117 60.052 238.522 60.5911 238.774C61.0282 238.944 61.5133 238.944 61.9504 238.774C62.5599 238.542 62.8464 238.195 62.8708 237.719C62.8963 237.253 62.8193 236.787 62.6452 236.354C62.3177 235.381 61.6958 234.533 60.8654 233.928C59.9651 233.338 58.9919 232.866 57.9702 232.526L54.9774 231.49C54.1541 231.181 53.3519 230.819 52.5759 230.405C51.805 229.991 51.1087 229.452 50.5157 228.808C49.8256 228.035 49.2898 227.137 48.9371 226.163C48.1609 224.164 48.1244 222.37 48.8273 220.781C49.6265 219.109 51.0066 217.786 52.71 217.057L51.5397 214.058L53.155 213.448L54.307 216.423C55.3479 216.026 56.4769 215.918 57.574 216.112C58.4537 216.297 59.2706 216.706 59.9451 217.3C60.5963 217.883 61.1553 218.561 61.603 219.312C62.0222 220.01 62.3949 220.735 62.7184 221.482L58.0555 223.987C57.7818 223.326 57.4746 222.679 57.1351 222.049C56.9161 221.598 56.5896 221.209 56.1843 220.915C55.999 220.808 55.7888 220.752 55.5748 220.752C55.3608 220.752 55.1506 220.808 54.9652 220.915C54.7235 220.997 54.5099 221.146 54.3492 221.345C54.1884 221.543 54.0872 221.783 54.057 222.036C53.9696 222.531 54.0159 223.041 54.1911 223.511C54.4931 224.409 55.1046 225.169 55.9161 225.657C56.6812 226.079 57.4757 226.446 58.2932 226.754L61.1641 227.784C62.1269 228.151 63.0602 228.591 63.9557 229.101C64.8464 229.609 65.6542 230.25 66.3511 231.003C67.1114 231.859 67.7065 232.849 68.1066 233.922C68.5309 234.981 68.7001 236.126 68.6003 237.262C68.5072 238.359 68.1244 239.41 67.491 240.31C66.7949 241.275 65.8717 242.054 64.803 242.577L66.022 245.735L64.419 246.308Z" fill="#263238" stroke="#263238" stroke-linecap="round" stroke-linejoin="round"/>
<path d="M63.835 246.308L62.616 243.181C60.4014 243.917 58.5017 243.849 56.917 242.98C55.3322 242.11 53.9689 240.341 52.827 237.671L57.3802 235.062C57.7281 235.955 58.1694 236.809 58.6968 237.61C59.0097 238.128 59.4673 238.543 60.0133 238.805C60.4504 238.975 60.9355 238.975 61.3726 238.805C61.9821 238.573 62.2686 238.226 62.293 237.75C62.3125 237.284 62.2357 236.82 62.0674 236.385C61.7301 235.428 61.1093 234.597 60.2876 234.002C59.3873 233.411 58.4141 232.94 57.3924 232.6L54.3996 231.49C53.564 231.183 52.7495 230.82 51.9615 230.405C51.1913 229.99 50.4952 229.451 49.9013 228.808C49.2153 228.034 48.6818 227.136 48.3288 226.163C47.5486 224.164 47.512 222.37 48.219 220.781C49.0183 219.109 50.3983 217.786 52.1017 217.057L50.9314 214.052L52.5406 213.442L53.6987 216.417C54.7395 216.02 55.8686 215.912 56.9657 216.106C57.845 216.292 58.6615 216.701 59.3368 217.295C59.9863 217.879 60.5451 218.557 60.9947 219.306C61.414 220.004 61.7866 220.729 62.1101 221.476L57.4411 223.981C57.1242 223.229 56.8194 222.583 56.5269 222.043C56.3042 221.595 55.9783 221.206 55.576 220.909C55.3907 220.802 55.1805 220.746 54.9665 220.746C54.7525 220.746 54.5423 220.802 54.357 220.909C54.1136 220.99 53.8984 221.138 53.7364 221.337C53.5745 221.535 53.4726 221.776 53.4427 222.031C53.3572 222.526 53.4056 223.035 53.5829 223.506C53.8829 224.404 54.4949 225.165 55.3078 225.651C56.0703 226.074 56.8627 226.441 57.6789 226.748L60.5558 227.778C61.5237 228.13 62.4631 228.556 63.3657 229.052C64.2593 229.559 65.0693 230.2 65.7672 230.954C66.5279 231.809 67.1213 232.799 67.5166 233.874C67.9457 234.932 68.117 236.077 68.0164 237.214C67.9205 238.309 67.5379 239.361 66.907 240.261C66.211 241.227 65.2878 242.005 64.219 242.529L65.4381 245.686L63.835 246.308Z" fill="white" stroke="#263238" stroke-linecap="round" stroke-linejoin="round"/>
<path d="M180.529 124.74C141.276 109.069 102.028 140.636 62.7812 124.972V64.1045C102.028 79.7693 141.276 48.2021 180.529 63.8729V124.74Z" fill="#007AEC" stroke="#263238" stroke-linecap="round" stroke-linejoin="round"/>
<path d="M173.684 78.3372C168.082 76.8439 163.548 71.986 163.548 66.3662C163.548 66.0919 163.548 65.8237 163.59 65.5494C135.826 62.7151 108.063 76.6915 80.3048 74.0827C80.3048 74.3509 80.3475 74.6252 80.3475 74.9056C80.3475 80.4767 75.8066 84.7311 70.2111 83.2866C69.8328 83.1878 69.4604 83.0677 69.0957 82.9269V109.246C69.4614 109.313 69.8332 109.386 70.2111 109.484C75.8066 110.922 80.3475 115.75 80.3475 121.37C80.3464 122.033 80.2791 122.695 80.1464 123.344C108.014 126.045 135.881 111.952 163.743 114.866C163.613 114.203 163.548 113.53 163.548 112.855C163.548 107.277 168.082 103.06 173.684 104.553C173.885 104.608 174.08 104.681 174.293 104.748V78.4713C174.05 78.4286 173.855 78.3921 173.684 78.3372Z" fill="white" stroke="#263238" stroke-linecap="round" stroke-linejoin="round"/>
<path d="M136.271 92.0018C136.271 100.054 129.731 107.728 121.642 109.404C113.554 111.08 107.014 105.655 107.014 97.5606C107.014 89.4662 113.56 81.841 121.642 80.1587C129.725 78.4765 136.271 83.9073 136.271 92.0018Z" fill="#007AEC" stroke="#263238" stroke-linecap="round" stroke-linejoin="round"/>
<path d="M121.4 105.784V103.662C119.931 103.894 118.827 103.662 118.096 102.907C117.365 102.151 116.962 100.907 116.877 99.091L120.15 97.9451C120.144 98.5356 120.208 99.1247 120.339 99.7005C120.399 100.045 120.578 100.358 120.845 100.584C120.962 100.662 121.094 100.714 121.233 100.739C121.371 100.763 121.513 100.758 121.65 100.724C121.816 100.704 121.975 100.641 122.11 100.541C122.245 100.442 122.353 100.31 122.424 100.158C122.542 99.8759 122.605 99.5735 122.606 99.2677C122.64 98.6584 122.463 98.0561 122.107 97.5611C121.716 97.0812 121.248 96.6692 120.723 96.342L119.236 95.3485C118.824 95.0624 118.434 94.7445 118.072 94.3976C117.716 94.0483 117.431 93.6346 117.23 93.1786C116.999 92.5976 116.889 91.9752 116.907 91.35C116.868 90.1067 117.282 88.8914 118.072 87.9306C118.891 86.9768 119.985 86.2998 121.205 85.9923V83.9626L122.296 83.7432V85.7546C122.962 85.6107 123.655 85.668 124.289 85.9192C124.76 86.1292 125.153 86.4835 125.41 86.931C125.663 87.3839 125.836 87.8765 125.922 88.3877C126.011 88.8831 126.064 89.3842 126.081 89.8872L122.765 90.9599C122.757 90.5157 122.727 90.0722 122.674 89.6312C122.65 89.334 122.544 89.0492 122.369 88.8083C122.277 88.7165 122.161 88.6536 122.034 88.6276C121.907 88.6016 121.776 88.6136 121.656 88.662C121.485 88.6931 121.323 88.7647 121.186 88.8707C121.048 88.9767 120.937 89.1141 120.863 89.2715C120.704 89.5638 120.616 89.8896 120.607 90.2224C120.585 90.5025 120.621 90.7841 120.711 91.0502C120.801 91.3163 120.944 91.5614 121.131 91.7706C121.482 92.1251 121.866 92.4455 122.277 92.7275L123.728 93.6967C124.209 94.0351 124.658 94.4166 125.069 94.8365C125.477 95.2668 125.805 95.7663 126.038 96.3115C126.298 96.9624 126.422 97.6591 126.404 98.3595C126.404 99.108 126.244 99.8479 125.934 100.529C125.619 101.218 125.16 101.831 124.587 102.328C123.976 102.85 123.261 103.238 122.491 103.467V105.607L121.4 105.784Z" fill="#263238"/>
<path d="M158.77 131.529C151.107 139.896 140.986 145.616 129.866 147.865C118.745 150.113 107.197 148.775 96.8852 144.043L99.756 139.514L83.7012 138.844L91.1435 153.082L94.0753 148.468C105.435 153.856 118.223 155.462 130.562 153.048C142.901 150.635 154.142 144.33 162.635 135.058L158.77 131.529Z" fill="#263238"/>
<path d="M144.848 48.2872L141.684 52.5539L157.66 54.3337L151.211 39.6442L147.962 44.0632C136.083 37.413 122.264 35.0915 108.864 37.4947C95.4634 39.898 83.3124 46.8772 74.4844 57.2411L78.4402 60.6179C86.4148 51.2464 97.3719 44.9052 109.471 42.6597C121.569 40.4143 134.072 42.4014 144.878 48.2872H144.848Z" fill="#263238"/>
<path d="M181.309 231.65C181.309 231.65 178.261 235.977 176.981 237.239C175.701 238.501 172.294 241.024 172.562 241.926C172.83 242.828 175.609 243.279 177.974 243.011C180.339 242.743 184.106 240.939 184.106 240.939C184.106 240.939 187.983 238.952 189.872 237.958C191.762 236.965 191.859 236.245 191.5 234.716C191.086 233.416 190.51 232.173 189.787 231.016C189.787 231.016 182.753 230.571 181.309 231.65Z" fill="white" stroke="#263238" stroke-linecap="round" stroke-linejoin="round"/>
<path d="M189.872 237.958C191.249 237.239 191.67 236.66 191.664 235.812C190.462 236.07 189.309 236.521 188.251 237.147C186.629 238.232 182.765 241.024 179.053 242.024C176.908 242.528 174.661 242.375 172.604 241.585C172.556 241.694 172.541 241.815 172.561 241.932C172.836 242.834 175.609 243.285 177.974 243.017C180.339 242.749 184.106 240.945 184.106 240.945C184.106 240.945 187.982 238.952 189.872 237.958Z" fill="white" stroke="#263238" stroke-linecap="round" stroke-linejoin="round"/>
<path d="M176.114 180.919C176.114 180.919 163.546 183.406 161.644 188.373C159.742 193.341 180.942 230.04 180.942 230.04L179.771 231.644L180.503 232.814C180.503 232.814 188.104 234.569 189.274 233.838C190.444 233.106 190.883 232.814 190.883 232.375C190.883 231.936 188.835 224.774 188.835 224.774L180.649 195.517H194.668C194.668 195.517 204.768 190.568 206.066 188.373C207.365 186.179 204.75 182.089 202.263 181.358C199.776 180.626 183.703 179.456 183.264 179.602C182.825 179.749 176.114 180.919 176.114 180.919Z" fill="#263238" stroke="#263238" stroke-linecap="round" stroke-linejoin="round"/>
<path d="M190.883 232.375C190.883 232.375 186.934 237.495 184.447 239.08C181.96 240.665 179.187 242.127 180.211 243.17C181.235 244.212 186.348 244.194 189.128 243.609C191.907 243.023 196.29 241.561 196.875 240.683C197.46 239.805 198.192 236.154 198.192 236.154C198.192 236.154 192.048 233.106 190.883 232.375Z" fill="white" stroke="#263238" stroke-linecap="round" stroke-linejoin="round"/>
<path d="M196.874 240.707C197.107 240.284 197.287 239.833 197.411 239.366C195.82 239.921 189.121 242.225 185.909 242.609C183.988 242.839 182.041 242.711 180.167 242.231C180.05 242.366 179.989 242.542 179.997 242.721C180.005 242.9 180.081 243.069 180.21 243.194C181.234 244.218 186.348 244.218 189.127 243.633C191.907 243.048 196.314 241.585 196.874 240.707Z" fill="white" stroke="#263238" stroke-linecap="round" stroke-linejoin="round"/>
<path d="M200.97 179.164C200.97 179.164 190.297 186.917 190.297 189.251C190.297 191.586 191.321 210.158 191.321 210.158L190.883 230.187C190.43 230.619 190.036 231.109 189.712 231.644C189.566 232.083 189.273 233.838 189.273 233.838C190.59 234.526 191.958 235.112 193.363 235.594C194.929 236.057 196.559 236.262 198.191 236.203C198.191 236.203 199.507 231.376 199.507 230.791V228.602L205.499 207.269L206.962 195.725C206.962 195.725 217.635 195.871 220.847 195.115C224.059 194.359 225.967 194.091 226.698 190.727C227.43 187.362 225.82 182.102 225.82 182.102C225.82 182.102 208.864 174.196 200.97 179.164Z" fill="#263238" stroke="#263238" stroke-linecap="round" stroke-linejoin="round"/>
<path d="M204.476 127.707L197.46 130.34L191.322 164.4L195.266 178.724H206.847L208.895 174.634C208.895 174.634 208.749 148.614 209.041 147.59C209.334 146.566 213.57 131.072 213.57 131.072L204.476 127.707Z" fill="white" stroke="#263238" stroke-linecap="round" stroke-linejoin="round"/>
<path d="M202.767 142.976C202.767 142.976 201.75 150.991 201.408 158.665" stroke="#263238" stroke-linecap="round" stroke-linejoin="round"/>
<path d="M204.645 145.963C204.645 146.115 204.6 146.264 204.516 146.39C204.432 146.516 204.312 146.615 204.171 146.673C204.031 146.731 203.877 146.746 203.728 146.717C203.579 146.687 203.442 146.614 203.334 146.506C203.227 146.399 203.154 146.262 203.124 146.113C203.095 145.964 203.11 145.81 203.168 145.669C203.226 145.529 203.324 145.409 203.451 145.325C203.577 145.24 203.725 145.195 203.877 145.195C203.978 145.195 204.079 145.214 204.172 145.252C204.266 145.29 204.351 145.347 204.422 145.418C204.494 145.49 204.55 145.575 204.589 145.668C204.627 145.762 204.646 145.862 204.645 145.963V145.963Z" stroke="#263238" stroke-linecap="round" stroke-linejoin="round"/>
<path d="M204.05 154.74C204.05 154.943 203.969 155.139 203.825 155.283C203.681 155.427 203.485 155.508 203.282 155.508C203.078 155.508 202.883 155.427 202.739 155.283C202.595 155.139 202.514 154.943 202.514 154.74C202.514 154.536 202.595 154.341 202.739 154.197C202.883 154.053 203.078 153.972 203.282 153.972C203.485 153.972 203.681 154.053 203.825 154.197C203.969 154.341 204.05 154.536 204.05 154.74V154.74Z" stroke="#263238" stroke-linecap="round" stroke-linejoin="round"/>
<path d="M203.018 164.803C203.018 164.955 202.973 165.104 202.889 165.231C202.804 165.357 202.684 165.455 202.543 165.513C202.402 165.571 202.247 165.586 202.098 165.556C201.949 165.526 201.812 165.452 201.705 165.344C201.598 165.236 201.525 165.099 201.496 164.949C201.468 164.8 201.484 164.645 201.543 164.505C201.602 164.365 201.701 164.245 201.828 164.162C201.955 164.078 202.104 164.034 202.257 164.035C202.357 164.035 202.457 164.055 202.55 164.094C202.642 164.132 202.727 164.189 202.797 164.26C202.868 164.332 202.924 164.417 202.962 164.51C203 164.603 203.019 164.703 203.018 164.803Z" stroke="#263238" stroke-linecap="round" stroke-linejoin="round"/>
<path d="M201.232 160.598C201.232 160.598 201.031 163.926 200.928 167.449" stroke="#263238" stroke-linecap="round" stroke-linejoin="round"/>
<path d="M212.673 128.573C212.673 128.573 210.009 137.783 208.089 144.793C206.169 151.802 207.071 178.14 207.071 178.14C207.071 178.14 211.947 178.591 214.081 179.609C216.214 180.627 217.244 183.113 220.858 184.357C223.162 185.113 225.589 185.42 228.008 185.259C228.008 185.259 225.296 171.807 225.07 169.094C224.845 166.382 226.289 136.79 225.406 135.747C224.522 134.705 212.673 128.573 212.673 128.573Z" fill="#007AEC" stroke="#263238" stroke-linecap="round" stroke-linejoin="round"/>
<path d="M220.299 177.25C221 177.535 221.673 177.884 222.31 178.292" stroke="#263238" stroke-linecap="round" stroke-linejoin="round"/>
<path d="M210.613 176.536C213.23 175.981 215.939 176.022 218.537 176.658" stroke="#263238" stroke-linecap="round" stroke-linejoin="round"/>
<path d="M210.027 175.513C210.027 175.513 210.759 174.781 213.246 174.903" stroke="#263238" stroke-linecap="round" stroke-linejoin="round"/>
<path d="M199.397 127.658C199.397 127.658 184.463 136.539 184.122 137.106C183.781 137.673 175.869 162.877 175.869 162.877L193.167 163.559C193.167 163.559 197.495 133.254 199.397 127.658Z" fill="#007AEC" stroke="#263238" stroke-linecap="round" stroke-linejoin="round"/>
<path d="M186.775 146.195L187.08 144.524" stroke="#263238" stroke-linecap="round" stroke-linejoin="round"/>
<path d="M183.861 162.212L186.391 148.297" stroke="#263238" stroke-linecap="round" stroke-linejoin="round"/>
<path d="M199.399 127.659L196.156 138.63L202.526 134.553L210.133 139.502C210.133 139.502 212.924 130.109 212.674 128.592C212.386 127.441 211.868 126.361 211.151 125.416L199.399 127.659Z" fill="white" stroke="#263238" stroke-linecap="round" stroke-linejoin="round"/>
<path d="M199.49 99.9444C199.49 99.9444 195.223 106.344 195.223 107.643C195.15 109.071 194.829 110.476 194.272 111.794C193.931 112.403 190.987 113.622 191.158 114.841C191.37 115.723 191.819 116.53 192.456 117.176C192.456 117.176 193.321 125.825 194.62 125.654C195.975 125.578 197.334 125.606 198.685 125.739C198.685 125.739 202.574 140.533 202.921 140.008C203.269 139.484 211.223 127.038 211.223 127.038C211.223 127.038 211.918 121.674 212.265 121.07C212.613 120.467 217.885 116.402 218.836 113.976C219.787 111.55 219.531 105.07 218.056 102.821C216.581 100.572 209.754 97.3722 206.298 97.6343C202.842 97.8964 200.008 98.6461 199.49 99.9444Z" fill="#C4C4C4" stroke="#263238" stroke-linecap="round" stroke-linejoin="round"/>
<path d="M206.323 97.6153C202.861 97.8713 200.008 98.6515 199.49 99.9498C199.49 99.9498 198.881 101.333 200.874 101.333C202.867 101.333 207.707 101.157 207.707 103.235C207.707 105.314 204.244 106.173 204.33 107.215C204.415 108.258 206.579 110.757 206.579 110.757C206.579 110.757 205.713 113.195 206.756 113.524C207.798 113.853 207.877 112.488 209.194 112.835C210.51 113.183 211.699 116.383 211.095 117.419C210.404 118.345 209.583 119.166 208.657 119.857C209.807 120.416 210.987 120.908 212.193 121.332C212.214 121.241 212.246 121.153 212.29 121.07C212.631 120.46 217.91 116.401 218.861 113.975C219.812 111.549 219.556 105.07 218.081 102.821C216.606 100.572 209.779 97.3471 206.323 97.6153Z" fill="#263238" stroke="#263238" stroke-linecap="round" stroke-linejoin="round"/>
<path d="M194.553 117.15C195.192 117.225 195.839 117.167 196.455 116.98C197.07 116.793 197.641 116.482 198.131 116.065C198.131 116.065 199.35 118.455 197.375 119.211C195.4 119.966 194.553 117.15 194.553 117.15Z" fill="#263238"/>
<path d="M197.388 111.025C197.187 111.708 196.778 112.195 196.486 112.11C196.193 112.025 196.108 111.391 196.309 110.708C196.51 110.025 196.918 109.532 197.217 109.623C197.516 109.715 197.595 110.355 197.388 111.025Z" fill="#263238"/>
<path d="M196.838 107.428C196.838 107.428 198.161 106.209 199.087 107.952" stroke="#263238" stroke-width="2" stroke-linecap="round" stroke-linejoin="round"/>
<path d="M198.55 111.403C198.068 112.933 196.995 113.957 196.154 113.689C195.313 113.42 195.015 111.976 195.496 110.446C195.978 108.916 197.044 107.898 197.891 108.16C198.739 108.422 199.025 109.879 198.55 111.403Z" stroke="#263238" stroke-linecap="round" stroke-linejoin="round"/>
<path d="M195.498 110.452L194.297 109.849" stroke="#263238" stroke-linecap="round" stroke-linejoin="round"/>
<path d="M198.795 110.714L207.791 112.963" stroke="#263238" stroke-linecap="round" stroke-linejoin="round"/>
<path d="M194.645 125.653C194.645 125.653 198.448 124.745 198.795 124.745C199.143 124.745 204.592 122.496 204.592 122.496L199.399 127.683L198.71 125.739L194.645 125.653Z" fill="#263238" stroke="#263238" stroke-linecap="round" stroke-linejoin="round"/>
<path d="M225.382 135.747C225.382 135.747 227.308 135.747 228.661 139.593C230.014 143.439 237.14 167.741 236.463 169.21C235.786 170.679 227.985 170.904 226.851 169.32C225.935 167.82 225.179 166.229 224.596 164.571L223.236 148.974" fill="#007AEC"/>
<path d="M225.382 135.747C225.382 135.747 227.308 135.747 228.661 139.593C230.014 143.439 237.14 167.741 236.463 169.21C235.786 170.679 227.985 170.904 226.851 169.32C225.935 167.82 225.179 166.229 224.596 164.571L223.236 148.974" stroke="#263238" stroke-linecap="round" stroke-linejoin="round"/>
<path d="M222.22 156.659L220.184 154.739C220.184 154.739 220.074 147.504 219.733 147.053C219.391 146.602 214.985 144.792 214.643 144.792C214.302 144.792 212.272 146.828 212.272 146.828C212.272 146.828 211.705 149.424 211.596 150.101C211.486 150.778 211.596 153.722 211.596 153.722C211.596 153.722 211.705 155.416 212.388 155.55C212.875 155.62 213.365 155.657 213.857 155.66C214.248 156.467 214.783 157.196 215.436 157.811C216.005 158.188 216.619 158.491 217.264 158.714L220.428 161.542L222.22 156.659Z" fill="#C4C4C4" stroke="#263238" stroke-linecap="round" stroke-linejoin="round"/>
<path d="M212.271 146.828L217.757 148.334" stroke="#263238" stroke-linecap="round" stroke-linejoin="round"/>
<path d="M211.869 149.334L216.648 150.949" stroke="#263238" stroke-linecap="round" stroke-linejoin="round"/>
<path d="M211.596 152.003L216.039 153.112" stroke="#263238" stroke-linecap="round" stroke-linejoin="round"/>
<path d="M213.849 155.649L214.203 154.667L213.148 154.332" stroke="#263238" stroke-linecap="round" stroke-linejoin="round"/>
<path d="M235.67 164.462L222.218 156.66L217.342 164.346C217.342 164.346 227.289 174.099 228.533 175.086C229.776 176.074 232.488 176.445 233.732 176.104C234.975 175.763 237.237 172.715 237.237 169.887C237.158 167.979 236.621 166.118 235.67 164.462Z" fill="#007AEC" stroke="#263238" stroke-linecap="round" stroke-linejoin="round"/>
<path d="M203.519 182.985L213.631 177.859L200.154 177.188L203.519 182.985Z" fill="#EDEDED" stroke="#263238" stroke-linecap="round" stroke-linejoin="round"/>
<path d="M168.336 159.799L173.998 181.096L203.518 182.985L197.453 160.335L168.336 159.799Z" fill="#CCCCCC" stroke="#263238" stroke-linecap="round" stroke-linejoin="round"/>
<path d="M187.22 170.917C187.22 172.057 186.08 172.977 184.678 172.977C183.277 172.977 182.137 172.057 182.137 170.917C182.137 169.777 183.27 168.851 184.678 168.851C186.086 168.851 187.22 169.771 187.22 170.917Z" fill="white" stroke="#263238" stroke-linecap="round" stroke-linejoin="round"/>
<path d="M168.434 165.534C168.434 165.534 168.355 166.973 168.861 167.314C169.367 167.655 172.518 168.326 172.75 167.564C172.981 166.802 172.835 166.126 172.14 165.961C171.445 165.796 169.367 165.028 168.434 165.534Z" fill="#C4C4C4" stroke="#263238" stroke-linecap="round" stroke-linejoin="round"/>
<path d="M168.884 167.314C168.884 167.314 168.799 169.088 169.305 169.423C169.811 169.759 171.841 169.85 172.267 169.344C172.569 168.797 172.742 168.188 172.773 167.564C172.773 167.564 169.786 167.906 168.884 167.314Z" fill="#C4C4C4" stroke="#263238" stroke-linecap="round" stroke-linejoin="round"/>
<path d="M169.281 169.424C169.447 169.971 169.705 170.487 170.043 170.948C170.384 171.204 172.329 171.204 172.579 170.698C172.829 170.192 172.244 169.345 172.244 169.345C171.261 169.47 170.269 169.497 169.281 169.424Z" fill="#C4C4C4" stroke="#263238" stroke-linecap="round" stroke-linejoin="round"/>
<path d="M170.043 170.947C170.057 171.185 170.147 171.412 170.299 171.595C170.452 171.779 170.659 171.908 170.89 171.965C171.737 172.215 172.92 172.3 173.005 171.794C173 171.389 172.849 170.999 172.579 170.697C171.753 170.92 170.896 171.004 170.043 170.947Z" fill="#C4C4C4" stroke="#263238" stroke-linecap="round" stroke-linejoin="round"/>
</g>
<defs>
<clipPath id="clip0_1494_7142">
<rect width="279.162" height="256" fill="white"/>
</clipPath>
</defs>
</svg>
