<svg width="29" height="28" viewBox="0 0 29 28" fill="none" xmlns="http://www.w3.org/2000/svg">
<path d="M27.5606 24.9306L22.4606 19.8456C24.1061 17.7493 24.999 15.1606 24.9956 12.4956C24.9956 10.1222 24.2919 7.80216 22.9733 5.82877C21.6547 3.85538 19.7806 2.31731 17.5878 1.40906C15.3951 0.500805 12.9823 0.263165 10.6546 0.726187C8.32679 1.18921 6.18859 2.3321 4.51036 4.01033C2.83213 5.68856 1.68924 7.82676 1.22622 10.1545C0.763195 12.4823 1.00084 14.8951 1.90909 17.0878C2.81734 19.2805 4.35541 21.1547 6.3288 22.4732C8.30219 23.7918 10.6223 24.4956 12.9956 24.4956C15.6606 24.4989 18.2493 23.6061 20.3456 21.9606L25.4306 27.0606C25.5701 27.2012 25.736 27.3128 25.9188 27.389C26.1016 27.4651 26.2976 27.5043 26.4956 27.5043C26.6937 27.5043 26.8897 27.4651 27.0725 27.389C27.2553 27.3128 27.4212 27.2012 27.5606 27.0606C27.7012 26.9212 27.8128 26.7553 27.889 26.5725C27.9651 26.3897 28.0043 26.1936 28.0043 25.9956C28.0043 25.7976 27.9651 25.6015 27.889 25.4187C27.8128 25.236 27.7012 25.0701 27.5606 24.9306ZM3.99564 12.4956C3.99564 10.7156 4.52348 8.97552 5.51241 7.49548C6.50135 6.01544 7.90696 4.86188 9.55149 4.1807C11.196 3.49951 13.0056 3.32128 14.7515 3.66854C16.4973 4.01581 18.1009 4.87298 19.3596 6.13165C20.6183 7.39032 21.4754 8.99397 21.8227 10.7398C22.17 12.4856 21.9917 14.2952 21.3106 15.9398C20.6294 17.5843 19.4758 18.9899 17.9958 19.9788C16.5157 20.9678 14.7757 21.4956 12.9956 21.4956C10.6087 21.4956 8.31951 20.5474 6.63168 18.8596C4.94385 17.1717 3.99564 14.8826 3.99564 12.4956Z" fill="white"/>
</svg>
