<svg width="187" height="188" viewBox="0 0 187 188" fill="none" xmlns="http://www.w3.org/2000/svg">
<path d="M121.801 15.0935C108.034 15.3292 97.4195 26.5866 85.6348 33.7075C67.8399 44.46 44.9847 46.6442 29.9537 61.0095C19.6649 70.857 14.586 85.6823 16.0222 99.8457C17.4583 114.009 25.2375 127.286 36.4875 136.015C43.6608 141.577 52.0795 145.328 60.6703 148.264C69.377 151.233 78.4428 153.436 87.6432 153.552C100.393 153.713 112.918 149.857 124.452 144.415C132.475 140.634 140.209 136.012 146.518 129.777C152.48 123.89 157.05 116.657 160.18 108.885C167.919 89.6766 166.688 67.6593 159.979 48.0654C154.428 31.86 140.86 14.7644 121.801 15.0935Z" fill="#FAC173"/>
<path opacity="0.7" d="M121.801 15.0935C108.034 15.3292 97.4195 26.5866 85.6348 33.7075C67.8399 44.46 44.9847 46.6442 29.9537 61.0095C19.6649 70.857 14.586 85.6823 16.0222 99.8457C17.4583 114.009 25.2375 127.286 36.4875 136.015C43.6608 141.577 52.0795 145.328 60.6703 148.264C69.377 151.233 78.4428 153.436 87.6432 153.552C100.393 153.713 112.918 149.857 124.452 144.415C132.475 140.634 140.209 136.012 146.518 129.777C152.48 123.89 157.05 116.657 160.18 108.885C167.919 89.6766 166.688 67.6593 159.979 48.0654C154.428 31.86 140.86 14.7644 121.801 15.0935Z" fill="white"/>
<path opacity="0.1" d="M130.335 94.367C130.238 91.5508 130.055 88.5476 129.752 85.4396C129.344 79.2312 128.566 73.4342 127.156 69.7877C119.392 68.1982 79.0562 71.1603 79.0262 71.1603L78.7757 70.0383L78.6747 69.5932L78.4952 68.8116L78.4465 68.6321C78.1847 67.5774 77.8893 66.5339 77.5452 65.4979C77.5452 65.4979 46.967 62.7677 36.8241 65.4157C36.8241 65.5054 36.8241 65.5914 36.8241 65.6812L36.854 68.1833C36.8839 73.0266 36.7717 77.5707 37.0223 82.5598V82.5972C36.9738 82.5928 36.925 82.5928 36.8764 82.5972C36.4828 82.6492 36.1113 82.8092 35.803 83.0594C35.4948 83.3096 35.2618 83.6402 35.1299 84.0147C35.0292 84.3051 34.9922 84.6138 35.0214 84.9198L35.156 86.4943C35.156 86.5205 35.156 86.5429 35.156 86.5691C35.53 90.541 35.904 94.4755 35.904 94.4755C35.904 94.4755 36.0985 94.4942 36.4164 94.5091L38.0957 94.6288C34.5202 94.9579 30.6157 99.6778 30.7877 103.736C30.9598 107.794 27.0477 115.434 28.0239 119.818C28.7719 123.244 32.6203 128.753 34.4941 132.938L34.3482 133.768L25.9818 150.568C26.5428 149.745 31.5918 171.699 55.0416 167.05L71.7258 139.868C73.5867 138.464 75.2896 136.863 76.8047 135.092C77.4441 134.457 77.976 133.721 78.3792 132.915C78.9749 131.963 79.4297 130.93 79.7294 129.848C79.8041 129.564 79.8827 129.284 79.965 128.996C81.3263 125.529 83.144 120.798 84.4754 117.521C102.053 116.998 120.51 115.924 129.778 113.744H129.797C130.694 107.648 130.713 100.807 130.335 94.367ZM40.0629 109.727C39.9178 108.714 39.8304 107.694 39.8011 106.672C40.0068 107.749 40.2312 108.822 40.4668 109.899C40.3322 109.839 40.1976 109.78 40.0629 109.727Z" fill="black"/>
<path d="M24.0707 149.494C24.0707 149.494 31.5806 171.699 55.0416 167.05C55.0416 167.05 60.2477 142.609 64.6085 139C67.421 136.681 73.6332 132.522 74.9609 129.512C76.2886 126.501 81.6218 112.203 82.654 110.483C83.6863 108.762 71.464 88.9663 71.464 88.9663L45.7178 102.251L31.3936 127.683C31.3936 127.683 28.6447 144.139 24.0707 149.494Z" fill="white"/>
<path d="M31.143 129.665C31.143 129.665 29.3067 143.395 23.2366 150.568" stroke="#263238" stroke-linecap="round" stroke-linejoin="round"/>
<path d="M55.0416 167.05C55.0416 167.05 60.2177 143.402 64.6085 139C64.6085 139 74.527 133.233 76.3147 126.445C77.5526 121.744 79.8041 116.325 80.8812 113.864" stroke="#263238" stroke-linecap="round" stroke-linejoin="round"/>
<path d="M57.1285 114.623C56.7545 114.383 63.1312 119.485 63.3781 126.456" stroke="#263238" stroke-linecap="round" stroke-linejoin="round"/>
<path d="M126.382 110.348C105.707 115.21 39.1204 114.57 39.1204 114.57C38.5594 113.389 37.8825 110.412 37.228 106.963C35.919 100.04 34.696 91.2178 34.696 91.2178L32.4931 91.0645C32.4931 91.0645 32.1191 87.13 31.7451 83.1581C31.3711 79.1863 33.6151 79.19 33.6151 79.19L33.4543 65.4418L33.4132 62.0084C43.556 59.3605 74.1343 62.0907 74.1343 62.0907L75.088 65.4044L75.6191 67.7531L123.745 66.3955C128.159 77.8062 126.382 110.348 126.382 110.348Z" fill="#FAC173"/>
<path d="M118.386 76.9965L86.8207 78.5748C85.5215 78.6397 84.5209 79.7456 84.5859 81.0448L84.9066 87.4589C84.9716 88.7582 86.0774 89.7587 87.3767 89.6938L118.942 88.1155C120.242 88.0505 121.242 86.9446 121.177 85.6454L120.856 79.2313C120.791 77.9321 119.686 76.9315 118.386 76.9965Z" fill="#263238"/>
<path d="M121.004 92.3062L121.105 93.3721L84.7597 94.7783L84.7297 93.8209L121.004 92.3062Z" fill="#263238"/>
<path d="M121.183 96.0127L121.217 96.9701L84.8756 98.3128L84.8419 97.3591L121.183 96.0127Z" fill="#263238"/>
<path opacity="0.3" d="M123.738 66.3954C123.738 66.3954 129.101 91.8274 126.382 110.348C126.382 110.348 92.4678 114.327 80.8551 113.684L80.3801 107.494L81.3525 107.345C81.3525 107.345 76.67 72.0166 75.6078 67.753C75.6078 67.753 115.996 64.8021 123.738 66.3954Z" fill="black"/>
<path opacity="0.8" d="M79.2618 107.405L79.662 112.084C79.662 112.084 45.4784 113.58 42.4714 112.491C39.4645 111.403 42.6323 109.667 50.5835 109.043C58.5347 108.418 79.2618 107.405 79.2618 107.405Z" fill="white"/>
<path d="M58.8526 87.5602C60.5774 87.5602 61.9755 86.2943 61.9755 84.7327C61.9755 83.1712 60.5774 81.9053 58.8526 81.9053C57.1279 81.9053 55.7297 83.1712 55.7297 84.7327C55.7297 86.2943 57.1279 87.5602 58.8526 87.5602Z" fill="#263238"/>
<path d="M34.696 91.2141C35.4005 99.1256 36.8812 106.949 39.1167 114.57C53.6166 114.447 68.1129 114.286 82.6091 113.822C97.1054 113.359 112.002 112.379 126.367 110.348C126.367 110.348 128.94 87.6237 123.723 66.3955C117.956 65.195 75.7537 67.7456 75.7537 67.7456" stroke="#263238" stroke-linecap="round" stroke-linejoin="round"/>
<path d="M79.2618 107.404L79.662 112.083L47.124 112.831C45.7813 112.947 43.6907 113.123 42.4565 112.491C41.8955 112.203 41.4916 111.5 41.7571 110.924C41.9965 110.408 42.6248 110.224 43.1858 110.112C47.1651 109.293 51.2268 108.949 55.2772 108.65C63.949 108.006 72.6345 107.571 81.3338 107.345C81.1505 107.345 79.0299 89.8451 78.7943 88.2294C77.8743 81.9088 76.9991 75.562 75.8622 69.2751C75.4518 66.841 74.8656 64.4398 74.1081 62.0905C60.7039 61.1331 46.7051 60.2467 33.3832 62.0082C33.5067 67.9436 33.286 73.2282 33.5889 79.1898" stroke="#263238" stroke-linecap="round" stroke-linejoin="round"/>
<path d="M38.6192 112.809C38.5392 112.567 38.4914 112.316 38.4771 112.061" stroke="#263238" stroke-linecap="round" stroke-linejoin="round"/>
<path d="M38.694 110.643C39.1915 109.398 40.6837 107.992 44.7416 107.543C52.1431 106.72 68.2774 105.239 77.7434 104.88" stroke="#263238" stroke-linecap="round" stroke-linejoin="round" stroke-dasharray="3.91 3.91"/>
<path d="M78.4764 104.854L79.2244 104.828L79.1235 104.08" stroke="#263238" stroke-linecap="round" stroke-linejoin="round"/>
<path d="M78.914 102.647C77.2123 90.406 75.3274 78.2548 73.1694 66.0811" stroke="#263238" stroke-linecap="round" stroke-linejoin="round" stroke-dasharray="3.88 3.88"/>
<path d="M73.0497 65.3668L72.9151 64.6188L72.1671 64.5664" stroke="#263238" stroke-linecap="round" stroke-linejoin="round"/>
<path d="M70.6561 64.4693C64.4365 64.0542 46.75 63.0182 34.9503 63.826" stroke="#263238" stroke-linecap="round" stroke-linejoin="round" stroke-dasharray="4.07 4.07"/>
<path d="M34.1873 63.8823L33.4393 63.9422" stroke="#263238" stroke-linecap="round" stroke-linejoin="round"/>
<path d="M32.4931 91.0644L31.5992 81.5274C31.5721 81.241 31.6031 80.9521 31.6902 80.6779C31.7773 80.4037 31.9189 80.1499 32.1064 79.9316C32.2939 79.7134 32.5235 79.5352 32.7814 79.4078C33.0394 79.2804 33.3204 79.2063 33.6076 79.1899C39.1054 78.872 53.3249 78.124 58.7816 78.5616C61.3996 78.7711 64.2457 79.6126 65.5136 82.1184C66.5683 84.1828 66.7253 87.2796 64.9563 88.9775C62.2635 91.5581 57.1547 91.3599 53.684 91.4833C47.2212 91.7302 32.4968 91.1205 32.4931 91.0644Z" stroke="#263238" stroke-linecap="round" stroke-linejoin="round"/>
<path d="M66.3027 85.234C66.3027 84.9685 67.6641 90.7131 62.6899 92.6093C57.7157 94.5055 34.696 93.9071 34.696 93.9071V91.2143C34.696 91.2143 50.9799 91.5583 53.6914 91.4835C56.4029 91.4087 66.011 92.3101 66.3027 85.234Z" fill="#263238"/>
<path d="M61.5193 117.323C61.5193 117.323 65.5884 119.706 67.1106 124.182" stroke="#263238" stroke-linecap="round" stroke-linejoin="round"/>
<path d="M31.7115 80.6222C31.7115 80.6222 51.6681 79.6834 56.747 79.8517C61.826 80.02 64.3131 81.1383 64.818 84.321C65.3229 87.5038 62.2448 89.486 59.7914 89.86C57.338 90.234 32.4894 90.3424 32.4894 90.3424" stroke="#263238" stroke-linecap="round" stroke-linejoin="round" stroke-dasharray="4 4"/>
<path d="M45.4261 119.178C45.4261 119.178 42.3368 108.448 36.652 106.335C36.652 106.335 35.53 99.0121 37.9536 98.6082C40.3771 98.2042 47.2213 93.6938 45.4336 88.0651C43.6458 82.4364 38.2789 90.8888 34.7035 91.2142C31.1281 91.5395 27.2235 96.2632 27.3843 100.325C27.5451 104.386 23.6443 112.027 24.6205 116.407C25.5966 120.786 31.6143 128.599 32.1005 132.665" fill="white"/>
<path d="M45.4261 119.178C45.4261 119.178 42.3368 108.448 36.652 106.335C36.652 106.335 35.53 99.0121 37.9536 98.6082C40.3771 98.2042 47.2213 93.6938 45.4336 88.0651C43.6458 82.4364 38.2789 90.8888 34.7035 91.2142C31.1281 91.5395 27.2235 96.2632 27.3843 100.325C27.5451 104.386 23.6443 112.027 24.6205 116.407C25.5966 120.786 31.6143 128.599 32.1005 132.665" stroke="#263238" stroke-linecap="round" stroke-linejoin="round"/>
<path d="M37.9423 89.565C37.9423 89.565 42.2246 90.3429 44.5509 87.6239C46.8772 84.905 44.1993 84.7329 44.1993 84.7329L37.9423 89.565Z" fill="white" stroke="#263238" stroke-linecap="round" stroke-linejoin="round"/>
<path d="M30.294 95.6235C31.0757 95.6773 31.8316 95.9254 32.4931 96.3454" stroke="#263238" stroke-linecap="round" stroke-linejoin="round"/>
<path d="M30.1631 97.1792C30.9418 97.253 31.6835 97.5461 32.3024 98.0244" stroke="#263238" stroke-linecap="round" stroke-linejoin="round"/>
<path d="M41.7234 111.552C41.7234 111.552 60.0495 110.606 64.8741 110.883" stroke="#263238" stroke-linecap="round" stroke-linejoin="round"/>
<path d="M60.4122 109.484C60.4122 109.484 65.0236 109.11 67.8922 109.484" stroke="#263238" stroke-linecap="round" stroke-linejoin="round"/>
<path d="M72.096 110.831H79.5573" stroke="#263238" stroke-linecap="round" stroke-linejoin="round"/>
<path d="M76.6102 69.8475C76.6102 69.8475 109.384 66.919 122.552 68.5908C122.552 68.5908 126.105 75.1246 125.331 108.609C110.53 110.506 95.639 111.613 80.7204 111.926" stroke="#263238" stroke-linecap="round" stroke-linejoin="round" stroke-dasharray="4 4"/>
<g opacity="0.1">
<path opacity="0.1" d="M165.33 116.186C164.399 112.225 163.034 110.737 161.665 109.593C161.665 109.593 161.635 107.349 159.881 106.069C159.413 105.657 158.913 105.282 158.385 104.947C156.74 103.713 154.926 102.329 154.926 102.329C154.073 99.861 152.917 96.8728 151.668 93.9331L151.732 94.6026C150.453 91.4797 149.2 88.3718 148.848 87.3395V87.3171C149.222 88.3119 149.596 89.2731 150.008 90.1595L145.325 73.61C145.213 72.9443 145.097 72.2898 144.981 71.6577C144.757 69.7877 144.147 66.2646 142.677 66.014C142.622 66.0103 142.567 66.0103 142.513 66.014C142.513 66.014 140.781 65.266 140.781 68.3366C138.72 69.0247 137.924 70.5806 137.726 72.4094C137.618 72.9895 137.606 73.5831 137.688 74.1672C137.726 74.8442 137.804 75.5361 137.909 76.2242L131.274 67.5026L130.634 66.6723L122.451 55.9011L111.452 41.3899C111.043 40.8512 110.531 40.3985 109.947 40.0575C109.363 39.7165 108.717 39.494 108.047 39.4026C107.376 39.3113 106.695 39.3529 106.04 39.5251C105.386 39.6973 104.772 39.9967 104.234 40.4063L90.5791 50.7773L85.2496 54.824C81.1617 56.952 82.2276 61.1558 83.3609 62.648L107.173 93.993C107.049 93.9773 106.924 93.9711 106.799 93.9743C106.799 93.9743 106.119 92.3698 104.436 92.6241C104.077 92.6407 103.731 92.7559 103.433 92.957C103.162 93.0998 102.932 93.3097 102.764 93.5666C102.577 93.7918 102.41 94.032 102.263 94.2847C101.406 95.7508 102.199 99.3374 103.437 103.717C103.516 104.001 103.594 104.274 103.669 104.529V104.57L103.987 105.666C105.199 109.869 107.465 118.123 107.884 122.17C107.914 122.544 107.933 122.944 107.94 123.318C107.966 127.978 105.898 135.78 106.788 139.004C106.904 139.426 107.024 139.83 107.144 140.231C107.806 142.385 108.396 144.423 109.436 146.446C110.7 148.915 112.207 151.282 113.617 153.672C116.206 158.063 118.883 162.401 121.651 166.687C122.926 168.655 124.419 170.45 125.862 172.297C126.524 173.146 127.968 174.422 128.218 175.51C128.218 175.51 141.02 176.568 148.186 172.017L147.513 161.829L152.319 134.209C153.692 132.126 157.929 128.057 158.774 126.77C159.212 126.131 159.638 125.495 160.053 124.874C163.214 121.923 164.796 119.638 165.491 116.979C165.506 116.987 165.458 116.684 165.33 116.186ZM121.011 122.219L120.948 122.099C122.255 122.691 123.641 123.094 125.062 123.296C123.57 123.124 121.883 122.884 121.011 122.219ZM126.412 123.457L127.1 123.505C126.87 123.505 126.64 123.488 126.412 123.457ZM120.877 121.938L120.017 120.233C118.82 116.799 116.116 108.706 116.105 108.672C115.575 106.34 114.867 104.052 113.988 101.828C114.624 102.053 115.306 102.115 115.972 102.011C116.639 101.906 117.269 101.638 117.806 101.23L124.351 96.2594C125.028 96.6671 125.72 97.0336 126.397 97.3552L132.527 102.146L127.665 122.129L120.877 121.938ZM145.688 75.9138C146.197 78.2999 147.001 81.7333 148.067 85.0581C147.032 82.0776 146.234 79.02 145.68 75.9138H145.688Z" fill="black"/>
<path opacity="0.1" d="M117.904 171.935L117.941 172.114C117.941 172.114 117.93 172.047 117.904 171.935Z" fill="black"/>
</g>
<path d="M140.624 76.6467C140.998 76.3998 146.481 73.4153 149.226 82.3651C151.971 91.315 155.191 106.544 155.191 106.544L148.669 107.812C148.669 107.812 142.625 104.596 137.209 96.5397C137.209 96.5397 129.617 94.5725 126.311 89.8975C123.319 85.6489 132.549 70.0493 132.549 70.0493L140.624 76.6467Z" fill="white"/>
<path d="M138.279 87.7842C139.895 90.2077 142.954 95.3053 147.083 96.9135" stroke="#263238" stroke-linecap="round" stroke-linejoin="round"/>
<path d="M133.709 90.3911C134.457 90.6941 136.327 91.7712 137.209 91.8123C137.209 91.8123 141.02 99.3559 147.307 101.806" stroke="#263238" stroke-linecap="round" stroke-linejoin="round"/>
<path d="M130.212 93.1699C132.549 95.1259 135.336 96.4611 137.209 96.5359C137.209 96.5359 141.02 104.08 147.307 106.529" stroke="#263238" stroke-linecap="round" stroke-linejoin="round"/>
<path d="M110.54 38.5067L89.8592 54.2157C88.0631 55.58 87.713 58.1421 89.0774 59.9383L117.801 97.7529C119.165 99.5491 121.727 99.8991 123.524 98.5348L144.204 82.8257C146.001 81.4614 146.351 78.8993 144.986 77.1032L116.263 39.2885C114.898 37.4924 112.336 37.1423 110.54 38.5067Z" fill="#263238"/>
<path d="M143.616 82.0058L124.639 96.4235C124.101 96.8338 123.487 97.1338 122.832 97.3062C122.178 97.4787 121.496 97.5202 120.825 97.4285C120.155 97.3368 119.509 97.1136 118.925 96.7717C118.34 96.4298 117.829 95.9759 117.421 95.4362L89.9882 59.3227C89.5412 58.7394 89.2272 58.0654 89.0681 57.348C88.847 56.3846 88.909 55.3778 89.2468 54.4489C89.5845 53.5199 90.1836 52.7084 90.9718 52.112L96.305 48.0653L109.956 37.6905C110.495 37.2812 111.109 36.982 111.763 36.8101C112.418 36.6382 113.099 36.5969 113.77 36.6886C114.44 36.7803 115.086 37.0032 115.67 37.3445C116.254 37.6859 116.765 38.1389 117.174 38.6779L128.181 53.1667L136.364 63.9379L144.592 74.7839C145.003 75.322 145.303 75.9358 145.476 76.5901C145.649 77.2444 145.692 77.9265 145.601 78.5972C145.51 79.2679 145.288 79.9142 144.948 80.4991C144.607 81.084 144.155 81.596 143.616 82.0058Z" fill="#FAC173"/>
<path opacity="0.1" d="M128.166 53.1667L96.2938 48.0616L109.956 37.6905C110.495 37.2812 111.109 36.982 111.763 36.8101C112.418 36.6382 113.099 36.5969 113.77 36.6886C114.44 36.7803 115.086 37.0032 115.67 37.3445C116.254 37.6859 116.765 38.1389 117.174 38.6779L128.166 53.1667Z" fill="black"/>
<path opacity="0.1" d="M143.616 82.006L124.639 96.4237C124.101 96.8339 123.487 97.1339 122.832 97.3064C122.178 97.4788 121.496 97.5204 120.825 97.4287C120.155 97.3369 119.509 97.1137 118.924 96.7718C118.34 96.4299 117.829 95.9761 117.421 95.4363L89.9882 59.3229C89.5412 58.7395 89.2272 58.0656 89.0681 57.3481L136.992 64.802L144.592 74.8065C145.414 75.8918 145.773 77.2585 145.59 78.6077C145.407 79.9568 144.697 81.1787 143.616 82.006Z" fill="black"/>
<path d="M112.649 41.3577L109.299 43.9027C108.628 44.4124 108.497 45.3697 109.007 46.0408L113.063 51.3808C113.573 52.0519 114.53 52.1827 115.201 51.6729L118.552 49.1279C119.223 48.6181 119.353 47.6609 118.844 46.9898L114.787 41.6498C114.278 40.9787 113.32 40.8479 112.649 41.3577Z" fill="white" stroke="#263238" stroke-linecap="round" stroke-linejoin="round"/>
<path d="M111.044 42.5713L116.83 50.4328" stroke="#263238" stroke-linecap="round" stroke-linejoin="round"/>
<path d="M111.044 48.7239L116.83 44.3369" stroke="#263238" stroke-linecap="round" stroke-linejoin="round"/>
<path d="M122.249 94.0713L121.262 94.7969L109.215 78.9392L110.195 78.1987L122.249 94.0713Z" fill="#263238"/>
<path d="M123.921 92.8331L122.934 93.5662L110.872 77.6824L111.845 76.9419L123.921 92.8331Z" fill="#263238"/>
<path d="M125.589 91.603L124.606 92.3285L112.525 76.4298L113.502 75.6855L125.589 91.603Z" fill="#263238"/>
<path d="M127.261 90.3647L126.274 91.0903L114.354 75.401L115.327 74.6567L127.261 90.3647Z" fill="#263238"/>
<path d="M129.064 89.0337L128.076 89.763L116.138 74.0475L117.114 73.3032L129.064 89.0337Z" fill="#263238"/>
<path d="M129.064 70.5429L128.076 71.2685L116.138 55.553L117.114 54.8125L129.064 70.5429Z" fill="#263238"/>
<path d="M103.064 42.9674L101.536 44.1279L135.176 88.4143L136.704 87.2537L103.064 42.9674Z" fill="#263238"/>
<path d="M143.616 82.0058L124.639 96.4235C124.101 96.8338 123.487 97.1338 122.832 97.3062C122.178 97.4787 121.496 97.5202 120.825 97.4285C120.155 97.3368 119.509 97.1136 118.925 96.7717C118.34 96.4298 117.829 95.9759 117.421 95.4362L89.9882 59.3227C89.5412 58.7394 89.2272 58.0654 89.0681 57.348C88.847 56.3846 88.909 55.3778 89.2468 54.4489C89.5845 53.5199 90.1836 52.7084 90.9718 52.112L96.305 48.0653L109.956 37.6905C110.495 37.2812 111.109 36.982 111.763 36.8101C112.418 36.6382 113.099 36.5969 113.77 36.6886C114.44 36.7803 115.086 37.0032 115.67 37.3445C116.254 37.6859 116.765 38.1389 117.174 38.6779L128.181 53.1667L136.364 63.9379L144.592 74.7839C145.003 75.322 145.303 75.9358 145.476 76.5901C145.649 77.2444 145.692 77.9265 145.601 78.5972C145.51 79.2679 145.288 79.9142 144.948 80.4991C144.607 81.084 144.155 81.596 143.616 82.0058V82.0058Z" stroke="#263238" stroke-linecap="round" stroke-linejoin="round"/>
<path d="M128.233 175.506C128.233 175.506 150.322 183.36 157.005 166.253C157.005 166.253 146.552 153.537 152.259 143.147C155.85 136.602 165.779 122.155 165.779 122.155C165.779 122.155 169.927 118.217 171.217 114.26C171.217 114.26 170.507 109.85 167.38 106.866C167.38 106.866 167.346 104.622 165.592 103.343C163.838 102.063 160.622 99.6025 160.622 99.6025C160.622 99.6025 155.333 86.9165 154.548 84.6238C153.763 82.3312 152.184 77.9966 151.395 73.2094C150.606 68.4222 149.877 63.2684 148.201 63.2834C148.201 63.2834 146.473 62.5354 146.473 65.6059C146.473 65.6059 142.846 67.4759 143.38 71.4329C143.915 75.3898 144.409 77.4356 144.267 79.6609C144.125 81.8862 144.839 89.613 146.627 92.0365C146.627 92.0365 147.225 102.883 148.123 105.706C148.153 105.792 148.179 105.871 148.205 105.942C149.147 108.332 139.73 117.536 134.633 120.027C134.633 120.027 134.098 121.022 132.119 120.749C130.141 120.475 126.793 120.348 126.218 118.879C125.642 117.409 121.808 105.942 121.808 105.942C121.808 105.942 118.708 91.2436 112.514 91.2474C112.514 91.2474 111.575 89.0034 109.148 90.2301C106.721 91.4568 108.31 98.1439 109.384 101.802C110.457 105.459 113.176 115.075 113.617 119.499C114.059 123.924 111.553 132.788 112.495 136.273C113.438 139.759 114.485 142.111 117.492 147.819C120.499 153.526 127.16 170.543 128.233 175.506Z" fill="white"/>
<path d="M128.233 175.506C128.233 175.506 123.506 157.711 116.557 146.203C109.608 134.695 113.696 130.626 113.696 121.048C113.696 111.47 105.891 95.1636 107.996 91.5695C110.102 87.9753 112.974 90.8514 114.175 94.2062C115.375 97.5609 113.696 99.4796 110.33 99.7189" stroke="#263238" stroke-linecap="round" stroke-linejoin="round"/>
<path d="M112.514 91.2625C112.514 91.2625 116.55 91.0156 119.029 97.4671C121.509 103.919 125.481 120.281 129.617 125.259" stroke="#263238" stroke-linecap="round" stroke-linejoin="round"/>
<path d="M126.352 119.215C126.375 119.268 132.13 122.477 141.062 119.664" stroke="#263238" stroke-linecap="round" stroke-linejoin="round"/>
<path d="M113.281 110.198C113.73 109.649 114.315 109.228 114.978 108.977C115.641 108.725 116.358 108.652 117.058 108.766" stroke="#263238" stroke-linecap="round" stroke-linejoin="round"/>
<path d="M114.048 112.229C114.435 111.765 114.946 111.42 115.521 111.233C116.095 111.046 116.711 111.024 117.298 111.171" stroke="#263238" stroke-linecap="round" stroke-linejoin="round"/>
<path d="M146.473 65.5947C140.602 67.5507 144.977 76.4183 144.267 79.6534C143.556 82.8885 145.389 89.0819 146.799 92.4404C146.799 96.3787 148.201 105.934 148.201 105.934C147.334 108.975 140.093 117.936 133.058 120.741" stroke="#263238" stroke-linecap="round" stroke-linejoin="round"/>
<path d="M150.782 70.0606C150.782 70.0606 150.344 63.2725 148.201 63.2725C146.058 63.2725 146.189 67.8465 147.079 71.2424C147.969 74.6383 151.433 74.1521 150.782 70.0606Z" stroke="#263238" stroke-linecap="round" stroke-linejoin="round"/>
<path d="M150.782 70.0605C150.782 70.0605 152.607 80.7308 155.7 87.4328" stroke="#263238" stroke-linecap="round" stroke-linejoin="round"/>
<path d="M159.346 112.423C160.842 110 161.504 107.707 162.058 104.79C161.92 102.961 159.814 96.992 157.368 91.21" stroke="#263238" stroke-linecap="round" stroke-linejoin="round"/>
<path d="M160.82 100.167C163.247 101.993 167.47 103.395 166.984 106.544C166.447 109.694 165.345 112.722 163.73 115.479" stroke="#263238" stroke-linecap="round" stroke-linejoin="round"/>
<path d="M157.544 167.05C157.544 167.05 149.088 155.31 150.782 147.201C152.027 141.236 160.035 130.805 165.779 122.166C168.943 119.215 170.525 116.93 171.217 114.271C170.204 109.278 168.558 107.823 166.976 106.544" stroke="#263238" stroke-linecap="round" stroke-linejoin="round"/>
<path d="M159.799 102.105C158.857 101.84 157.871 101.771 156.901 101.903C155.932 102.035 155 102.365 154.163 102.871" stroke="#263238" stroke-linecap="round" stroke-linejoin="round"/>
<path d="M159.324 104.113C158.175 103.939 157.001 104.146 155.98 104.7" stroke="#263238" stroke-linecap="round" stroke-linejoin="round"/>
</svg>
