<svg width="22" height="21" viewBox="0 0 22 21" fill="none" xmlns="http://www.w3.org/2000/svg">
<path d="M21 19.2497H20V7.97973C20 7.35973 19.72 6.77973 19.23 6.39973L18 5.43973L17.98 2.98973C17.98 2.43973 17.53 1.99973 16.98 1.99973H13.57L12.23 0.959727C11.51 0.389727 10.49 0.389727 9.77 0.959727L2.77 6.39973C2.28 6.77973 2 7.35973 2 7.96973L1.95 19.2497H1C0.59 19.2497 0.25 19.5897 0.25 19.9997C0.25 20.4097 0.59 20.7497 1 20.7497H21C21.41 20.7497 21.75 20.4097 21.75 19.9997C21.75 19.5897 21.41 19.2497 21 19.2497ZM5.5 10.7497V9.24973C5.5 8.69973 5.95 8.24973 6.5 8.24973H8.5C9.05 8.24973 9.5 8.69973 9.5 9.24973V10.7497C9.5 11.2997 9.05 11.7497 8.5 11.7497H6.5C5.95 11.7497 5.5 11.2997 5.5 10.7497ZM13.5 19.2497H8.5V16.4997C8.5 15.6697 9.17 14.9997 10 14.9997H12C12.83 14.9997 13.5 15.6697 13.5 16.4997V19.2497ZM16.5 10.7497C16.5 11.2997 16.05 11.7497 15.5 11.7497H13.5C12.95 11.7497 12.5 11.2997 12.5 10.7497V9.24973C12.5 8.69973 12.95 8.24973 13.5 8.24973H15.5C16.05 8.24973 16.5 8.69973 16.5 9.24973V10.7497Z" fill="#007AEC"/>
</svg>
