<svg width="18" height="22" viewBox="0 0 18 22" fill="none" xmlns="http://www.w3.org/2000/svg">
<path d="M15.5408 3.11984L10.0408 1.05984C9.47078 0.849844 8.54078 0.849844 7.97078 1.05984L2.47078 3.11984C1.41078 3.51984 0.550781 4.75984 0.550781 5.88984V13.9898C0.550781 14.7998 1.08078 15.8698 1.73078 16.3498L7.23078 20.4598C8.20078 21.1898 9.79078 21.1898 10.7608 20.4598L16.2608 16.3498C16.9108 15.8598 17.4408 14.7998 17.4408 13.9898V5.88984C17.4508 4.75984 16.5908 3.51984 15.5408 3.11984ZM12.4808 8.71984L8.18078 13.0198C8.03078 13.1698 7.84078 13.2398 7.65078 13.2398C7.46078 13.2398 7.27078 13.1698 7.12078 13.0198L5.52078 11.3998C5.23078 11.1098 5.23078 10.6298 5.52078 10.3398C5.81078 10.0498 6.29078 10.0498 6.58078 10.3398L7.66078 11.4198L11.4308 7.64984C11.7208 7.35984 12.2008 7.35984 12.4908 7.64984C12.7808 7.93984 12.7808 8.42984 12.4808 8.71984Z" fill="#007AEC"/>
</svg>
