<svg width="175" height="161" viewBox="0 0 175 161" fill="none" xmlns="http://www.w3.org/2000/svg">
<path d="M113.207 51.1057V13.0996H172.793V51.1057H113.207Z" fill="#FF9201"/>
<path d="M172.793 51.106L147.906 31.832C144.865 29.741 140.838 29.73 137.785 31.8022C129.233 37.6075 113.207 51.106 113.207 51.106H172.793Z" fill="#BCDCFF"/>
<path d="M138.761 31.2432H138.586L113.206 13.1055L113.207 51.1053C113.207 51.1053 129.233 37.6068 137.784 31.8016C138.098 31.5886 138.428 31.4121 138.761 31.2432Z" fill="#A7D0FE"/>
<path d="M147.413 31.2433H146.891C147.237 31.4198 147.579 31.6074 147.904 31.8314L172.793 51.1053V13.1055L147.413 31.2433Z" fill="#A7D0FE"/>
<path d="M172.793 13.106L147.906 32.3799C144.865 34.4709 140.838 34.4819 137.785 32.4097C129.233 26.6044 113.207 13.106 113.207 13.106H172.793Z" fill="white"/>
<g clip-path="url(#clip0_617_5067)">
<path d="M148.862 62.8383L103.274 18.2728C97.5825 12.7073 88.417 12.7073 82.7253 18.2728L37.1377 62.8383V134.1H148.862V62.8383Z" fill="#FF9201"/>
<rect x="53" y="30.0996" width="80" height="104" rx="4" fill="white"/>
<g clip-path="url(#clip1_617_5067)">
<path fill-rule="evenodd" clip-rule="evenodd" d="M73 65.5996C77.1421 65.5996 80.5 62.2417 80.5 58.0996C80.5 53.9575 77.1421 50.5996 73 50.5996C68.8579 50.5996 65.5 53.9575 65.5 58.0996C65.5 62.2417 68.8579 65.5996 73 65.5996ZM73 70.0996C79.6274 70.0996 85 64.727 85 58.0996C85 51.4722 79.6274 46.0996 73 46.0996C66.3726 46.0996 61 51.4722 61 58.0996C61 64.727 66.3726 70.0996 73 70.0996Z" fill="#2EC5CE"/>
<rect x="89" y="51.0996" width="36" height="6" rx="0.5" fill="#2EC5CE"/>
<rect opacity="0.4" x="89" y="60.0996" width="16" height="5" rx="0.5" fill="#2EC5CE"/>
</g>
<path d="M148.862 134.1L102.198 97.9612C96.4963 94.0405 88.9467 94.0198 83.2218 97.9053C67.1874 108.79 37.1377 134.1 37.1377 134.1H148.862Z" fill="#FFDC81"/>
<path d="M85.0508 96.8583H84.7239L37.1377 63.7549V134.1C37.1377 134.1 67.1874 108.79 83.2198 97.9052C83.8094 97.5059 84.428 97.1749 85.0508 96.8583Z" fill="#FFCA00"/>
<path d="M101.276 96.8583H100.298C100.945 97.1894 101.587 97.5411 102.197 97.9611L148.863 134.1V63.7549L101.276 96.8583Z" fill="#FFB800"/>
</g>
<path d="M2.20691 147.106V109.1H61.7931V147.106H2.20691Z" fill="#FF9201"/>
<path d="M61.7931 147.106L36.9059 127.832C33.8648 125.741 29.8384 125.73 26.7851 127.802C18.2334 133.607 2.20691 147.106 2.20691 147.106H61.7931Z" fill="#BCDCFF"/>
<path d="M27.7606 127.243H27.5862L2.20593 109.105L2.20691 147.105C2.20691 147.105 18.2334 133.607 26.784 127.802C27.0985 127.589 27.4284 127.412 27.7606 127.243Z" fill="#A7D0FE"/>
<path d="M36.4134 127.243H35.8915C36.2369 127.42 36.5789 127.607 36.9044 127.831L61.7927 147.105V109.105L36.4134 127.243Z" fill="#A7D0FE"/>
<path d="M61.7931 109.106L36.9059 128.38C33.8648 130.471 29.8384 130.482 26.7851 128.41C18.2334 122.604 2.20691 109.106 2.20691 109.106H61.7931Z" fill="white"/>
<circle cx="145" cy="122.1" r="24" fill="white"/>
<g opacity="0.4">
<path d="M151 114.806C151 118.352 148.122 121.226 144.571 121.226C141.021 121.226 138.143 118.352 138.143 114.806C138.143 111.26 141.021 108.386 144.571 108.386C148.122 108.386 151 111.26 151 114.806Z" fill="#2EC5CE"/>
<path d="M157 135.779C157 135.779 148.913 135.859 143.714 135.779C139.517 135.714 133 135.779 133 135.779C133 135.779 134.714 122.938 145 122.938C155.286 122.938 157 135.779 157 135.779Z" fill="#2EC5CE"/>
</g>
<circle cx="163" cy="104.1" r="10" fill="#2EC5CE"/>
<path fill-rule="evenodd" clip-rule="evenodd" d="M163 99.4326C163.322 99.4326 163.583 99.6938 163.583 100.016V103.516H167.083C167.406 103.516 167.667 103.777 167.667 104.099C167.667 104.421 167.406 104.683 167.083 104.683H163.583V108.183C163.583 108.505 163.322 108.766 163 108.766C162.678 108.766 162.417 108.505 162.417 108.183V104.683H158.917C158.595 104.683 158.333 104.421 158.333 104.099C158.333 103.777 158.595 103.516 158.917 103.516H162.417V100.016C162.417 99.6938 162.678 99.4326 163 99.4326Z" fill="white"/>
<defs>
<clipPath id="clip0_617_5067">
<rect width="120" height="120" fill="white" transform="translate(33 14.0996)"/>
</clipPath>
<clipPath id="clip1_617_5067">
<rect width="64" height="24" fill="white" transform="translate(61 46.0996)"/>
</clipPath>
</defs>
</svg>
