<svg width="124" height="32" viewBox="0 0 124 32" fill="none" xmlns="http://www.w3.org/2000/svg">
<path fill-rule="evenodd" clip-rule="evenodd" d="M4.82266 0.339564L1.1133 5.69511C0.761516 5.38678 0.480773 5.0114 0.289063 4.59301C0.0973522 4.17463 -0.00110026 3.72248 9.2747e-06 3.2655C9.2747e-06 1.46431 1.49461 5.68324e-06 3.33989 5.68324e-06C3.85522 -0.000937139 4.36341 0.11544 4.82266 0.339564ZM23.8481 4.56261C24.0304 4.15268 24.1237 3.71144 24.1223 3.26581C24.1223 1.46261 22.627 0.000312848 20.7838 0.000979956C20.2728 0.000258716 19.7687 0.114505 19.3121 0.334534L23.0619 5.65005C23.3983 5.34254 23.6658 4.97253 23.8481 4.56261ZM23.2136 15.597C23.4904 14.5014 23.6167 13.3758 23.5893 12.2488C23.5321 9.46035 22.5075 6.76966 20.6774 4.60175C19.6803 3.43164 18.1558 2.23084 16.5025 2.79322C15.6167 3.09675 14.8771 3.8786 14.9209 4.83123C14.9581 5.64593 15.3787 6.37861 15.7911 7.09709L15.7911 7.09711C15.9656 7.40112 16.1386 7.7026 16.2805 8.00667C16.739 8.99084 16.989 10.0525 17.016 11.1301C17.0661 13.2521 16.1838 15.3575 14.3963 16.6184C10.8177 19.1427 6.82241 15.2735 6.76118 11.6618C6.73404 10.072 7.16405 8.42161 8.04564 7.07872C8.11636 6.97121 8.19035 6.86471 8.26446 6.75803C8.59505 6.28216 8.92815 5.80269 8.98499 5.21415C9.0817 4.22483 8.5341 3.18414 7.63998 2.70716C6.56218 2.12944 5.27423 3.1748 4.51232 3.82924C3.59262 4.61781 2.79796 5.53093 2.15352 6.5397C0.317978 9.43095 0.0633132 12.7785 1.08337 15.9839C1.8084 18.2615 3.08869 20.3041 4.39751 22.3101L4.63184 22.6693C5.97467 24.7277 7.31782 26.7866 8.64543 28.8545C8.73843 28.9993 8.83242 29.1518 8.92879 29.3082L8.9289 29.3084C9.64288 30.4671 10.4875 31.8378 12.0298 31.8378C12.0994 31.8378 12.169 31.8351 12.2386 31.8291C13.5606 31.7164 14.4088 30.707 15.0281 29.679C15.1767 29.4351 15.3159 29.1857 15.4551 28.9362L15.4551 28.9362C15.5493 28.7674 15.6435 28.5987 15.7406 28.4315C16.5695 27.007 17.5401 25.6468 18.5113 24.2859L18.5113 24.2859L18.5113 24.2858C20.4523 21.5659 22.3955 18.8428 23.2136 15.597ZM14.4882 12.3125C14.4882 13.7479 13.2985 14.9115 11.8309 14.9115C10.3633 14.9115 9.17359 13.7479 9.17359 12.3125C9.17359 10.8771 10.3633 9.71342 11.8309 9.71342C13.2985 9.71342 14.4882 10.8771 14.4882 12.3125Z" fill="#007AEC"/>
<path d="M37.7286 8.95611V10.7848H34.0909V22.6221H31.8493V10.7848H28.1919V8.95611H37.7286ZM41.0606 13.3607C41.3883 12.8101 41.8209 12.3841 42.3584 12.0826C42.9089 11.768 43.5578 11.6106 44.305 11.6106V13.9309H43.7348C42.8565 13.9309 42.188 14.1538 41.7291 14.5995C41.2834 15.0452 41.0606 15.8186 41.0606 16.9197V22.6221H38.819V11.7876H41.0606V13.3607ZM44.4385 17.1557C44.4385 16.0677 44.6614 15.1042 45.1071 14.2652C45.5659 13.4262 46.182 12.7773 46.9554 12.3185C47.742 11.8466 48.6071 11.6106 49.551 11.6106C50.403 11.6106 51.1437 11.7811 51.7729 12.1219C52.4152 12.4496 52.9265 12.8625 53.3067 13.3607V11.7876H55.5679V22.6221H53.3067V21.0097C52.9265 21.5209 52.4087 21.947 51.7533 22.2878C51.0978 22.6286 50.3506 22.799 49.5116 22.799C48.5809 22.799 47.7288 22.5631 46.9554 22.0912C46.182 21.6061 45.5659 20.9376 45.1071 20.0855C44.6614 19.2203 44.4385 18.2437 44.4385 17.1557ZM53.3067 17.195C53.3067 16.4478 53.1493 15.7989 52.8347 15.2484C52.5332 14.6978 52.1334 14.2783 51.6353 13.9899C51.1371 13.7015 50.5997 13.5573 50.0229 13.5573C49.4461 13.5573 48.9086 13.7015 48.4105 13.9899C47.9124 14.2652 47.506 14.6781 47.1914 15.2287C46.8899 15.7661 46.7391 16.4085 46.7391 17.1557C46.7391 17.9029 46.8899 18.5583 47.1914 19.122C47.506 19.6857 47.9124 20.1183 48.4105 20.4198C48.9217 20.7082 49.4592 20.8524 50.0229 20.8524C50.5997 20.8524 51.1371 20.7082 51.6353 20.4198C52.1334 20.1314 52.5332 19.7119 52.8347 19.1613C53.1493 18.5977 53.3067 17.9422 53.3067 17.195ZM61.5207 20.6164L64.5881 11.7876H66.9674L62.8381 22.6221H60.1639L56.0543 11.7876H58.4532L61.5207 20.6164ZM77.412 16.9394C77.412 17.3458 77.3857 17.7128 77.3333 18.0405H69.0551C69.1206 18.9057 69.4418 19.6005 70.0186 20.1248C70.5954 20.6492 71.3032 20.9114 72.1422 20.9114C73.3482 20.9114 74.2003 20.4067 74.6984 19.3973H77.117C76.7893 20.3936 76.1928 21.2129 75.3276 21.8552C74.4756 22.4844 73.4138 22.799 72.1422 22.799C71.1066 22.799 70.1759 22.5696 69.35 22.1108C68.5373 21.6389 67.8949 20.9835 67.423 20.1445C66.9642 19.2924 66.7348 18.3093 66.7348 17.195C66.7348 16.0808 66.9577 15.1042 67.4034 14.2652C67.8622 13.4131 68.4979 12.7577 69.3107 12.2989C70.1366 11.8401 71.0804 11.6106 72.1422 11.6106C73.1647 11.6106 74.0758 11.8335 74.8754 12.2792C75.675 12.7249 76.2977 13.3541 76.7434 14.1669C77.1891 14.9665 77.412 15.8907 77.412 16.9394ZM75.072 16.2315C75.0589 15.4057 74.764 14.7437 74.1872 14.2455C73.6104 13.7474 72.896 13.4983 72.0439 13.4983C71.2705 13.4983 70.6085 13.7474 70.0579 14.2455C69.5073 14.7306 69.1796 15.3925 69.0747 16.2315H75.072ZM80.6797 8.07126V22.6221H78.4381V8.07126H80.6797ZM89.7577 15.6023C90.4918 15.7334 91.1145 16.1201 91.6257 16.7624C92.137 17.4048 92.3926 18.1323 92.3926 18.945C92.3926 19.6398 92.2091 20.269 91.842 20.8327C91.4881 21.3833 90.9703 21.8224 90.2886 22.1502C89.607 22.4648 88.8139 22.6221 87.9094 22.6221H82.443V8.95611H87.6537C88.5845 8.95611 89.3841 9.11342 90.0527 9.42803C90.7212 9.74264 91.2259 10.1687 91.5667 10.7061C91.9076 11.2305 92.078 11.8204 92.078 12.4758C92.078 13.2624 91.8682 13.9178 91.4487 14.4422C91.0293 14.9665 90.4656 15.3532 89.7577 15.6023ZM84.6846 14.6978H87.4571C88.1912 14.6978 88.7614 14.5339 89.1678 14.2062C89.5873 13.8654 89.797 13.3803 89.797 12.7511C89.797 12.135 89.5873 11.6565 89.1678 11.3157C88.7614 10.9618 88.1912 10.7848 87.4571 10.7848H84.6846V14.6978ZM87.7127 20.7934C88.473 20.7934 89.0695 20.6099 89.5021 20.2428C89.9347 19.8758 90.151 19.3645 90.151 18.7091C90.151 18.0405 89.9216 17.5096 89.4628 17.1164C89.004 16.7231 88.3944 16.5265 87.6341 16.5265H84.6846V20.7934H87.7127ZM103.579 16.9394C103.579 17.3458 103.552 17.7128 103.5 18.0405H95.2218C95.2873 18.9057 95.6085 19.6005 96.1853 20.1248C96.7621 20.6492 97.47 20.9114 98.3089 20.9114C99.5149 20.9114 100.367 20.4067 100.865 19.3973H103.284C102.956 20.3936 102.36 21.2129 101.494 21.8552C100.642 22.4844 99.5805 22.799 98.3089 22.799C97.2733 22.799 96.3426 22.5696 95.5167 22.1108C94.704 21.6389 94.0617 20.9835 93.5897 20.1445C93.1309 19.2924 92.9015 18.3093 92.9015 17.195C92.9015 16.0808 93.1244 15.1042 93.5701 14.2652C94.0289 13.4131 94.6647 12.7577 95.4774 12.2989C96.3033 11.8401 97.2471 11.6106 98.3089 11.6106C99.3314 11.6106 100.242 11.8335 101.042 12.2792C101.842 12.7249 102.464 13.3541 102.91 14.1669C103.356 14.9665 103.579 15.8907 103.579 16.9394ZM101.239 16.2315C101.226 15.4057 100.931 14.7437 100.354 14.2455C99.7771 13.7474 99.0627 13.4983 98.2106 13.4983C97.4372 13.4983 96.7752 13.7474 96.2246 14.2455C95.674 14.7306 95.3463 15.3925 95.2415 16.2315H101.239ZM103.858 17.1557C103.858 16.0677 104.08 15.1042 104.526 14.2652C104.985 13.4262 105.601 12.7773 106.375 12.3185C107.161 11.8466 108.026 11.6106 108.97 11.6106C109.822 11.6106 110.563 11.7811 111.192 12.1219C111.834 12.4496 112.346 12.8625 112.726 13.3607V11.7876H114.987V22.6221H112.726V21.0097C112.346 21.5209 111.828 21.947 111.172 22.2878C110.517 22.6286 109.77 22.799 108.931 22.799C108 22.799 107.148 22.5631 106.375 22.0912C105.601 21.6061 104.985 20.9376 104.526 20.0855C104.08 19.2203 103.858 18.2437 103.858 17.1557ZM112.726 17.195C112.726 16.4478 112.568 15.7989 112.254 15.2484C111.952 14.6978 111.553 14.2783 111.054 13.9899C110.556 13.7015 110.019 13.5573 109.442 13.5573C108.865 13.5573 108.328 13.7015 107.83 13.9899C107.331 14.2652 106.925 14.6781 106.61 15.2287C106.309 15.7661 106.158 16.4085 106.158 17.1557C106.158 17.9029 106.309 18.5583 106.61 19.122C106.925 19.6857 107.331 20.1183 107.83 20.4198C108.341 20.7082 108.878 20.8524 109.442 20.8524C110.019 20.8524 110.556 20.7082 111.054 20.4198C111.553 20.1314 111.952 19.7119 112.254 19.1613C112.568 18.5977 112.726 17.9422 112.726 17.195ZM118.993 13.3607C119.321 12.8101 119.753 12.3841 120.291 12.0826C120.841 11.768 121.49 11.6106 122.238 11.6106V13.9309H121.667C120.789 13.9309 120.12 14.1538 119.662 14.5995C119.216 15.0452 118.993 15.8186 118.993 16.9197V22.6221H116.752V11.7876H118.993V13.3607Z" fill="#007AEC"/>
</svg>
