<svg width="22" height="19" viewBox="0 0 22 19" fill="none" xmlns="http://www.w3.org/2000/svg">
<path d="M21.0827 9.3955C20.2588 7.65972 19.2783 6.24409 18.1413 5.14862L16.9488 6.34113C17.9212 7.27042 18.7682 8.48613 19.5007 10.0002C17.5507 14.0361 14.7827 15.9533 10.9999 15.9533C9.86442 15.9533 8.81856 15.7785 7.86231 15.4288L6.5702 16.7209C7.89833 17.3342 9.37489 17.6408 10.9999 17.6408C15.5046 17.6408 18.8655 15.2947 21.0827 10.6025C21.1718 10.4138 21.2181 10.2077 21.2181 9.99902C21.2181 9.79032 21.1718 9.58421 21.0827 9.3955ZM19.5928 1.8805L18.5936 0.880187C18.5762 0.862753 18.5555 0.848924 18.5328 0.839488C18.51 0.830052 18.4856 0.825195 18.461 0.825195C18.4363 0.825195 18.4119 0.830052 18.3892 0.839488C18.3664 0.848924 18.3457 0.862753 18.3283 0.880187L15.765 3.44237C14.3517 2.7205 12.7633 2.35956 10.9999 2.35956C6.4952 2.35956 3.13427 4.70566 0.917079 9.39785C0.827959 9.58656 0.781738 9.79266 0.781738 10.0014C0.781738 10.2101 0.827959 10.4162 0.917079 10.6049C1.80286 12.4705 2.86927 13.9659 4.1163 15.0911L1.63614 17.5705C1.601 17.6057 1.58127 17.6533 1.58127 17.703C1.58127 17.7528 1.601 17.8004 1.63614 17.8356L2.63669 18.8361C2.67185 18.8713 2.71952 18.891 2.76923 18.891C2.81893 18.891 2.86661 18.8713 2.90177 18.8361L19.5928 2.14581C19.6102 2.1284 19.624 2.10772 19.6335 2.08496C19.6429 2.06219 19.6478 2.0378 19.6478 2.01316C19.6478 1.98852 19.6429 1.96412 19.6335 1.94135C19.624 1.91859 19.6102 1.89791 19.5928 1.8805ZM2.49911 10.0002C4.45145 5.96425 7.21942 4.04706 10.9999 4.04706C12.2782 4.04706 13.4404 4.26644 14.4949 4.71245L12.8472 6.36011C12.0669 5.94377 11.1735 5.78926 10.2987 5.91936C9.42384 6.04946 8.61401 6.45728 7.98862 7.08267C7.36323 7.70806 6.95541 8.51789 6.82531 9.3927C6.69521 10.2675 6.84973 11.161 7.26606 11.9413L5.31091 13.8964C4.2288 12.9414 3.29598 11.6474 2.49911 10.0002ZM8.28114 10.0002C8.28155 9.5869 8.37944 9.17954 8.56687 8.8112C8.75429 8.44285 9.02596 8.12391 9.35981 7.88029C9.69365 7.63666 10.0803 7.47522 10.4882 7.40908C10.8962 7.34295 11.314 7.37397 11.7077 7.49964L8.40559 10.8018C8.32283 10.5426 8.28084 10.2722 8.28114 10.0002Z" fill="#28293D"/>
</svg>
