<svg width="124" height="32" viewBox="0 0 124 32" fill="none" xmlns="http://www.w3.org/2000/svg">
<path fill-rule="evenodd" clip-rule="evenodd" d="M4.82266 0.339564L1.1133 5.69511C0.761516 5.38678 0.480773 5.0114 0.289063 4.59301C0.0973522 4.17463 -0.00110026 3.72248 9.2747e-06 3.2655C9.2747e-06 1.46431 1.49461 5.68324e-06 3.33989 5.68324e-06C3.85522 -0.000937139 4.36341 0.11544 4.82266 0.339564ZM23.8481 4.56261C24.0304 4.15268 24.1237 3.71144 24.1223 3.26581C24.1223 1.46261 22.627 0.000312848 20.7838 0.000979956C20.2728 0.000258716 19.7687 0.114505 19.3121 0.334534L23.0619 5.65005C23.3983 5.34254 23.6658 4.97253 23.8481 4.56261ZM23.2136 15.597C23.4904 14.5014 23.6167 13.3758 23.5893 12.2488C23.5321 9.46035 22.5075 6.76966 20.6774 4.60175C19.6803 3.43164 18.1558 2.23084 16.5025 2.79322C15.6167 3.09675 14.8771 3.8786 14.9209 4.83123C14.9581 5.64593 15.3787 6.37861 15.7911 7.09709L15.7911 7.09711C15.9656 7.40112 16.1386 7.7026 16.2805 8.00667C16.739 8.99084 16.989 10.0525 17.016 11.1301C17.0661 13.2521 16.1838 15.3575 14.3963 16.6184C10.8177 19.1427 6.82241 15.2735 6.76118 11.6618C6.73404 10.072 7.16405 8.42161 8.04564 7.07872C8.11636 6.97121 8.19035 6.86471 8.26446 6.75803C8.59505 6.28216 8.92815 5.80269 8.98499 5.21415C9.0817 4.22483 8.5341 3.18414 7.63998 2.70716C6.56218 2.12944 5.27423 3.1748 4.51232 3.82924C3.59262 4.61781 2.79796 5.53093 2.15352 6.5397C0.317978 9.43095 0.0633132 12.7785 1.08337 15.9839C1.8084 18.2615 3.08869 20.3041 4.39751 22.3101L4.63184 22.6693C5.97467 24.7277 7.31782 26.7866 8.64543 28.8545C8.73843 28.9993 8.83242 29.1518 8.92879 29.3082L8.9289 29.3084C9.64288 30.4671 10.4875 31.8378 12.0298 31.8378C12.0994 31.8378 12.169 31.8351 12.2386 31.8291C13.5606 31.7164 14.4088 30.707 15.0281 29.679C15.1767 29.4351 15.3159 29.1857 15.4551 28.9362L15.4551 28.9362C15.5493 28.7674 15.6435 28.5987 15.7406 28.4315C16.5695 27.007 17.5401 25.6468 18.5113 24.2859L18.5113 24.2859L18.5113 24.2858C20.4523 21.5659 22.3955 18.8428 23.2136 15.597ZM14.4882 12.3125C14.4882 13.7479 13.2985 14.9115 11.8309 14.9115C10.3633 14.9115 9.17359 13.7479 9.17359 12.3125C9.17359 10.8771 10.3633 9.71342 11.8309 9.71342C13.2985 9.71342 14.4882 10.8771 14.4882 12.3125Z" fill="#007AEC"/>
<path d="M37.7283 8.95611V10.7848H34.0906V22.6221H31.849V10.7848H28.1917V8.95611H37.7283ZM41.0603 13.3607C41.3881 12.8101 41.8207 12.3841 42.3581 12.0826C42.9087 11.768 43.5576 11.6106 44.3048 11.6106V13.9309H43.7346C42.8563 13.9309 42.1877 14.1538 41.7289 14.5995C41.2832 15.0452 41.0603 15.8186 41.0603 16.9197V22.6221H38.8187V11.7876H41.0603V13.3607ZM44.4383 17.1557C44.4383 16.0677 44.6611 15.1042 45.1068 14.2652C45.5656 13.4262 46.1818 12.7773 46.9552 12.3185C47.7417 11.8466 48.6069 11.6106 49.5507 11.6106C50.4028 11.6106 51.1434 11.7811 51.7727 12.1219C52.415 12.4496 52.9263 12.8625 53.3064 13.3607V11.7876H55.5677V22.6221H53.3064V21.0097C52.9263 21.5209 52.4085 21.947 51.753 22.2878C51.0976 22.6286 50.3504 22.799 49.5114 22.799C48.5807 22.799 47.7286 22.5631 46.9552 22.0912C46.1818 21.6061 45.5656 20.9376 45.1068 20.0855C44.6611 19.2203 44.4383 18.2437 44.4383 17.1557ZM53.3064 17.195C53.3064 16.4478 53.1491 15.7989 52.8345 15.2484C52.533 14.6978 52.1332 14.2783 51.635 13.9899C51.1369 13.7015 50.5994 13.5573 50.0226 13.5573C49.4459 13.5573 48.9084 13.7015 48.4103 13.9899C47.9121 14.2652 47.5057 14.6781 47.1911 15.2287C46.8896 15.7661 46.7389 16.4085 46.7389 17.1557C46.7389 17.9029 46.8896 18.5583 47.1911 19.122C47.5057 19.6857 47.9121 20.1183 48.4103 20.4198C48.9215 20.7082 49.459 20.8524 50.0226 20.8524C50.5994 20.8524 51.1369 20.7082 51.635 20.4198C52.1332 20.1314 52.533 19.7119 52.8345 19.1613C53.1491 18.5977 53.3064 17.9422 53.3064 17.195ZM61.5204 20.6164L64.5879 11.7876H66.9671L62.8379 22.6221H60.1637L56.054 11.7876H58.453L61.5204 20.6164ZM77.4117 16.9394C77.4117 17.3458 77.3855 17.7128 77.3331 18.0405H69.0548C69.1204 18.9057 69.4415 19.6005 70.0183 20.1248C70.5951 20.6492 71.303 20.9114 72.142 20.9114C73.348 20.9114 74.2 20.4067 74.6982 19.3973H77.1168C76.789 20.3936 76.1926 21.2129 75.3274 21.8552C74.4753 22.4844 73.4135 22.799 72.142 22.799C71.1064 22.799 70.1756 22.5696 69.3498 22.1108C68.537 21.6389 67.8947 20.9835 67.4228 20.1445C66.964 19.2924 66.7346 18.3093 66.7346 17.195C66.7346 16.0808 66.9574 15.1042 67.4031 14.2652C67.8619 13.4131 68.4977 12.7577 69.3104 12.2989C70.1363 11.8401 71.0801 11.6106 72.142 11.6106C73.1644 11.6106 74.0755 11.8335 74.8752 12.2792C75.6748 12.7249 76.2975 13.3541 76.7432 14.1669C77.1889 14.9665 77.4117 15.8907 77.4117 16.9394ZM75.0718 16.2315C75.0587 15.4057 74.7637 14.7437 74.1869 14.2455C73.6101 13.7474 72.8957 13.4983 72.0436 13.4983C71.2702 13.4983 70.6082 13.7474 70.0577 14.2455C69.5071 14.7306 69.1794 15.3925 69.0745 16.2315H75.0718ZM80.6795 8.07126V22.6221H78.4379V8.07126H80.6795ZM89.7575 15.6023C90.4916 15.7334 91.1142 16.1201 91.6255 16.7624C92.1367 17.4048 92.3923 18.1323 92.3923 18.945C92.3923 19.6398 92.2088 20.269 91.8418 20.8327C91.4878 21.3833 90.97 21.8224 90.2884 22.1502C89.6067 22.4648 88.8136 22.6221 87.9091 22.6221H82.4427V8.95611H87.6535C88.5842 8.95611 89.3839 9.11342 90.0524 9.42803C90.721 9.74264 91.2257 10.1687 91.5665 10.7061C91.9073 11.2305 92.0777 11.8204 92.0777 12.4758C92.0777 13.2624 91.868 13.9178 91.4485 14.4422C91.029 14.9665 90.4653 15.3532 89.7575 15.6023ZM84.6843 14.6978H87.4569C88.191 14.6978 88.7612 14.5339 89.1676 14.2062C89.5871 13.8654 89.7968 13.3803 89.7968 12.7511C89.7968 12.135 89.5871 11.6565 89.1676 11.3157C88.7612 10.9618 88.191 10.7848 87.4569 10.7848H84.6843V14.6978ZM87.7125 20.7934C88.4728 20.7934 89.0693 20.6099 89.5018 20.2428C89.9344 19.8758 90.1507 19.3645 90.1507 18.7091C90.1507 18.0405 89.9213 17.5096 89.4625 17.1164C89.0037 16.7231 88.3941 16.5265 87.6338 16.5265H84.6843V20.7934H87.7125ZM103.578 16.9394C103.578 17.3458 103.552 17.7128 103.5 18.0405H95.2215C95.2871 18.9057 95.6083 19.6005 96.185 20.1248C96.7618 20.6492 97.4697 20.9114 98.3087 20.9114C99.5147 20.9114 100.367 20.4067 100.865 19.3973H103.283C102.956 20.3936 102.359 21.2129 101.494 21.8552C100.642 22.4844 99.5802 22.799 98.3087 22.799C97.2731 22.799 96.3424 22.5696 95.5165 22.1108C94.7037 21.6389 94.0614 20.9835 93.5895 20.1445C93.1307 19.2924 92.9013 18.3093 92.9013 17.195C92.9013 16.0808 93.1241 15.1042 93.5698 14.2652C94.0286 13.4131 94.6644 12.7577 95.4772 12.2989C96.303 11.8401 97.2469 11.6106 98.3087 11.6106C99.3312 11.6106 100.242 11.8335 101.042 12.2792C101.842 12.7249 102.464 13.3541 102.91 14.1669C103.356 14.9665 103.578 15.8907 103.578 16.9394ZM101.239 16.2315C101.225 15.4057 100.93 14.7437 100.354 14.2455C99.7769 13.7474 99.0624 13.4983 98.2104 13.4983C97.4369 13.4983 96.7749 13.7474 96.2244 14.2455C95.6738 14.7306 95.3461 15.3925 95.2412 16.2315H101.239ZM103.857 17.1557C103.857 16.0677 104.08 15.1042 104.526 14.2652C104.985 13.4262 105.601 12.7773 106.374 12.3185C107.161 11.8466 108.026 11.6106 108.97 11.6106C109.822 11.6106 110.563 11.7811 111.192 12.1219C111.834 12.4496 112.345 12.8625 112.726 13.3607V11.7876H114.987V22.6221H112.726V21.0097C112.345 21.5209 111.828 21.947 111.172 22.2878C110.517 22.6286 109.769 22.799 108.931 22.799C108 22.799 107.148 22.5631 106.374 22.0912C105.601 21.6061 104.985 20.9376 104.526 20.0855C104.08 19.2203 103.857 18.2437 103.857 17.1557ZM112.726 17.195C112.726 16.4478 112.568 15.7989 112.254 15.2484C111.952 14.6978 111.552 14.2783 111.054 13.9899C110.556 13.7015 110.019 13.5573 109.442 13.5573C108.865 13.5573 108.328 13.7015 107.829 13.9899C107.331 14.2652 106.925 14.6781 106.61 15.2287C106.309 15.7661 106.158 16.4085 106.158 17.1557C106.158 17.9029 106.309 18.5583 106.61 19.122C106.925 19.6857 107.331 20.1183 107.829 20.4198C108.341 20.7082 108.878 20.8524 109.442 20.8524C110.019 20.8524 110.556 20.7082 111.054 20.4198C111.552 20.1314 111.952 19.7119 112.254 19.1613C112.568 18.5977 112.726 17.9422 112.726 17.195ZM118.993 13.3607C119.321 12.8101 119.753 12.3841 120.291 12.0826C120.841 11.768 121.49 11.6106 122.237 11.6106V13.9309H121.667C120.789 13.9309 120.12 14.1538 119.661 14.5995C119.216 15.0452 118.993 15.8186 118.993 16.9197V22.6221H116.751V11.7876H118.993V13.3607Z" fill="#007AEC"/>
</svg>
