<svg width="186" height="48" viewBox="0 0 186 48" fill="none" xmlns="http://www.w3.org/2000/svg">
<path d="M52.8795 14.1483V17.7269H48.021V32.4854H43.5543V17.7269H38.6957V14.1483H52.8795ZM59.588 20.339C60.1104 19.5379 60.7634 18.911 61.5471 18.4583C62.3307 17.9881 63.2014 17.753 64.1592 17.753V22.4809H62.9315C61.817 22.4809 60.9811 22.7247 60.4239 23.2123C59.8666 23.6825 59.588 24.5184 59.588 25.72V32.4854H55.1213V17.9097H59.588V20.339ZM65.4061 25.1714C65.4061 23.6738 65.6847 22.359 66.242 21.2271C66.8166 20.0952 67.5916 19.2245 68.5667 18.615C69.5419 18.0055 70.6303 17.7007 71.8319 17.7007C72.8593 17.7007 73.7562 17.9097 74.5224 18.3277C75.306 18.7456 75.9068 19.2941 76.3247 19.9733V17.9097H80.7915V32.4854H76.3247V30.4218C75.8894 31.1009 75.2799 31.6495 74.4963 32.0674C73.73 32.4854 72.8332 32.6943 71.8058 32.6943C70.6216 32.6943 69.5419 32.3896 68.5667 31.7801C67.5916 31.1532 66.8166 30.2738 66.242 29.1418C65.6847 27.9925 65.4061 26.669 65.4061 25.1714ZM76.3247 25.1975C76.3247 24.083 76.0113 23.2036 75.3844 22.5593C74.7749 21.915 74.0261 21.5928 73.138 21.5928C72.2498 21.5928 71.4923 21.915 70.8654 22.5593C70.2559 23.1862 69.9512 24.0569 69.9512 25.1714C69.9512 26.2859 70.2559 27.174 70.8654 27.8358C71.4923 28.4801 72.2498 28.8023 73.138 28.8023C74.0261 28.8023 74.7749 28.4801 75.3844 27.8358C76.0113 27.1915 76.3247 26.312 76.3247 25.1975ZM90.5794 28.306L93.74 17.9097H98.4941L93.3221 32.4854H87.8105L82.6385 17.9097H87.4187L90.5794 28.306ZM114.114 24.9624C114.114 25.3804 114.088 25.8157 114.036 26.2685H103.927C103.996 27.174 104.284 27.8706 104.789 28.3582C105.311 28.8284 105.947 29.0635 106.696 29.0635C107.81 29.0635 108.585 28.5933 109.02 27.6529H113.774C113.531 28.6107 113.087 29.4727 112.442 30.2389C111.815 31.0052 111.023 31.6059 110.065 32.0413C109.107 32.4766 108.036 32.6943 106.852 32.6943C105.424 32.6943 104.153 32.3896 103.039 31.7801C101.924 31.1706 101.053 30.2999 100.426 29.168C99.7995 28.036 99.4861 26.7126 99.4861 25.1975C99.4861 23.6825 99.7908 22.359 100.4 21.2271C101.027 20.0952 101.898 19.2245 103.012 18.615C104.127 18.0055 105.407 17.7007 106.852 17.7007C108.263 17.7007 109.517 17.9968 110.614 18.5889C111.711 19.181 112.564 20.0255 113.174 21.1226C113.801 22.2197 114.114 23.4997 114.114 24.9624ZM109.543 23.787C109.543 23.0208 109.282 22.4113 108.759 21.9585C108.237 21.5057 107.584 21.2794 106.8 21.2794C106.051 21.2794 105.416 21.497 104.893 21.9324C104.388 22.3677 104.075 22.9859 103.953 23.787H109.543ZM120.937 13.1557V32.4854H116.47V13.1557H120.937ZM135.276 23.0817C136.338 23.3081 137.191 23.8392 137.835 24.6751C138.48 25.4936 138.802 26.4339 138.802 27.4962C138.802 29.0286 138.262 30.2476 137.182 31.1532C136.12 32.0413 134.631 32.4854 132.716 32.4854H124.174V14.1483H132.428C134.292 14.1483 135.746 14.5749 136.791 15.4282C137.853 16.2815 138.384 17.4395 138.384 18.9023C138.384 19.982 138.097 20.8788 137.522 21.5928C136.965 22.3068 136.216 22.8031 135.276 23.0817ZM128.641 21.5667H131.566C132.298 21.5667 132.855 21.41 133.238 21.0965C133.639 20.7656 133.839 20.2867 133.839 19.6598C133.839 19.0329 133.639 18.554 133.238 18.2232C132.855 17.8923 132.298 17.7269 131.566 17.7269H128.641V21.5667ZM131.932 28.8806C132.681 28.8806 133.256 28.7152 133.656 28.3843C134.074 28.036 134.283 27.5397 134.283 26.8954C134.283 26.2511 134.065 25.7461 133.63 25.3804C133.212 25.0147 132.629 24.8318 131.88 24.8318H128.641V28.8806H131.932ZM155.132 24.9624C155.132 25.3804 155.106 25.8157 155.054 26.2685H144.945C145.015 27.174 145.302 27.8706 145.807 28.3582C146.33 28.8284 146.965 29.0635 147.714 29.0635C148.828 29.0635 149.603 28.5933 150.039 27.6529H154.793C154.549 28.6107 154.105 29.4727 153.461 30.2389C152.834 31.0052 152.041 31.6059 151.084 32.0413C150.126 32.4766 149.055 32.6943 147.871 32.6943C146.443 32.6943 145.172 32.3896 144.057 31.7801C142.943 31.1706 142.072 30.2999 141.445 29.168C140.818 28.036 140.505 26.7126 140.505 25.1975C140.505 23.6825 140.809 22.359 141.419 21.2271C142.046 20.0952 142.916 19.2245 144.031 18.615C145.145 18.0055 146.425 17.7007 147.871 17.7007C149.281 17.7007 150.535 17.9968 151.632 18.5889C152.729 19.181 153.583 20.0255 154.192 21.1226C154.819 22.2197 155.132 23.4997 155.132 24.9624ZM150.561 23.787C150.561 23.0208 150.3 22.4113 149.778 21.9585C149.255 21.5057 148.602 21.2794 147.818 21.2794C147.07 21.2794 146.434 21.497 145.912 21.9324C145.407 22.3677 145.093 22.9859 144.971 23.787H150.561ZM156.601 25.1714C156.601 23.6738 156.879 22.359 157.437 21.2271C158.011 20.0952 158.786 19.2245 159.761 18.615C160.737 18.0055 161.825 17.7007 163.027 17.7007C164.054 17.7007 164.951 17.9097 165.717 18.3277C166.501 18.7456 167.101 19.2941 167.519 19.9733V17.9097H171.986V32.4854H167.519V30.4218C167.084 31.1009 166.475 31.6495 165.691 32.0674C164.925 32.4854 164.028 32.6943 163 32.6943C161.816 32.6943 160.737 32.3896 159.761 31.7801C158.786 31.1532 158.011 30.2738 157.437 29.1418C156.879 27.9925 156.601 26.669 156.601 25.1714ZM167.519 25.1975C167.519 24.083 167.206 23.2036 166.579 22.5593C165.97 21.915 165.221 21.5928 164.333 21.5928C163.444 21.5928 162.687 21.915 162.06 22.5593C161.451 23.1862 161.146 24.0569 161.146 25.1714C161.146 26.2859 161.451 27.174 162.06 27.8358C162.687 28.4801 163.444 28.8023 164.333 28.8023C165.221 28.8023 165.97 28.4801 166.579 27.8358C167.206 27.1915 167.519 26.312 167.519 25.1975ZM179.684 20.339C180.207 19.5379 180.86 18.911 181.643 18.4583C182.427 17.9881 183.298 17.753 184.256 17.753V22.4809H183.028C181.913 22.4809 181.077 22.7247 180.52 23.2123C179.963 23.6825 179.684 24.5184 179.684 25.72V32.4854H175.218V17.9097H179.684V20.339Z" fill="white"/>
<path d="M1.2303 23.8248L1.22461 23.8135L1.2303 23.8248Z" fill="white"/>
<path d="M1.2303 23.8248L1.22461 23.8135" stroke="black" stroke-width="0.0181781" stroke-miterlimit="10"/>
<path d="M5.34686 32.1127L5.3125 32.0439" stroke="black" stroke-width="0.0181781" stroke-miterlimit="10"/>
<path d="M34.2552 17.778C34.295 19.4858 34.1116 21.1915 33.7096 22.8517C31.9272 30.2313 26.467 35.8277 22.8577 42.3005C22.5081 42.9282 22.1848 43.5712 21.8231 44.1909C20.9238 45.7486 19.6921 47.2781 17.7723 47.449C17.6713 47.4581 17.5702 47.4621 17.4692 47.4621C14.927 47.4621 13.6902 44.7863 12.5545 42.9414C10.5145 39.6256 8.44922 36.325 6.38595 33.0244C4.48536 29.9846 2.62619 26.8893 1.57334 23.438C0.0920712 18.5807 0.461881 13.5079 3.12736 9.1267C4.06318 7.59807 5.21713 6.21437 6.55267 5.0194C7.65908 4.02771 9.52936 2.44363 11.0945 3.31907C12.3929 4.04186 13.1881 5.61887 13.0476 7.11804C12.9466 8.20981 12.2443 9.05391 11.6836 9.94351C10.4034 11.9785 9.77893 14.4794 9.81833 16.8884C9.90725 22.3614 15.7091 28.2247 20.9056 24.3994C23.5014 22.4888 24.7826 19.2984 24.7098 16.0827C24.6706 14.4498 24.3076 12.841 23.6418 11.3497C22.9487 9.79996 21.7443 8.29473 21.6675 6.53778C21.6038 5.09421 22.6779 3.90943 23.9642 3.44947C26.3649 2.59728 28.5787 4.41691 30.0267 6.19003C32.6842 9.47517 34.1721 13.5525 34.2552 17.778Z" fill="white"/>
<path d="M1.2303 23.8248L1.22461 23.8135L1.2303 23.8248Z" fill="white"/>
<path d="M1.2303 23.8248L1.22461 23.8135" stroke="black" stroke-width="0.0181781" stroke-miterlimit="10"/>
<path d="M35.0289 4.94834C35.031 5.62363 34.8955 6.29226 34.6308 6.91344C34.366 7.53462 33.9775 8.09531 33.489 8.5613L28.0439 0.506433C28.7069 0.173012 29.4389 -0.000111226 30.1809 0.000981705C32.8575 -2.91968e-05 35.0289 2.21587 35.0289 4.94834Z" fill="white"/>
<path d="M7.0032 0.514557L1.61668 8.63008C1.10583 8.16285 0.698152 7.59401 0.419761 6.96002C0.141369 6.32603 -0.00159773 5.64085 1.34682e-05 4.94838C1.34682e-05 2.21894 2.17039 8.61209e-06 4.85001 8.61209e-06C5.59833 -0.00142009 6.3363 0.174932 7.0032 0.514557Z" fill="white"/>
<path d="M17.5165 21.8125C19.6476 21.8125 21.3753 20.0492 21.3753 17.874C21.3753 15.6989 19.6476 13.9355 17.5165 13.9355C15.3853 13.9355 13.6577 15.6989 13.6577 17.874C13.6577 20.0492 15.3853 21.8125 17.5165 21.8125Z" fill="white"/>
<path d="M5.39471 7.39065C5.39573 7.38156 5.39573 7.37238 5.39471 7.36328V7.39065Z" fill="white"/>
<path d="M5.39471 7.39065C5.39573 7.38156 5.39573 7.37238 5.39471 7.36328" stroke="black" stroke-width="0.0181781" stroke-miterlimit="10"/>
<path d="M5.34686 32.1127L5.3125 32.0439" stroke="black" stroke-width="0.0181781" stroke-miterlimit="10"/>
</svg>
