<svg width="186" height="48" viewBox="0 0 186 48" fill="none" xmlns="http://www.w3.org/2000/svg">
<path d="M52.8795 14.1486V17.7272H48.0209V32.4857H43.5542V17.7272H38.6957V14.1486H52.8795ZM59.5879 20.3393C60.1104 19.5383 60.7634 18.9114 61.547 18.4586C62.3307 17.9884 63.2014 17.7533 64.1592 17.7533V22.4813H62.9315C61.817 22.4813 60.9811 22.7251 60.4238 23.2127C59.8666 23.6829 59.5879 24.5187 59.5879 25.7203V32.4857H55.1212V17.9101H59.5879V20.3393ZM65.406 25.1718C65.406 23.6741 65.6847 22.3594 66.2419 21.2275C66.8166 20.0955 67.5915 19.2248 68.5667 18.6153C69.5419 18.0058 70.6303 17.7011 71.8319 17.7011C72.8593 17.7011 73.7561 17.9101 74.5223 18.328C75.306 18.7459 75.9068 19.2945 76.3247 19.9736V17.9101H80.7914V32.4857H76.3247V30.4221C75.8893 31.1013 75.2799 31.6498 74.4962 32.0678C73.73 32.4857 72.8332 32.6947 71.8057 32.6947C70.6216 32.6947 69.5419 32.3899 68.5667 31.7804C67.5915 31.1535 66.8166 30.2741 66.2419 29.1422C65.6847 27.9929 65.406 26.6694 65.406 25.1718ZM76.3247 25.1979C76.3247 24.0834 76.0112 23.204 75.3843 22.5596C74.7748 21.9153 74.026 21.5932 73.1379 21.5932C72.2498 21.5932 71.4923 21.9153 70.8654 22.5596C70.2559 23.1866 69.9511 24.0573 69.9511 25.1718C69.9511 26.2863 70.2559 27.1744 70.8654 27.8361C71.4923 28.4805 72.2498 28.8026 73.1379 28.8026C74.026 28.8026 74.7748 28.4805 75.3843 27.8361C76.0112 27.1918 76.3247 26.3124 76.3247 25.1979ZM90.5793 28.3063L93.74 17.9101H98.4941L93.3221 32.4857H87.8105L82.6385 17.9101H87.4187L90.5793 28.3063ZM114.114 24.9628C114.114 25.3807 114.088 25.8161 114.036 26.2689H103.927C103.996 27.1744 104.284 27.871 104.789 28.3586C105.311 28.8287 105.947 29.0638 106.696 29.0638C107.81 29.0638 108.585 28.5936 109.02 27.6533H113.774C113.531 28.6111 113.086 29.4731 112.442 30.2393C111.815 31.0055 111.023 31.6063 110.065 32.0416C109.107 32.477 108.036 32.6947 106.852 32.6947C105.424 32.6947 104.153 32.3899 103.039 31.7804C101.924 31.1709 101.053 30.3002 100.426 29.1683C99.7995 28.0364 99.486 26.7129 99.486 25.1979C99.486 23.6829 99.7908 22.3594 100.4 21.2275C101.027 20.0955 101.898 19.2248 103.012 18.6153C104.127 18.0058 105.407 17.7011 106.852 17.7011C108.263 17.7011 109.517 17.9971 110.614 18.5892C111.711 19.1813 112.564 20.0259 113.174 21.123C113.8 22.2201 114.114 23.5 114.114 24.9628ZM109.543 23.7873C109.543 23.0211 109.281 22.4116 108.759 21.9589C108.237 21.5061 107.584 21.2797 106.8 21.2797C106.051 21.2797 105.416 21.4974 104.893 21.9327C104.388 22.3681 104.075 22.9863 103.953 23.7873H109.543ZM120.937 13.156V32.4857H116.47V13.156H120.937ZM135.276 23.0821C136.338 23.3085 137.191 23.8396 137.835 24.6755C138.48 25.4939 138.802 26.4343 138.802 27.4966C138.802 29.029 138.262 30.248 137.182 31.1535C136.12 32.0416 134.631 32.4857 132.716 32.4857H124.174V14.1486H132.428C134.292 14.1486 135.746 14.5753 136.791 15.4286C137.853 16.2818 138.384 17.4399 138.384 18.9027C138.384 19.9824 138.097 20.8792 137.522 21.5932C136.965 22.3071 136.216 22.8034 135.276 23.0821ZM128.641 21.567H131.566C132.298 21.567 132.855 21.4103 133.238 21.0969C133.639 20.766 133.839 20.2871 133.839 19.6602C133.839 19.0333 133.639 18.5544 133.238 18.2235C132.855 17.8927 132.298 17.7272 131.566 17.7272H128.641V21.567ZM131.932 28.881C132.681 28.881 133.256 28.7155 133.656 28.3847C134.074 28.0364 134.283 27.5401 134.283 26.8958C134.283 26.2514 134.065 25.7464 133.63 25.3807C133.212 25.015 132.629 24.8322 131.88 24.8322H128.641V28.881H131.932ZM155.132 24.9628C155.132 25.3807 155.106 25.8161 155.054 26.2689H144.945C145.015 27.1744 145.302 27.871 145.807 28.3586C146.33 28.8287 146.965 29.0638 147.714 29.0638C148.828 29.0638 149.603 28.5936 150.039 27.6533H154.793C154.549 28.6111 154.105 29.4731 153.461 30.2393C152.834 31.0055 152.041 31.6063 151.084 32.0416C150.126 32.477 149.055 32.6947 147.871 32.6947C146.443 32.6947 145.171 32.3899 144.057 31.7804C142.942 31.1709 142.072 30.3002 141.445 29.1683C140.818 28.0364 140.504 26.7129 140.504 25.1979C140.504 23.6829 140.809 22.3594 141.419 21.2275C142.046 20.0955 142.916 19.2248 144.031 18.6153C145.145 18.0058 146.425 17.7011 147.871 17.7011C149.281 17.7011 150.535 17.9971 151.632 18.5892C152.729 19.1813 153.583 20.0259 154.192 21.123C154.819 22.2201 155.132 23.5 155.132 24.9628ZM150.561 23.7873C150.561 23.0211 150.3 22.4116 149.778 21.9589C149.255 21.5061 148.602 21.2797 147.818 21.2797C147.07 21.2797 146.434 21.4974 145.912 21.9327C145.407 22.3681 145.093 22.9863 144.971 23.7873H150.561ZM156.601 25.1718C156.601 23.6741 156.879 22.3594 157.437 21.2275C158.011 20.0955 158.786 19.2248 159.761 18.6153C160.737 18.0058 161.825 17.7011 163.026 17.7011C164.054 17.7011 164.951 17.9101 165.717 18.328C166.501 18.7459 167.101 19.2945 167.519 19.9736V17.9101H171.986V32.4857H167.519V30.4221C167.084 31.1013 166.474 31.6498 165.691 32.0678C164.925 32.4857 164.028 32.6947 163 32.6947C161.816 32.6947 160.737 32.3899 159.761 31.7804C158.786 31.1535 158.011 30.2741 157.437 29.1422C156.879 27.9929 156.601 26.6694 156.601 25.1718ZM167.519 25.1979C167.519 24.0834 167.206 23.204 166.579 22.5596C165.969 21.9153 165.221 21.5932 164.333 21.5932C163.444 21.5932 162.687 21.9153 162.06 22.5596C161.451 23.1866 161.146 24.0573 161.146 25.1718C161.146 26.2863 161.451 27.1744 162.06 27.8361C162.687 28.4805 163.444 28.8026 164.333 28.8026C165.221 28.8026 165.969 28.4805 166.579 27.8361C167.206 27.1918 167.519 26.3124 167.519 25.1979ZM179.684 20.3393C180.207 19.5383 180.86 18.9114 181.643 18.4586C182.427 17.9884 183.298 17.7533 184.255 17.7533V22.4813H183.028C181.913 22.4813 181.077 22.7251 180.52 23.2127C179.963 23.6829 179.684 24.5187 179.684 25.7203V32.4857H175.218V17.9101H179.684V20.3393Z" fill="white"/>
<path d="M1.23045 23.8252L1.22476 23.8138L1.23045 23.8252Z" fill="white"/>
<path d="M1.23045 23.8252L1.22476 23.8138" stroke="black" stroke-width="0.0181781" stroke-miterlimit="10"/>
<path d="M5.34702 32.1121L5.31266 32.0434" stroke="black" stroke-width="0.0181781" stroke-miterlimit="10"/>
<path d="M34.2552 17.7777C34.2949 19.4855 34.1115 21.1912 33.7095 22.8514C31.9272 30.231 26.4669 35.8274 22.8577 42.3002C22.5081 42.928 22.1847 43.5709 21.823 44.1906C20.9237 45.7484 19.692 47.2779 17.7722 47.4487C17.6712 47.4578 17.5702 47.4619 17.4691 47.4619C14.9269 47.4619 13.6902 44.786 12.5545 42.9411C10.5144 39.6253 8.44913 36.3247 6.38586 33.0242C4.48527 29.9844 2.6261 26.889 1.57325 23.4378C0.0919796 18.5804 0.461789 13.5077 3.12727 9.12643C4.06309 7.59779 5.21704 6.21409 6.55258 5.01913C7.65898 4.02743 9.52926 2.44335 11.0944 3.31879C12.3928 4.04159 13.188 5.6186 13.0475 7.11776C12.9465 8.20954 12.2443 9.05364 11.6835 9.94323C10.4033 11.9782 9.77884 14.4792 9.81824 16.8881C9.90716 22.3612 15.709 28.2244 20.9055 24.3991C23.5013 22.4885 24.7825 19.2981 24.7098 16.0824C24.6705 14.4496 24.3075 12.8408 23.6417 11.3494C22.9486 9.79969 21.7442 8.29445 21.6674 6.53751C21.6037 5.09394 22.6778 3.90916 23.9641 3.4492C26.3648 2.59701 28.5786 4.41663 30.0266 6.18976C32.6841 9.47489 34.172 13.5522 34.2552 17.7777Z" fill="white"/>
<path d="M1.23045 23.8252L1.22476 23.8138L1.23045 23.8252Z" fill="white"/>
<path d="M1.23045 23.8252L1.22476 23.8138" stroke="black" stroke-width="0.0181781" stroke-miterlimit="10"/>
<path d="M35.0289 4.9482C35.031 5.62349 34.8955 6.29213 34.6308 6.9133C34.366 7.53448 33.9775 8.09518 33.489 8.56116L28.0439 0.506295C28.7069 0.172875 29.4388 -0.000248555 30.1809 0.000844376C32.8575 -0.000166526 35.0289 2.21573 35.0289 4.9482Z" fill="white"/>
<path d="M7.0032 0.514489L1.61668 8.63001C1.10583 8.16278 0.698152 7.59395 0.419761 6.95995C0.141369 6.32596 -0.00159773 5.64078 1.34682e-05 4.94831C1.34682e-05 2.21887 2.17039 -6.00525e-05 4.85001 -6.00525e-05C5.59833 -0.00148876 6.3363 0.174864 7.0032 0.514489Z" fill="white"/>
<path d="M17.5166 21.8121C19.6478 21.8121 21.3754 20.0488 21.3754 17.8737C21.3754 15.6985 19.6478 13.9352 17.5166 13.9352C15.3855 13.9352 13.6578 15.6985 13.6578 17.8737C13.6578 20.0488 15.3855 21.8121 17.5166 21.8121Z" fill="white"/>
<path d="M5.39471 7.39062C5.39572 7.38152 5.39572 7.37234 5.39471 7.36324V7.39062Z" fill="white"/>
<path d="M5.39471 7.39062C5.39572 7.38152 5.39572 7.37234 5.39471 7.36324" stroke="black" stroke-width="0.0181781" stroke-miterlimit="10"/>
<path d="M5.34702 32.1121L5.31266 32.0434" stroke="black" stroke-width="0.0181781" stroke-miterlimit="10"/>
</svg>
