<svg width="126" height="134" viewBox="0 0 126 134" fill="none" xmlns="http://www.w3.org/2000/svg">
<path opacity="0.7" d="M46.3659 1.07207C36.4555 2.70145 26.9911 6.2925 18.9404 12.4981C7.22871 21.534 0.734512 35.0209 0.0553608 49.6969C-0.390605 59.3858 1.92084 68.8327 4.71906 78.0318C8.3101 89.8543 10.6303 103.347 18.1359 113.464C29.8243 129.204 52.4112 135.844 71.3021 133.028C83.5064 131.207 96.4015 124.284 100.159 111.75C101.549 107.113 102.225 102.131 104.601 97.8438C107.449 92.7079 112.611 89.7085 116.531 85.5258C121.376 80.3607 123.326 73.9248 124.532 67.1188C127.173 52.2183 123.568 36.4346 114.861 24.0728C105.776 11.1777 92.2974 4.25213 76.9947 1.53552C75.3158 1.24404 73.6281 0.984625 71.9346 0.771844C63.5283 -0.286232 54.7897 -0.321209 46.3659 1.07207Z" fill="#F5F5F5"/>
<path opacity="0.7" d="M65.6571 17.5932C60.1731 18.4949 54.9358 20.482 50.4809 23.916C44.0001 28.9161 40.4064 36.3792 40.0306 44.5003C39.7839 49.8618 41.0629 55.0893 42.6113 60.1797C44.5985 66.7218 45.8824 74.1881 50.0357 79.7867C56.5036 88.4966 69.0023 92.1708 79.4558 90.6127C86.2092 89.6046 93.3448 85.7739 95.4239 78.8383C96.1933 76.2721 96.5675 73.5156 97.882 71.1429C99.4579 68.3009 102.314 66.6412 104.484 64.3266C107.165 61.4685 108.244 57.9071 108.911 54.1409C110.373 45.8955 108.377 37.1615 103.56 30.321C98.532 23.1853 91.0738 19.353 82.6058 17.8497C81.6768 17.6884 80.7429 17.5449 79.8058 17.4271C75.1541 16.8416 70.3185 16.8223 65.6571 17.5932Z" fill="#CFCFCF"/>
<path d="M100.487 36.8018H25.9579C22.4393 36.8018 19.5869 39.6541 19.5869 43.1727V90.1076C19.5869 93.6262 22.4393 96.4786 25.9579 96.4786H100.487C104.006 96.4786 106.858 93.6262 106.858 90.1076V43.1727C106.858 39.6541 104.006 36.8018 100.487 36.8018Z" fill="#9CA3AF"/>
<path d="M17.5494 36.1133C17.4001 36.1127 17.2571 36.0534 17.1512 35.9483L16.1273 34.9301C16.0201 34.823 15.96 34.6777 15.96 34.5263C15.96 34.3748 16.0201 34.2295 16.1273 34.1224C16.2344 34.0153 16.3796 33.9551 16.5311 33.9551C16.6826 33.9551 16.8279 34.0153 16.935 34.1224L17.9532 35.1463C18.0592 35.2529 18.1186 35.397 18.1186 35.5473C18.1186 35.6976 18.0592 35.8418 17.9532 35.9483C17.9001 36.0011 17.837 36.0428 17.7677 36.0711C17.6984 36.0994 17.6242 36.1137 17.5494 36.1133Z" fill="#9CA3AF"/>
<path d="M16.008 39.6855H14.5688C14.418 39.6855 14.2733 39.6256 14.1666 39.5189C14.0599 39.4122 14 39.2676 14 39.1167C14 38.9658 14.0599 38.8211 14.1666 38.7145C14.2733 38.6078 14.418 38.5479 14.5688 38.5479H16.008C16.1589 38.5479 16.3036 38.6078 16.4102 38.7145C16.5169 38.8211 16.5768 38.9658 16.5768 39.1167C16.5768 39.2676 16.5169 39.4122 16.4102 39.5189C16.3036 39.6256 16.1589 39.6855 16.008 39.6855Z" fill="#9CA3AF"/>
<path d="M21.1737 34.5779C21.0295 34.5783 20.8905 34.5239 20.7849 34.4256C20.6793 34.3274 20.615 34.1928 20.6049 34.0489L20.5025 32.6098C20.497 32.535 20.5065 32.46 20.5301 32.3889C20.5538 32.3178 20.5913 32.252 20.6405 32.1955C20.6896 32.1389 20.7495 32.0926 20.8166 32.0593C20.8837 32.0259 20.9567 32.0062 21.0315 32.0011C21.1815 31.9917 21.3291 32.0421 21.4421 32.1412C21.5551 32.2404 21.6242 32.3802 21.6345 32.5301L21.7425 33.9693C21.748 34.044 21.7385 34.1191 21.7149 34.1902C21.6912 34.2613 21.6537 34.327 21.6045 34.3836C21.5554 34.4401 21.4955 34.4864 21.4284 34.5198C21.3613 34.5531 21.2883 34.5729 21.2135 34.5779H21.1737Z" fill="#9CA3AF"/>
<path d="M69.5869 90.3408L92.4713 113.219V90.3408H69.5869Z" fill="#9CA3AF"/>
<path d="M75.8611 80.3185L74.7234 75.4891C74.4361 74.2196 74.4361 72.9019 74.7234 71.6324L76.3048 64.7551C76.9518 61.8224 76.6014 58.7576 75.3093 56.0466C74.0171 53.3355 71.8571 51.1333 69.1715 49.789C69.2219 49.6624 69.2656 49.5333 69.3024 49.4022C69.3957 48.985 69.406 48.5534 69.3326 48.1323C69.2592 47.7111 69.1036 47.3085 68.8746 46.9474C68.6457 46.5864 68.3478 46.274 67.9981 46.0281C67.6484 45.7822 67.2537 45.6075 66.8364 45.5141C66.4192 45.4208 65.9877 45.4105 65.5665 45.4839C65.1454 45.5573 64.7428 45.7129 64.3817 45.9419C64.0207 46.1709 63.7083 46.4687 63.4624 46.8184C63.2164 47.1681 63.0418 47.5629 62.9484 47.9801C62.9202 48.113 62.9031 48.2481 62.8972 48.3839C59.8951 48.4544 57.0023 49.5243 54.6768 51.4242C52.3514 53.3241 50.7262 55.9455 50.0586 58.8733L48.517 65.7563C48.2338 67.0235 47.6701 68.2112 46.8674 69.2319L43.8013 73.1284C43.5014 73.5106 43.3032 73.9625 43.225 74.442C43.1468 74.9215 43.1913 75.413 43.3543 75.8707C43.5172 76.3284 43.7934 76.7373 44.157 77.0595C44.5207 77.3817 44.9599 77.6066 45.4339 77.7132L72.4537 83.7657C72.9261 83.8677 73.4165 83.849 73.8797 83.7112C74.3429 83.5734 74.7638 83.321 75.1035 82.9773C75.4432 82.6336 75.6907 82.2098 75.8231 81.745C75.9556 81.2803 75.9686 80.7896 75.8611 80.3185Z" fill="white"/>
<path d="M55.4569 81.8084C55.2514 81.763 55.0378 81.7691 54.8352 81.826C54.6326 81.8829 54.4471 81.9889 54.2952 82.1346C54.1434 82.2803 54.0298 82.4612 53.9645 82.6612C53.8992 82.8613 53.8843 83.0744 53.921 83.2817C54.0762 84.1957 54.4999 85.0428 55.1381 85.7153C55.7764 86.3877 56.6004 86.8549 57.5051 87.0575C58.4098 87.26 59.3543 87.1887 60.2183 86.8526C61.0824 86.5165 61.8268 85.9308 62.3569 85.1702C62.478 84.9987 62.5551 84.8002 62.5813 84.5919C62.6076 84.3837 62.5822 84.1722 62.5075 83.976C62.4327 83.7799 62.3109 83.6052 62.1527 83.4672C61.9945 83.3293 61.8048 83.2323 61.6003 83.1849L55.4569 81.8084Z" fill="white"/>
<path d="M34.7053 72.2355C34.5644 72.2366 34.4254 72.2023 34.3012 72.1357C34.177 72.0691 34.0714 71.9724 33.9943 71.8544C31.3076 67.8292 30.3299 62.9017 31.2761 58.1557C32.2223 53.4097 35.015 49.2339 39.0399 46.5468C39.2285 46.4216 39.4591 46.3764 39.681 46.4212C39.9029 46.466 40.0979 46.5971 40.2231 46.7857C40.3483 46.9743 40.3935 47.2049 40.3487 47.4268C40.3039 47.6486 40.1727 47.8437 39.9842 47.9689C36.3406 50.4093 33.8147 54.1962 32.9614 58.4978C32.1081 62.7993 32.9972 67.2637 35.4335 70.9101C35.5593 71.098 35.6054 71.3281 35.5617 71.55C35.518 71.7718 35.388 71.9672 35.2002 72.0933C35.0535 72.1899 34.8809 72.2395 34.7053 72.2355Z" fill="white"/>
<path d="M38.3179 69.8119C38.1781 69.811 38.0407 69.7758 37.9177 69.7093C37.7947 69.6429 37.6899 69.5472 37.6126 69.4308C35.5677 66.3645 34.8234 62.6119 35.5434 58.9973C36.2633 55.3827 38.3885 52.2016 41.4522 50.1528C41.5456 50.0905 41.6503 50.0471 41.7605 50.0252C41.8706 50.0033 41.984 50.0033 42.0941 50.0252C42.2043 50.0472 42.309 50.0906 42.4024 50.153C42.4957 50.2154 42.5759 50.2955 42.6383 50.3889C42.7006 50.4823 42.744 50.587 42.7659 50.6972C42.7878 50.8073 42.7878 50.9207 42.7659 51.0308C42.7439 51.1409 42.7005 51.2457 42.6381 51.339C42.5757 51.4324 42.4956 51.5126 42.4022 51.5749C39.7131 53.3695 37.847 56.1588 37.2144 59.3293C36.5818 62.4997 37.2345 65.7916 39.029 68.4808C39.1548 68.6687 39.2009 68.8988 39.1572 69.1207C39.1135 69.3425 38.9835 69.5379 38.7957 69.664C38.6542 69.7587 38.4882 69.8101 38.3179 69.8119Z" fill="white"/>
<path d="M41.9358 67.3937C41.7963 67.3945 41.6588 67.3605 41.5357 67.295C41.4126 67.2295 41.3077 67.1344 41.2304 67.0183C40.5335 65.9747 40.0492 64.8039 39.8052 63.573C39.5612 62.342 39.5624 61.075 39.8086 59.8445C40.0548 58.614 40.5412 57.4441 41.24 56.4017C41.9389 55.3594 42.8364 54.4651 43.8812 53.77C44.0691 53.6534 44.2949 53.6142 44.511 53.6607C44.7272 53.7073 44.9169 53.8359 45.0401 54.0196C45.1632 54.2032 45.2103 54.4275 45.1713 54.6452C45.1324 54.8629 45.0104 55.0569 44.8312 55.1865C43.9742 55.7585 43.2383 56.4938 42.6656 57.3504C42.0929 58.2069 41.6945 59.1679 41.4932 60.1784C41.292 61.1889 41.2918 62.2292 41.4926 63.2398C41.6935 64.2504 42.0915 65.2116 42.6639 66.0683C42.7882 66.2566 42.8335 66.4863 42.7898 66.7077C42.7462 66.9291 42.6172 67.1245 42.4307 67.2515C42.284 67.3481 42.1114 67.3977 41.9358 67.3937Z" fill="white"/>
<path d="M83.8991 84.232C83.7083 84.2316 83.5231 84.1672 83.3732 84.0491C83.2233 83.9311 83.1173 83.7662 83.0721 83.5809C83.0269 83.3955 83.0452 83.2004 83.1239 83.0266C83.2027 82.8528 83.3374 82.7104 83.5066 82.6222C87.4038 80.6086 90.3421 77.1298 91.6754 72.9506C93.0088 68.7714 92.6281 64.2338 90.617 60.3351C90.5559 60.235 90.5161 60.1234 90.5 60.0073C90.4839 59.8911 90.492 59.7729 90.5236 59.6599C90.5553 59.547 90.6099 59.4419 90.6841 59.351C90.7582 59.2601 90.8503 59.1855 90.9545 59.1318C91.0588 59.0781 91.173 59.0465 91.29 59.0389C91.407 59.0313 91.5244 59.0479 91.6347 59.0877C91.745 59.1275 91.846 59.1896 91.9312 59.2701C92.0164 59.3507 92.0842 59.4479 92.1302 59.5558C93.2287 61.6862 93.8967 64.0121 94.0962 66.4008C94.2956 68.7894 94.0225 71.1939 93.2925 73.4769C92.5625 75.76 91.3898 77.8769 89.8415 79.7066C88.2932 81.5364 86.3996 83.0432 84.2688 84.141C84.1535 84.1974 84.0274 84.2284 83.8991 84.232Z" fill="white"/>
<path d="M81.902 80.3692C81.7112 80.3687 81.5261 80.3043 81.3762 80.1863C81.2263 80.0683 81.1203 79.9034 81.0751 79.7181C81.0299 79.5327 81.0481 79.3375 81.1269 79.1637C81.2056 78.99 81.3403 78.8476 81.5095 78.7594C82.9329 78.0255 84.1978 77.0182 85.2316 75.7952C86.2655 74.5721 87.048 73.1572 87.5346 71.6314C88.0212 70.1056 88.2022 68.4989 88.0673 66.9031C87.9324 65.3073 87.4843 63.7538 86.7485 62.3313C86.6444 62.1299 86.6246 61.8954 86.6934 61.6794C86.7622 61.4634 86.914 61.2835 87.1154 61.1794C87.3168 61.0753 87.5513 61.0555 87.7673 61.1243C87.9834 61.1931 88.1632 61.3449 88.2673 61.5463C89.1057 63.1679 89.6163 64.9388 89.7698 66.7578C89.9234 68.5768 89.7169 70.4082 89.1622 72.1474C88.6075 73.8865 87.7154 75.4993 86.537 76.8934C85.3586 78.2876 83.917 79.4358 82.2945 80.2725C82.1738 80.337 82.0388 80.3702 81.902 80.3692Z" fill="white"/>
<path d="M79.9065 76.5062C79.7164 76.5031 79.5326 76.4371 79.3841 76.3183C79.2356 76.1996 79.1307 76.035 79.0858 75.8502C79.0409 75.6654 79.0586 75.471 79.1361 75.2974C79.2136 75.1237 79.3465 74.9807 79.514 74.8907C80.4298 74.4194 81.2437 73.7721 81.9091 72.9859C82.5744 72.1996 83.0782 71.2899 83.3915 70.3087C83.7048 69.3275 83.8216 68.2942 83.735 67.2678C83.6485 66.2415 83.3604 65.2423 82.8872 64.3274C82.7831 64.126 82.7633 63.8915 82.8321 63.6755C82.9009 63.4595 83.0527 63.2796 83.2541 63.1755C83.4555 63.0714 83.69 63.0516 83.906 63.1204C84.122 63.1892 84.3019 63.341 84.406 63.5424C85.5637 65.7953 85.7802 68.4154 85.0081 70.8278C84.236 73.2401 82.5383 75.2476 80.2876 76.4095C80.1696 76.4704 80.0392 76.5035 79.9065 76.5062Z" fill="white"/>
</svg>
