<svg width="187" height="188" viewBox="0 0 187 188" fill="none" xmlns="http://www.w3.org/2000/svg">
<path opacity="0.7" d="M25.4058 62.5917C25.4058 62.5917 14.9787 89.5197 29.632 116.635C44.2854 143.75 74.4672 158.074 98.6238 170.322C122.78 182.571 147.865 176.606 159.784 156.544C171.703 136.483 155.356 122.162 155.333 93.5551C155.311 64.9479 159.616 57.3744 144.113 33.2065C128.611 9.0386 90.609 3.68667 61.8708 21.6125C33.1327 39.5383 25.4058 62.5917 25.4058 62.5917Z" fill="white"/>
<path d="M49.3681 160.011C58.1945 169.331 79.864 165.917 89.2514 160.011C119.732 140.844 173.132 108.934 175.552 62.7075C176.58 43.0612 159.253 32.7426 152.016 29.7169C134.64 22.4464 115.566 20.2659 96.7352 19.4244C77.074 18.5455 55.9692 19.23 38.2752 28.8231C31.5657 32.4546 25.2376 37.1259 20.9067 43.4839C16.5084 49.9466 13.9764 57.6435 13.3032 65.4115C12.2224 77.9405 15.5921 90.5032 20.6897 102C25.7874 113.497 32.5829 124.141 38.8213 135.062C42.8941 142.179 41.9479 152.161 49.3681 160.011Z" fill="#FAC173"/>
<path opacity="0.7" d="M49.3681 160.011C58.1945 169.331 79.864 165.917 89.2514 160.011C119.732 140.844 173.132 108.934 175.552 62.7075C176.58 43.0612 159.253 32.7426 152.016 29.7169C134.64 22.4464 115.566 20.2659 96.7352 19.4244C77.074 18.5455 55.9692 19.23 38.2752 28.8231C31.5657 32.4546 25.2376 37.1259 20.9067 43.4839C16.5084 49.9466 13.9764 57.6435 13.3032 65.4115C12.2224 77.9405 15.5921 90.5031 20.6897 102C25.7874 113.497 32.5829 124.141 38.8213 135.062C42.8941 142.179 41.9479 152.161 49.3681 160.011Z" fill="white"/>
<path d="M52.813 52.6894L34.879 47.2718C34.183 47.0616 33.4483 47.4553 33.2381 48.1513L30.0483 58.7107C29.838 59.4067 30.2318 60.1414 30.9278 60.3516L48.8618 65.7692C49.5579 65.9795 50.2925 65.5857 50.5028 64.8897L53.6926 54.3303C53.9028 53.6343 53.5091 52.8996 52.813 52.6894Z" stroke="#404040" stroke-width="1.00285" stroke-miterlimit="10"/>
<path d="M32.6053 49.7822L52.9921 55.9607" stroke="#404040" stroke-miterlimit="10"/>
<path d="M31.9845 51.8281L52.375 58.0066" stroke="#404040" stroke-miterlimit="10"/>
<path d="M46.1703 61.8326C46.1184 62.0048 46.102 62.1857 46.1219 62.3644C46.1418 62.543 46.1977 62.7159 46.2863 62.8724C45.9806 63.0233 45.6291 63.0527 45.3026 62.9546C45.0947 62.8918 44.9054 62.779 44.7513 62.626C44.5971 62.473 44.4829 62.2845 44.4185 62.0771C44.3542 61.8697 44.3417 61.6497 44.3821 61.4363C44.4226 61.2229 44.5148 61.0227 44.6506 60.8533C44.7864 60.6838 44.9618 60.5503 45.1612 60.4643C45.3607 60.3784 45.5781 60.3427 45.7946 60.3604C46.0111 60.378 46.2199 60.4485 46.4027 60.5657C46.5856 60.6828 46.737 60.843 46.8435 61.0323C46.6836 61.114 46.5416 61.227 46.426 61.3644C46.3104 61.5019 46.2235 61.6611 46.1703 61.8326Z" stroke="#404040" stroke-miterlimit="10"/>
<path d="M48.7097 62.6028C48.6332 62.854 48.4839 63.0769 48.2807 63.2433C48.0774 63.4096 47.8295 63.512 47.5681 63.5374C47.3067 63.5628 47.0436 63.5101 46.8122 63.386C46.5808 63.2619 46.3913 63.0719 46.2678 62.8401C46.1444 62.6084 46.0924 62.3452 46.1185 62.0839C46.1446 61.8225 46.2477 61.5748 46.4146 61.3721C46.5815 61.1693 46.8048 61.0206 47.0562 60.9448C47.3076 60.8689 47.5759 60.8693 47.8271 60.946C48.1638 61.0487 48.4459 61.2809 48.6114 61.5916C48.7769 61.9023 48.8123 62.266 48.7097 62.6028Z" stroke="#404040" stroke-miterlimit="10"/>
<path d="M174.709 78.1785L159.88 73.6844C159.186 73.4742 158.453 73.8662 158.243 74.56L155.644 83.1359C155.433 83.8297 155.825 84.5627 156.519 84.7729L171.348 89.267C172.042 89.4773 172.775 89.0853 172.985 88.3914L175.584 79.8155C175.794 79.1217 175.402 78.3888 174.709 78.1785Z" stroke="#404040" stroke-miterlimit="10"/>
<path d="M157.843 75.8799L175.185 81.1346" stroke="#404040" stroke-miterlimit="10"/>
<path d="M157.316 77.6226L174.654 82.8773" stroke="#404040" stroke-miterlimit="10"/>
<path d="M169.381 86.1199C169.336 86.2659 169.322 86.4195 169.338 86.5713C169.355 86.723 169.403 86.8698 169.478 87.0025C169.314 87.0822 169.134 87.1208 168.952 87.115C168.77 87.1093 168.592 87.0593 168.434 86.9694C168.275 86.8796 168.141 86.7525 168.043 86.5993C167.945 86.446 167.885 86.2711 167.869 86.0897C167.854 85.9083 167.883 85.7259 167.953 85.5581C168.024 85.3903 168.134 85.2422 168.275 85.1266C168.416 85.0111 168.582 84.9315 168.761 84.8947C168.939 84.8579 169.124 84.8651 169.299 84.9156C169.576 84.9991 169.811 85.1867 169.953 85.4392C169.816 85.5077 169.695 85.6034 169.597 85.7205C169.498 85.8375 169.425 85.9734 169.381 86.1199V86.1199Z" stroke="#404040" stroke-miterlimit="10"/>
<path d="M171.539 86.786C171.473 86.9972 171.346 87.1842 171.173 87.3233C171.001 87.4624 170.792 87.5475 170.571 87.5679C170.351 87.5882 170.129 87.5429 169.935 87.4377C169.74 87.3325 169.581 87.172 169.477 86.9764C169.373 86.7809 169.33 86.5591 169.352 86.3388C169.374 86.1186 169.46 85.9098 169.601 85.7387C169.741 85.5676 169.929 85.4419 170.141 85.3774C170.353 85.3128 170.579 85.3124 170.791 85.376C170.933 85.4187 171.065 85.4892 171.18 85.5834C171.295 85.6776 171.39 85.7937 171.459 85.9248C171.529 86.056 171.572 86.1996 171.585 86.3474C171.599 86.4953 171.583 86.6443 171.539 86.786V86.786Z" stroke="#404040" stroke-miterlimit="10"/>
<path d="M150.976 37.206L129.328 47.1172L134.485 58.3798L156.132 48.4686L150.976 37.206Z" stroke="#404040" stroke-miterlimit="10"/>
<path d="M154.271 46.85L150.995 39.6954C150.689 39.8351 150.34 39.8479 150.024 39.7308C149.709 39.6137 149.453 39.3764 149.312 39.0708L131.813 47.0819C131.952 47.388 131.965 47.737 131.848 48.0524C131.731 48.3679 131.494 48.6241 131.188 48.7649L134.464 55.9195C134.616 55.8499 134.78 55.811 134.947 55.8049C135.113 55.7988 135.28 55.8258 135.436 55.8841C135.593 55.9425 135.736 56.0312 135.858 56.1451C135.98 56.259 136.078 56.3958 136.147 56.5478L153.643 48.533C153.573 48.3813 153.534 48.2173 153.528 48.0505C153.522 47.8837 153.549 47.7174 153.608 47.561C153.666 47.4047 153.755 47.2613 153.869 47.1393C153.982 47.0173 154.119 46.919 154.271 46.85Z" stroke="#404040" stroke-miterlimit="10"/>
<path d="M144.712 50.3764C146.138 49.2817 146.405 47.239 145.311 45.8139C144.216 44.3887 142.173 44.1209 140.748 45.2156C139.323 46.3103 139.055 48.353 140.15 49.7781C141.245 51.2032 143.287 51.4711 144.712 50.3764Z" stroke="#404040" stroke-miterlimit="10"/>
<path d="M143.616 49.3706L143.859 49.9017L143.627 50.0064L143.388 49.4828C142.978 49.6611 142.519 49.6902 142.09 49.5651V49.2397C142.469 49.3544 142.876 49.3346 143.242 49.1836L142.692 47.9719C142.124 48.0803 141.537 48.1626 141.256 47.5493C141.054 47.1079 141.196 46.5769 141.877 46.1991L141.634 45.6643L141.866 45.5596L142.12 46.1019C142.456 45.9559 142.827 45.9067 143.19 45.9598V46.2851C142.87 46.239 142.544 46.2764 142.243 46.3936L142.804 47.6203C143.384 47.5044 144.001 47.3997 144.3 48.0205C144.487 48.4506 144.327 48.9929 143.616 49.3706ZM142.546 47.6465L142.015 46.4759C141.555 46.7339 141.454 47.078 141.589 47.3697C141.746 47.7362 142.12 47.7213 142.543 47.6465H142.546ZM143.956 48.1738C143.792 47.7998 143.395 47.8372 142.954 47.9233L143.481 49.0789C143.99 48.8096 144.087 48.4693 143.953 48.1738H143.956Z" fill="#404040"/>
<path d="M31.5072 88.5106L14.8605 90.0088L15.6397 98.6669L32.2864 97.1687L31.5072 88.5106Z" stroke="#404040" stroke-width="1.00404" stroke-miterlimit="10"/>
<path d="M30.9485 95.4178L30.4773 89.9387C30.2428 89.9584 30.0101 89.8845 29.83 89.7331C29.6499 89.5817 29.537 89.3652 29.5161 89.1309L16.1119 90.2903C16.1306 90.5245 16.0564 90.7567 15.9052 90.9366C15.754 91.1165 15.538 91.2296 15.3041 91.2514L15.7753 96.7305C15.8915 96.7203 16.0086 96.733 16.1198 96.7681C16.2311 96.8032 16.3343 96.8599 16.4236 96.9349C16.5129 97.01 16.5865 97.1019 16.6402 97.2055C16.6939 97.309 16.7266 97.4222 16.7365 97.5384L30.1407 96.379C30.1219 96.1447 30.1962 95.9126 30.3474 95.7327C30.4986 95.5528 30.7145 95.4397 30.9485 95.4178V95.4178Z" stroke="#404040" stroke-miterlimit="10"/>
<path d="M25.3945 93.1403C25.4336 93.5891 25.3386 94.0395 25.1216 94.4343C24.9047 94.8292 24.5755 95.1509 24.1757 95.3586C23.7759 95.5664 23.3234 95.6509 22.8756 95.6015C22.4278 95.5521 22.0047 95.3709 21.6598 95.081C21.3149 94.7911 21.0638 94.4054 20.9381 93.9727C20.8125 93.54 20.818 93.0798 20.954 92.6502C21.0899 92.2207 21.3502 91.8411 21.7019 91.5595C22.0537 91.2779 22.481 91.107 22.9299 91.0683C23.2278 91.0421 23.528 91.075 23.8132 91.165C24.0985 91.255 24.3631 91.4004 24.5921 91.5929C24.821 91.7854 25.0098 92.0211 25.1475 92.2866C25.2852 92.5522 25.3691 92.8422 25.3945 93.1403V93.1403Z" stroke="#404040" stroke-miterlimit="10"/>
<path d="M23.3376 94.5839L23.3713 94.9915H23.1955L23.1581 94.5876C22.8473 94.6083 22.539 94.5197 22.2867 94.337L22.3689 94.1276C22.5921 94.2898 22.8637 94.3716 23.1394 94.3595L23.0608 93.4282C22.6607 93.3684 22.253 93.2823 22.2156 92.8148C22.1857 92.4745 22.4026 92.1566 22.9412 92.0668L22.9075 91.6592H23.0833L23.1169 92.0594C23.3763 92.0428 23.6353 92.0985 23.8649 92.2202L23.7939 92.4334C23.5943 92.3296 23.3717 92.2782 23.1469 92.2838L23.2254 93.2225C23.6331 93.2823 24.0669 93.3609 24.108 93.8359C24.1305 94.1837 23.8949 94.5016 23.3376 94.5839ZM23.0384 93.1963L22.9599 92.3099C22.5859 92.3735 22.4512 92.5755 22.4699 92.7999C22.4886 93.0243 22.7392 93.1477 23.0384 93.1963ZM23.8425 93.877C23.8163 93.5965 23.5508 93.503 23.2404 93.4731L23.3152 94.3595C23.7041 94.2959 23.8612 94.1014 23.8425 93.877Z" fill="#404040"/>
<path d="M166.179 42.2537C167.976 42.2537 169.433 40.7969 169.433 38.9999C169.433 37.2029 167.976 35.7461 166.179 35.7461C164.382 35.7461 162.926 37.2029 162.926 38.9999C162.926 40.7969 164.382 42.2537 166.179 42.2537Z" stroke="#404040" stroke-miterlimit="10"/>
<path d="M166.325 40.8061V41.3896H166.056V40.8099C165.61 40.8011 165.181 40.6386 164.841 40.3499L164.986 40.0581C165.284 40.3193 165.661 40.4722 166.056 40.492V39.1568C165.495 39.0184 164.934 38.8464 164.934 38.1732C164.934 37.687 165.286 37.2644 166.056 37.2045V36.6099H166.31V37.1896C166.677 37.1973 167.035 37.3074 167.343 37.5075L167.215 37.8067C166.944 37.6317 166.632 37.53 166.31 37.5112V38.8576C166.883 38.996 167.488 39.1568 167.488 39.8412C167.503 40.3312 167.133 40.7613 166.325 40.8061ZM166.071 38.7903V37.5224C165.547 37.5673 165.323 37.8366 165.323 38.1582C165.308 38.5434 165.652 38.6856 166.056 38.7903H166.071ZM167.133 39.8599C167.133 39.4597 166.759 39.3214 166.325 39.2129V40.492C166.883 40.4434 167.133 40.1853 167.133 39.8599Z" fill="#404040"/>
<path d="M144.749 82.5301C146.498 82.118 147.581 80.3659 147.169 78.6168C146.757 76.8677 145.005 75.7839 143.256 76.1961C141.507 76.6082 140.423 78.3603 140.835 80.1094C141.247 81.8585 142.999 82.9423 144.749 82.5301Z" stroke="#404040" stroke-miterlimit="10"/>
<path d="M143.182 80.9738L142.879 81.4712L142.662 81.3365L142.965 80.8429C142.589 80.6036 142.308 80.2395 142.172 79.8144L142.449 79.6423C142.566 80.0188 142.807 80.3444 143.134 80.5661L143.837 79.4254C143.429 79.0177 143.036 78.5727 143.388 78.0004C143.642 77.5853 144.162 77.4095 144.858 77.7648L145.164 77.2637L145.381 77.3983L145.078 77.892C145.385 78.0918 145.632 78.371 145.793 78.6998L145.527 78.8906C145.386 78.6004 145.174 78.3508 144.91 78.165L144.203 79.3132C144.622 79.7321 145.052 80.1846 144.693 80.7681C144.435 81.1869 143.897 81.3552 143.182 80.9738ZM144.024 79.1038L144.686 78.0229C144.218 77.7873 143.878 77.892 143.71 78.165C143.508 78.5128 143.721 78.8158 144.024 79.1224V79.1038ZM144.368 80.5698C144.577 80.2295 144.334 79.9191 144.016 79.5974L143.35 80.682C143.848 80.9588 144.196 80.884 144.364 80.5885L144.368 80.5698Z" fill="#404040"/>
<path d="M97.3072 16.5561C97.5745 17.1415 97.6621 17.7929 97.5592 18.4281C97.4562 19.0633 97.1671 19.6537 96.7286 20.1247C96.2901 20.5956 95.7218 20.926 95.0956 21.074C94.4693 21.2219 93.8133 21.1809 93.2103 20.9561C92.6074 20.7312 92.0847 20.3326 91.7083 19.8107C91.3318 19.2888 91.1186 18.667 91.0956 18.0239C91.0725 17.3808 91.2407 16.7453 91.5788 16.1978C91.9169 15.6503 92.4097 15.2153 92.995 14.9479C93.3837 14.7698 93.8037 14.6701 94.2309 14.6545C94.6581 14.6389 95.0842 14.7078 95.4848 14.8572C95.8854 15.0066 96.2526 15.2336 96.5653 15.5251C96.878 15.8166 97.1301 16.167 97.3072 16.5561V16.5561Z" stroke="#404040" stroke-miterlimit="10"/>
<path d="M95.2315 19.4847L95.4746 20.0158L95.2428 20.1243L94.9959 19.5969C94.5863 19.7752 94.1271 19.8043 93.6982 19.6792V19.3538C94.0756 19.4679 94.4808 19.4494 94.8463 19.3015L94.2928 18.0822C93.7243 18.1907 93.1372 18.2692 92.8567 17.6596C92.6547 17.2145 92.7968 16.6872 93.4812 16.3095L93.2381 15.7746L93.4663 15.6699L93.7094 16.1973C94.0458 16.0513 94.4162 16.0021 94.779 16.0551V16.3805C94.4595 16.3352 94.1338 16.3726 93.8328 16.489L94.3938 17.7157C94.9735 17.5998 95.5906 17.4988 95.8898 18.1159C96.1179 18.5647 95.9459 19.107 95.2315 19.4847ZM94.1619 17.7606L93.6346 16.6049C93.1746 16.863 93.0736 17.2071 93.2082 17.495C93.369 17.8466 93.7393 17.8354 94.1619 17.7606ZM95.5719 18.2879C95.4036 17.9139 95.0109 17.9551 94.5696 18.0373L95.0969 19.193C95.5868 18.9237 95.7065 18.5871 95.5719 18.2879Z" fill="#404040"/>
<path d="M86.3491 148.328C86.7506 149.207 86.8823 150.186 86.7276 151.14C86.5729 152.094 86.1387 152.981 85.4799 153.689C84.8211 154.396 83.9673 154.893 83.0265 155.115C82.0857 155.337 81.1 155.276 80.1942 154.938C79.2884 154.6 78.5031 154.001 77.9377 153.217C77.3722 152.433 77.052 151.499 77.0174 150.533C76.9829 149.566 77.2356 148.612 77.7436 147.789C78.2516 146.967 78.9921 146.313 79.8714 145.912C80.4554 145.645 81.0862 145.496 81.7278 145.473C82.3693 145.45 83.0092 145.554 83.6107 145.778C84.2122 146.002 84.7637 146.343 85.2335 146.78C85.7034 147.218 86.0825 147.744 86.3491 148.328V148.328Z" stroke="#404040" stroke-miterlimit="10"/>
<path d="M83.2262 152.733L83.6002 153.533L83.2524 153.691L82.8784 152.898C82.2638 153.167 81.5742 153.212 80.9298 153.025L80.9523 152.539C81.5199 152.708 82.1284 152.677 82.6764 152.453L81.8424 150.627C80.9934 150.788 80.107 150.908 79.6881 149.992C79.3815 149.326 79.5984 148.529 80.6231 147.961L80.2491 147.164L80.5932 147.003L80.9672 147.796C81.4734 147.578 82.0299 147.505 82.5754 147.583V148.069C82.0966 148.002 81.6085 148.058 81.158 148.234L81.9957 150.074C82.8671 149.902 83.7947 149.749 84.221 150.676C84.5427 151.353 84.3033 152.168 83.2262 152.733ZM81.6255 150.141L80.8288 148.406C80.1444 148.78 79.9911 149.307 80.193 149.749C80.4324 150.276 80.9859 150.257 81.6255 150.141ZM83.7423 150.938C83.4917 150.388 82.8971 150.433 82.2463 150.564L83.0392 152.299C83.776 151.892 83.9443 151.383 83.7423 150.938Z" fill="#404040"/>
<path d="M16.3288 72.3679C15.6025 73.0058 14.7034 73.4141 13.7451 73.5411C12.7868 73.6681 11.8123 73.5081 10.9449 73.0814C10.0775 72.6546 9.35617 71.9803 8.87201 71.1436C8.38785 70.3068 8.16264 69.3454 8.22486 68.3807C8.28708 67.416 8.63394 66.4914 9.22157 65.7238C9.80921 64.9563 10.6112 64.3802 11.5263 64.0684C12.4413 63.7566 13.4282 63.7231 14.3623 63.9721C15.2963 64.2212 16.1356 64.7416 16.7739 65.4676C17.1979 65.9498 17.5227 66.5109 17.7298 67.1187C17.9369 67.7265 18.0223 68.3691 17.9809 69.0099C17.9396 69.6507 17.7724 70.2771 17.489 70.8533C17.2055 71.4294 16.8113 71.9441 16.3288 72.3679Z" stroke="#404040" stroke-miterlimit="10"/>
<path d="M11.2199 70.6479L10.5617 71.2276L10.3074 70.9396L10.9619 70.3674C10.5283 69.8543 10.2863 69.2065 10.2775 68.5348L10.7524 68.4151C10.7527 69.0043 10.9517 69.5762 11.3172 70.0383L12.8132 68.7143C12.413 67.9476 12.0427 67.1323 12.8132 66.4703C13.3667 65.9879 14.1895 65.9654 15.0273 66.7807L15.7079 66.2048L15.9585 66.489L15.304 67.065C15.6522 67.4885 15.8773 67.9995 15.9548 68.5423L15.491 68.6956C15.4165 68.2174 15.2223 67.7658 14.9263 67.3829L13.4041 68.7181C13.8192 69.4997 14.2344 70.345 13.4677 71.0219C12.9104 71.5081 12.0614 71.5343 11.2199 70.6479ZM13.2395 68.3665L14.672 67.1061C14.1035 66.5601 13.55 66.5638 13.2059 66.8817C12.7571 67.2632 12.9366 67.7943 13.2283 68.3665H13.2395ZM13.0862 70.6105C13.5425 70.2141 13.3293 69.6568 13.0151 69.0584L11.5827 70.3188C12.1699 70.9209 12.7159 70.9434 13.0899 70.6217L13.0862 70.6105Z" fill="#404040"/>
<path d="M38.7061 114.061C38.7583 112.758 37.7439 111.659 36.4406 111.607C35.1372 111.555 34.0384 112.569 33.9862 113.872C33.9341 115.176 34.9484 116.275 36.2518 116.327C37.5552 116.379 38.654 115.365 38.7061 114.061Z" stroke="#404040" stroke-width="1.0008" stroke-miterlimit="10"/>
<path d="M37.0259 114.424L37.2952 114.75L37.1568 114.866L36.8876 114.544C36.6345 114.748 36.3183 114.856 35.9937 114.851L35.9413 114.619C36.2268 114.626 36.5064 114.537 36.7342 114.365L36.1134 113.617C35.7394 113.8 35.3429 113.968 35.0288 113.594C34.8044 113.325 34.8044 112.925 35.2083 112.528L34.9353 112.203L35.0774 112.087L35.3467 112.409C35.5549 112.243 35.8046 112.138 36.0685 112.106L36.1358 112.33C35.9047 112.362 35.685 112.451 35.4963 112.588L36.1209 113.336C36.4949 113.145 36.9175 112.962 37.2429 113.336C37.471 113.613 37.4635 114.024 37.0259 114.424ZM35.9563 113.422L35.3654 112.715C35.0961 112.985 35.0924 113.243 35.2382 113.422C35.3841 113.602 35.6758 113.553 35.9563 113.422ZM37.0446 113.523C36.8576 113.302 36.5884 113.396 36.2966 113.542L36.8876 114.249C37.1755 113.964 37.1942 113.703 37.0446 113.519V113.523Z" fill="#404040"/>
<path d="M111.299 160.61C111.597 160.969 111.783 161.408 111.832 161.872C111.881 162.336 111.791 162.804 111.574 163.217C111.357 163.63 111.022 163.97 110.612 164.193C110.202 164.416 109.735 164.512 109.271 164.47C108.806 164.428 108.364 164.248 108.001 163.955C107.638 163.662 107.37 163.267 107.232 162.822C107.093 162.376 107.089 161.899 107.221 161.452C107.353 161.004 107.615 160.606 107.974 160.307C108.455 159.907 109.076 159.714 109.699 159.771C110.322 159.828 110.897 160.129 111.299 160.61V160.61Z" stroke="#404040" stroke-miterlimit="10"/>
<path d="M110.401 163.059L110.674 163.385L110.532 163.5L110.263 163.179C110.011 163.382 109.696 163.491 109.373 163.486L109.32 163.254C109.606 163.263 109.886 163.173 110.113 162.999L109.492 162.251C109.118 162.435 108.718 162.603 108.408 162.229C108.18 161.96 108.18 161.559 108.583 161.163L108.314 160.838L108.456 160.722L108.726 161.043C108.933 160.877 109.183 160.772 109.447 160.74L109.515 160.965C109.282 160.997 109.062 161.085 108.871 161.223L109.5 161.971C109.874 161.78 110.296 161.597 110.622 161.971C110.839 162.248 110.831 162.659 110.401 163.059ZM109.328 162.042L108.737 161.335C108.464 161.604 108.46 161.862 108.61 162.042C108.759 162.221 109.043 162.188 109.328 162.042ZM110.412 162.147C110.225 161.922 109.956 162.016 109.664 162.147L110.255 162.853C110.547 162.599 110.566 162.337 110.412 162.158V162.147Z" fill="#404040"/>
<path d="M46.7078 26.1615C46.8268 24.8636 45.8712 23.715 44.5732 23.5959C43.2753 23.4769 42.1267 24.4326 42.0076 25.7305C41.8886 27.0284 42.8443 28.1771 44.1422 28.2961C45.4401 28.4151 46.5888 27.4595 46.7078 26.1615Z" stroke="#404040" stroke-miterlimit="10"/>
<path d="M45.2802 26.8858L45.5495 27.2112L45.4073 27.3272L45.1381 27.0055C44.8868 27.2095 44.5715 27.3181 44.2479 27.3122L44.1956 27.0803C44.4811 27.0878 44.7606 26.9981 44.9885 26.826L44.3676 26.078C43.9936 26.2613 43.5934 26.4296 43.283 26.0556C43.0586 25.7863 43.0549 25.3861 43.4625 24.9897L43.1895 24.6643L43.3316 24.5483L43.6009 24.87C43.8087 24.7039 44.0587 24.599 44.3227 24.567L44.3901 24.7914C44.1589 24.8235 43.9392 24.9121 43.7505 25.0495L44.3751 25.7975C44.7491 25.6068 45.1717 25.4235 45.4971 25.7975C45.7178 26.0743 45.7065 26.4857 45.2802 26.8858ZM44.2031 25.8798L43.6121 25.158C43.3429 25.4272 43.3354 25.6853 43.485 25.8648C43.6346 26.0443 43.9188 26.0144 44.2031 25.8798ZM45.2914 25.9808C45.1044 25.7601 44.8314 25.8536 44.5434 25.9808L45.1343 26.6876C45.4223 26.4258 45.441 26.164 45.2914 25.9808Z" fill="#404040"/>
<path opacity="0.2" d="M97.543 122.701C97.543 122.701 94.6594 137.336 76.973 140.653C76.973 140.653 72.3541 144.337 70.8169 146.517C69.2798 148.698 61.0929 152.404 52.7527 163.968C44.4125 175.532 31.9957 138.809 31.9957 138.809L59.4398 103.167L97.543 122.701Z" fill="black" fill-opacity="0.7"/>
<path d="M113.262 53.9861C113.262 53.9861 122.799 49.3223 124.897 50.1264C126.995 50.9305 129.011 55.7551 120.989 60.374C112.967 64.9929 115.36 73.5986 115.36 73.5986H121.082C121.082 73.5986 124.516 74.9974 125.851 76.7963C127.186 78.5953 128.14 84.7289 128.903 86.8083C129.666 88.8878 129.277 90.9709 127.186 91.6479C127.186 91.6479 125.851 97.4673 126.232 100.048C126.614 102.629 126.423 104.289 123.944 104.603C123.32 104.668 122.689 104.597 122.095 104.394C121.502 104.191 120.959 103.862 120.506 103.428C120.052 102.995 119.698 102.468 119.469 101.885C119.239 101.301 119.139 100.674 119.175 100.048L117.268 106.959L118.603 109.615C120.489 110.345 122.232 111.401 123.753 112.734C126.423 115.023 129.094 115.647 128.331 118.198C127.568 120.749 126.042 123.498 118.031 120.311C110.02 117.125 103.344 104.603 103.344 104.603L98.5303 60.9425L113.262 53.9861Z" fill="white"/>
<path opacity="0.4" d="M123.3 79.0665C118.977 84.9608 123.76 91.7489 123.76 91.7489C123.76 91.7489 120.768 93.4169 120.682 97.6731C120.649 99.4421 121.094 101.914 121.625 104.203C120.847 103.836 120.198 103.243 119.762 102.502C119.326 101.761 119.123 100.906 119.179 100.048L117.268 106.959L118.603 109.611C120.008 110.149 121.332 110.877 122.537 111.777C121.352 114.499 120.989 117.865 121.094 121.336C120.052 121.059 119.029 120.717 118.031 120.311C110.02 117.121 103.344 104.603 103.344 104.603L98.5303 60.9388L113.262 53.9861C113.262 53.9861 118.472 51.4392 122.04 50.4331C121.763 53.7692 122.414 57.2212 122.885 59.1436C122.277 59.5889 121.644 59.9997 120.989 60.374C112.978 64.9929 115.36 73.5987 115.36 73.5987H121.086C121.086 73.5987 124.347 74.9301 125.746 76.6617C124.79 77.3056 123.96 78.121 123.3 79.0665Z" fill="#FAC173"/>
<path d="M98.362 115.666C98.362 115.666 87.9872 136.008 69.2872 140.623C69.2872 140.623 68.5729 144.648 65.4089 146.375C63.7184 147.295 56.8966 157.517 50.9089 166.848L17.7426 146.503C19.7846 144.483 22.1109 142.157 24.4746 139.729C31.3936 132.676 38.7763 124.769 41.0353 120.857C43.0549 117.379 45.6093 111.343 47.8346 105.669C50.6845 98.4137 53.0033 91.749 53.0033 91.749L64.0587 79.4593L81.4385 60.1348L82.1865 62.6069L98.362 115.666Z" fill="white"/>
<path opacity="0.4" d="M81.4534 60.1348L98.362 115.666C98.362 115.666 87.9872 136.008 69.2872 140.623C69.2872 140.623 68.5729 144.648 65.4088 146.375C63.8904 147.202 58.2392 155.523 52.7714 163.953C54.7984 156.997 60.6665 145.908 60.6665 145.908C56.9003 141.446 57.9999 136.745 59.5071 138.084C61.0143 139.423 64.8029 143.185 65.0423 143.421C63.378 141.461 62.9928 138.391 62.9928 138.391C62.9928 138.391 67.6603 141.495 68.038 136.521C68.4158 131.546 65.2405 119.391 65.2405 119.391L56.9041 87.4293L81.4534 60.1348Z" fill="#FAC173"/>
<path d="M98.5303 60.9425L113.262 53.9861C113.262 53.9861 122.799 49.3223 124.897 50.1264C126.995 50.9305 129.011 55.7551 120.989 60.374C112.967 64.9929 115.36 73.5986 115.36 73.5986H121.082C121.082 73.5986 124.516 74.9974 125.851 76.7963C127.186 78.5953 128.14 84.7289 128.903 86.8083C129.666 88.8878 129.277 90.9709 127.186 91.6479C127.186 91.6479 125.851 97.4673 126.232 100.048C126.614 102.629 126.423 104.289 123.944 104.603C123.32 104.668 122.689 104.597 122.095 104.394C121.502 104.191 120.959 103.862 120.506 103.428C120.052 102.995 119.698 102.468 119.469 101.885C119.239 101.301 119.139 100.674 119.175 100.048L117.268 106.959L118.603 109.615C120.489 110.345 122.232 111.401 123.753 112.734C126.423 115.023 129.094 115.647 128.331 118.198C127.568 120.749 126.042 123.498 118.031 120.311C110.02 117.125 103.344 104.603 103.344 104.603" stroke="#404040" stroke-linecap="round" stroke-linejoin="round"/>
<path d="M127.186 91.6478C124.325 92.422 120.989 91.8498 119.747 86.7858C118.506 81.7219 120.989 76.3138 122.608 75.8164" stroke="#404040" stroke-linecap="round" stroke-linejoin="round"/>
<path d="M119.175 100.048C119.175 100.048 118.984 93.5364 121.371 91.9282" stroke="#404040" stroke-linecap="round" stroke-linejoin="round"/>
<path opacity="0.4" d="M49.5999 132.388C49.5999 132.388 42.6098 131.516 41.0502 128.389C39.7599 125.801 32.7661 135.495 24.4895 139.729C31.4085 132.675 38.7913 124.769 41.0502 120.857C43.0698 117.379 45.6242 111.343 47.8495 105.669C47.7373 110.374 45.2315 117.577 45.9459 121.328C45.1805 121.531 44.5256 122.027 44.1231 122.708C43.7206 123.39 43.6028 124.203 43.7954 124.971C44.3302 127.952 49.5999 132.388 49.5999 132.388Z" fill="#FAC173"/>
<path d="M98.362 115.666C98.362 115.666 87.9873 136.008 69.2835 140.623C69.2835 140.623 68.5729 144.647 65.4089 146.375C63.7184 147.295 56.9004 157.517 50.9052 166.848" stroke="#404040" stroke-linecap="round" stroke-linejoin="round"/>
<path d="M17.7426 146.503C25.7312 138.607 38.0096 126.09 41.0502 120.857C45.6504 112.94 53.0182 91.7452 53.0182 91.7452L81.4422 60.1348" stroke="#404040" stroke-linecap="round" stroke-linejoin="round"/>
<path d="M65.2218 84.2764C65.2218 84.2764 69.5901 88.1884 70.8318 91.7564" stroke="#404040" stroke-linecap="round" stroke-linejoin="round"/>
<path d="M116.785 27.2974H69.7846C68.3945 27.2974 67.2676 28.4243 67.2676 29.8144V129.871C67.2676 131.261 68.3945 132.388 69.7846 132.388H116.785C118.175 132.388 119.302 131.261 119.302 129.871V29.8144C119.302 28.4243 118.175 27.2974 116.785 27.2974Z" fill="#404040"/>
<path d="M103.598 30.1584L102.603 31.9798C102.498 32.1774 102.341 32.343 102.15 32.4589C101.958 32.5747 101.739 32.6366 101.515 32.638H85.0588C84.8353 32.6369 84.6161 32.5759 84.4241 32.4615C84.2321 32.347 84.0742 32.1833 83.9667 31.9873L82.9756 30.1659C82.8691 29.9691 82.7114 29.8047 82.5192 29.6902C82.327 29.5756 82.1073 29.5151 81.8836 29.5151H70.3831C70.2192 29.5156 70.057 29.5484 69.9059 29.6117C69.7547 29.675 69.6175 29.7675 69.5022 29.8839C69.3868 30.0003 69.2956 30.1383 69.2337 30.29C69.1718 30.4417 69.1404 30.6042 69.1414 30.768V129.13C69.1414 129.46 69.2721 129.776 69.5048 130.009C69.7376 130.243 70.0534 130.374 70.3831 130.375H116.183C116.347 130.376 116.51 130.345 116.662 130.283C116.814 130.221 116.952 130.129 117.069 130.013C117.185 129.898 117.277 129.76 117.34 129.608C117.404 129.457 117.436 129.294 117.436 129.13V30.768C117.436 30.4377 117.305 30.121 117.071 29.8874C116.838 29.6538 116.521 29.5226 116.191 29.5226H104.694C104.471 29.5205 104.252 29.5784 104.059 29.6902C103.866 29.8021 103.707 29.9638 103.598 30.1584Z" fill="#FAC173" stroke="#404040" stroke-linecap="round" stroke-linejoin="round"/>
<path d="M89.7151 31.0411C90.0849 31.0411 90.3846 30.7413 90.3846 30.3716C90.3846 30.0019 90.0849 29.7021 89.7151 29.7021C89.3454 29.7021 89.0457 30.0019 89.0457 30.3716C89.0457 30.7413 89.3454 31.0411 89.7151 31.0411Z" stroke="white" stroke-miterlimit="10"/>
<path d="M97.5205 30.3715C97.5197 30.4535 97.4947 30.5334 97.4487 30.6011C97.4026 30.6689 97.3375 30.7215 97.2616 30.7524C97.1857 30.7832 97.1023 30.7909 97.0221 30.7745C96.9418 30.758 96.8682 30.7182 96.8105 30.66C96.7528 30.6018 96.7136 30.5278 96.6979 30.4474C96.6822 30.367 96.6906 30.2837 96.7221 30.2081C96.7537 30.1324 96.8069 30.0678 96.8751 30.0223C96.9433 29.9769 97.0234 29.9526 97.1053 29.9526C97.1601 29.9526 97.2144 29.9635 97.265 29.9846C97.3157 30.0057 97.3616 30.0366 97.4002 30.0755C97.4388 30.1145 97.4693 30.1607 97.4899 30.2115C97.5106 30.2623 97.5209 30.3167 97.5205 30.3715V30.3715Z" stroke="white" stroke-miterlimit="10"/>
<path d="M95.658 30.1099H91.5889C91.5547 30.1099 91.5208 30.1167 91.4893 30.1299C91.4577 30.1431 91.4291 30.1624 91.4051 30.1868C91.3811 30.2111 91.3621 30.24 91.3494 30.2718C91.3366 30.3035 91.3303 30.3375 91.3308 30.3717C91.3308 30.4401 91.358 30.5057 91.4064 30.5541C91.4548 30.6025 91.5205 30.6297 91.5889 30.6297H95.658C95.7265 30.6297 95.7921 30.6025 95.8405 30.5541C95.8889 30.5057 95.9161 30.4401 95.9161 30.3717C95.9166 30.3375 95.9103 30.3035 95.8975 30.2718C95.8848 30.24 95.8658 30.2111 95.8418 30.1868C95.8178 30.1624 95.7892 30.1431 95.7576 30.1299C95.7261 30.1167 95.6922 30.1099 95.658 30.1099Z" fill="white"/>
<path d="M77.6574 32.0098H73.2704V33.8723H77.6574V32.0098Z" stroke="#404040" stroke-linecap="round" stroke-linejoin="round"/>
<path d="M78.3342 32.3237H77.6536V33.5617H78.3342V32.3237Z" stroke="#404040" stroke-linecap="round" stroke-linejoin="round"/>
<path d="M108.744 33.1992H107.966V33.8762H108.744V33.1992Z" stroke="#404040" stroke-linecap="round" stroke-linejoin="round"/>
<path d="M110.263 32.5186H109.485V33.8762H110.263V32.5186Z" stroke="#404040" stroke-linecap="round" stroke-linejoin="round"/>
<path d="M111.781 31.8379H111.003V33.8725H111.781V31.8379Z" stroke="#404040" stroke-linecap="round" stroke-linejoin="round"/>
<path d="M113.296 31.1572H112.518V33.8725H113.296V31.1572Z" stroke="#404040" stroke-linecap="round" stroke-linejoin="round"/>
<path opacity="0.5" d="M117.114 51.2485H69.4518V96.7082H117.114V51.2485Z" fill="white"/>
<path d="M82.6165 43.9892V44.7783C82.6165 45.7544 82.149 46.2743 81.1916 46.2743H80.7391V48.5594H79.7816V42.4819H81.1916C82.149 42.4819 82.6165 43.013 82.6165 43.9892ZM80.7465 43.3534V45.4141H81.1991C81.502 45.4141 81.6666 45.2757 81.6666 44.8419V43.9256C81.6666 43.4917 81.502 43.3534 81.1991 43.3534H80.7465Z" fill="#404040"/>
<path d="M86.0461 48.5707H85.0812L84.9129 47.4674H83.7423L83.574 48.5707H82.6951L83.6712 42.4819H85.07L86.0461 48.5707ZM83.8619 46.6408H84.7857L84.3332 43.5628H84.3145L83.8619 46.6408Z" fill="#404040"/>
<path d="M86.9588 46.5548L85.7507 42.4819H86.768L87.4898 45.257H87.5085L88.2304 42.4819H89.1429L87.9349 46.5548V48.5707H86.9775L86.9588 46.5548Z" fill="#404040"/>
<path d="M91.5252 46.8054H91.5439L92.1872 42.4819H93.5187V48.5707H92.6136V44.2061L91.9703 48.5707H91.0652L90.3696 44.2659V48.5707H89.4982V42.4819H90.8296L91.5252 46.8054Z" fill="#404040"/>
<path d="M95.1718 45.0476H96.492V45.919H95.1793V47.703H96.8324V48.5707H94.2144V42.4819H96.8324V43.3534H95.1793L95.1718 45.0476Z" fill="#404040"/>
<path d="M98.2872 44.1612H98.2685V48.5707H97.4083V42.4819H98.6089L99.5738 46.1284V42.4819H100.426V48.5707H99.4466L98.2872 44.1612Z" fill="#404040"/>
<path d="M100.853 42.4819H103.811V43.3534H102.809V48.5707H101.851V43.3534H100.853V42.4819Z" fill="#404040"/>
<path d="M105.517 42.4146C106.444 42.4146 106.923 42.9718 106.923 43.9442V44.1349H106.018V43.8844C106.018 43.4468 105.846 43.2822 105.539 43.2822C105.232 43.2822 105.064 43.4468 105.064 43.8844C105.064 44.322 105.255 44.6586 105.879 45.2046C106.68 45.9114 106.934 46.4126 106.934 47.1083C106.934 48.0844 106.444 48.6416 105.505 48.6416C104.567 48.6416 104.08 48.0844 104.08 47.1083V46.7343H104.986V47.1718C104.986 47.6057 105.176 47.7628 105.479 47.7628C105.782 47.7628 105.977 47.6057 105.977 47.1718C105.977 46.738 105.786 46.3977 105.158 45.8479C104.357 45.1448 104.107 44.6399 104.107 43.9442C104.107 42.9718 104.585 42.4146 105.517 42.4146Z" fill="#404040"/>
<path d="M113.296 56.7573H73.2704V62.7376H113.296V56.7573Z" fill="white" stroke="#404040" stroke-linecap="round" stroke-linejoin="round"/>
<path d="M113.296 67.9736H73.2704V73.9539H113.296V67.9736Z" fill="white" stroke="#404040" stroke-linecap="round" stroke-linejoin="round"/>
<path d="M113.296 78.1724H73.2704V84.1526H113.296V78.1724Z" fill="white" stroke="#404040" stroke-linecap="round" stroke-linejoin="round"/>
<path d="M92.221 86.3335H73.2704V93.3348H92.221V86.3335Z" fill="white" stroke="#404040" stroke-linecap="round" stroke-linejoin="round"/>
<path d="M113.3 86.3335H94.349V93.3348H113.3V86.3335Z" fill="white" stroke="#404040" stroke-linecap="round" stroke-linejoin="round"/>
<path d="M75.7649 55.7137V55.8745H74.512V54.1055H75.7275V54.2663H74.7027V54.8984H75.6153V55.0554H74.7027V55.7137H75.7649Z" fill="#404040"/>
<path d="M78.3605 55.1042V55.8746H78.166V55.1266C78.166 54.8461 78.0239 54.7003 77.792 54.7003C77.7296 54.6976 77.6673 54.7086 77.6096 54.7324C77.5519 54.7563 77.5 54.7924 77.4576 54.8383C77.4153 54.8843 77.3834 54.9388 77.3643 54.9983C77.3452 55.0578 77.3393 55.1207 77.3469 55.1827V55.8783H77.1674V55.1303C77.1674 54.8498 77.0253 54.704 76.7934 54.704C76.731 54.7013 76.6687 54.7123 76.611 54.7362C76.5533 54.76 76.5014 54.7962 76.4591 54.8421C76.4167 54.888 76.3849 54.9426 76.3657 55.0021C76.3466 55.0615 76.3407 55.1244 76.3483 55.1864V55.8821H76.1688V54.5544H76.3409V54.7975C76.392 54.7148 76.4645 54.6476 76.5508 54.6028C76.637 54.558 76.7338 54.5374 76.8308 54.5432C76.9288 54.5349 77.0269 54.5575 77.1114 54.6078C77.1959 54.6581 77.2626 54.7336 77.302 54.8237C77.3565 54.7337 77.4343 54.6602 77.5271 54.6108C77.6199 54.5614 77.7244 54.5381 77.8294 54.5432C77.903 54.5382 77.9768 54.5496 78.0456 54.5765C78.1143 54.6033 78.1762 54.6451 78.227 54.6987C78.2777 54.7523 78.316 54.8164 78.3391 54.8865C78.3621 54.9566 78.3694 55.0309 78.3605 55.1042Z" fill="#404040"/>
<path d="M79.8527 55.0518V55.8746H79.6806V55.6689C79.6302 55.7429 79.5611 55.8023 79.4803 55.8411C79.3995 55.8798 79.3099 55.8965 79.2206 55.8896C78.9214 55.8896 78.7382 55.7325 78.7382 55.5156C78.7382 55.2986 78.8691 55.1416 79.2505 55.1416H79.6619V55.0593C79.6619 54.8311 79.531 54.7077 79.2879 54.7077C79.1267 54.7052 78.97 54.761 78.8466 54.8648L78.7643 54.7302C78.9194 54.6103 79.1107 54.547 79.3066 54.5506C79.3771 54.5391 79.4492 54.5437 79.5176 54.5641C79.586 54.5845 79.6489 54.6202 79.7015 54.6685C79.7541 54.7168 79.795 54.7763 79.8212 54.8427C79.8474 54.9091 79.8581 54.9806 79.8527 55.0518ZM79.6732 55.4782V55.2575H79.2543C78.9962 55.2575 78.9139 55.3585 78.9139 55.4969C78.9139 55.6352 79.0374 55.7474 79.2505 55.7474C79.3384 55.75 79.425 55.7255 79.4985 55.6774C79.5721 55.6292 79.6291 55.5597 79.6619 55.4782H79.6732Z" fill="#404040"/>
<path d="M80.2977 54.1281C80.2987 54.0941 80.3129 54.0617 80.3374 54.038C80.3618 54.0142 80.3946 54.001 80.4286 54.001C80.4624 54.001 80.4947 54.0144 80.5186 54.0382C80.5424 54.0621 80.5558 54.0944 80.5558 54.1281C80.5558 54.1619 80.5424 54.1942 80.5186 54.2181C80.4947 54.2419 80.4624 54.2553 80.4286 54.2553C80.3946 54.2553 80.3618 54.242 80.3374 54.2183C80.3129 54.1945 80.2987 54.1622 80.2977 54.1281ZM80.3389 54.547H80.5184V55.8747H80.3389V54.547Z" fill="#404040"/>
<path d="M81.0197 54.001H81.1992V55.871H81.0197V54.001Z" fill="#404040"/>
<path d="M77.0029 60.3143V60.4751H75.75V58.7061H76.9655V58.8669H75.922V59.4952H76.8383V59.656H75.922V60.3143H77.0029Z" fill="#404040"/>
<path d="M79.5984 59.697V60.4675H79.4189V59.7195C79.4189 59.439 79.2767 59.2931 79.0449 59.2931C78.9826 59.2899 78.9205 59.3004 78.8627 59.3238C78.805 59.3472 78.753 59.383 78.7106 59.4286C78.6682 59.4742 78.6363 59.5286 78.6171 59.5879C78.598 59.6472 78.5921 59.71 78.5998 59.7718V60.4712H78.4203V59.7232C78.4203 59.4427 78.2782 59.2969 78.0463 59.2969C77.9841 59.2936 77.9219 59.3041 77.8641 59.3275C77.8064 59.3509 77.7545 59.3867 77.712 59.4323C77.6696 59.478 77.6377 59.5324 77.6186 59.5917C77.5994 59.651 77.5935 59.7137 77.6012 59.7756V60.4749H77.418V59.1435H77.59V59.3866C77.6419 59.3049 77.7147 59.2386 77.8008 59.1946C77.887 59.1505 77.9834 59.1303 78.0799 59.136C78.1778 59.1289 78.2754 59.152 78.3597 59.2021C78.444 59.2523 78.5108 59.3271 78.5512 59.4165C78.6053 59.3263 78.683 59.2526 78.7759 59.2031C78.8688 59.1537 78.9734 59.1305 79.0785 59.136C79.1512 59.1328 79.2238 59.1454 79.2911 59.1731C79.3585 59.2007 79.419 59.2427 79.4685 59.2961C79.5179 59.3494 79.5552 59.413 79.5776 59.4822C79.6001 59.5515 79.6071 59.6248 79.5984 59.697Z" fill="#404040"/>
<path d="M81.0869 59.6448V60.4676H80.9149V60.2619C80.8651 60.3355 80.7966 60.3944 80.7163 60.4326C80.6361 60.4707 80.5471 60.4867 80.4586 60.4788C80.1594 60.4788 79.9724 60.3217 79.9724 60.1048C79.9724 59.8879 80.1071 59.7308 80.4885 59.7308H80.9111V59.6523C80.9111 59.4241 80.7802 59.3007 80.5371 59.3007C80.3749 59.2986 80.2171 59.3543 80.0921 59.4578L80.0136 59.3231C80.1674 59.201 80.3595 59.1374 80.5559 59.1436C80.6252 59.1346 80.6956 59.141 80.7621 59.1626C80.8286 59.1841 80.8895 59.2202 80.9403 59.2682C80.9912 59.3161 81.0307 59.3748 81.0561 59.44C81.0814 59.5051 81.092 59.5751 81.0869 59.6448ZM80.9111 60.0674V59.8505H80.4923C80.2342 59.8505 80.1519 59.9515 80.1519 60.0898C80.1519 60.2282 80.2754 60.3404 80.4885 60.3404C80.5788 60.3456 80.6684 60.322 80.7444 60.2729C80.8204 60.2238 80.8788 60.1518 80.9111 60.0674Z" fill="#404040"/>
<path d="M81.532 58.7171C81.533 58.683 81.5472 58.6507 81.5716 58.6269C81.5961 58.6032 81.6288 58.5899 81.6629 58.5899C81.6799 58.5894 81.6968 58.5923 81.7127 58.5985C81.7286 58.6046 81.743 58.6139 81.7552 58.6258C81.7674 58.6377 81.7771 58.6518 81.7838 58.6675C81.7904 58.6832 81.7938 58.7 81.7938 58.7171C81.7938 58.7518 81.78 58.7851 81.7554 58.8096C81.7309 58.8342 81.6976 58.848 81.6629 58.848C81.6282 58.848 81.5949 58.8342 81.5703 58.8096C81.5458 58.7851 81.532 58.7518 81.532 58.7171ZM81.5731 59.1359H81.7526V60.4674H81.5731V59.1359Z" fill="#404040"/>
<path d="M82.2576 58.5898H82.4333V60.4598H82.2576V58.5898Z" fill="#404040"/>
<path d="M84.15 59.6967V60.4672H83.9705V59.7192C83.9784 59.6639 83.9739 59.6076 83.9572 59.5543C83.9406 59.501 83.9122 59.4521 83.8742 59.4112C83.8361 59.3703 83.7895 59.3385 83.7375 59.318C83.6856 59.2975 83.6297 59.2889 83.574 59.2928C83.5103 59.2875 83.4462 59.2963 83.3863 59.3187C83.3264 59.341 83.2722 59.3763 83.2275 59.422C83.1828 59.4678 83.1488 59.5228 83.1279 59.5833C83.107 59.6437 83.0997 59.708 83.1065 59.7715V60.4709H82.927V59.1395H83.099V59.3863C83.1532 59.303 83.2284 59.2356 83.3171 59.1909C83.4058 59.1462 83.5048 59.1259 83.6039 59.132C83.6788 59.126 83.7541 59.1366 83.8243 59.1632C83.8946 59.1897 83.9581 59.2315 84.0103 59.2855C84.0625 59.3394 84.1021 59.4043 84.1262 59.4754C84.1504 59.5465 84.1585 59.6221 84.15 59.6967Z" fill="#404040"/>
<path d="M85.646 59.6448V60.4676H85.474V60.2619C85.4242 60.3355 85.3557 60.3945 85.2754 60.4326C85.1952 60.4707 85.1062 60.4867 85.0177 60.4788C84.7148 60.4788 84.5315 60.3217 84.5315 60.1048C84.5315 59.8879 84.6624 59.7308 85.0439 59.7308H85.4665V59.6523C85.4665 59.4241 85.3393 59.3007 85.0925 59.3007C84.9313 59.2982 84.7746 59.354 84.6512 59.4578L84.5689 59.3232C84.723 59.2016 84.915 59.1381 85.1112 59.1436C85.1808 59.134 85.2517 59.14 85.3186 59.1613C85.3856 59.1825 85.447 59.2185 85.4982 59.2665C85.5495 59.3146 85.5894 59.3735 85.615 59.4389C85.6405 59.5044 85.6511 59.5747 85.646 59.6448ZM85.4665 60.0674V59.8505H85.0513C84.7933 59.8505 84.7073 59.9515 84.7073 60.0899C84.7073 60.2282 84.8307 60.3404 85.0439 60.3404C85.1348 60.3465 85.2252 60.3232 85.302 60.2741C85.3787 60.2249 85.4377 60.1525 85.4702 60.0674H85.4665Z" fill="#404040"/>
<path d="M88.3313 59.6969V60.4674H88.1518V59.7194C88.1518 59.4389 88.0097 59.293 87.7778 59.293C87.7156 59.2898 87.6534 59.3003 87.5957 59.3237C87.5379 59.3471 87.486 59.3829 87.4436 59.4285C87.4011 59.4741 87.3692 59.5285 87.3501 59.5878C87.3309 59.6471 87.325 59.7099 87.3328 59.7717V60.4711H87.142V59.7231C87.142 59.4426 86.9999 59.2968 86.768 59.2968C86.7058 59.2935 86.6436 59.304 86.5859 59.3274C86.5281 59.3508 86.4762 59.3866 86.4338 59.4323C86.3913 59.4779 86.3594 59.5323 86.3403 59.5916C86.3211 59.6509 86.3152 59.7136 86.323 59.7755V60.4749H86.1434V59.1434H86.3155V59.3865C86.3674 59.3048 86.4401 59.2385 86.5263 59.1945C86.6124 59.1504 86.7088 59.1302 86.8054 59.1359C86.9034 59.1277 87.0015 59.1503 87.086 59.2006C87.1705 59.2509 87.2372 59.3264 87.2767 59.4164C87.3311 59.3265 87.4089 59.253 87.5017 59.2036C87.5945 59.1542 87.699 59.1308 87.804 59.1359C87.8773 59.1316 87.9507 59.1434 88.019 59.1705C88.0872 59.1976 88.1487 59.2394 88.199 59.293C88.2493 59.3465 88.2873 59.4104 88.3101 59.4802C88.333 59.55 88.3402 59.624 88.3313 59.6969Z" fill="#404040"/>
<path d="M89.9807 59.858H88.8587C88.8683 59.9884 88.9291 60.1096 89.028 60.1952C89.1269 60.2807 89.2556 60.3235 89.386 60.3143C89.4627 60.3164 89.5388 60.3017 89.6092 60.2714C89.6796 60.241 89.7426 60.1957 89.7937 60.1385L89.8946 60.2544C89.7992 60.3546 89.6763 60.4244 89.5413 60.4551C89.4064 60.4858 89.2654 60.4759 89.136 60.4268C89.0066 60.3777 88.8946 60.2915 88.814 60.179C88.7334 60.0665 88.6878 59.9327 88.6829 59.7944C88.6783 59.7067 88.6917 59.619 88.7225 59.5367C88.7533 59.4544 88.8007 59.3793 88.8617 59.3162C88.9228 59.253 88.9962 59.2031 89.0774 59.1695C89.1586 59.136 89.2458 59.1196 89.3337 59.1212C89.4212 59.1195 89.5081 59.1359 89.5889 59.1695C89.6697 59.2032 89.7427 59.2532 89.8032 59.3165C89.8637 59.3798 89.9103 59.4549 89.9402 59.5372C89.9701 59.6195 89.9826 59.7071 89.9769 59.7944C89.9769 59.7944 89.9807 59.8393 89.9807 59.858ZM88.8587 59.7234H89.8011C89.8011 59.5984 89.7515 59.4785 89.6631 59.3901C89.5747 59.3018 89.4549 59.2521 89.3299 59.2521C89.2049 59.2521 89.0851 59.3018 88.9967 59.3901C88.9083 59.4785 88.8587 59.5984 88.8587 59.7234Z" fill="#404040"/>
<path d="M92.5837 59.7979C92.5837 60.228 92.4229 60.4786 92.1611 60.4786C92.1242 60.4806 92.0873 60.475 92.0526 60.4622C92.0179 60.4494 91.9863 60.4295 91.9596 60.4039C91.9329 60.3783 91.9118 60.3474 91.8976 60.3133C91.8834 60.2792 91.8763 60.2425 91.8769 60.2055C91.8248 60.292 91.7505 60.3629 91.6617 60.411C91.5729 60.459 91.4729 60.4823 91.372 60.4786C91.1994 60.4786 91.0339 60.41 90.9118 60.2879C90.7898 60.1659 90.7212 60.0004 90.7212 59.8278C90.7212 59.6552 90.7898 59.4897 90.9118 59.3676C91.0339 59.2456 91.1994 59.177 91.372 59.177C91.4716 59.1728 91.5705 59.1951 91.6586 59.2418C91.7467 59.2885 91.8207 59.3578 91.8731 59.4426V59.192H92.0377V60.1494C92.0377 60.2915 92.1088 60.3439 92.1948 60.3439C92.3481 60.3439 92.4491 60.1494 92.4491 59.8091C92.4531 59.674 92.4288 59.5395 92.3775 59.4145C92.3263 59.2894 92.2493 59.1765 92.1516 59.083C92.054 58.9896 91.9378 58.9177 91.8105 58.872C91.6833 58.8264 91.5479 58.808 91.4131 58.818C91.2795 58.818 91.1472 58.8443 91.0238 58.8954C90.9004 58.9465 90.7883 59.0215 90.6938 59.1159C90.5993 59.2104 90.5244 59.3226 90.4733 59.446C90.4221 59.5694 90.3958 59.7017 90.3958 59.8353C90.3958 59.9689 90.4221 60.1011 90.4733 60.2246C90.5244 60.348 90.5993 60.4601 90.6938 60.5546C90.7883 60.6491 90.9004 60.724 91.0238 60.7751C91.1472 60.8262 91.2795 60.8526 91.4131 60.8526C91.5816 60.8521 91.7477 60.8138 91.8993 60.7404L91.9405 60.8638C91.7756 60.9413 91.5954 60.981 91.4131 60.9797C91.1096 60.9797 90.8185 60.8591 90.6039 60.6445C90.3893 60.4299 90.2687 60.1388 90.2687 59.8353C90.2687 59.5317 90.3893 59.2407 90.6039 59.026C90.8185 58.8114 91.1096 58.6908 91.4131 58.6908C91.5643 58.6799 91.716 58.7006 91.8588 58.7515C92.0015 58.8024 92.1321 58.8825 92.2422 58.9866C92.3523 59.0907 92.4395 59.2166 92.4983 59.3563C92.5571 59.496 92.5862 59.6463 92.5837 59.7979ZM91.8731 59.824C91.879 59.7574 91.871 59.6902 91.8495 59.6268C91.828 59.5634 91.7936 59.5052 91.7484 59.4558C91.7032 59.4064 91.6482 59.367 91.587 59.3401C91.5257 59.3131 91.4595 59.2991 91.3926 59.2991C91.3256 59.2991 91.2594 59.3131 91.1982 59.3401C91.1369 59.367 91.0819 59.4064 91.0367 59.4558C90.9915 59.5052 90.9571 59.5634 90.9356 59.6268C90.9141 59.6902 90.9061 59.7574 90.912 59.824C90.9061 59.8907 90.9141 59.9579 90.9356 60.0213C90.9571 60.0847 90.9915 60.1429 91.0367 60.1923C91.0819 60.2417 91.1369 60.2811 91.1982 60.308C91.2594 60.335 91.3256 60.349 91.3926 60.349C91.4595 60.349 91.5257 60.335 91.587 60.308C91.6482 60.2811 91.7032 60.2417 91.7484 60.1923C91.7936 60.1429 91.828 60.0847 91.8495 60.0213C91.871 59.9579 91.879 59.8907 91.8731 59.824Z" fill="#404040"/>
<path d="M94.1171 59.8578H92.9951C92.9989 59.9227 93.0155 59.9862 93.0439 60.0446C93.0723 60.1031 93.112 60.1554 93.1606 60.1984C93.2093 60.2415 93.2659 60.2746 93.3274 60.2957C93.3888 60.3169 93.4539 60.3256 93.5187 60.3216C93.5954 60.3237 93.6715 60.3091 93.7419 60.2787C93.8123 60.2483 93.8753 60.203 93.9264 60.1458L94.0273 60.2618C93.9319 60.362 93.809 60.4318 93.674 60.4624C93.5391 60.4931 93.3981 60.4832 93.2687 60.4341C93.1393 60.385 93.0273 60.2988 92.9467 60.1863C92.8661 60.0738 92.8205 59.94 92.8156 59.8017C92.811 59.714 92.8244 59.6263 92.8552 59.544C92.886 59.4617 92.9334 59.3866 92.9944 59.3235C93.0555 59.2603 93.1289 59.2104 93.2101 59.1769C93.2913 59.1433 93.3785 59.1269 93.4663 59.1285C93.5539 59.1268 93.6408 59.1433 93.7216 59.1769C93.8025 59.2105 93.8754 59.2605 93.9359 59.3238C93.9964 59.3871 94.043 59.4623 94.0729 59.5445C94.1029 59.6268 94.1153 59.7144 94.1096 59.8017C94.1096 59.8017 94.1171 59.8391 94.1171 59.8578ZM92.9951 59.7232H93.9376C93.9376 59.5982 93.8879 59.4784 93.7996 59.39C93.7112 59.3016 93.5913 59.252 93.4663 59.252C93.3414 59.252 93.2215 59.3016 93.1331 59.39C93.0448 59.4784 92.9951 59.5982 92.9951 59.7232Z" fill="#404040"/>
<path d="M96.6828 59.6971V60.4676H96.492V59.7196C96.492 59.4391 96.3499 59.2932 96.118 59.2932C96.0558 59.29 95.9936 59.3005 95.9359 59.3239C95.8781 59.3473 95.8262 59.3831 95.7838 59.4287C95.7413 59.4743 95.7094 59.5287 95.6903 59.588C95.6711 59.6473 95.6652 59.7101 95.673 59.7719V60.4713H95.4935V59.7233C95.4935 59.4428 95.3513 59.2969 95.1195 59.2969C95.0572 59.2937 94.995 59.3042 94.9373 59.3276C94.8795 59.351 94.8276 59.3868 94.7852 59.4324C94.7428 59.4781 94.7109 59.5325 94.6917 59.5918C94.6726 59.6511 94.6667 59.7138 94.6744 59.7757V60.475H94.4949V59.1436H94.6669V59.3867C94.7182 59.3053 94.7903 59.2392 94.8758 59.1951C94.9613 59.151 95.0571 59.1307 95.1531 59.1361C95.2515 59.1287 95.3497 59.1516 95.4346 59.2018C95.5196 59.2519 95.5871 59.3269 95.6281 59.4166C95.6813 59.3264 95.7583 59.2526 95.8506 59.2031C95.943 59.1537 96.0471 59.1305 96.1517 59.1361C96.2253 59.1312 96.2991 59.1425 96.3679 59.1694C96.4366 59.1963 96.4985 59.238 96.5493 59.2916C96.6 59.3452 96.6383 59.4093 96.6614 59.4794C96.6844 59.5495 96.6917 59.6239 96.6828 59.6971Z" fill="#404040"/>
<path d="M98.1713 59.6449V60.4677H97.988V60.262C97.938 60.3353 97.8694 60.394 97.7892 60.4321C97.709 60.4702 97.6202 60.4864 97.5317 60.4789C97.2288 60.4789 97.0455 60.3218 97.0455 60.1049C97.0455 59.888 97.1764 59.7309 97.5579 59.7309H97.988V59.6523C97.988 59.4242 97.8608 59.3008 97.614 59.3008C97.4528 59.2983 97.2961 59.3541 97.1727 59.4579L97.0904 59.3232C97.2446 59.2017 97.4365 59.1382 97.6327 59.1437C97.7026 59.1334 97.7739 59.139 97.8413 59.16C97.9088 59.1809 97.9706 59.2168 98.0223 59.2649C98.0741 59.3131 98.1143 59.3722 98.1401 59.4379C98.1658 59.5037 98.1765 59.5744 98.1713 59.6449ZM97.9917 60.0675V59.8506H97.5766C97.3185 59.8506 97.2325 59.9515 97.2325 60.0899C97.2325 60.2283 97.3559 60.3405 97.5691 60.3405C97.6588 60.3449 97.7476 60.3209 97.8228 60.2718C97.898 60.2228 97.9558 60.1513 97.988 60.0675H97.9917Z" fill="#404040"/>
<path d="M98.62 58.7173C98.62 58.6914 98.6277 58.6661 98.6421 58.6446C98.6564 58.6231 98.6769 58.6063 98.7008 58.5964C98.7247 58.5865 98.751 58.5839 98.7764 58.5889C98.8018 58.594 98.8252 58.6065 98.8435 58.6248C98.8618 58.6431 98.8742 58.6664 98.8793 58.6918C98.8843 58.7172 98.8818 58.7435 98.8719 58.7674C98.8619 58.7913 98.8452 58.8118 98.8236 58.8262C98.8021 58.8405 98.7768 58.8482 98.7509 58.8482C98.7162 58.8482 98.6829 58.8344 98.6583 58.8099C98.6338 58.7853 98.62 58.752 98.62 58.7173ZM98.6574 59.1362H98.8369V60.4676H98.6574V59.1362Z" fill="#404040"/>
<path d="M99.3381 58.5898H99.5177V60.4598H99.3381V58.5898Z" fill="#404040"/>
<path d="M99.9029 60.3403C99.9024 60.3224 99.9055 60.3047 99.9121 60.2881C99.9187 60.2716 99.9286 60.2565 99.9412 60.2439C99.9538 60.2313 99.9688 60.2214 99.9854 60.2148C100.002 60.2082 100.02 60.2051 100.038 60.2056C100.073 60.2056 100.107 60.2198 100.133 60.2451C100.158 60.2703 100.172 60.3046 100.172 60.3403C100.172 60.3763 100.158 60.411 100.133 60.4368C100.108 60.4626 100.074 60.4777 100.038 60.4786C100.02 60.4786 100.002 60.475 99.9851 60.468C99.9685 60.461 99.9535 60.4508 99.941 60.4379C99.9284 60.425 99.9186 60.4097 99.912 60.3929C99.9055 60.3762 99.9024 60.3583 99.9029 60.3403Z" fill="#404040"/>
<path d="M100.382 59.8019C100.379 59.7118 100.395 59.6221 100.429 59.5385C100.462 59.4549 100.513 59.3791 100.577 59.3159C100.641 59.2527 100.718 59.2034 100.802 59.1712C100.886 59.139 100.976 59.1245 101.066 59.1287C101.169 59.1219 101.271 59.1426 101.363 59.1886C101.455 59.2346 101.533 59.3043 101.59 59.3905L101.455 59.4802C101.413 59.4201 101.357 59.3711 101.292 59.3372C101.227 59.3034 101.154 59.2857 101.081 59.2858C100.951 59.2968 100.83 59.3562 100.742 59.4521C100.654 59.548 100.605 59.6735 100.605 59.8038C100.605 59.934 100.654 60.0595 100.742 60.1554C100.83 60.2514 100.951 60.3107 101.081 60.3217C101.155 60.3224 101.227 60.3051 101.292 60.2712C101.357 60.2372 101.413 60.1878 101.455 60.1273L101.59 60.217C101.533 60.3027 101.455 60.3719 101.363 60.4178C101.271 60.4638 101.169 60.4848 101.066 60.4788C100.976 60.483 100.885 60.4684 100.801 60.436C100.717 60.4036 100.64 60.354 100.575 60.2904C100.511 60.2268 100.461 60.1505 100.427 60.0664C100.394 59.9824 100.378 59.8923 100.382 59.8019Z" fill="#404040"/>
<path d="M101.784 59.8019C101.784 59.6681 101.824 59.5372 101.898 59.4259C101.973 59.3145 102.078 59.2278 102.202 59.1765C102.326 59.1253 102.462 59.1119 102.593 59.138C102.724 59.1641 102.845 59.2286 102.94 59.3233C103.034 59.4179 103.099 59.5386 103.125 59.6699C103.151 59.8012 103.138 59.9373 103.086 60.061C103.035 60.1847 102.948 60.2904 102.837 60.3648C102.726 60.4392 102.595 60.4789 102.461 60.4789C102.371 60.482 102.282 60.4666 102.198 60.4337C102.115 60.4008 102.039 60.3511 101.975 60.2876C101.912 60.2241 101.862 60.1482 101.829 60.0647C101.796 59.9811 101.781 59.8917 101.784 59.8019ZM102.955 59.8019C102.952 59.7035 102.919 59.6081 102.862 59.528C102.805 59.4478 102.725 59.3865 102.633 59.3518C102.541 59.317 102.44 59.3105 102.344 59.3329C102.248 59.3553 102.161 59.4057 102.094 59.4777C102.027 59.5496 101.982 59.64 101.967 59.7372C101.951 59.8344 101.964 59.9342 102.005 60.0238C102.046 60.1134 102.113 60.1889 102.196 60.2406C102.28 60.2923 102.378 60.318 102.476 60.3143C102.541 60.3134 102.606 60.2993 102.666 60.2728C102.726 60.2463 102.78 60.2079 102.824 60.1601C102.869 60.1122 102.904 60.0559 102.926 59.9943C102.949 59.9328 102.958 59.8673 102.955 59.8019Z" fill="#404040"/>
<path d="M105.696 59.6971V60.4676H105.517V59.7196C105.517 59.4391 105.375 59.2932 105.143 59.2932C105.08 59.29 105.018 59.3005 104.961 59.3239C104.903 59.3473 104.851 59.3831 104.808 59.4287C104.766 59.4743 104.734 59.5287 104.715 59.588C104.696 59.6473 104.69 59.7101 104.698 59.7719V60.4713H104.518V59.7233C104.518 59.4428 104.376 59.2969 104.144 59.2969C104.082 59.2937 104.02 59.3042 103.962 59.3276C103.904 59.351 103.852 59.3868 103.81 59.4324C103.767 59.4781 103.736 59.5325 103.716 59.5918C103.697 59.6511 103.691 59.7138 103.699 59.7757V60.475H103.52V59.1436H103.692V59.3867C103.743 59.3053 103.815 59.2392 103.9 59.1951C103.986 59.151 104.082 59.1307 104.178 59.1361C104.276 59.1287 104.374 59.1516 104.459 59.2018C104.544 59.2519 104.612 59.3269 104.653 59.4166C104.706 59.3267 104.783 59.2531 104.876 59.2037C104.968 59.1542 105.072 59.1309 105.176 59.1361C105.249 59.1329 105.322 59.1455 105.389 59.1731C105.456 59.2008 105.517 59.2428 105.566 59.2961C105.616 59.3495 105.653 59.4131 105.675 59.4823C105.698 59.5516 105.705 59.6249 105.696 59.6971Z" fill="#404040"/>
<path d="M76.0678 70.9957L76.382 71.1752L76.3259 71.2799L76.008 71.0966V71.4706H75.892V71.0966L75.5741 71.2799L75.5143 71.1752L75.8322 70.9957L75.5143 70.8199L75.5741 70.7114L75.892 70.8984V70.5244H76.008V70.8984L76.3259 70.7114L76.382 70.8199L76.0678 70.9957Z" fill="#404040"/>
<path d="M77.0963 70.9957L77.4105 71.1752L77.3506 71.2799L77.0365 71.0966V71.4706H76.9168V71.0966L76.6026 71.2799L76.5391 71.1752L76.857 70.9957L76.5391 70.8199L76.6026 70.7114L76.9168 70.8984V70.5244H77.044V70.8984L77.3581 70.7114L77.418 70.8199L77.0963 70.9957Z" fill="#404040"/>
<path d="M78.1211 70.9957L78.4352 71.1752L78.3754 71.2799L78.0612 71.0966V71.4706H77.9453V71.0966L77.6311 71.2799L77.5713 71.1752L77.8854 70.9957L77.5713 70.8199L77.6311 70.7114L77.9453 70.8984V70.5244H78.0612V70.8984L78.3754 70.7114L78.4352 70.8199L78.1211 70.9957Z" fill="#404040"/>
<path d="M79.1459 70.9957L79.4601 71.1752L79.404 71.2799L79.0861 71.0966V71.4706H78.9701V71.0966L78.6522 71.2799L78.5924 71.1752L78.9103 70.9957L78.5924 70.8199L78.6522 70.7114L78.9701 70.8984V70.5244H79.0861V70.8984L79.404 70.7114L79.4601 70.8199L79.1459 70.9957Z" fill="#404040"/>
<path d="M80.1743 70.9957L80.4885 71.1752L80.4287 71.2799L80.1145 71.0966V71.4706H79.9948V71.0966L79.6806 71.2799L79.6171 71.1752L79.935 70.9957L79.6171 70.8199L79.6806 70.7114L79.9948 70.8984V70.5244H80.1145V70.8984L80.4287 70.7114L80.4885 70.8199L80.1743 70.9957Z" fill="#404040"/>
<path d="M81.1991 70.9957L81.5132 71.1752L81.4534 71.2799L81.1392 71.0966V71.4706H81.0233V71.0966L80.7091 71.2799L80.6493 71.1752L80.9635 70.9957L80.6493 70.8199L80.7091 70.7114L81.0233 70.8984V70.5244H81.1579V70.8984L81.4721 70.7114L81.5319 70.8199L81.1991 70.9957Z" fill="#404040"/>
<path d="M82.2239 70.9957L82.5381 71.1752L82.482 71.2799L82.1641 71.0966V71.4706H82.0482V71.0966L81.7303 71.2799L81.6704 71.1752L81.9883 70.9957L81.6704 70.8199L81.7303 70.7114L82.0482 70.8984V70.5244H82.1641V70.8984L82.482 70.7114L82.5381 70.8199L82.2239 70.9957Z" fill="#404040"/>
<path d="M83.2523 70.9957L83.5665 71.1752L83.5067 71.2799L83.1888 71.0966V71.4706H83.0728V71.0966L82.7586 71.2799L82.6951 71.1752L83.013 70.9957L82.6951 70.8199L82.7586 70.7114L83.0728 70.8984V70.5244H83.1888V70.8984L83.5067 70.7114L83.5665 70.8199L83.2523 70.9957Z" fill="#404040"/>
<path d="M84.2772 70.9957L84.5914 71.1752L84.5315 71.2799L84.2174 71.0966V71.4706H84.1014V71.0966L83.7873 71.2799L83.7274 71.1752L84.0416 70.9957L83.7274 70.8199L83.7873 70.7114L84.1014 70.8984V70.5244H84.2174V70.8984L84.5315 70.7114L84.5914 70.8199L84.2772 70.9957Z" fill="#404040"/>
<path d="M85.3019 70.9957L85.6161 71.1752L85.56 71.2799L85.2421 71.0966V71.4706H85.1262V71.0966L84.8082 71.2799L84.7484 71.1752L85.0626 70.9957L84.7484 70.8199L84.8082 70.7114L85.1262 70.8984V70.5244H85.2421V70.8984L85.56 70.7114L85.6161 70.8199L85.3019 70.9957Z" fill="#404040"/>
<path d="M86.3305 70.9957L86.6409 71.1752L86.5848 71.2799L86.2669 71.0966V71.4706H86.1509V71.0966L85.8368 71.2799L85.7732 71.1752L86.0911 70.9957L85.7732 70.8199L85.8368 70.7114L86.1509 70.8984V70.5244H86.2669V70.8984L86.5848 70.7114L86.6409 70.8199L86.3305 70.9957Z" fill="#404040"/>
<path d="M75.8995 65.9241C75.8995 66.2981 75.6265 66.53 75.1777 66.53H74.7027V67.0872H74.512V65.3257H75.1739C75.6265 65.3257 75.8995 65.5501 75.8995 65.9241ZM75.7125 65.9241C75.7125 65.6398 75.5255 65.479 75.1702 65.479H74.7027V66.3654H75.1739C75.5255 66.3729 75.7125 66.2121 75.7125 65.9241Z" fill="#404040"/>
<path d="M77.2572 66.2718V67.0946H77.0852V66.8889C77.0346 66.9625 76.9653 67.0214 76.8845 67.0595C76.8037 67.0976 76.7142 67.1136 76.6252 67.1058C76.326 67.1058 76.1427 66.9524 76.1427 66.7318C76.1427 66.5111 76.2736 66.3578 76.6551 66.3578H77.0777V66.2792C77.0777 66.0511 76.9468 65.9277 76.7037 65.9277C76.5425 65.9252 76.3858 65.981 76.2624 66.0848L76.1801 65.9501C76.3343 65.8286 76.5262 65.7651 76.7224 65.7706C76.792 65.7609 76.8629 65.7669 76.9299 65.7882C76.9968 65.8095 77.0582 65.8454 77.1095 65.8935C77.1607 65.9415 77.2006 66.0004 77.2262 66.0659C77.2517 66.1313 77.2624 66.2017 77.2572 66.2718ZM77.0777 66.6944V66.4775H76.67C76.412 66.4775 76.3297 66.5784 76.3297 66.7168C76.3297 66.8552 76.4531 66.9674 76.6663 66.9674C76.7547 66.9702 76.8418 66.9454 76.9155 66.8965C76.9893 66.8476 77.0459 66.7769 77.0777 66.6944Z" fill="#404040"/>
<path d="M77.5602 66.9449L77.6387 66.8028C77.7778 66.9005 77.9437 66.9528 78.1137 66.9524C78.3643 66.9524 78.469 66.8664 78.469 66.7318C78.469 66.3877 77.6088 66.6607 77.6088 66.1334C77.6088 65.9164 77.7958 65.7594 78.1324 65.7594C78.2977 65.7572 78.4606 65.7999 78.6036 65.8828L78.5251 66.0249C78.4084 65.949 78.2716 65.91 78.1324 65.9127C77.893 65.9127 77.7883 66.0062 77.7883 66.1334C77.7883 66.5074 78.6485 66.2231 78.6485 66.7318C78.6485 66.9636 78.4466 67.1057 78.0987 67.1057C77.9065 67.112 77.7175 67.0555 77.5602 66.9449Z" fill="#404040"/>
<path d="M78.7943 66.945L78.8766 66.8029C79.0141 66.901 79.1789 66.9533 79.3478 66.9525C79.6022 66.9525 79.7218 66.8664 79.7218 66.7318C79.7218 66.3877 78.8616 66.6607 78.8616 66.1334C78.8616 65.9165 79.0486 65.7594 79.389 65.7594C79.5532 65.7568 79.7149 65.7995 79.8565 65.8828L79.7779 66.0249C79.6666 65.9524 79.5368 65.9134 79.4039 65.9127C79.1608 65.9127 79.0561 66.0062 79.0561 66.1334C79.0561 66.5074 79.9163 66.2232 79.9163 66.7318C79.9163 66.9637 79.7144 67.1058 79.3703 67.1058C79.1655 67.1202 78.962 67.0634 78.7943 66.945Z" fill="#404040"/>
<path d="M82.1416 65.7671L81.6367 67.0948H81.4684L81.0495 66.0065L80.6306 67.0948H80.4586L79.9612 65.7671H80.1332L80.5484 66.8891L80.9747 65.7671H81.1318L81.5544 66.8891L81.977 65.7671H82.1416Z" fill="#404040"/>
<path d="M82.2388 66.4289C82.2388 66.295 82.2785 66.1641 82.3529 66.0528C82.4273 65.9415 82.533 65.8547 82.6567 65.8035C82.7804 65.7522 82.9165 65.7388 83.0478 65.765C83.1791 65.7911 83.2997 65.8555 83.3944 65.9502C83.4891 66.0449 83.5536 66.1655 83.5797 66.2968C83.6058 66.4281 83.5924 66.5643 83.5412 66.6879C83.4899 66.8116 83.4032 66.9174 83.2918 66.9917C83.1805 67.0661 83.0496 67.1058 82.9157 67.1058C82.826 67.109 82.7366 67.0936 82.653 67.0607C82.5695 67.0278 82.4936 66.978 82.4301 66.9145C82.3666 66.851 82.3169 66.7752 82.2839 66.6916C82.251 66.6081 82.2357 66.5186 82.2388 66.4289ZM83.4094 66.4289C83.4094 66.298 83.3574 66.1724 83.2648 66.0798C83.1722 65.9872 83.0467 65.9352 82.9157 65.9352C82.7848 65.9352 82.6592 65.9872 82.5667 66.0798C82.4741 66.1724 82.4221 66.298 82.4221 66.4289C82.4221 66.5598 82.4741 66.6854 82.5667 66.778C82.6592 66.8706 82.7848 66.9226 82.9157 66.9226C83.0467 66.9226 83.1722 66.8706 83.2648 66.778C83.3574 66.6854 83.4094 66.5598 83.4094 66.4289Z" fill="#404040"/>
<path d="M84.6287 65.7558V65.9241H84.5838C84.5207 65.9213 84.4577 65.9324 84.3994 65.9567C84.341 65.981 84.2887 66.0178 84.2462 66.0646C84.2038 66.1114 84.1721 66.167 84.1535 66.2274C84.1349 66.2878 84.1299 66.3515 84.1387 66.4141V67.091H83.9592V65.7633H84.15V66.0214C84.195 65.9351 84.2644 65.864 84.3495 65.8168C84.4346 65.7696 84.5317 65.7484 84.6287 65.7558Z" fill="#404040"/>
<path d="M86.1509 65.221V67.091H85.9789V66.8292C85.9256 66.9163 85.85 66.9875 85.7599 67.0355C85.6698 67.0835 85.5685 67.1066 85.4665 67.1022C85.2961 67.0896 85.1369 67.0129 85.0207 66.8877C84.9044 66.7625 84.8398 66.598 84.8398 66.4272C84.8398 66.2563 84.9044 66.0918 85.0207 65.9666C85.1369 65.8414 85.2961 65.7648 85.4665 65.7521C85.5661 65.7483 85.665 65.7704 85.7535 65.8163C85.842 65.8622 85.9171 65.9303 85.9714 66.0139V65.2173L86.1509 65.221ZM85.9751 66.429C85.97 66.3327 85.9368 66.2399 85.8795 66.1623C85.8223 66.0846 85.7435 66.0254 85.653 65.992C85.5624 65.9586 85.4641 65.9525 85.3701 65.9744C85.2761 65.9963 85.1906 66.0453 85.1242 66.1153C85.0577 66.1852 85.0132 66.2732 84.9962 66.3681C84.9792 66.4631 84.9904 66.561 85.0284 66.6497C85.0664 66.7384 85.1296 66.814 85.2101 66.8672C85.2906 66.9204 85.385 66.9488 85.4815 66.9489C85.5489 66.9501 85.6158 66.9373 85.678 66.9112C85.7402 66.8852 85.7962 66.8465 85.8427 66.7976C85.8891 66.7487 85.9248 66.6907 85.9477 66.6272C85.9705 66.5638 85.9798 66.4963 85.9751 66.429Z" fill="#404040"/>
<path d="M88.81 80.5103V82.283H88.638V80.6748H88.2191V80.5103H88.81Z" fill="#404040"/>
<path d="M90.4407 82.1106V82.2752H89.199V82.1443L89.947 81.4224C90.1452 81.228 90.1863 81.1083 90.1863 80.9886C90.1863 80.7829 90.0405 80.6557 89.7712 80.6557C89.681 80.6499 89.5907 80.6648 89.5071 80.6991C89.4235 80.7335 89.3488 80.7864 89.2887 80.854L89.1578 80.7418C89.2376 80.656 89.3352 80.5887 89.4437 80.5448C89.5523 80.5009 89.6692 80.4813 89.7862 80.4874C90.1602 80.4874 90.3733 80.6707 90.3733 80.9662C90.3676 81.074 90.3385 81.1793 90.2881 81.2749C90.2378 81.3704 90.1673 81.454 90.0816 81.5197L89.4795 82.1106H90.4407Z" fill="#404040"/>
<path d="M91.8394 81.7669C91.8394 82.0623 91.6225 82.2905 91.1961 82.2905C90.9629 82.2978 90.7356 82.2162 90.5603 82.0623L90.6463 81.9165C90.7959 82.0539 90.9931 82.1276 91.1961 82.1222C91.4916 82.1222 91.6524 81.9875 91.6524 81.7669C91.6524 81.5462 91.5028 81.4153 91.1737 81.4153H91.0465V81.2807L91.5364 80.6673H90.6314V80.5103H91.7534V80.6412L91.2559 81.2582C91.6486 81.2844 91.8394 81.4826 91.8394 81.7669Z" fill="#404040"/>
<path d="M93.5972 81.8077H93.2419V82.2752H93.0624V81.8077H92.0638V81.6768L93.0026 80.5024H93.2045L92.2995 81.6319H93.0662V81.2205H93.2419V81.6319H93.5972V81.8077Z" fill="#404040"/>
<path d="M95.6281 81.7517C95.6281 82.0547 95.4186 82.2903 94.9848 82.2903C94.7517 82.2972 94.5245 82.2157 94.349 82.0622L94.4388 81.9163C94.5109 81.985 94.596 82.0385 94.6892 82.0739C94.7823 82.1092 94.8815 82.1255 94.9811 82.122C95.284 82.122 95.4411 81.9761 95.4411 81.748C95.4411 81.5199 95.299 81.374 94.8502 81.374H94.4762L94.5697 80.4839H95.5383V80.6484H94.7267L94.6669 81.2094H94.895C95.4261 81.2281 95.6281 81.4413 95.6281 81.7517Z" fill="#404040"/>
<path d="M97.1876 81.7441C97.1869 81.8207 97.1703 81.8964 97.1388 81.9664C97.1074 82.0363 97.0617 82.0989 97.0047 82.1502C96.9477 82.2016 96.8807 82.2405 96.8079 82.2646C96.7351 82.2887 96.6581 82.2973 96.5818 82.2901C96.1105 82.2901 95.8562 81.961 95.8562 81.4037C95.8562 80.8465 96.1853 80.4874 96.664 80.4874C96.811 80.4818 96.9569 80.5154 97.0867 80.5847L97.0119 80.7305C96.9074 80.6707 96.788 80.6421 96.6678 80.6482C96.2938 80.6482 96.0395 80.8913 96.0395 81.3738C96.0395 81.4149 96.0395 81.4636 96.0395 81.5159C96.0911 81.4186 96.1697 81.3382 96.2659 81.2845C96.3621 81.2307 96.4718 81.2059 96.5818 81.213C96.6573 81.2035 96.734 81.2101 96.8068 81.2324C96.8796 81.2547 96.9468 81.2921 97.0041 81.3423C97.0613 81.3925 97.1073 81.4542 97.1389 81.5235C97.1706 81.5927 97.1872 81.6679 97.1876 81.7441ZM97.0081 81.7441C97.0081 81.5084 96.8361 81.3701 96.5631 81.3701C96.5083 81.3633 96.4528 81.3678 96.3998 81.3831C96.3468 81.3985 96.2975 81.4244 96.2549 81.4594C96.2122 81.4943 96.1771 81.5376 96.1516 81.5865C96.1262 81.6355 96.1109 81.6891 96.1068 81.7441C96.1068 81.9385 96.2676 82.1181 96.5743 82.1181C96.6275 82.1267 96.682 82.1237 96.734 82.1093C96.786 82.0949 96.8343 82.0694 96.8755 82.0346C96.9167 81.9997 96.9499 81.9564 96.9728 81.9076C96.9957 81.8587 97.0077 81.8055 97.0081 81.7515V81.7441Z" fill="#404040"/>
<path d="M98.6237 80.5103V80.6412L97.8757 82.283H97.6775L98.4068 80.6748H97.498V81.0039H97.3185V80.5103H98.6237Z" fill="#404040"/>
<path d="M100.176 81.7815C100.176 82.0957 99.9104 82.2902 99.4877 82.2902C99.0651 82.2902 98.807 82.0957 98.807 81.7815C98.8059 81.6808 98.8389 81.5828 98.9008 81.5033C98.9626 81.4238 99.0495 81.3676 99.1474 81.3439C99.0658 81.322 98.994 81.2731 98.9438 81.2052C98.8935 81.1373 98.8677 81.0544 98.8706 80.9699C98.8706 80.682 99.1137 80.5024 99.4877 80.5024C99.8617 80.5024 100.112 80.682 100.112 80.9699C100.111 81.0544 100.083 81.1363 100.032 81.2036C99.9804 81.2709 99.9091 81.32 99.8281 81.3439C99.927 81.3668 100.015 81.4225 100.078 81.502C100.142 81.5815 100.176 81.68 100.176 81.7815ZM99.9889 81.7815C99.9889 81.5646 99.8019 81.4262 99.4877 81.4262C99.1736 81.4262 98.9903 81.5646 98.9903 81.7815C98.9903 81.9984 99.1736 82.1555 99.4877 82.1555C99.8019 82.1555 99.9889 82.0059 99.9889 81.7778V81.7815ZM99.484 81.2804C99.7607 81.2804 99.9253 81.1569 99.9253 80.9625C99.9253 80.768 99.7495 80.6446 99.484 80.6446C99.2184 80.6446 99.0464 80.7642 99.0464 80.9625C99.0464 81.1607 99.211 81.2804 99.484 81.2804Z" fill="#404040"/>
<path d="M102.368 81.3742C102.368 81.9764 102.038 82.2905 101.556 82.2905C101.41 82.2956 101.266 82.2621 101.137 82.1933L101.212 82.0474C101.316 82.1072 101.436 82.1358 101.556 82.1297C101.93 82.1297 102.181 81.8829 102.181 81.4041C102.184 81.3568 102.184 81.3093 102.181 81.262C102.13 81.3597 102.052 81.4405 101.957 81.4943C101.861 81.5482 101.752 81.5727 101.642 81.565C101.567 81.5733 101.491 81.5659 101.419 81.5431C101.347 81.5203 101.281 81.4826 101.225 81.4325C101.168 81.3825 101.123 81.3211 101.092 81.2524C101.061 81.1838 101.044 81.1093 101.044 81.0339C101.044 80.9572 101.061 80.8815 101.092 80.8116C101.124 80.7417 101.17 80.679 101.227 80.6277C101.283 80.5764 101.35 80.5374 101.423 80.5133C101.496 80.4893 101.573 80.4806 101.649 80.4878C102.102 80.4878 102.368 80.817 102.368 81.3742ZM102.117 81.0227C102.117 80.8282 101.956 80.6487 101.649 80.6487C101.596 80.6399 101.54 80.6431 101.488 80.6579C101.435 80.6728 101.387 80.6989 101.345 80.7346C101.304 80.7702 101.271 80.8145 101.249 80.8642C101.226 80.914 101.215 80.9681 101.216 81.0227C101.216 81.2583 101.388 81.3967 101.661 81.3967C101.769 81.405 101.876 81.3703 101.958 81.3003C102.041 81.2303 102.092 81.1305 102.102 81.0227H102.117Z" fill="#404040"/>
<path d="M103.116 80.5103V82.283H102.932V80.6748H102.513V80.5103H103.116Z" fill="#404040"/>
<path d="M103.534 81.3891C103.534 80.8244 103.834 80.4878 104.241 80.4878C104.649 80.4878 104.948 80.8244 104.948 81.3891C104.948 81.9539 104.653 82.2905 104.241 82.2905C103.83 82.2905 103.534 81.9539 103.534 81.3891ZM104.761 81.3891C104.761 80.9179 104.552 80.6411 104.241 80.6411C103.931 80.6411 103.721 80.9029 103.721 81.3891C103.721 81.8753 103.935 82.1371 104.241 82.1371C104.548 82.1371 104.761 81.8604 104.761 81.3891Z" fill="#404040"/>
<path d="M105.696 80.5103V82.283H105.513V80.6748H105.094V80.5103H105.696Z" fill="#404040"/>
<path d="M107.271 80.5103V82.283H107.087V80.6748H106.669V80.5103H107.271Z" fill="#404040"/>
<path d="M108.179 80.5103V82.283H108V80.6748H107.581V80.5103H108.179Z" fill="#404040"/>
<path d="M109.81 82.1109V82.2755H108.568V82.1446L109.316 81.4228C109.515 81.2283 109.556 81.1086 109.556 80.9889C109.556 80.7832 109.41 80.6561 109.141 80.6561C109.051 80.6503 108.96 80.6651 108.877 80.6994C108.793 80.7338 108.718 80.7867 108.658 80.8543L108.527 80.7421C108.607 80.6567 108.705 80.5897 108.814 80.5458C108.922 80.5019 109.039 80.4821 109.156 80.4878C109.53 80.4878 109.743 80.671 109.743 80.9665C109.737 81.0743 109.708 81.1797 109.658 81.2752C109.607 81.3708 109.537 81.4543 109.451 81.52L108.834 82.1109H109.81Z" fill="#404040"/>
<path d="M110.528 80.5103V82.283H110.33V80.6748H109.915V80.5103H110.528Z" fill="#404040"/>
<path d="M80.7054 80.0989V79.8296C80.7054 79.7047 80.6557 79.5848 80.5674 79.4964C80.479 79.408 80.3591 79.3584 80.2341 79.3584H75.4582C75.3332 79.3584 75.2133 79.408 75.125 79.4964C75.0366 79.5848 74.9869 79.7047 74.9869 79.8296V80.0989H80.7054Z" fill="#404040"/>
<path d="M74.9869 80.4688V82.451C74.9869 82.5759 75.0366 82.6958 75.125 82.7842C75.2133 82.8725 75.3332 82.9222 75.4582 82.9222H80.2341C80.3591 82.9222 80.479 82.8725 80.5674 82.7842C80.6557 82.6958 80.7054 82.5759 80.7054 82.451V80.4688H74.9869Z" fill="#404040"/>
<path d="M75.0581 90.9074C75.0581 90.3426 75.3536 90.0098 75.765 90.0098C76.1764 90.0098 76.4718 90.3426 76.4718 90.9074C76.4718 91.4721 76.1726 91.8087 75.765 91.8087C75.3573 91.8087 75.0581 91.4721 75.0581 90.9074ZM76.2848 90.9074C76.2848 90.4361 76.0716 90.1594 75.765 90.1594C75.4583 90.1594 75.2451 90.4212 75.2451 90.9074C75.2451 91.3936 75.4545 91.6554 75.765 91.6554C76.0754 91.6554 76.296 91.3824 76.296 90.9074H76.2848Z" fill="#404040"/>
<path d="M78.0912 91.2998C78.0912 91.6139 77.8257 91.8084 77.403 91.8084C76.9804 91.8084 76.7223 91.6139 76.7223 91.2998C76.7207 91.1994 76.7536 91.1015 76.8156 91.0225C76.8776 90.9435 76.9648 90.8882 77.0627 90.8659C76.9833 90.8402 76.914 90.7903 76.8644 90.7233C76.8148 90.6562 76.7873 90.5753 76.7859 90.4919C76.7859 90.2039 77.029 90.0244 77.403 90.0244C77.777 90.0244 78.0276 90.2039 78.0276 90.4919C78.0254 90.5756 77.9972 90.6566 77.947 90.7236C77.8967 90.7906 77.8269 90.8404 77.7471 90.8659C77.8454 90.8881 77.9331 90.9432 77.9957 91.0222C78.0582 91.1011 78.092 91.199 78.0912 91.2998ZM77.9042 91.2998C77.9042 91.0828 77.7172 90.9482 77.403 90.9482C77.0889 90.9482 76.9056 91.0828 76.9056 91.2998C76.9056 91.5167 77.0926 91.6738 77.403 91.6738C77.7135 91.6738 77.9042 91.5167 77.9042 91.296V91.2998ZM77.418 90.7986C77.6947 90.7986 77.8593 90.6752 77.8593 90.4844C77.8593 90.2937 77.6835 90.1628 77.418 90.1628C77.1524 90.1628 76.9804 90.2825 76.9804 90.4807C76.9804 90.6789 77.13 90.7986 77.418 90.7986Z" fill="#404040"/>
<path d="M78.9851 89.6655H79.1496L78.3119 92.0442H78.166L78.9851 89.6655Z" fill="#404040"/>
<path d="M80.41 91.6292V91.7938H79.1683V91.6629L79.9163 90.9448C80.1146 90.7466 80.152 90.6269 80.152 90.5072C80.152 90.3015 80.0098 90.1743 79.7406 90.1743C79.6498 90.1685 79.5589 90.1833 79.4747 90.2177C79.3905 90.252 79.3152 90.305 79.2544 90.3726L79.1272 90.2604C79.207 90.1749 79.3047 90.108 79.4133 90.0647C79.5219 90.0214 79.6388 90.0026 79.7555 90.0098C80.1295 90.0098 80.339 90.1893 80.339 90.4848C80.3352 90.5926 80.3073 90.6983 80.2575 90.7941C80.2077 90.8898 80.1371 90.9733 80.051 91.0383L79.4488 91.6292H80.41Z" fill="#404040"/>
<path d="M81.8274 91.27C81.8274 91.5729 81.618 91.8085 81.1841 91.8085C80.951 91.8155 80.7239 91.734 80.5483 91.5804L80.6381 91.4345C80.7102 91.5032 80.7954 91.5568 80.8885 91.5921C80.9816 91.6274 81.0809 91.6438 81.1804 91.6402C81.4833 91.6402 81.6404 91.4944 81.6404 91.2662C81.6404 91.0381 81.502 90.8922 81.0495 90.8922H80.6755L80.7653 90.0059H81.7339V90.1667H80.9223L80.8625 90.7314H81.0906C81.6255 90.7501 81.8274 90.9596 81.8274 91.27Z" fill="#404040"/>
<path d="M75.8846 88.8838V88.9848H75.1067V87.8853H75.8547V87.99H75.2189V88.364H75.7874V88.465H75.2189V88.8726L75.8846 88.8838Z" fill="#404040"/>
<path d="M76.8308 88.9848L76.4792 88.4986L76.1052 88.9848H75.9706L76.3895 88.4201L76.0155 87.8853H76.1464L76.4792 88.3341L76.8083 87.8853H76.9318L76.5578 88.4163L76.9767 88.9848H76.8308Z" fill="#404040"/>
<path d="M77.9977 88.263C77.9977 88.4949 77.8256 88.637 77.5489 88.637H77.2534V88.9848H77.1375V87.8853H77.5489C77.8256 87.8853 77.9977 88.0274 77.9977 88.263ZM77.8817 88.263C77.8817 88.0872 77.7658 87.9862 77.5451 87.9862H77.2534V88.536H77.5451C77.7658 88.536 77.8817 88.435 77.8817 88.263Z" fill="#404040"/>
<path d="M78.6783 87.8853H79.1234C79.2692 87.8853 79.4091 87.9432 79.5122 88.0463C79.6153 88.1494 79.6732 88.2892 79.6732 88.435C79.6732 88.5808 79.6153 88.7207 79.5122 88.8238C79.4091 88.9269 79.2692 88.9848 79.1234 88.9848H78.6783V87.8853ZM79.1159 88.8838C79.235 88.8838 79.3491 88.8365 79.4333 88.7524C79.5174 88.6682 79.5647 88.5541 79.5647 88.435C79.5647 88.316 79.5174 88.2019 79.4333 88.1177C79.3491 88.0335 79.235 87.9862 79.1159 87.9862H78.7943V88.8838H79.1159Z" fill="#404040"/>
<path d="M80.5746 88.4728V88.9852H80.4661V88.8543C80.4358 88.901 80.3933 88.9385 80.3432 88.9629C80.2931 88.9873 80.2374 88.9976 80.1819 88.9926C79.9986 88.9926 79.8827 88.8954 79.8827 88.7533C79.8827 88.6112 79.965 88.5177 80.2006 88.5177H80.4624V88.469C80.4656 88.4383 80.4617 88.4072 80.4511 88.3782C80.4404 88.3491 80.4232 88.323 80.4008 88.3016C80.3784 88.2803 80.3514 88.2644 80.3218 88.2552C80.2923 88.246 80.2611 88.2436 80.2305 88.2484C80.1296 88.2467 80.0314 88.2812 79.9538 88.3456L79.9051 88.2633C80.0007 88.1876 80.1198 88.1479 80.2417 88.1511C80.286 88.1445 80.3312 88.1482 80.3738 88.1619C80.4164 88.1755 80.4553 88.1988 80.4875 88.2299C80.5196 88.261 80.5442 88.2991 80.5593 88.3412C80.5745 88.3833 80.5797 88.4283 80.5746 88.4728ZM80.4624 88.7346V88.5999H80.2043C80.0435 88.5999 79.9912 88.6635 79.9912 88.7495C79.9912 88.8356 80.0697 88.9029 80.2006 88.9029C80.256 88.9068 80.3113 88.893 80.3584 88.8634C80.4055 88.8338 80.4419 88.79 80.4624 88.7383V88.7346Z" fill="#404040"/>
<path d="M81.3114 88.9327C81.2637 88.9739 81.2022 88.9953 81.1393 88.9926C81.1069 88.996 81.0741 88.9922 81.0433 88.9815C81.0125 88.9707 80.9844 88.9533 80.9612 88.9304C80.9379 88.9075 80.92 88.8797 80.9088 88.8491C80.8976 88.8184 80.8933 88.7857 80.8962 88.7532V88.252H80.7504V88.1585H80.8962V87.9902H81.0084V88.1698H81.259V88.2633H81.0084V88.7382C81.0055 88.7579 81.0071 88.778 81.0131 88.797C81.0191 88.8159 81.0293 88.8333 81.043 88.8477C81.0567 88.8621 81.0735 88.8733 81.0921 88.8802C81.1108 88.8872 81.1307 88.8898 81.1505 88.8878C81.1952 88.8887 81.2388 88.8742 81.274 88.8467L81.3114 88.9327Z" fill="#404040"/>
<path d="M82.2051 88.6073H81.5319C81.5377 88.688 81.5751 88.7632 81.6361 88.8165C81.697 88.8697 81.7766 88.8967 81.8573 88.8916C81.9051 88.8935 81.9527 88.8848 81.9967 88.866C82.0407 88.8473 82.08 88.8189 82.1116 88.7831L82.1752 88.8579C82.1344 88.9021 82.0846 88.937 82.0291 88.9603C81.9736 88.9835 81.9137 88.9945 81.8536 88.9925C81.7969 88.9957 81.7402 88.987 81.6871 88.967C81.634 88.947 81.5856 88.9161 81.5451 88.8763C81.5046 88.8365 81.4729 88.7887 81.452 88.7359C81.431 88.6832 81.4213 88.6266 81.4235 88.5699C81.4204 88.5157 81.4285 88.4614 81.4473 88.4104C81.4661 88.3594 81.4951 88.3129 81.5326 88.2736C81.5702 88.2343 81.6154 88.2032 81.6654 88.1821C81.7155 88.161 81.7693 88.1504 81.8237 88.151C81.8789 88.1467 81.9345 88.1548 81.9863 88.1746C82.0381 88.1944 82.0848 88.2255 82.1231 88.2656C82.1614 88.3056 82.1903 88.3538 82.2077 88.4064C82.2252 88.459 82.2307 88.5149 82.2238 88.5699L82.2051 88.6073ZM81.5132 88.5213H82.1004C82.0923 88.4491 82.0578 88.3825 82.0037 88.3341C81.9495 88.2858 81.8794 88.259 81.8068 88.259C81.7342 88.259 81.6641 88.2858 81.61 88.3341C81.5558 88.3825 81.5214 88.4491 81.5132 88.5213Z" fill="#404040"/>
<path d="M95.9459 90.0244V91.7934H95.7664V90.1852H95.3475V90.0244H95.9459Z" fill="#404040"/>
<path d="M97.5766 91.629V91.7936H96.335V91.6627L97.083 90.9446C97.2812 90.7464 97.3223 90.6267 97.3223 90.507C97.3223 90.3013 97.1765 90.1742 96.9072 90.1742C96.817 90.1684 96.7267 90.1832 96.6431 90.2175C96.5595 90.2519 96.4848 90.3048 96.4247 90.3724L96.2938 90.2602C96.3739 90.1751 96.4717 90.1085 96.5802 90.0652C96.6888 90.022 96.8055 90.003 96.9221 90.0096C97.2961 90.0096 97.5093 90.1891 97.5093 90.4846C97.5035 90.5924 97.4745 90.6978 97.4241 90.7933C97.3738 90.8889 97.3033 90.9724 97.2176 91.0381L96.6155 91.629H97.5766Z" fill="#404040"/>
<path d="M98.9754 91.2848C98.9754 91.5803 98.7585 91.8084 98.3321 91.8084C98.0989 91.8157 97.8716 91.7342 97.6963 91.5803L97.786 91.4344C97.8586 91.5035 97.9444 91.5574 98.0382 91.5927C98.132 91.628 98.2319 91.6441 98.3321 91.6401C98.6276 91.6401 98.7884 91.5055 98.7884 91.2848C98.7884 91.0641 98.6388 90.9332 98.3096 90.9332H98.1825V90.7986L98.6724 90.1852H97.7673V90.0244H98.8893V90.1516L98.3882 90.7799C98.7846 90.8023 98.9754 91.0006 98.9754 91.2848Z" fill="#404040"/>
<path d="M95.4074 88.435C95.4063 88.3598 95.4206 88.2851 95.4494 88.2155C95.4781 88.146 95.5207 88.083 95.5747 88.0305C95.6286 87.978 95.6926 87.9371 95.7629 87.9102C95.8332 87.8832 95.9082 87.8709 95.9834 87.874C96.0576 87.8715 96.1315 87.8846 96.2004 87.9123C96.2693 87.94 96.3317 87.9817 96.3835 88.0348L96.3125 88.1096C96.2699 88.0669 96.2192 88.0333 96.1632 88.0108C96.1073 87.9883 96.0474 87.9774 95.9871 87.9787C95.924 87.973 95.8603 87.9805 95.8002 88.0007C95.7402 88.0209 95.6849 88.0535 95.6381 88.0962C95.5913 88.139 95.5539 88.191 95.5284 88.249C95.5028 88.307 95.4896 88.3697 95.4896 88.4331C95.4896 88.4965 95.5028 88.5592 95.5284 88.6172C95.5539 88.6752 95.5913 88.7273 95.6381 88.77C95.6849 88.8128 95.7402 88.8453 95.8002 88.8656C95.8603 88.8858 95.924 88.8933 95.9871 88.8875C96.0475 88.8898 96.1077 88.8793 96.1637 88.8568C96.2198 88.8342 96.2705 88.8001 96.3125 88.7566L96.3835 88.8314C96.3317 88.8856 96.2688 88.928 96.1991 88.9558C96.1294 88.9835 96.0545 88.9959 95.9796 88.9923C95.9049 88.9953 95.8304 88.9831 95.7606 88.9564C95.6907 88.9297 95.6271 88.889 95.5736 88.8368C95.52 88.7846 95.4776 88.7221 95.4491 88.653C95.4205 88.5839 95.4063 88.5097 95.4074 88.435Z" fill="#404040"/>
<path d="M98.1301 87.8853L97.7561 88.9848H97.6326L97.311 88.0461L96.9894 88.9848H96.8659L96.4919 87.8853H96.6116L96.9295 88.8315L97.2586 87.8853H97.3671L97.6887 88.8352L98.0104 87.8853H98.1301Z" fill="#404040"/>
<path d="M86.136 101.297H85.1486L84.9354 101.772H84.741L85.5488 100.003H85.7358L86.5436 101.772H86.3454L86.136 101.297ZM86.0649 101.147L85.646 100.197L85.2197 101.147H86.0649Z" fill="#404040"/>
<path d="M86.652 101.106C86.6488 101.016 86.6644 100.926 86.6978 100.842C86.7311 100.758 86.7815 100.681 86.8459 100.618C86.9102 100.554 86.987 100.504 87.0714 100.472C87.1558 100.44 87.2461 100.425 87.3364 100.429C87.4389 100.423 87.5411 100.445 87.6325 100.491C87.7239 100.538 87.8012 100.608 87.8563 100.695L87.7254 100.785C87.6835 100.724 87.6276 100.674 87.5625 100.64C87.4975 100.605 87.4251 100.587 87.3514 100.586C87.2135 100.586 87.0813 100.641 86.9838 100.739C86.8863 100.836 86.8315 100.968 86.8315 101.106C86.8315 101.244 86.8863 101.376 86.9838 101.474C87.0813 101.571 87.2135 101.626 87.3514 101.626C87.4247 101.625 87.4968 101.608 87.5618 101.574C87.6268 101.54 87.6829 101.491 87.7254 101.432L87.8563 101.521C87.8001 101.607 87.7226 101.676 87.6314 101.722C87.5401 101.768 87.4384 101.789 87.3364 101.783C87.2461 101.787 87.1558 101.773 87.0714 101.74C86.987 101.708 86.9102 101.658 86.8459 101.595C86.7815 101.531 86.7311 101.455 86.6978 101.371C86.6644 101.287 86.6488 101.197 86.652 101.106Z" fill="#404040"/>
<path d="M88.9222 101.69C88.8433 101.754 88.7435 101.788 88.6417 101.783C88.5917 101.787 88.5416 101.779 88.4948 101.762C88.4479 101.744 88.4053 101.717 88.3699 101.681C88.3345 101.646 88.3071 101.603 88.2894 101.556C88.2718 101.509 88.2644 101.459 88.2677 101.409V100.594H88.0321V100.441H88.264V100.149H88.4435V100.441H88.8511V100.594H88.4435V101.387C88.4388 101.419 88.4414 101.452 88.4513 101.482C88.4611 101.513 88.4778 101.542 88.5002 101.565C88.5225 101.588 88.5499 101.606 88.5803 101.618C88.6106 101.629 88.6431 101.633 88.6754 101.63C88.7472 101.631 88.8173 101.607 88.8736 101.563L88.9222 101.69Z" fill="#404040"/>
<path d="M89.2102 100.022C89.2102 99.9868 89.224 99.9535 89.2485 99.929C89.2731 99.9044 89.3064 99.8906 89.3411 99.8906C89.3758 99.8906 89.4091 99.9044 89.4337 99.929C89.4582 99.9535 89.472 99.9868 89.472 100.022C89.472 100.056 89.4582 100.09 89.4337 100.114C89.4091 100.139 89.3758 100.152 89.3411 100.152C89.3064 100.152 89.2731 100.139 89.2485 100.114C89.224 100.09 89.2102 100.056 89.2102 100.022ZM89.2513 100.44H89.4309V101.772H89.2513V100.44Z" fill="#404040"/>
<path d="M89.7936 101.106C89.7936 100.972 89.8332 100.842 89.9074 100.73C89.9817 100.619 90.0872 100.532 90.2106 100.481C90.3341 100.43 90.47 100.416 90.6012 100.442C90.7325 100.468 90.8531 100.532 90.9479 100.626C91.0427 100.72 91.1075 100.841 91.134 100.972C91.1606 101.103 91.1477 101.239 91.097 101.363C91.0464 101.486 90.9602 101.592 90.8494 101.667C90.7385 101.742 90.608 101.782 90.4743 101.783C90.3844 101.786 90.2948 101.771 90.2111 101.738C90.1273 101.705 90.0512 101.655 89.9874 101.592C89.9236 101.529 89.8735 101.453 89.8402 101.369C89.8069 101.286 89.791 101.196 89.7936 101.106ZM90.9642 101.106C90.9591 101.01 90.9258 100.917 90.8683 100.839C90.8109 100.761 90.7319 100.702 90.6412 100.669C90.5504 100.636 90.4519 100.63 90.3578 100.652C90.2637 100.674 90.1783 100.723 90.112 100.794C90.0457 100.864 90.0015 100.952 89.9849 101.048C89.9683 101.143 89.98 101.241 90.0186 101.329C90.0572 101.418 90.1209 101.493 90.2019 101.546C90.2829 101.599 90.3776 101.627 90.4743 101.626C90.5414 101.627 90.6079 101.613 90.6696 101.587C90.7314 101.561 90.787 101.522 90.833 101.473C90.879 101.424 90.9145 101.367 90.937 101.303C90.9596 101.24 90.9689 101.173 90.9642 101.106Z" fill="#404040"/>
<path d="M92.752 101.002V101.772H92.5725V101.024C92.5799 100.969 92.5749 100.912 92.5577 100.859C92.5406 100.806 92.5118 100.758 92.4734 100.717C92.435 100.677 92.3881 100.645 92.336 100.625C92.2839 100.605 92.228 100.597 92.1723 100.601C92.1089 100.597 92.0452 100.606 91.9858 100.628C91.9264 100.651 91.8726 100.686 91.8284 100.732C91.7841 100.778 91.7504 100.833 91.7297 100.893C91.709 100.953 91.7018 101.017 91.7086 101.08V101.779H91.5291V100.448H91.7011V100.706C91.755 100.622 91.8301 100.554 91.9188 100.509C92.0075 100.464 92.1066 100.443 92.206 100.448C92.2797 100.443 92.3536 100.454 92.4226 100.48C92.4917 100.506 92.5543 100.547 92.6062 100.599C92.658 100.652 92.6979 100.715 92.7231 100.784C92.7483 100.854 92.7581 100.928 92.752 101.002Z" fill="#404040"/>
<path d="M94.1134 100.164V100.859H95.026V101.02H94.1134V101.768H93.9264V99.999H95.1382V100.16L94.1134 100.164Z" fill="#404040"/>
<path d="M95.4224 100.022C95.4224 99.9868 95.4362 99.9535 95.4607 99.929C95.4852 99.9044 95.5185 99.8906 95.5533 99.8906C95.588 99.8906 95.6213 99.9044 95.6458 99.929C95.6704 99.9535 95.6842 99.9868 95.6842 100.022C95.6842 100.056 95.6704 100.09 95.6458 100.114C95.6213 100.139 95.588 100.152 95.5533 100.152C95.5185 100.152 95.4852 100.139 95.4607 100.114C95.4362 100.09 95.4224 100.056 95.4224 100.022ZM95.4598 100.44H95.6393V101.772H95.4598V100.44Z" fill="#404040"/>
<path d="M97.3709 100.44V101.611C97.385 101.701 97.3775 101.793 97.3492 101.88C97.3209 101.967 97.2725 102.046 97.208 102.11C97.1435 102.175 97.0647 102.223 96.978 102.251C96.8913 102.28 96.7991 102.287 96.709 102.273C96.4844 102.283 96.2639 102.211 96.0881 102.071L96.1779 101.933C96.325 102.054 96.5107 102.119 96.7015 102.116C97.0381 102.116 97.1914 101.959 97.1914 101.634V101.454C97.1349 101.538 97.0577 101.606 96.9672 101.651C96.8768 101.696 96.7763 101.717 96.6753 101.712C96.5864 101.719 96.4971 101.707 96.413 101.678C96.3289 101.649 96.2517 101.602 96.1864 101.542C96.121 101.481 96.0689 101.408 96.0332 101.326C95.9975 101.244 95.9791 101.156 95.9791 101.067C95.9791 100.978 95.9975 100.89 96.0332 100.808C96.0689 100.726 96.121 100.653 96.1864 100.592C96.2517 100.532 96.3289 100.485 96.413 100.456C96.4971 100.427 96.5864 100.415 96.6753 100.422C96.778 100.418 96.88 100.44 96.9716 100.486C97.0633 100.533 97.1415 100.602 97.1989 100.687V100.433L97.3709 100.44ZM97.1989 101.073C97.2019 100.972 97.1748 100.873 97.1212 100.788C97.0675 100.703 96.9898 100.636 96.8978 100.596C96.8058 100.555 96.7039 100.543 96.605 100.561C96.5061 100.578 96.4147 100.625 96.3426 100.695C96.2705 100.765 96.2209 100.855 96.2002 100.953C96.1794 101.052 96.1885 101.154 96.2263 101.247C96.264 101.34 96.3287 101.42 96.412 101.476C96.4953 101.532 96.5935 101.562 96.694 101.562C96.7595 101.567 96.8251 101.557 96.8867 101.535C96.9484 101.512 97.0047 101.477 97.0521 101.432C97.0996 101.387 97.1371 101.332 97.1624 101.271C97.1876 101.211 97.2001 101.146 97.1989 101.08V101.073Z" fill="#404040"/>
<path d="M99.0726 100.441V101.772H98.9006V101.529C98.851 101.61 98.7803 101.677 98.6961 101.722C98.6119 101.767 98.5171 101.788 98.4219 101.783C98.3454 101.79 98.2683 101.78 98.1963 101.754C98.1242 101.728 98.0589 101.686 98.0051 101.631C97.9514 101.576 97.9105 101.51 97.8856 101.437C97.8606 101.365 97.8522 101.287 97.8609 101.211V100.441H98.0404V101.189C98.0323 101.244 98.0369 101.301 98.0538 101.354C98.0706 101.408 98.0994 101.457 98.1378 101.498C98.1763 101.539 98.2234 101.571 98.2759 101.591C98.3283 101.611 98.3846 101.619 98.4405 101.615C98.5034 101.618 98.5662 101.607 98.6245 101.584C98.6829 101.56 98.7354 101.524 98.7785 101.478C98.8215 101.433 98.8541 101.378 98.8739 101.318C98.8937 101.258 98.9002 101.195 98.8931 101.132V100.433L99.0726 100.441Z" fill="#404040"/>
<path d="M100.232 100.429V100.605H100.187C100.124 100.602 100.06 100.613 100.001 100.638C99.9425 100.662 99.8898 100.699 99.847 100.747C99.8041 100.794 99.7722 100.85 99.7534 100.911C99.7347 100.971 99.7295 101.036 99.7384 101.099V101.776H99.5588V100.444H99.7309V100.706C99.7774 100.615 99.8499 100.54 99.9392 100.491C100.028 100.442 100.13 100.42 100.232 100.429Z" fill="#404040"/>
<path d="M101.728 101.162H100.606C100.61 101.227 100.626 101.291 100.655 101.349C100.683 101.408 100.723 101.46 100.771 101.503C100.82 101.546 100.877 101.579 100.938 101.6C101 101.621 101.065 101.63 101.13 101.626C101.206 101.628 101.282 101.614 101.353 101.583C101.423 101.553 101.486 101.508 101.537 101.45L101.638 101.566C101.543 101.666 101.42 101.736 101.285 101.767C101.15 101.798 101.009 101.788 100.88 101.739C100.75 101.69 100.638 101.603 100.558 101.491C100.477 101.378 100.431 101.245 100.426 101.106C100.422 101.018 100.435 100.93 100.466 100.848C100.497 100.766 100.544 100.69 100.605 100.627C100.666 100.563 100.739 100.513 100.821 100.479C100.902 100.445 100.989 100.428 101.077 100.429C101.165 100.428 101.252 100.444 101.333 100.478C101.415 100.512 101.488 100.562 101.548 100.626C101.609 100.69 101.655 100.765 101.685 100.848C101.715 100.931 101.727 101.019 101.72 101.106C101.72 101.106 101.728 101.14 101.728 101.162ZM100.606 101.028H101.548C101.548 100.903 101.499 100.783 101.41 100.695C101.322 100.606 101.202 100.556 101.077 100.556C100.952 100.556 100.832 100.606 100.744 100.695C100.656 100.783 100.606 100.903 100.606 101.028Z" fill="#404040"/>
<path d="M86.9288 108.867V109.645H86.2369V108.897C85.6187 108.877 85.0185 108.684 84.5052 108.339L84.8792 107.494C85.2788 107.773 85.7441 107.943 86.2294 107.988V106.828C85.4552 106.638 84.595 106.383 84.595 105.389C84.595 104.641 85.1298 104.02 86.2294 103.893V103.122H86.9213V103.87C87.4184 103.898 87.9017 104.044 88.3312 104.296L87.9834 105.149C87.6575 104.956 87.2965 104.829 86.9213 104.775V105.957C87.6917 106.137 88.5407 106.395 88.5407 107.374C88.5482 108.111 88.0208 108.736 86.9288 108.867ZM86.2369 105.8V104.82C85.8629 104.902 85.7207 105.104 85.7207 105.332C85.7207 105.561 85.9302 105.703 86.2369 105.8ZM87.4299 107.472C87.4299 107.229 87.228 107.098 86.9288 106.993V107.95C87.2766 107.876 87.4299 107.696 87.4299 107.472Z" fill="#404040"/>
<path d="M92.6435 107.894V108.814H88.9709V108.085L90.8409 106.312C91.2747 105.901 91.3495 105.654 91.3495 105.415C91.3495 105.041 91.084 104.813 90.5716 104.813C90.3769 104.805 90.1833 104.845 90.0079 104.93C89.8325 105.015 89.6806 105.142 89.5655 105.299L88.7465 104.771C88.9679 104.472 89.2602 104.233 89.5971 104.075C89.9339 103.917 90.3048 103.845 90.6763 103.866C91.7609 103.866 92.4827 104.424 92.4827 105.306C92.4827 105.777 92.3481 106.208 91.6674 106.84L90.5454 107.894H92.6435Z" fill="#404040"/>
<path d="M93.0961 106.383C93.0961 104.779 93.9862 103.866 95.1793 103.866C96.3723 103.866 97.2624 104.779 97.2624 106.383C97.2624 107.988 96.3798 108.896 95.1793 108.896C93.9787 108.896 93.0961 107.988 93.0961 106.383ZM96.133 106.383C96.133 105.261 95.759 104.82 95.1793 104.82C94.5996 104.82 94.2368 105.276 94.2368 106.383C94.2368 107.49 94.6108 107.943 95.1793 107.943C95.7477 107.943 96.118 107.487 96.118 106.383H96.133Z" fill="#404040"/>
<path d="M97.8123 106.383C97.8123 104.779 98.7024 103.866 99.8954 103.866C101.088 103.866 101.979 104.779 101.979 106.383C101.979 107.988 101.096 108.896 99.8954 108.896C98.6949 108.896 97.8123 107.988 97.8123 106.383ZM100.845 106.383C100.845 105.261 100.471 104.82 99.8954 104.82C99.3195 104.82 98.9492 105.276 98.9492 106.383C98.9492 107.49 99.3232 107.943 99.8954 107.943C100.468 107.943 100.845 107.487 100.845 106.383Z" fill="#404040"/>
<path d="M101.036 121.194H85.53C84.5682 121.193 83.646 120.81 82.9659 120.13C82.2857 119.45 81.9032 118.528 81.9022 117.566C81.9022 116.604 82.2843 115.68 82.9646 115C83.6448 114.319 84.5675 113.936 85.53 113.935H101.036C101.513 113.935 101.985 114.029 102.425 114.211C102.866 114.394 103.266 114.661 103.603 114.998C103.94 115.336 104.207 115.736 104.389 116.177C104.571 116.617 104.664 117.089 104.664 117.566C104.664 118.528 104.282 119.451 103.601 120.131C102.921 120.812 101.998 121.194 101.036 121.194Z" fill="#404040"/>
<path d="M88.3089 117.162C88.3089 117.618 87.9797 117.891 87.4374 117.891H86.8615V118.564H86.6371V116.433H87.4374C87.9797 116.448 88.3089 116.721 88.3089 117.162ZM88.0807 117.162C88.0807 116.822 87.8563 116.627 87.43 116.627H86.8615V117.693H87.43C87.8563 117.708 88.0807 117.513 88.0807 117.162Z" fill="white"/>
<path d="M89.9433 117.585V118.58H89.7376V118.329C89.6773 118.419 89.5942 118.49 89.4969 118.537C89.3996 118.584 89.2916 118.604 89.184 118.595C88.81 118.595 88.6006 118.408 88.6006 118.127C88.6006 117.847 88.7577 117.674 89.2177 117.674H89.7264V117.577C89.7264 117.304 89.573 117.155 89.2738 117.155C89.079 117.152 88.8895 117.218 88.739 117.342L88.6417 117.181C88.8278 117.034 89.0594 116.957 89.2962 116.964C89.3818 116.951 89.4691 116.959 89.5514 116.985C89.6338 117.012 89.709 117.056 89.7714 117.116C89.8338 117.176 89.8817 117.249 89.9115 117.331C89.9413 117.412 89.9521 117.499 89.9433 117.585ZM89.7264 118.097V117.835H89.2252C88.9148 117.835 88.8138 117.959 88.8138 118.123C88.8138 118.288 88.9634 118.426 89.2177 118.426C89.3266 118.433 89.4348 118.405 89.5264 118.346C89.618 118.286 89.6881 118.199 89.7264 118.097Z" fill="white"/>
<path d="M91.847 116.975L91.0466 118.77C90.912 119.085 90.7437 119.186 90.5155 119.186C90.3734 119.185 90.2368 119.13 90.134 119.032L90.235 118.871C90.2727 118.911 90.318 118.942 90.3681 118.963C90.4183 118.984 90.4723 118.995 90.5267 118.995C90.6726 118.995 90.7698 118.928 90.8596 118.726L90.9307 118.568L90.2126 116.968H90.4407L91.0429 118.333L91.63 116.975H91.847Z" fill="white"/>
<path d="M93.6757 118.594V118.946H93.5224V118.598C93.254 118.596 92.9953 118.498 92.7931 118.321L92.8829 118.146C93.0597 118.303 93.2857 118.394 93.5224 118.404V117.603C93.1858 117.521 92.8455 117.416 92.8455 117.012C92.8455 116.721 93.0549 116.466 93.5224 116.433V116.081H93.6757V116.414C93.8948 116.418 94.1085 116.482 94.2928 116.601L94.218 116.78C94.0545 116.678 93.8682 116.618 93.6757 116.605V117.413C94.0198 117.495 94.3826 117.592 94.3826 118C94.3826 118.31 94.1582 118.568 93.6757 118.594ZM93.5224 117.39V116.642C93.2082 116.668 93.0661 116.829 93.0661 117.016C93.0661 117.203 93.2718 117.323 93.5224 117.39ZM94.1582 118.03C94.1582 117.787 93.9375 117.704 93.6757 117.656V118.404C94.0086 118.377 94.1582 118.224 94.1582 118.03Z" fill="white"/>
<path d="M96.1405 118.385V118.58H94.6445V118.426L95.5308 117.555C95.7702 117.319 95.8151 117.181 95.8151 117.028C95.8151 116.781 95.643 116.631 95.3177 116.631C95.2091 116.626 95.1007 116.644 95 116.685C94.8992 116.725 94.8085 116.787 94.7342 116.867L94.5771 116.732C94.6727 116.631 94.789 116.551 94.9181 116.499C95.0472 116.447 95.186 116.423 95.3251 116.429C95.7552 116.429 96.032 116.65 96.032 117.005C96.0266 117.135 95.9923 117.263 95.9315 117.378C95.8706 117.493 95.7849 117.593 95.6804 117.671L94.9549 118.385H96.1405Z" fill="white"/>
<path d="M96.4022 117.514C96.4022 116.833 96.7575 116.429 97.2512 116.429C97.7449 116.429 98.1039 116.833 98.1039 117.514C98.1039 118.194 97.7299 118.598 97.2512 118.598C96.7725 118.598 96.4022 118.194 96.4022 117.514ZM97.8795 117.514C97.8795 116.945 97.6252 116.631 97.2512 116.631C96.8772 116.631 96.6229 116.945 96.6229 117.514C96.6229 118.082 96.8809 118.396 97.2512 118.396C97.6215 118.396 97.8795 118.082 97.8795 117.514Z" fill="white"/>
<path d="M98.4181 117.514C98.4181 116.833 98.7921 116.429 99.2708 116.429C99.7495 116.429 100.124 116.833 100.124 117.514C100.124 118.194 99.7495 118.598 99.2708 118.598C98.7921 118.598 98.4181 118.194 98.4181 117.514ZM99.9141 117.514C99.9141 116.945 99.6598 116.631 99.2895 116.631C98.9192 116.631 98.6612 116.945 98.6612 117.514C98.6612 118.082 98.9155 118.396 99.2895 118.396C99.6635 118.396 99.8954 118.082 99.8954 117.514H99.9141Z" fill="white"/>
<path d="M69.8221 109.772C70.3831 118.393 66.3888 127.993 66.3888 127.993L44.8127 121.92L41.0503 120.857C44.7903 115.663 46.5705 105.43 45.5944 97.1495C45.5196 96.525 45.4747 95.9378 45.4411 95.3768C45.0671 88.5475 47.9057 86.5504 50.303 83.5322C52.921 80.2634 58.748 67.9214 58.748 65.0005C58.748 62.0796 66.0597 54.9287 64.4328 46.8129C64.4328 46.8129 66.6431 45.4403 68.8647 46.566C69.8745 47.0747 70.8805 48.0957 71.6921 49.9881C73.5958 54.435 70.9217 67.0051 68.6477 70.0869L64.2682 88.2184C64.2682 88.2184 65.7455 90.7654 67.1966 95.388C68.6391 100.062 69.5205 104.89 69.8221 109.772Z" fill="white"/>
<path opacity="0.4" d="M45.4409 95.3765C46.6639 98.7238 47.9617 100.986 47.8495 105.676C47.7373 110.366 45.2315 117.585 45.9458 121.336C45.5378 121.456 45.1568 121.654 44.8238 121.919L41.0614 120.857C44.8014 115.662 46.5816 105.43 45.6055 97.1492C45.5195 96.5246 45.4746 95.9375 45.4409 95.3765Z" fill="#FAC173"/>
<path opacity="0.4" d="M68.6477 70.0868L64.2681 88.2183C64.2681 88.2183 65.7454 90.7652 67.1965 95.3879C64.2307 90.6082 61.71 89.1795 61.71 89.1795C63.6847 86.8121 65.2069 69.4959 65.2069 69.4959C65.2069 69.4959 71.3966 62.2216 70.8169 54.6107C70.6308 51.8372 69.9705 49.1162 68.8646 46.5659C69.8744 47.0746 70.8804 48.0956 71.692 49.988C73.5957 54.4349 70.9216 67.005 68.6477 70.0868Z" fill="#FAC173"/>
<path d="M41.0503 120.857C44.7903 115.662 46.5705 105.43 45.5981 97.1492C44.6257 88.8688 47.7075 86.7969 50.3068 83.5281C52.9061 80.2593 58.748 67.9211 58.748 64.9964C58.748 62.0717 66.0559 54.9321 64.4328 46.8125C64.4328 46.8125 69.0965 43.9215 71.6921 49.9878C73.5958 54.4384 70.9217 67.0048 68.6477 70.0903L64.2719 88.2181C64.2719 88.2181 68.9432 96.2778 69.8221 109.772C70.3831 118.392 66.3888 127.997 66.3888 127.997" stroke="#404040" stroke-linecap="round" stroke-linejoin="round"/>
<path d="M55.4717 134.894C55.4717 134.894 60.3823 137.915 63.2471 142.695" stroke="#404040" stroke-linecap="round" stroke-linejoin="round"/>
<path d="M69.2647 140.612C69.2647 140.612 65.0348 141.214 61.2125 136.64C58.7628 133.712 51.324 132.388 49.6185 124.728" stroke="#404040" stroke-linecap="round" stroke-linejoin="round"/>
<path opacity="0.2" d="M130.743 163.261C119.916 158.081 126.472 153.93 111.575 147.501C96.679 141.072 96.5294 135.577 98.3246 122.944C100.12 110.31 98.6986 96.8722 103.03 95.7315C107.36 94.5908 99.6411 77.1661 104.69 71.0063L129.539 119.342L130.743 163.261Z" fill="black" fill-opacity="0.7"/>
<path d="M171.086 162.756C170.578 161.301 170.062 159.712 169.661 158.268C169.145 156.398 168.741 154.902 167.791 153.163C167.642 152.886 167.481 152.595 167.301 152.281C166.288 150.474 164.9 148.002 164.089 144.965C163.543 142.919 164.089 137.882 164.597 132.997C164.971 129.489 165.312 126.179 165.211 124.302L165.181 123.636C164.927 118.725 164.396 108.508 163.311 105.684C162.245 102.961 161.25 102.553 159.436 101.828C159.249 101.746 159.062 101.671 158.845 101.581C158.165 101.297 157.005 100.698 155.67 100.007C152.659 98.447 148.912 96.5059 147.008 96.2666C145.227 96.0664 143.426 96.1497 141.671 96.5134C139.326 94.7145 135.336 92.3994 134.146 92.3508C133.174 92.3022 131.05 92.9118 130.032 93.2297L129.52 93.3942C128.876 92.8946 128.193 92.4469 127.478 92.0553C127.429 92.0291 127.381 92.0104 127.34 91.9917C126.019 91.4494 124.026 91.4307 122.938 91.4607C122.608 91.4607 122.35 91.4943 122.234 91.5055C120.181 88.3452 118.162 85.1999 117.283 83.8198C115.45 80.9176 109.777 68.9758 109.72 68.8598C109.714 68.8444 109.704 68.8309 109.691 68.8205C109.678 68.81 109.662 68.803 109.646 68.8C109.628 68.7976 109.611 68.7976 109.593 68.8C109.152 68.6728 105.902 67.8463 104.597 70.9954C103.168 74.425 105.206 81.9536 107.196 84.6875C108.153 86.004 110.768 91.3746 113.419 96.9323C112.739 97.5643 107.293 102.595 104.649 103.533C102.484 104.3 102.992 115.4 103.4 124.313C103.553 127.604 103.68 130.435 103.643 132.137C103.568 135.428 109.556 139.961 115.36 144.344C120.596 148.316 126.027 152.419 126.663 155.4C126.838 156.237 127.34 156.918 127.938 157.685C128.937 158.956 130.223 160.456 130.769 163.295C130.93 164.148 132.299 165.262 133.387 167.083H172.672C172.343 166.197 171.722 164.581 171.086 162.756ZM116.606 103.627C118.509 107.614 119.688 109.985 119.972 110.25C120.256 110.516 120.237 111.78 120.23 113.011C120.189 114.088 120.226 115.166 120.342 116.238C119.878 116.646 116.95 119.312 116.359 121.474L113.872 118.546L113.244 109.357C113.618 108.96 116.176 106.256 116.606 103.627Z" fill="white"/>
<path opacity="0.4" d="M159.814 129.246C160.738 137.866 160.749 142.541 161.785 145.036C163.535 149.247 166.112 150.1 166.112 150.1C165.255 148.468 164.574 146.749 164.081 144.972C163.539 142.927 164.081 137.889 164.59 133.004C164.964 129.496 165.308 126.183 165.211 124.305L165.177 123.639C164.923 118.732 164.392 108.515 163.307 105.687C162.245 102.965 161.246 102.557 159.433 101.828C159.246 101.749 159.059 101.674 158.842 101.585C158.161 101.3 157.005 100.702 155.666 100.01C152.656 98.4505 148.908 96.5094 147.005 96.27C145.224 96.0676 143.422 96.1509 141.668 96.5169C139.323 94.7179 135.332 92.4029 134.143 92.3543C133.17 92.3056 130.534 93.0723 129.509 93.3977C133.997 97.0592 140.46 101.626 140.46 101.626C145.572 102.643 144.918 104.861 146.986 106.114C148.856 107.236 150.644 103.952 152.222 103.664C154.286 103.29 156.631 105.467 156.527 108.107C156.205 115.381 159.021 121.844 159.814 129.246Z" fill="#FAC173"/>
<path opacity="0.4" d="M133.971 102.531C133.971 102.531 129.92 99.1651 127.987 98.0431C126.053 96.9211 125.743 93.054 127.269 92.1152C127.327 92.0804 127.392 92.0599 127.459 92.0554L127.321 91.9918C126.001 91.4495 124.007 91.4271 122.919 91.4607C125.163 95.6383 126.954 98.8435 127.437 99.5466C129.064 101.895 133.971 102.531 133.971 102.531Z" fill="#FAC173"/>
<path opacity="0.4" d="M127.826 154.876C127.998 153.982 126.524 151.364 125.877 150.302C124.407 147.879 107.342 132.799 109.814 128.775C112.286 124.75 114.545 127.727 116.108 127.989C117.23 128.176 120.312 126.34 120.297 126.187C119.946 123.086 122.807 121.07 122.807 121.07C122.807 121.07 122.545 108.728 121.887 108.938C121.228 109.147 113.352 90.406 113.352 90.406C113.352 90.406 105.027 79.3356 105.498 74.1706C105.969 69.0057 109.582 68.9159 109.582 68.9159V68.7775C109.141 68.6504 105.891 67.8238 104.585 70.9729C103.157 74.4025 105.195 81.9311 107.185 84.6651C108.142 85.9815 110.756 91.3522 113.408 96.9098C112.727 97.5419 107.282 102.572 104.638 103.511C102.472 104.278 102.981 115.378 103.389 124.29C103.542 127.582 103.669 130.413 103.632 132.114C103.557 135.406 109.545 139.939 115.349 144.322C120.585 148.294 126.016 152.396 126.651 155.377C126.827 156.215 127.328 156.896 127.927 157.662C127.808 156.739 127.774 155.806 127.826 154.876ZM116.606 103.638C118.509 107.625 119.688 109.996 119.972 110.262C120.256 110.527 120.237 111.791 120.23 113.022C120.189 114.099 120.226 115.178 120.342 116.249C119.878 116.657 116.95 119.324 116.359 121.485L113.872 118.557L113.243 109.368C113.617 108.96 116.176 106.256 116.606 103.627V103.638Z" fill="#FAC173"/>
<path d="M131.648 102.483C129.977 101.957 128.508 100.927 127.444 99.5354C125.735 97.2466 119.022 86.8194 117.163 83.8798C115.304 80.9402 109.582 68.9161 109.582 68.9161C109.582 68.9161 106.066 67.738 104.698 71.0217C103.329 74.3054 105.202 81.7256 107.286 84.5829C109.369 87.4403 119.269 109.443 120.054 110.153C120.839 110.864 119.661 116.736 121.236 118.157" stroke="#404040" stroke-linecap="round" stroke-linejoin="round"/>
<path d="M120.48 116.29C120.48 116.29 116.853 119.451 116.426 121.758L113.733 118.59L113.098 109.308C113.098 109.308 116.348 106.054 116.527 103.159" stroke="#404040" stroke-linecap="round" stroke-linejoin="round"/>
<path d="M113.558 96.9209C113.558 96.9209 107.532 102.606 104.668 103.619C101.803 104.633 103.893 125.932 103.751 132.099C103.609 138.267 125.425 149.012 126.764 155.325C127.295 157.838 129.494 158.35 130.836 163.179" stroke="#404040" stroke-linecap="round" stroke-linejoin="round"/>
<path d="M122.134 91.6289C122.134 91.6289 125.414 91.3335 127.261 92.1039C129.109 92.8743 136.611 99.3183 138.421 100.549C140.231 101.779 142.954 102.247 143.47 103.574" stroke="#404040" stroke-linecap="round" stroke-linejoin="round"/>
<path d="M129.468 93.5288C129.468 93.5288 132.834 92.4068 134.12 92.4704C135.407 92.534 140.246 95.3876 142.416 97.295C144.078 98.7697 145.992 99.9327 148.067 100.728" stroke="#404040" stroke-linecap="round" stroke-linejoin="round"/>
<path d="M141.626 96.6479C143.383 96.2698 145.19 96.1826 146.975 96.3899C149.712 96.7639 156.586 100.803 158.778 101.716C160.97 102.628 162.017 102.796 163.169 105.744C164.321 108.691 164.848 119.896 165.08 124.324C165.312 128.752 163.004 141.434 163.958 145.002C164.912 148.57 166.632 151.323 167.675 153.23" stroke="#404040" stroke-linecap="round" stroke-linejoin="round"/>
<path d="M113.098 109.308C113.098 109.308 112.574 107.12 111.826 106.839" stroke="#404040" stroke-linecap="round" stroke-linejoin="round"/>
<path d="M113.733 118.591C113.986 119.866 114.327 121.122 114.754 122.35C115.293 123.677 114.455 125.6 114.455 125.6" stroke="#404040" stroke-linecap="round" stroke-linejoin="round"/>
<path d="M116.426 121.758C116.34 123.883 118.453 126.366 118.966 126.014" stroke="#404040" stroke-linecap="round" stroke-linejoin="round"/>
<path d="M127.186 109.308C127.186 109.308 129.456 105.635 131.633 105.456C133.81 105.276 136.323 108.365 137.666 108.074C139.008 107.782 140.699 105.807 142.958 105.456C145.217 105.104 146.275 106.181 148.067 106.271C149.858 106.361 150.041 103.967 152.181 103.653C154.32 103.339 155.049 104.401 156.485 104.678C157.922 104.954 158.281 103.821 159.444 103.182" stroke="#404040" stroke-linecap="round" stroke-linejoin="round"/>
</svg>
